<svg id="Layer_1" data-name="Layer 1" xmlns="http://www.w3.org/2000/svg" viewBox="0 0 1920 1080"><defs><style>.cls-1{fill:#0e1e41;}.cls-2{fill:#67c3c8;}</style></defs><title>IKON</title><path class="cls-1" d="M565.6,784.34H82.68V301.41H565.6ZM121,746H527.28V339.74H121Z"/><path class="cls-1" d="M510,728.76H138.26V357H510ZM176.58,690.43H471.7V395.32H176.58Z"/><polygon class="cls-2" points="427.63 776.67 138.89 535.13 418.05 301.41 481.29 301.41 198.95 535.29 487.03 776.67 427.63 776.67"/><polygon class="cls-2" points="511.95 776.67 234.71 535.13 510.03 301.41 565.6 301.41 294.77 535.29 575.19 776.67 511.95 776.67"/><rect class="cls-1" x="717" y="301.41" width="26.83" height="297.04"/><rect class="cls-1" x="755.32" y="301.41" width="26.83" height="297.04"/><rect class="cls-1" x="820.48" y="301.41" width="26.83" height="297.04"/><polygon class="cls-1" points="889.47 402.98 862.64 420.23 862.64 301.41 889.47 301.41 889.47 402.98"/><polygon class="cls-1" points="889.47 598.45 862.64 598.45 862.64 458.56 889.47 479.63 889.47 598.45"/><polygon class="cls-1" points="1033.19 590.78 865.41 443.28 1029.36 295.67 1071.52 295.67 905.86 443.16 1071.52 590.78 1033.19 590.78"/><polygon class="cls-1" points="1084.94 590.78 917.15 443.28 1083.02 295.67 1123.26 295.67 957.6 443.16 1123.26 590.78 1084.94 590.78"/><path class="cls-1" d="M1487.37,600.37H1178.84V299.5h308.53Zm-281.7-26.83h254.87V326.33H1205.67Z"/><path class="cls-1" d="M1444,558.21H1222.18V341.66H1444Zm-195-26.83H1417.2V368.49H1249Z"/><polygon class="cls-1" points="1836.15 598.45 1809.32 598.45 1809.32 326.33 1554.44 326.33 1554.44 598.45 1527.62 598.45 1527.62 299.5 1836.15 299.5 1836.15 598.45"/><polygon class="cls-1" points="1792.81 598.45 1765.98 598.45 1765.98 368.49 1597.78 368.49 1597.78 598.45 1570.95 598.45 1570.95 341.66 1792.81 341.66 1792.81 598.45"/><path class="cls-1" d="M717.58,777.14V668.32H732V777.14Z"/><path class="cls-1" d="M928,670.49h43.68q16.44,0,29.17,6.51a47.91,47.91,0,0,1,19.77,18.29q7,11.78,7,27t-7,27a47.89,47.89,0,0,1-19.77,18.28q-12.73,6.52-29.17,6.52H928Zm42.79,90.77a48,48,0,0,0,22.14-4.89,35.25,35.25,0,0,0,14.73-13.7,42.53,42.53,0,0,0,0-40.72,35.23,35.23,0,0,0-14.73-13.69,48,48,0,0,0-22.14-4.89h-28v77.89Z"/><path class="cls-1" d="M1288.71,761.26v12.88h-75.22V670.49h73.15v12.88H1228.3v31.84h52v12.58h-52v33.47Z"/><path class="cls-1" d="M1557,761.26v12.88h-75.22V670.49h73.15v12.88h-58.34v31.84h52v12.58h-52v33.47Z"/><path class="cls-1" d="M1810.37,748.23h-55.09l-11.4,25.91h-15.25l46.94-103.65h14.66l47.09,103.65h-15.55Zm-5.19-11.85-22.36-50.79-22.35,50.79Z"/></svg>