<svg id="Layer_1" data-name="Layer 1" xmlns="http://www.w3.org/2000/svg" viewBox="0 0 1920 1080"><defs><style>.cls-1{fill:#e33a25;}</style></defs><title>IRSAP</title><path class="cls-1" d="M234.41,738.69H108.86V341.31H234.41Z"/><path class="cls-1" d="M687.2,604.05c34,20.92,85.62,39.87,130.07,39.87,26.14,0,52.94-2,52.94-20.91,0-12.42-7.84-15.69-21.57-19.61L787.2,587.72c-75.82-20.27-111.12-56.22-111.12-122.89,0-85.62,70.6-132,161.45-132,59.48,0,96.74,11.77,130.72,28.76V474c-37.91-24.84-79.09-38.57-124.19-38.57-24.18,0-42.48,4.58-42.48,17.65,0,11.76,8.5,16.34,22.22,19.61l57.52,15.68c79.74,22.88,116.35,63.41,116.35,126.15,0,94.78-81.7,132.69-176.48,132.69-53.6,0-103.27-15-134-31.38Z"/><path class="cls-1" d="M1598.87,630V738.69H1475.25V341.31h186.39c88,0,149.5,51.78,149.5,144.32S1749.66,630,1661.64,630Zm46-184.45h-46v80.25h46c32.35,0,45.3-15.53,45.3-40.13S1677.17,445.51,1644.82,445.51Z"/><path class="cls-1" d="M414.08,624.78V738.69H290.47V341.31H484c87.37,0,149.5,53.07,149.5,145,0,56.31-25.89,97.73-68,119.74l82.2,132.67H509.87L443.2,624.78Zm0-98.37h53.07c32.36,0,44.66-16.18,44.66-40.13,0-24.59-12.3-40.77-44.66-40.77H414.08Z"/><path class="cls-1" d="M1288.86,341.31H1158.13L1008,738.69h123l20.71-57.6h139.79l20.71,57.6H1439ZM1186.54,580.72l35-96.81,35,96.81Z"/></svg>