<svg id="Layer_1" data-name="Layer 1" xmlns="http://www.w3.org/2000/svg" viewBox="0 0 1920 1080"><defs><style>.cls-1{fill:#1d9cd7;}</style></defs><title>Marina</title><polygon class="cls-1" points="507.11 217.93 566.19 269.42 566.19 415.1 507.11 415.1 507.11 217.93"/><polygon class="cls-1" points="634.52 328.97 634.52 415.1 579 415.1 579 280.58 634.52 328.97"/><polygon class="cls-1" points="776.17 217.93 717.09 269.42 717.09 415.1 776.17 415.1 776.17 217.93"/><polygon class="cls-1" points="648.76 328.97 648.76 415.1 704.28 415.1 704.28 280.58 648.76 328.97"/><polygon class="cls-1" points="507.11 897.71 566.19 846.21 566.19 700.53 507.11 700.53 507.11 897.71"/><polygon class="cls-1" points="634.52 786.66 634.52 700.53 579 700.53 579 835.05 634.52 786.66"/><polygon class="cls-1" points="776.17 897.71 717.09 846.21 717.09 700.53 776.17 700.53 776.17 897.71"/><polygon class="cls-1" points="648.76 786.66 648.76 700.53 704.28 700.53 704.28 835.05 648.76 786.66"/><polygon class="cls-1" points="302.82 691.99 354.31 632.91 499.99 632.91 499.99 691.99 302.82 691.99"/><polygon class="cls-1" points="413.86 564.58 499.99 564.58 499.99 620.1 365.48 620.1 413.86 564.58"/><polygon class="cls-1" points="302.82 422.93 354.31 482.01 499.99 482.01 499.99 422.93 302.82 422.93"/><polygon class="cls-1" points="413.86 550.34 499.99 550.34 499.99 494.82 365.48 494.82 413.86 550.34"/><polygon class="cls-1" points="979.04 691.99 927.55 632.91 781.87 632.91 781.87 691.99 979.04 691.99"/><polygon class="cls-1" points="868 564.58 781.87 564.58 781.87 620.1 916.39 620.1 868 564.58"/><polygon class="cls-1" points="979.04 422.93 927.55 482.01 781.87 482.01 781.87 422.93 979.04 422.93"/><polygon class="cls-1" points="868 550.34 781.87 550.34 781.87 494.82 916.39 494.82 868 550.34"/><path d="M469.72,163.42V88.08h15l17.84,53.35q2.46,7.45,3.59,11.15,1.29-4.11,4-12.08l18-52.42h13.42v75.34H532V100.36l-21.9,63.06h-9L479.34,99.28v64.14Z"/><path d="M546.28,163.42l28.94-75.34H586l30.83,75.34H605.43l-8.78-22.81H565.14l-8.27,22.81ZM568,132.48h25.54l-7.86-20.86q-3.6-9.51-5.35-15.63a95.76,95.76,0,0,1-4.06,14.39Z"/><path d="M621.75,163.42V88.08h33.41q10.08,0,15.32,2a16.68,16.68,0,0,1,8.37,7.17A21.4,21.4,0,0,1,682,108.64a18.93,18.93,0,0,1-5.19,13.51q-5.19,5.5-16,7a25.72,25.72,0,0,1,6,3.76,51.61,51.61,0,0,1,8.27,10l13.11,20.5H675.62l-10-15.67c-2.92-4.52-5.31-8-7.2-10.39a22.68,22.68,0,0,0-5.06-5,15.07,15.07,0,0,0-4.55-2,29.92,29.92,0,0,0-5.55-.36H631.73v33.46Zm10-42.09h21.43a32.2,32.2,0,0,0,10.69-1.41,11.39,11.39,0,0,0,5.86-4.52,12.31,12.31,0,0,0,2-6.76,11.22,11.22,0,0,0-3.88-8.79q-3.89-3.45-12.26-3.45H631.73Z"/><path d="M696.15,163.42V88.08h10v75.34Z"/><path d="M720.44,163.42V88.08h10.23l39.57,59.15V88.08h9.56v75.34H769.57L730,104.22v59.2Z"/><path d="M785.12,163.42l28.94-75.34H824.8l30.84,75.34H844.28l-8.79-22.81H804l-8.28,22.81Zm21.74-30.94h25.55l-7.87-20.86q-3.6-9.51-5.34-15.63a95.76,95.76,0,0,1-4.06,14.39Z"/><path d="M880.73,163.42V88.08h28.42a68.6,68.6,0,0,1,11.46.72,22.74,22.74,0,0,1,9.3,3.52,18.5,18.5,0,0,1,6,7.27,24.51,24.51,0,0,1-3.83,26.55q-6.12,6.64-22.1,6.65H890.69v30.63Zm10-39.52h19.48q9.68,0,13.73-3.6T928,110.18a13.65,13.65,0,0,0-2.39-8.1,11.23,11.23,0,0,0-6.3-4.44A42.27,42.27,0,0,0,910,97H890.69Z"/><path d="M947.92,163.42V88.08h33.41q10.08,0,15.32,2a16.68,16.68,0,0,1,8.37,7.17,21.4,21.4,0,0,1,3.14,11.36,18.93,18.93,0,0,1-5.19,13.51q-5.19,5.5-16,7a25.72,25.72,0,0,1,6,3.76,51.61,51.61,0,0,1,8.27,10l13.11,20.5h-12.54l-10-15.67c-2.92-4.52-5.31-8-7.2-10.39a22.68,22.68,0,0,0-5.06-5,15.07,15.07,0,0,0-4.55-2,29.92,29.92,0,0,0-5.55-.36H957.9v33.46Zm10-42.09h21.43A32.2,32.2,0,0,0,990,119.92a11.39,11.39,0,0,0,5.86-4.52,12.31,12.31,0,0,0,2-6.76A11.22,11.22,0,0,0,994,99.85q-3.88-3.45-12.26-3.45H957.9Z"/><path d="M1017.59,126.73q0-18.76,10.08-29.37t26-10.62a36.09,36.09,0,0,1,18.81,5,32.41,32.41,0,0,1,12.77,13.9,45,45,0,0,1,4.4,20.22,44.33,44.33,0,0,1-4.63,20.51,31.57,31.57,0,0,1-13.1,13.7,37.47,37.47,0,0,1-18.3,4.65,35.57,35.57,0,0,1-19-5.14,33.13,33.13,0,0,1-12.7-14A42.51,42.51,0,0,1,1017.59,126.73Zm10.28.15q0,13.62,7.33,21.46a25.54,25.54,0,0,0,36.9-.08q7.28-7.9,7.27-22.46a38.67,38.67,0,0,0-3.11-16.06,23.86,23.86,0,0,0-9.1-10.64,24.63,24.63,0,0,0-13.43-3.77,25.49,25.49,0,0,0-18.23,7.27Q1027.88,109.88,1027.87,126.88Z"/><path d="M1099.34,163.42V88.08h28.42a68.6,68.6,0,0,1,11.46.72,22.84,22.84,0,0,1,9.31,3.52,18.48,18.48,0,0,1,6,7.27,24.51,24.51,0,0,1-3.83,26.55q-6.11,6.64-22.09,6.65h-19.33v30.63Zm10-39.52h19.48q9.66,0,13.72-3.6t4.06-10.12a13.65,13.65,0,0,0-2.39-8.1,11.17,11.17,0,0,0-6.29-4.44,42.38,42.38,0,0,0-9.31-.67h-19.27Z"/><path d="M1166.59,163.42V88.08h54.48V97h-44.51v23.08h41.69v8.84h-41.69v25.64h46.26v8.89Z"/><path d="M1233.59,163.42V88.08H1267q10.07,0,15.31,2a16.7,16.7,0,0,1,8.38,7.17,21.39,21.39,0,0,1,3.13,11.36,18.93,18.93,0,0,1-5.19,13.51q-5.19,5.5-16,7a25.63,25.63,0,0,1,6,3.76,52,52,0,0,1,8.28,10l13.1,20.5h-12.54l-10-15.67q-4.37-6.78-7.19-10.39a22.9,22.9,0,0,0-5.07-5,15,15,0,0,0-4.55-2,29.92,29.92,0,0,0-5.55-.36h-11.56v33.46Zm10-42.09H1265a32.2,32.2,0,0,0,10.69-1.41,11.39,11.39,0,0,0,5.86-4.52,12.23,12.23,0,0,0,2-6.76,11.24,11.24,0,0,0-3.87-8.79q-3.89-3.45-12.26-3.45h-23.85Z"/><path d="M1323.56,163.42V97h-24.83V88.08h59.72V97h-24.92v66.45Z"/><path d="M1367.22,163.42V88.08h10v75.34Z"/><path d="M1391.81,163.42V88.08h54.48V97h-44.5v23.08h41.68v8.84h-41.68v25.64H1448v8.89Z"/><path d="M1455.26,139.21l9.41-.82a20.7,20.7,0,0,0,3.11,9.28,17,17,0,0,0,7.58,5.86,28.72,28.72,0,0,0,11.56,2.24,27.72,27.72,0,0,0,10.08-1.7,14,14,0,0,0,6.5-4.65,10.8,10.8,0,0,0,2.13-6.45,9.9,9.9,0,0,0-2.05-6.2,15.36,15.36,0,0,0-6.79-4.44,133.65,133.65,0,0,0-13.41-3.68c-6.92-1.65-11.77-3.23-14.55-4.7a20.31,20.31,0,0,1-8-7,17.15,17.15,0,0,1-2.65-9.38,19.17,19.17,0,0,1,3.24-10.67,20.13,20.13,0,0,1,9.46-7.53,35.89,35.89,0,0,1,13.82-2.56,37.77,37.77,0,0,1,14.78,2.69,21.39,21.39,0,0,1,9.84,7.94,22.79,22.79,0,0,1,3.7,11.87l-9.56.73q-.76-7.16-5.22-10.8t-13.13-3.65q-9,0-13.18,3.31a10,10,0,0,0-4.14,8,8.57,8.57,0,0,0,2.93,6.68q2.88,2.63,15,5.37t16.67,4.8a22.92,22.92,0,0,1,9.72,7.69,18.7,18.7,0,0,1,3.13,10.71,20.57,20.57,0,0,1-3.44,11.34,22.69,22.69,0,0,1-9.9,8.27,34.43,34.43,0,0,1-14.51,3q-10.23,0-17.14-3a24,24,0,0,1-10.85-9A25.48,25.48,0,0,1,1455.26,139.21Z"/><path class="cls-1" d="M449.34,949.7h17.11a49.74,49.74,0,0,1,7.57.42,11.29,11.29,0,0,1,4.47,1.77,11,11,0,0,1,3.28,3.58,9.67,9.67,0,0,1,1.32,5,10,10,0,0,1-1.62,5.51,10.1,10.1,0,0,1-4.4,3.77,11.27,11.27,0,0,1,6,3.88,10.31,10.31,0,0,1,2.1,6.45,12.66,12.66,0,0,1-1.36,5.68,11.38,11.38,0,0,1-3.71,4.41,12.15,12.15,0,0,1-5.79,2c-1.44.16-4.92.25-10.42.29H449.34Zm8.64,7.13v9.89h5.67q5,0,6.27-.14a5.74,5.74,0,0,0,3.49-1.54,4.51,4.51,0,0,0,1.27-3.34,4.76,4.76,0,0,0-1.09-3.23,5,5,0,0,0-3.26-1.5q-1.29-.13-7.39-.14Zm0,17v11.44h8a40.12,40.12,0,0,0,5.93-.26,5.39,5.39,0,0,0,3.14-1.71,5.29,5.29,0,0,0,1.21-3.63,5.64,5.64,0,0,0-.94-3.28,5.28,5.28,0,0,0-2.7-1.95q-1.77-.62-7.66-.61Z"/><path class="cls-1" d="M497.22,949.7h8.64v23.18a47.15,47.15,0,0,0,.32,7.15,6.91,6.91,0,0,0,2.64,4.22,9.22,9.22,0,0,0,5.71,1.6,8.74,8.74,0,0,0,5.55-1.51,5.93,5.93,0,0,0,2.24-3.69,47.19,47.19,0,0,0,.38-7.27V949.7h8.65v22.48a57.28,57.28,0,0,1-.71,10.89,12,12,0,0,1-2.58,5.37,13.05,13.05,0,0,1-5,3.49,21.79,21.79,0,0,1-8.23,1.3q-6.13,0-9.3-1.41a13.51,13.51,0,0,1-5-3.68,11.87,11.87,0,0,1-2.42-4.75,52.35,52.35,0,0,1-.84-10.86Z"/><path class="cls-1" d="M545,992.5V949.7h8.64v42.8Z"/><path class="cls-1" d="M566.87,992.5V950.05h8.64v35.24H597v7.21Z"/><path class="cls-1" d="M607.91,949.7H623.7a31,31,0,0,1,8.15.82,14.29,14.29,0,0,1,6.45,3.94,18.83,18.83,0,0,1,4.09,6.93,31.75,31.75,0,0,1,1.4,10.12,28.32,28.32,0,0,1-1.31,9.11,18.87,18.87,0,0,1-4.59,7.56,15.09,15.09,0,0,1-6.07,3.41,25.93,25.93,0,0,1-7.65.91H607.91Zm8.64,7.24v28.35H623a23.07,23.07,0,0,0,5.23-.41,8,8,0,0,0,3.49-1.78A9.06,9.06,0,0,0,634,979a28.06,28.06,0,0,0,.88-7.84,25.67,25.67,0,0,0-.88-7.62,9.73,9.73,0,0,0-2.45-4.14,8.19,8.19,0,0,0-4-2,39.43,39.43,0,0,0-7.1-.41Z"/><path class="cls-1" d="M655.64,992.5V949.7h8.64v42.8Z"/><path class="cls-1" d="M677.38,992.5V949.7h8.41l17.52,28.58V949.7h8v42.8h-8.67l-17.26-27.91V992.5Z"/><path class="cls-1" d="M745.17,976.77v-7.21H763.8v17a23.49,23.49,0,0,1-7.87,4.63,28.75,28.75,0,0,1-10.44,2,23.41,23.41,0,0,1-11.71-2.82,17.89,17.89,0,0,1-7.5-8A26.14,26.14,0,0,1,723.77,971a24.64,24.64,0,0,1,2.8-11.88,18.88,18.88,0,0,1,8.21-8A22.12,22.12,0,0,1,745,949q8,0,12.46,3.34a15.1,15.1,0,0,1,5.76,9.24l-8.58,1.61a9.09,9.09,0,0,0-3.4-5,10.36,10.36,0,0,0-6.24-1.82,11.72,11.72,0,0,0-9,3.59q-3.35,3.59-3.35,10.66c0,5.07,1.13,8.89,3.39,11.43a11.35,11.35,0,0,0,8.88,3.81,14.87,14.87,0,0,0,5.44-1.07,18.54,18.54,0,0,0,4.69-2.59v-5.42Z"/><path class="cls-1" d="M798,992.5V949.7h8.64v16.85h16.93V949.7h8.64v42.8h-8.64V973.79H806.62V992.5Z"/><path class="cls-1" d="M845.64,992.5V949.7h8.65v42.8Z"/><path class="cls-1" d="M887.22,976.77v-7.21h18.62v17a23.43,23.43,0,0,1-7.86,4.63,28.75,28.75,0,0,1-10.44,2,23.41,23.41,0,0,1-11.71-2.82,17.89,17.89,0,0,1-7.5-8A26,26,0,0,1,865.82,971a24.64,24.64,0,0,1,2.8-11.88,18.91,18.91,0,0,1,8.2-8A22.17,22.17,0,0,1,887.07,949q8,0,12.45,3.34a15.11,15.11,0,0,1,5.77,9.24l-8.58,1.61a9.11,9.11,0,0,0-3.41-5,10.31,10.31,0,0,0-6.23-1.82,11.73,11.73,0,0,0-9,3.59q-3.34,3.59-3.34,10.66c0,5.07,1.13,8.89,3.39,11.43a11.33,11.33,0,0,0,8.87,3.81,14.92,14.92,0,0,0,5.45-1.07,18.3,18.3,0,0,0,4.68-2.59v-5.42Z"/><path class="cls-1" d="M918.62,992.5V949.7h8.64v16.85H944.2V949.7h8.64v42.8H944.2V973.79H927.26V992.5Z"/><path class="cls-1" d="M988,992.5V949.7h31.74v7.24H996.6v9.49h21.48v7.21H996.6v11.65h23.9v7.21Z"/><path class="cls-1" d="M1028.27,992.5l14.62-22.33-13.25-20.47h10.1l8.58,13.75,8.41-13.75h10l-13.32,20.79,14.63,22h-10.42l-9.49-14.8-9.52,14.8Z"/><path class="cls-1" d="M1077.28,992.5V949.7h13.87q7.88,0,10.28.65a11.22,11.22,0,0,1,6.16,4.18,13.34,13.34,0,0,1,2.48,8.34,14,14,0,0,1-1.43,6.63,11.88,11.88,0,0,1-3.64,4.22,12.5,12.5,0,0,1-4.48,2,49,49,0,0,1-9,.62h-5.64V992.5Zm8.64-35.56v12.15h4.73c3.41,0,5.69-.22,6.83-.68a5.61,5.61,0,0,0,2.7-2.09,5.74,5.74,0,0,0,1-3.34,5.5,5.5,0,0,0-1.37-3.85,6,6,0,0,0-3.48-1.9,42.18,42.18,0,0,0-6.21-.29Z"/><path class="cls-1" d="M1122,992.5V949.7h31.73v7.24h-23.09v9.49h21.49v7.21h-21.49v11.65h23.91v7.21Z"/><path class="cls-1" d="M1194,976.77l8.38,2.65c-1.29,4.67-3.43,8.15-6.41,10.41a20.18,20.18,0,0,1-25.39-2.42q-5.49-5.82-5.49-15.93,0-10.68,5.52-16.59t14.51-5.92q7.86,0,12.76,4.64a16.83,16.83,0,0,1,4.38,7.89l-8.56,2a8.81,8.81,0,0,0-9-7.18,9.76,9.76,0,0,0-7.72,3.41q-3,3.42-3,11.07,0,8.11,2.92,11.56a9.49,9.49,0,0,0,7.59,3.45,8.73,8.73,0,0,0,5.93-2.19A12.8,12.8,0,0,0,1194,976.77Z"/><path class="cls-1" d="M1224.21,992.5V956.94h-12.7V949.7h34v7.24h-12.67V992.5Z"/><path class="cls-1" d="M1290,992.5h-9.4l-3.74-9.72h-17.11l-3.53,9.72h-9.17l16.67-42.8h9.14Zm-15.91-16.93-5.9-15.88-5.78,15.88Z"/><path class="cls-1" d="M1304.6,992.5V956.94h-12.7V949.7h34v7.24h-12.67V992.5Z"/><path class="cls-1" d="M1336,992.5V949.7h8.64v42.8Z"/><path class="cls-1" d="M1355.92,971.36a27.3,27.3,0,0,1,1.95-11,20.34,20.34,0,0,1,4-5.87,16.58,16.58,0,0,1,5.53-3.85,23.49,23.49,0,0,1,9.23-1.7q9.45,0,15.13,5.87t5.68,16.32q0,10.37-5.63,16.21t-15.07,5.86q-9.54,0-15.18-5.82T1355.92,971.36Zm8.9-.29q0,7.27,3.36,11a11.54,11.54,0,0,0,17,0q3.3-3.72,3.31-11.17t-3.23-11a12,12,0,0,0-17.18,0Q1364.82,963.7,1364.82,971.07Z"/><path class="cls-1" d="M1409.05,992.5V949.7h8.41L1435,978.28V949.7h8v42.8h-8.67l-17.25-27.91V992.5Z"/><path class="cls-1" d="M1454.73,978.58l8.41-.82a10.26,10.26,0,0,0,3.08,6.22,9.35,9.35,0,0,0,6.27,2q4.17,0,6.29-1.77a5.23,5.23,0,0,0,2.11-4.13,3.86,3.86,0,0,0-.89-2.58,7.14,7.14,0,0,0-3.11-1.86c-1-.34-3.32-1-6.92-1.86q-6.95-1.72-9.75-4.24a11.11,11.11,0,0,1-3.94-8.61,11,11,0,0,1,1.86-6.12,11.57,11.57,0,0,1,5.34-4.33,21.42,21.42,0,0,1,8.42-1.49q8.05,0,12.13,3.53a12.48,12.48,0,0,1,4.28,9.43l-8.64.38a7.37,7.37,0,0,0-2.38-4.74,8.7,8.7,0,0,0-5.48-1.44,9.92,9.92,0,0,0-5.9,1.54,3.13,3.13,0,0,0-1.37,2.66,3.3,3.3,0,0,0,1.29,2.6q1.64,1.37,7.94,2.86a42,42,0,0,1,9.33,3.08,12.05,12.05,0,0,1,4.73,4.35,12.79,12.79,0,0,1,1.7,6.81,12.58,12.58,0,0,1-2,6.89,12.19,12.19,0,0,1-5.78,4.78,24.27,24.27,0,0,1-9.31,1.56q-8.12,0-12.47-3.75T1454.73,978.58Z"/><path class="cls-1" d="M1510.25,968V953.82h-5.07v-2.89h13.59v2.89h-5.07V968Z"/><path class="cls-1" d="M1522.86,968v-17.1H1528l3.1,11.66,3.07-11.66h5.18V968h-3.21V954.56L1532.78,968h-3.33l-3.38-13.47V968Z"/><path d="M1031.34,424.67H1139.7l41.78,162.24L1223,424.67h108.29V691.31h-67.48V488l-52,203.34h-61.08L1098.82,488V691.31h-67.48Z"/><path d="M1390.91,424.67h137q44.75,0,67,21.28t22.28,60.57q0,40.37-24.28,63.11t-74.12,22.74h-45.11v98.94h-82.76Zm82.76,113.67h20.19q23.82,0,33.47-8.27a26.7,26.7,0,0,0,9.64-21.19,29.61,29.61,0,0,0-8.37-21.28q-8.37-8.73-31.47-8.73h-23.46Z"/></svg>