<svg id="Layer_1" data-name="Layer 1" xmlns="http://www.w3.org/2000/svg" viewBox="0 0 1920 1080"><defs><style>.cls-1,.cls-2{fill:#ec1c24;}.cls-1,.cls-3{fill-rule:evenodd;}.cls-3{fill:#231f20;}</style></defs><title>ULMA</title><path class="cls-1" d="M227.68,727l-1.9,24.91q-16.87-7.8-38-7.81-25.12,0-39.69,15.41-13.72,14.57-13.72,38,0,23,13.51,37.79t36.52,14.77A80.31,80.31,0,0,0,203.83,848V809.54H172.59V786.32h59.53V865.7q-28.08,7.59-47.71,7.6-37.15,0-58.26-18.16-22.59-19.21-22.59-55.52,0-37.57,21.53-58.16t59.32-20.58A150.3,150.3,0,0,1,227.68,727Z"/><rect class="cls-2" x="260.64" y="712.44" width="28.29" height="158.32"/><path class="cls-1" d="M341.22,813.77q0,37.58,27.23,37.57,27.44,0,27.44-37.57,0-13.51-6.75-22.38-7.61-9.93-20.69-9.92T348,791.6Q341.22,800.46,341.22,813.77Zm-29.56,3.37q0-26.39,16.47-42.22,15.62-15.4,40.32-15.41t40.85,15.62q16.14,15.63,16.15,42,0,24.29-15,39.69-15.63,16.47-42,16.47-26.18,0-41.8-16.47Q311.67,841.43,311.66,817.14Z"/><path class="cls-1" d="M447.3,870.76V712.44h28.28V776q12.53-16.47,32.69-16.47,23.55,0,35.44,17.1,10.41,14.77,10.4,39.48t-10.29,39.68q-11.75,17.52-35.06,17.53-22,0-33.18-15.84h-.84v13.3Zm28.28-54.67q0,13.73,5.52,23.43,6.57,11.82,19.5,11.82,12.72,0,19.08-12,4.88-9.49,4.88-23.22,0-13.51-4.88-22.8-6.15-11.82-18.66-11.82t-19.5,11.61Q475.58,802.78,475.58,816.09Z"/><path class="cls-1" d="M596.23,839.31q0,13.29,17.94,13.3,16.89,0,23.22-15.62,2.54-6.56,2.54-16.47H627.68Q596.23,820.52,596.23,839.31ZM581.87,792,581,767.75a89.56,89.56,0,0,1,37.79-8.24q24.69,0,35.78,10.88t11.08,34.93v13.93q0,11,.42,27.24.21,11.4,1.27,24.27H642.46q-.42-2.1-1.27-16.25h-.42a35,35,0,0,1-14.14,13.72,40,40,0,0,1-19.42,5.07q-15.42,0-26.18-8.45A28.64,28.64,0,0,1,569.21,841q0-22,18.58-31,12.87-6.35,36.52-6.34h15.62q0-12.87-5.81-18.15t-18.68-5.28Q597.5,780.2,581.87,792Z"/><rect class="cls-2" x="693.83" y="712.44" width="28.29" height="158.32"/><path class="cls-1" d="M810.47,870.76V723.42h37.37q61.42,0,61.43,44.54,0,24.27-16.47,36.31-14.56,10.54-40.32,10.55H840v55.94ZM840,746.64v45h10.34q28.08,0,28.08-22,0-23-28.08-23Z"/><path class="cls-1" d="M948,839.31q0,13.29,17.95,13.3,16.88,0,23.22-15.62,2.54-6.56,2.53-16.47H979.43Q948,820.52,948,839.31ZM933.62,792l-.85-24.27a89.59,89.59,0,0,1,37.79-8.24q24.71,0,35.78,10.88t11.08,34.93v13.93q0,11,.43,27.24.21,11.4,1.26,24.27H994.2q-.42-2.1-1.26-16.25h-.43a35,35,0,0,1-14.14,13.72A40,40,0,0,1,959,873.3q-15.41,0-26.18-8.45A28.64,28.64,0,0,1,921,841q0-22,18.58-31,12.87-6.35,36.52-6.34h15.62q0-12.87-5.81-18.15t-18.68-5.28Q949.24,780.2,933.62,792Z"/><path class="cls-1" d="M1118,763.1l-2.53,22.38a45.07,45.07,0,0,0-19.21-4q-13.1,0-20.9,9.5t-7.81,24.91q0,15.82,7.17,25.33,7.82,10.13,22.17,10.13,10.14,0,21.74-5.07l1.27,23.44q-11.61,3.59-28.29,3.59-26,0-40.11-16.26-13.5-15.4-13.51-41.16,0-24.5,13.51-39.9,14.36-16.47,39.06-16.47A96.15,96.15,0,0,1,1118,763.1Z"/><polygon class="cls-1" points="1138.98 870.76 1138.98 712.44 1167.27 712.44 1167.27 805.53 1201.25 762.05 1234.82 762.05 1194.29 810.6 1239.88 870.76 1203.79 870.76 1167.27 817.99 1167.27 870.76 1138.98 870.76"/><path class="cls-1" d="M1275.84,839.31q0,13.29,18,13.3,16.89,0,23.22-15.62,2.54-6.56,2.53-16.47H1307.3Q1275.84,820.52,1275.84,839.31ZM1261.49,792l-.85-24.27a89.59,89.59,0,0,1,37.79-8.24q24.71,0,35.78,10.88t11.08,34.93v13.93q0,11,.43,27.24.21,11.4,1.26,24.27h-24.91q-.42-2.1-1.26-16.25h-.43a35,35,0,0,1-14.14,13.72,40,40,0,0,1-19.42,5.07q-15.4,0-26.18-8.45A28.64,28.64,0,0,1,1248.82,841q0-22,18.58-31,12.87-6.35,36.52-6.34h15.62q0-12.87-5.8-18.15t-18.69-5.28Q1277.11,780.2,1261.49,792Z"/><path class="cls-1" d="M1445.85,762.05h27v98.16q0,57.42-57.42,57.42a95.78,95.78,0,0,1-37.57-7.39l2.32-24.07q17.73,9.51,31.66,9.5,20.7,0,28.08-14.14,4.65-8.87,4.64-28.08h-.42a31.35,31.35,0,0,1-12.88,12,42.25,42.25,0,0,1-20.89,5.28q-22.59,0-34.2-16.46-10.14-14.56-10.14-38.42,0-22.17,10.77-38,12.66-18.36,35.25-18.37T1445.43,777h.42Zm-26.18,86.76q12.67,0,19.21-9.92,5.7-8.86,5.7-23.65t-5.7-23.85q-6.12-9.93-17.94-9.92-13.31,0-19.84,11-5.49,9.09-5.49,23.44a40.68,40.68,0,0,0,5.91,22Q1408.27,848.81,1419.67,848.81Z"/><path class="cls-1" d="M1502.11,742.2v-27h28.29v27Zm0,128.56V762.05h28.29V870.76Z"/><path class="cls-1" d="M1560.1,870.76V762.05h26.81v14.77h.42q12.24-17.31,35.68-17.31,18.57,0,28.07,12,8.87,11.18,8.87,30.61v68.6h-28.29v-58q0-14.36-2.32-20.69-4-10.54-16-10.55-13.72,0-20.06,12.87-4.86,9.51-4.85,23.23v53.19Z"/><path class="cls-1" d="M1761.81,762.05h27v98.16q0,57.42-57.42,57.42a95.82,95.82,0,0,1-37.58-7.39l2.32-24.07q17.74,9.51,31.67,9.5,20.68,0,28.08-14.14,4.63-8.87,4.64-28.08h-.42a31.42,31.42,0,0,1-12.88,12,42.29,42.29,0,0,1-20.9,5.28q-22.59,0-34.2-16.46Q1682,839.74,1682,815.88q0-22.17,10.77-38,12.66-18.36,35.25-18.37T1761.38,777h.43Zm-26.18,86.76q12.66,0,19.21-9.92,5.7-8.86,5.7-23.65t-5.7-23.85q-6.12-9.93-17.94-9.92-13.31,0-19.85,11-5.49,9.09-5.49,23.44a40.68,40.68,0,0,0,5.91,22Q1724.24,848.81,1735.63,848.81Z"/><path class="cls-1" d="M399.46,162.37c0,158.54-41.52,287.42-92.21,287.42S215,320.91,215,162.37Z"/><path class="cls-3" d="M521.33,162.37c0,235.11-96.53,426-214.08,426S93.71,397.48,93.71,162.37H84V607.25H528.88V162.37Z"/><polygon class="cls-3" points="943.39 287.84 1031.87 287.84 1031.87 517.46 1149.71 517.46 1149.71 594.72 943.39 594.72 943.39 287.84"/><polygon class="cls-3" points="1175.61 594.72 1175.61 287.84 1266.25 287.84 1340.49 422.5 1416.03 287.84 1495.01 287.84 1495.01 594.28 1404.37 594.28 1404.37 461.35 1334.02 594.28 1264.95 461.35 1264.95 594.72 1175.61 594.72"/><path class="cls-3" d="M817.35,468.69V287.84H906.7l.43,180.85c0,74.23-60.86,134.66-135.1,134.66S637.36,542.92,637.36,468.69l-.43-180.85h88.49v180c0,25.47,21.15,46.19,46.18,46.19A45.41,45.41,0,0,0,817.35,468.69Z"/><path class="cls-3" d="M1750.54,594.28H1836L1732.41,287.84h-109.2L1509.69,594.28h93.23L1623.59,533h106.52ZM1649.36,456.6l27.8-82.44,27.48,82.44Z"/></svg>