<?xml version="1.0" encoding="UTF-8" standalone="no"?>
<!-- Generator: Adobe Illustrator 23.0.3, SVG Export Plug-In . SVG Version: 6.00 Build 0)  -->

<svg
   version="1.1"
   id="Layer_1"
   x="0px"
   y="0px"
   viewBox="0 0 1080 1080"
   style="enable-background:new 0 0 1080 1080;"
   xml:space="preserve"
   sodipodi:docname="ci_logo_white.svg"
   inkscape:version="1.1.1 (3bf5ae0d25, 2021-09-20, custom)"
   xmlns:inkscape="http://www.inkscape.org/namespaces/inkscape"
   xmlns:sodipodi="http://sodipodi.sourceforge.net/DTD/sodipodi-0.dtd"
   xmlns="http://www.w3.org/2000/svg"
   xmlns:svg="http://www.w3.org/2000/svg"><defs
   id="defs15" /><sodipodi:namedview
   id="namedview13"
   pagecolor="#505050"
   bordercolor="#eeeeee"
   borderopacity="1"
   inkscape:pageshadow="0"
   inkscape:pageopacity="0"
   inkscape:pagecheckerboard="0"
   showgrid="false"
   inkscape:zoom="0.66574074"
   inkscape:cx="539.24896"
   inkscape:cy="540"
   inkscape:window-width="2560"
   inkscape:window-height="1376"
   inkscape:window-x="0"
   inkscape:window-y="33"
   inkscape:window-maximized="1"
   inkscape:current-layer="Layer_1" />
<style
   type="text/css"
   id="style2">
	.st0{fill:#008269;}
</style>
<g
   id="g10"
   style="fill:#ffffff">
	<path
   class="st0"
   d="M620.15,513.23L403.59,729.78c-6.32,6.32-6.32,16.67,0,22.99l33.27,33.27c6.32,6.32,16.67,6.32,22.99,0   l216.55-216.55c6.32-6.32,6.32-16.67,0-22.99l-33.27-33.27C636.82,506.91,626.47,506.91,620.15,513.23"
   id="path4"
   style="fill:#ffffff" />
	<path
   class="st0"
   d="M840.4,377.78L731.5,241.44l-1.63-2.04L570.36,39.69c-0.07-0.09-0.16-0.14-0.22-0.23   c-1-1.23-2.2-2.31-3.36-3.43c-0.77-0.74-1.47-1.58-2.29-2.25c-0.13-0.1-0.21-0.23-0.34-0.33c-1.06-0.85-2.23-1.44-3.34-2.16   c-0.95-0.61-1.84-1.31-2.84-1.83c-1.45-0.77-2.97-1.32-4.48-1.89c-0.88-0.33-1.72-0.75-2.62-1.02c-1.49-0.45-3.01-0.68-4.53-0.95   c-1.02-0.18-2.02-0.44-3.05-0.54c-1.3-0.12-2.58-0.07-3.88-0.07c-1.3,0-2.59-0.06-3.88,0.07c-1.03,0.1-2.03,0.36-3.04,0.54   c-1.52,0.27-3.04,0.5-4.53,0.95c-0.9,0.27-1.75,0.69-2.62,1.02c-1.52,0.57-3.03,1.12-4.49,1.89c-0.99,0.52-1.89,1.22-2.84,1.83   c-1.12,0.72-2.28,1.31-3.34,2.16c-0.13,0.1-0.22,0.23-0.34,0.33c-0.82,0.67-1.52,1.5-2.29,2.25c-1.16,1.12-2.36,2.2-3.36,3.43   c-0.07,0.08-0.16,0.14-0.22,0.23L348.93,239.4l-1.63,2.04L233.17,384.33c-68.45,71.21-110.31,166.26-110.31,270.75   C122.86,875.95,309.62,1055,540,1055c230.38,0,417.14-179.05,417.14-399.92C957.14,547.35,912.65,449.66,840.4,377.78 M540,967.44   c-179.94,0-325.81-139.85-325.81-312.37c0-69.78,23.88-134.21,64.22-186.21h-0.08l147.15-198.3L539.4,127.94l113.59,142.21   l134.59,181.98c48.73,54.6,78.23,125.45,78.23,202.94C865.81,827.59,719.94,967.44,540,967.44"
   id="path6"
   style="fill:#ffffff" />
	<path
   class="st0"
   d="M728.62,86.17v251c0,8.14,6.66,14.8,14.8,14.8h49.98c8.14,0,14.8-6.66,14.8-14.8v-251   c0-8.14-6.66-14.8-14.8-14.8h-49.98C735.27,71.38,728.62,78.04,728.62,86.17"
   id="path8"
   style="fill:#ffffff" />
</g>
</svg>
