<?xml version="1.0" encoding="UTF-8" standalone="no"?>
<!-- Created with Inkscape (http://www.inkscape.org/) -->

<svg
   width="58.991501mm"
   height="21.082687mm"
   viewBox="0 0 58.991502 21.082687"
   version="1.1"
   id="svg5"
   inkscape:version="1.1.1 (3bf5ae0d25, 2021-09-20, custom)"
   sodipodi:docname="discover_logo.svg"
   xmlns:inkscape="http://www.inkscape.org/namespaces/inkscape"
   xmlns:sodipodi="http://sodipodi.sourceforge.net/DTD/sodipodi-0.dtd"
   xmlns="http://www.w3.org/2000/svg"
   xmlns:svg="http://www.w3.org/2000/svg">
  <sodipodi:namedview
     id="namedview7"
     pagecolor="#505050"
     bordercolor="#eeeeee"
     borderopacity="1"
     inkscape:pageshadow="0"
     inkscape:pageopacity="0"
     inkscape:pagecheckerboard="0"
     inkscape:document-units="mm"
     showgrid="false"
     showguides="true"
     inkscape:guide-bbox="true"
     inkscape:snap-bbox="true"
     inkscape:snap-intersection-paths="true"
     inkscape:object-paths="true"
     inkscape:snap-smooth-nodes="true"
     inkscape:snap-midpoints="true"
     inkscape:snap-center="true"
     inkscape:bbox-paths="true"
     inkscape:bbox-nodes="true"
     inkscape:snap-bbox-edge-midpoints="true"
     inkscape:snap-bbox-midpoints="true"
     inkscape:zoom="1.2810466"
     inkscape:cx="-89.770349"
     inkscape:cy="111.23717"
     inkscape:window-width="2560"
     inkscape:window-height="1376"
     inkscape:window-x="0"
     inkscape:window-y="33"
     inkscape:window-maximized="1"
     inkscape:current-layer="layer1"
     inkscape:snap-global="false"
     fit-margin-top="0"
     fit-margin-left="0"
     fit-margin-right="0"
     fit-margin-bottom="0" />
  <defs
     id="defs2">
    <inkscape:path-effect
       effect="roughen"
       id="path-effect4586"
       is_visible="true"
       lpeversion="1.1"
       method="size"
       max_segment_size="4"
       segments="2"
       displace_x="10;1"
       displace_y="10;1"
       global_randomize="1;1"
       handles="along"
       shift_nodes="true"
       fixed_displacement="false"
       spray_tool_friendly="false" />
    <inkscape:path-effect
       effect="roughen"
       id="path-effect4584"
       is_visible="true"
       lpeversion="1.1"
       method="size"
       max_segment_size="4"
       segments="2"
       displace_x="10;1"
       displace_y="10;1"
       global_randomize="1;1"
       handles="along"
       shift_nodes="true"
       fixed_displacement="false"
       spray_tool_friendly="false" />
    <inkscape:path-effect
       effect="simplify"
       id="path-effect1237"
       is_visible="true"
       lpeversion="1"
       steps="1"
       threshold="0.00127072"
       smooth_angles="360"
       helper_size="0"
       simplify_individual_paths="false"
       simplify_just_coalesce="false" />
    <inkscape:path-effect
       effect="simplify"
       id="path-effect1233"
       is_visible="true"
       lpeversion="1"
       steps="1"
       threshold="0.00127072"
       smooth_angles="360"
       helper_size="0"
       simplify_individual_paths="false"
       simplify_just_coalesce="false" />
    <inkscape:path-effect
       effect="simplify"
       id="path-effect1229"
       is_visible="true"
       lpeversion="1"
       steps="1"
       threshold="0.00672131"
       smooth_angles="360"
       helper_size="0"
       simplify_individual_paths="false"
       simplify_just_coalesce="false" />
    <inkscape:path-effect
       effect="simplify"
       id="path-effect1215"
       is_visible="true"
       lpeversion="1"
       steps="1"
       threshold="0.00672131"
       smooth_angles="360"
       helper_size="0"
       simplify_individual_paths="false"
       simplify_just_coalesce="false" />
    <inkscape:path-effect
       effect="simplify"
       id="path-effect1209"
       is_visible="true"
       lpeversion="1"
       steps="1"
       threshold="0.00672131"
       smooth_angles="360"
       helper_size="0"
       simplify_individual_paths="false"
       simplify_just_coalesce="false" />
    <inkscape:path-effect
       effect="simplify"
       id="path-effect1203"
       is_visible="true"
       lpeversion="1"
       steps="1"
       threshold="0.00672131"
       smooth_angles="360"
       helper_size="0"
       simplify_individual_paths="false"
       simplify_just_coalesce="false" />
    <inkscape:path-effect
       effect="simplify"
       id="path-effect1199"
       is_visible="true"
       lpeversion="1"
       steps="1"
       threshold="0.0002"
       smooth_angles="360"
       helper_size="0"
       simplify_individual_paths="false"
       simplify_just_coalesce="false" />
    <inkscape:path-effect
       effect="simplify"
       id="path-effect1195"
       is_visible="true"
       lpeversion="1"
       steps="1"
       threshold="0.0002"
       smooth_angles="360"
       helper_size="0"
       simplify_individual_paths="false"
       simplify_just_coalesce="false" />
    <inkscape:path-effect
       effect="simplify"
       id="path-effect1191"
       is_visible="true"
       lpeversion="1"
       steps="1"
       threshold="0.0002"
       smooth_angles="360"
       helper_size="0"
       simplify_individual_paths="false"
       simplify_just_coalesce="false" />
    <inkscape:path-effect
       effect="simplify"
       id="path-effect1187"
       is_visible="true"
       lpeversion="1"
       steps="1"
       threshold="0.0119355"
       smooth_angles="360"
       helper_size="0"
       simplify_individual_paths="false"
       simplify_just_coalesce="false" />
    <inkscape:path-effect
       effect="simplify"
       id="path-effect1183"
       is_visible="true"
       lpeversion="1"
       steps="1"
       threshold="0.0119355"
       smooth_angles="360"
       helper_size="0"
       simplify_individual_paths="false"
       simplify_just_coalesce="false" />
    <inkscape:path-effect
       effect="simplify"
       id="path-effect1179"
       is_visible="true"
       lpeversion="1"
       steps="1"
       threshold="0.00267081"
       smooth_angles="360"
       helper_size="0"
       simplify_individual_paths="false"
       simplify_just_coalesce="false" />
    <inkscape:path-effect
       effect="simplify"
       id="path-effect1175"
       is_visible="true"
       lpeversion="1"
       steps="1"
       threshold="0.00267081"
       smooth_angles="360"
       helper_size="0"
       simplify_individual_paths="false"
       simplify_just_coalesce="false" />
  </defs>
  <g
     inkscape:label="Layer 1"
     inkscape:groupmode="layer"
     id="layer1"
     transform="translate(-100.01776,-89.897158)">
    <g
       id="DISCOVER"
       transform="matrix(0.26458333,0,0,0.26458333,-124.39653,55.239738)"
       style="fill:#ffffff;fill-opacity:1">
      <path
         class="cls-3"
         d="m 874.08,147.44 c 0,4.25 -1.32,8.6 -4.09,11.49 a 14.17,14.17 0 0 1 -10.7,4.3 h -11.11 v -31.59 h 11.15 a 13.7,13.7 0 0 1 10.53,4.25 16.57,16.57 0 0 1 4.22,11.55 z m -6.32,0 a 11.58,11.58 0 0 0 -2.33,-7.64 c -1.71,-1.89 -3.64,-2.41 -6.1,-2.55 l -5.09,0.05 v 20.32 h 5 a 8.32,8.32 0 0 0 6.05,-2.46 c 1.85,-2.06 2.47,-4.65 2.47,-7.72 z"
         id="path17"
         style="fill:#ffffff;fill-opacity:1" />
      <path
         class="cls-3"
         d="m 885.75,131.64 v 31.59 h -6 v -31.59 z"
         id="path19"
         style="fill:#ffffff;fill-opacity:1" />
      <path
         class="cls-3"
         d="m 910.2,141.29 a 7.32,7.32 0 0 0 -2.94,-3.55 7.6,7.6 0 0 0 -7.55,-0.27 3.1,3.1 0 0 0 -1.62,2.64 2.07,2.07 0 0 0 0.61,1.49 9.68,9.68 0 0 0 3.6,1.67 l 5.48,1.58 a 13.32,13.32 0 0 1 5.84,3 8.85,8.85 0 0 1 -1.14,14 c -2.41,1.63 -5.31,2 -8.65,2 -4.21,0 -7.81,-1.09 -10.4,-4.25 a 15.13,15.13 0 0 1 -2.85,-6.15 l 6.06,-1.62 a 8.47,8.47 0 0 0 1.58,3.9 7.3,7.3 0 0 0 5.83,2.55 9,9 0 0 0 4.95,-1.28 3,3 0 0 0 1.27,-2.59 2.82,2.82 0 0 0 -1,-2.19 7,7 0 0 0 -2.81,-1.41 l -5.88,-1.71 a 15.39,15.39 0 0 1 -6.06,-2.94 8,8 0 0 1 -2.72,-6.15 8.69,8.69 0 0 1 5.13,-7.76 15.39,15.39 0 0 1 6.68,-1.23 14.41,14.41 0 0 1 6.62,1.53 13.36,13.36 0 0 1 6,7.16 z"
         id="path21"
         style="fill:#ffffff;fill-opacity:1" />
      <path
         class="cls-3"
         d="m 949.66,154 a 15.74,15.74 0 0 1 -2.59,4.69 15.65,15.65 0 0 1 -23.26,0 19,19 0 0 1 0,-22.6 14.55,14.55 0 0 1 11.63,-5.09 14.76,14.76 0 0 1 11.63,5.13 16.82,16.82 0 0 1 2.89,5.62 l -6.14,1.05 a 9.42,9.42 0 0 0 -1.49,-3 8.58,8.58 0 0 0 -6.89,-3.2 8.44,8.44 0 0 0 -6.89,3.2 c -1.63,2.07 -2.11,4.92 -2.16,7.69 -0.05,2.77 0.53,5.57 2.16,7.68 a 8.3,8.3 0 0 0 6.89,3.16 8.43,8.43 0 0 0 6.89,-3.16 9.61,9.61 0 0 0 1.4,-2.81 z"
         id="path23"
         style="fill:#ffffff;fill-opacity:1" />
      <path
         class="cls-3"
         d="m 958,158.71 a 19.15,19.15 0 0 1 0,-22.6 14.58,14.58 0 0 1 11.67,-5.11 14.75,14.75 0 0 1 11.63,5.13 c 2.68,3.25 3.6,7.11 3.69,11.33 -0.09,4.38 -1.1,8.11 -3.69,11.27 a 14.85,14.85 0 0 1 -11.63,5.18 14.7,14.7 0 0 1 -11.67,-5.2 z m 18.52,-3.59 a 15.05,15.05 0 0 0 0,-15.37 9.11,9.11 0 0 0 -13.78,0 c -1.62,2.07 -2.11,4.92 -2.15,7.69 -0.04,2.77 0.53,5.57 2.15,7.68 a 9.09,9.09 0 0 0 13.78,0 z"
         id="path25"
         style="fill:#ffffff;fill-opacity:1" />
      <path
         class="cls-3"
         d="m 987.4,131.64 h 6.15 l 7.9,26 8,-26 h 6.14 l -9.59,31.59 h -8.91 z"
         id="path27"
         style="fill:#ffffff;fill-opacity:1" />
      <path
         class="cls-3"
         d="m 1024.89,137.21 v 7.42 h 12 v 5.57 h -12 v 7.46 h 14.65 v 5.57 h -20.62 v -31.59 h 20.62 v 5.57 z"
         id="path29"
         style="fill:#ffffff;fill-opacity:1" />
      <path
         class="cls-3"
         d="m 1064.39,163.23 -5.23,-10.75 h -7.5 v 10.75 h -6 v -31.59 h 14.44 a 11,11 0 0 1 3.2,0.48 10.15,10.15 0 0 1 5.27,3.77 10.88,10.88 0 0 1 2.11,6.19 10.53,10.53 0 0 1 -5.45,9.09 l 5.88,12.06 z m -12.73,-16.32 h 8.42 a 4.8,4.8 0 0 0 3.6,-1.93 4.63,4.63 0 0 0 1,-2.9 4.85,4.85 0 0 0 -4.57,-4.83 h -8.42 z"
         id="path31"
         style="fill:#ffffff;fill-opacity:1" />
      <path
         class="cls-3"
         d="m 850.84,198.32 v 4.75 h 12.4 v 2.85 h -12.4 v 4.74 h -2.66 v -12.34 z"
         id="path33"
         style="fill:#ffffff;fill-opacity:1" />
      <path
         class="cls-3"
         d="m 848.18,184.22 h 15.06 v 2.85 h -5.1 v 6.73 h 5.1 v 2.85 h -15.06 v -2.85 h 7.3 v -6.73 h -7.3 z"
         id="path35"
         style="fill:#ffffff;fill-opacity:1" />
      <path
         class="cls-3"
         d="m 850.84,178.45 h 3.53 v -5.74 H 857 v 5.74 h 3.56 v -7 h 2.65 v 9.83 h -15.03 v -9.83 h 2.66 z"
         id="path37"
         style="fill:#ffffff;fill-opacity:1" />
      <path
         class="cls-3"
         d="M 877.18,178.71 V 187 h 13 v 7.26 h -13 v 15.57 h -7.25 v -38.4 h 23.47 v 7.25 z"
         id="path39"
         style="fill:#ffffff;fill-opacity:1" />
      <path
         class="cls-3"
         d="m 929.46,195.46 a 15,15 0 0 1 -15.58,15.2 15.48,15.48 0 0 1 -12.27,-5.49 16.17,16.17 0 0 1 -3.41,-9.71 v -24 h 7.36 v 23.9 a 9.23,9.23 0 0 0 1.66,5.28 8.47,8.47 0 0 0 6.66,3.2 8.22,8.22 0 0 0 8.22,-8.48 v -23.9 h 7.36 z"
         id="path41"
         style="fill:#ffffff;fill-opacity:1" />
      <path
         class="cls-3"
         d="m 965.2,178.23 h -12.11 v 31.63 h -7.25 v -31.63 h -12.11 v -6.77 h 31.47 z"
         id="path43"
         style="fill:#ffffff;fill-opacity:1" />
      <path
         class="cls-3"
         d="m 1000.73,195.46 a 15.05,15.05 0 0 1 -15.58,15.2 15.46,15.46 0 0 1 -12.27,-5.49 16.17,16.17 0 0 1 -3.41,-9.71 v -24 h 7.36 v 23.9 a 9.3,9.3 0 0 0 1.65,5.28 8.5,8.5 0 0 0 6.67,3.2 8.22,8.22 0 0 0 8.22,-8.48 v -23.9 h 7.36 z"
         id="path45"
         style="fill:#ffffff;fill-opacity:1" />
      <path
         class="cls-3"
         d="m 1030.92,209.86 -6.35,-13.06 h -9.12 v 13.06 h -7.25 v -38.4 h 17.55 a 13.28,13.28 0 0 1 3.89,0.59 12.35,12.35 0 0 1 6.4,4.58 13.17,13.17 0 0 1 2.56,7.52 12.38,12.38 0 0 1 -2.56,7.52 12.18,12.18 0 0 1 -4,3.53 l 7.15,14.66 z M 1015.45,190 h 10.24 a 5.85,5.85 0 0 0 4.38,-2.35 5.53,5.53 0 0 0 1.17,-3.52 6,6 0 0 0 -1.38,-3.78 5.94,5.94 0 0 0 -4.17,-2.08 h -10.24 z"
         id="path47"
         style="fill:#ffffff;fill-opacity:1" />
      <path
         class="cls-3"
         d="m 1053.33,178.23 v 9 h 14.61 V 194 h -14.61 v 9.07 h 17.81 v 6.77 h -25.07 v -38.4 h 25.07 v 6.77 z"
         id="path49"
         style="fill:#ffffff;fill-opacity:1" />
    </g>
  </g>
</svg>
