<?xml version="1.0" encoding="UTF-8" standalone="no"?>
<!-- Generator: Adobe Illustrator 23.0.3, SVG Export Plug-In . SVG Version: 6.00 Build 0)  -->

<svg
   version="1.1"
   id="Layer_1"
   x="0px"
   y="0px"
   viewBox="0 0 1080 1080"
   style="enable-background:new 0 0 1080 1080;"
   xml:space="preserve"
   sodipodi:docname="et_logo_white.svg"
   inkscape:version="1.1.1 (3bf5ae0d25, 2021-09-20, custom)"
   xmlns:inkscape="http://www.inkscape.org/namespaces/inkscape"
   xmlns:sodipodi="http://sodipodi.sourceforge.net/DTD/sodipodi-0.dtd"
   xmlns="http://www.w3.org/2000/svg"
   xmlns:svg="http://www.w3.org/2000/svg"><defs
   id="defs15" /><sodipodi:namedview
   id="namedview13"
   pagecolor="#505050"
   bordercolor="#eeeeee"
   borderopacity="1"
   inkscape:pageshadow="0"
   inkscape:pageopacity="0"
   inkscape:pagecheckerboard="0"
   showgrid="false"
   inkscape:zoom="0.66574074"
   inkscape:cx="539.24896"
   inkscape:cy="540"
   inkscape:window-width="1712"
   inkscape:window-height="954"
   inkscape:window-x="51"
   inkscape:window-y="47"
   inkscape:window-maximized="0"
   inkscape:current-layer="Layer_1" />
<style
   type="text/css"
   id="style2">
	.st0{fill:#B20033;}
</style>
<path
   class="st0"
   d="M540.64,158.65C320.48,158.65,142,329.76,142,540.84c0,211.08,178.48,382.19,398.64,382.19  c220.16,0,398.64-171.11,398.64-382.19C939.28,329.76,760.8,158.65,540.64,158.65 M540.64,839.35  c-171.96,0-311.37-133.65-311.37-298.52c0-164.86,139.41-298.52,311.37-298.52S852,375.97,852,540.84  C852,705.7,712.6,839.35,540.64,839.35"
   id="path4"
   style="fill:#ffffff" />
<path
   class="st0"
   d="M852.76,58.29l-42.72-42.72c-3.19-3.19-8.41-3.19-11.6,0L623.3,190.71l-44.51,44.51L403.66,410.35  c-3.19,3.19-3.19,8.4,0,11.59l42.72,42.72c3.19,3.19,8.41,3.19,11.6,0l175.14-175.14l44.51-44.5L852.76,69.88  C855.95,66.69,855.95,61.47,852.76,58.29"
   id="path6"
   style="fill:#ffffff" />
<path
   class="st0"
   d="M634.9,615.51c-3.19-3.19-8.4-3.19-11.6,0L448.17,790.65l-22.25,22.25l-22.25,22.25L228.52,1010.3  c-3.19,3.19-3.19,8.4,0,11.59l42.72,42.72c3.19,3.19,8.4,3.19,11.59,0l175.14-175.14l44.51-44.51l175.14-175.14  c3.19-3.19,3.19-8.4,0-11.59L634.9,615.51z"
   id="path8"
   style="fill:#ffffff" />
<path
   class="st0"
   d="M634.9,403.11c-3.19-3.19-8.4-3.19-11.6,0L403.66,622.75c-3.19,3.19-3.19,8.41,0,11.59l42.72,42.72  c3.19,3.19,8.4,3.19,11.59,0l219.65-219.65c3.19-3.19,3.19-8.4,0-11.59L634.9,403.11z"
   id="path10"
   style="fill:#ffffff" />
</svg>
