<?xml version="1.0" encoding="UTF-8" standalone="no"?>
<!-- Created with Inkscape (http://www.inkscape.org/) -->

<svg
   width="158.21497mm"
   height="32.947075mm"
   viewBox="0 0 158.21497 32.947075"
   version="1.1"
   id="svg5"
   inkscape:version="1.1.1 (3bf5ae0d25, 2021-09-20, custom)"
   sodipodi:docname="it_logo_text.svg"
   xmlns:inkscape="http://www.inkscape.org/namespaces/inkscape"
   xmlns:sodipodi="http://sodipodi.sourceforge.net/DTD/sodipodi-0.dtd"
   xmlns="http://www.w3.org/2000/svg"
   xmlns:svg="http://www.w3.org/2000/svg">
  <sodipodi:namedview
     id="namedview7"
     pagecolor="#505050"
     bordercolor="#eeeeee"
     borderopacity="1"
     inkscape:pageshadow="0"
     inkscape:pageopacity="0"
     inkscape:pagecheckerboard="0"
     inkscape:document-units="mm"
     showgrid="false"
     showguides="true"
     inkscape:guide-bbox="true"
     inkscape:snap-bbox="true"
     inkscape:snap-intersection-paths="true"
     inkscape:object-paths="true"
     inkscape:snap-smooth-nodes="true"
     inkscape:snap-midpoints="true"
     inkscape:snap-center="true"
     inkscape:bbox-paths="true"
     inkscape:bbox-nodes="true"
     inkscape:snap-bbox-edge-midpoints="true"
     inkscape:snap-bbox-midpoints="true"
     inkscape:zoom="1.2810466"
     inkscape:cx="197.88507"
     inkscape:cy="103.43105"
     inkscape:window-width="2560"
     inkscape:window-height="1376"
     inkscape:window-x="0"
     inkscape:window-y="33"
     inkscape:window-maximized="1"
     inkscape:current-layer="layer1"
     inkscape:snap-global="false"
     fit-margin-top="0"
     fit-margin-left="0"
     fit-margin-right="0"
     fit-margin-bottom="0" />
  <defs
     id="defs2">
    <inkscape:path-effect
       effect="roughen"
       id="path-effect4586"
       is_visible="true"
       lpeversion="1.1"
       method="size"
       max_segment_size="4"
       segments="2"
       displace_x="10;1"
       displace_y="10;1"
       global_randomize="1;1"
       handles="along"
       shift_nodes="true"
       fixed_displacement="false"
       spray_tool_friendly="false" />
    <inkscape:path-effect
       effect="roughen"
       id="path-effect4584"
       is_visible="true"
       lpeversion="1.1"
       method="size"
       max_segment_size="4"
       segments="2"
       displace_x="10;1"
       displace_y="10;1"
       global_randomize="1;1"
       handles="along"
       shift_nodes="true"
       fixed_displacement="false"
       spray_tool_friendly="false" />
    <inkscape:path-effect
       effect="simplify"
       id="path-effect1237"
       is_visible="true"
       lpeversion="1"
       steps="1"
       threshold="0.00127072"
       smooth_angles="360"
       helper_size="0"
       simplify_individual_paths="false"
       simplify_just_coalesce="false" />
    <inkscape:path-effect
       effect="simplify"
       id="path-effect1233"
       is_visible="true"
       lpeversion="1"
       steps="1"
       threshold="0.00127072"
       smooth_angles="360"
       helper_size="0"
       simplify_individual_paths="false"
       simplify_just_coalesce="false" />
    <inkscape:path-effect
       effect="simplify"
       id="path-effect1229"
       is_visible="true"
       lpeversion="1"
       steps="1"
       threshold="0.00672131"
       smooth_angles="360"
       helper_size="0"
       simplify_individual_paths="false"
       simplify_just_coalesce="false" />
    <inkscape:path-effect
       effect="simplify"
       id="path-effect1215"
       is_visible="true"
       lpeversion="1"
       steps="1"
       threshold="0.00672131"
       smooth_angles="360"
       helper_size="0"
       simplify_individual_paths="false"
       simplify_just_coalesce="false" />
    <inkscape:path-effect
       effect="simplify"
       id="path-effect1209"
       is_visible="true"
       lpeversion="1"
       steps="1"
       threshold="0.00672131"
       smooth_angles="360"
       helper_size="0"
       simplify_individual_paths="false"
       simplify_just_coalesce="false" />
    <inkscape:path-effect
       effect="simplify"
       id="path-effect1203"
       is_visible="true"
       lpeversion="1"
       steps="1"
       threshold="0.00672131"
       smooth_angles="360"
       helper_size="0"
       simplify_individual_paths="false"
       simplify_just_coalesce="false" />
    <inkscape:path-effect
       effect="simplify"
       id="path-effect1199"
       is_visible="true"
       lpeversion="1"
       steps="1"
       threshold="0.0002"
       smooth_angles="360"
       helper_size="0"
       simplify_individual_paths="false"
       simplify_just_coalesce="false" />
    <inkscape:path-effect
       effect="simplify"
       id="path-effect1195"
       is_visible="true"
       lpeversion="1"
       steps="1"
       threshold="0.0002"
       smooth_angles="360"
       helper_size="0"
       simplify_individual_paths="false"
       simplify_just_coalesce="false" />
    <inkscape:path-effect
       effect="simplify"
       id="path-effect1191"
       is_visible="true"
       lpeversion="1"
       steps="1"
       threshold="0.0002"
       smooth_angles="360"
       helper_size="0"
       simplify_individual_paths="false"
       simplify_just_coalesce="false" />
    <inkscape:path-effect
       effect="simplify"
       id="path-effect1187"
       is_visible="true"
       lpeversion="1"
       steps="1"
       threshold="0.0119355"
       smooth_angles="360"
       helper_size="0"
       simplify_individual_paths="false"
       simplify_just_coalesce="false" />
    <inkscape:path-effect
       effect="simplify"
       id="path-effect1183"
       is_visible="true"
       lpeversion="1"
       steps="1"
       threshold="0.0119355"
       smooth_angles="360"
       helper_size="0"
       simplify_individual_paths="false"
       simplify_just_coalesce="false" />
    <inkscape:path-effect
       effect="simplify"
       id="path-effect1179"
       is_visible="true"
       lpeversion="1"
       steps="1"
       threshold="0.00267081"
       smooth_angles="360"
       helper_size="0"
       simplify_individual_paths="false"
       simplify_just_coalesce="false" />
    <inkscape:path-effect
       effect="simplify"
       id="path-effect1175"
       is_visible="true"
       lpeversion="1"
       steps="1"
       threshold="0.00267081"
       smooth_angles="360"
       helper_size="0"
       simplify_individual_paths="false"
       simplify_just_coalesce="false" />
  </defs>
  <g
     inkscape:label="Layer 1"
     inkscape:groupmode="layer"
     id="layer1"
     transform="translate(-16.504351,-57.264177)">
    <g
       id="g1122"
       transform="matrix(0.26458333,0,0,0.26458333,-193.43879,-50.229693)"
       style="fill:#ffffff">
      <path
         class="cls-3"
         d="m 795.53,528.33 c -1.56,-1.39 -2.23,-3.47 -2,-6.24 l 5.72,-70.74 a 7.56,7.56 0 0 1 3,-6.07 10.41,10.41 0 0 1 6.41,-2.08 8.65,8.65 0 0 1 6.07,2.08 c 1.5,1.39 2.19,3.42 2.08,6.07 l -5.72,70.74 q -0.36,4.33 -2.95,6.32 a 10.22,10.22 0 0 1 -6.42,2 8.94,8.94 0 0 1 -6.15,-2.07 m 7.37,-104.89 a 9.51,9.51 0 0 1 -2.95,-7.28 9.28,9.28 0 0 1 2.95,-7.2 13.07,13.07 0 0 1 15.86,0 9.17,9.17 0 0 1 3,7.2 9.54,9.54 0 0 1 -2.94,7.28 12.87,12.87 0 0 1 -16,0"
         id="path178"
         style="fill:#ffffff" />
      <path
         class="cls-3"
         d="m 907.7,450.31 q 7.37,7.45 7.36,22 c 0,2.31 -0.06,4.05 -0.17,5.2 l -3.47,44.55 a 8.73,8.73 0 0 1 -2.86,6.16 9.63,9.63 0 0 1 -6.5,2.17 8.64,8.64 0 0 1 -6.24,-2.17 c -1.5,-1.44 -2.14,-3.5 -1.91,-6.16 l 3.47,-43.68 a 29.18,29.18 0 0 0 0.17,-3.64 q 0,-17.68 -17,-17.69 -10.74,0 -17.07,6.42 -6.33,6.42 -7.2,17.85 L 853,522.08 a 8.81,8.81 0 0 1 -2.86,6.16 9.65,9.65 0 0 1 -6.5,2.17 8.35,8.35 0 0 1 -6.16,-2.17 7.82,7.82 0 0 1 -2,-6.16 l 5.72,-70.9 a 7.5,7.5 0 0 1 2.95,-5.81 10.37,10.37 0 0 1 6.58,-2.16 7.78,7.78 0 0 1 5.73,2.07 7.24,7.24 0 0 1 1.9,5.73 l -0.52,6.06 a 29.39,29.39 0 0 1 11.7,-10.49 36.21,36.21 0 0 1 16.56,-3.72 q 14.22,0 21.59,7.45"
         id="path180"
         style="fill:#ffffff" />
      <path
         class="cls-3"
         d="m 969.93,426.21 q -4.42,4.86 -5.29,14.39 l -0.34,4.34 h 17.16 a 7.42,7.42 0 0 1 5.29,1.73 6.18,6.18 0 0 1 1.81,4.68 q 0,7.11 -8,7.11 h -17.31 l -5,63.62 a 7.88,7.88 0 0 1 -2.86,6.25 10.09,10.09 0 0 1 -6.33,2.08 9,9 0 0 1 -6.07,-2.08 q -2.43,-2.08 -2.25,-6.25 l 5,-63.62 h -10.23 a 7.74,7.74 0 0 1 -5.37,-1.73 6,6 0 0 1 -1.91,-4.68 6.67,6.67 0 0 1 2.08,-5.29 c 1.39,-1.22 3.41,-1.82 6.07,-1.82 h 10.41 l 0.17,-2.26 q 2.77,-33.29 35.89,-35.36 l 3.63,-0.17 q 9.19,-0.52 9.19,6.06 a 6.44,6.44 0 0 1 -1.9,5 9.37,9.37 0 0 1 -5.55,2.08 l -4.68,0.35 q -9.19,0.69 -13.61,5.54"
         id="path182"
         style="fill:#ffffff" />
      <path
         class="cls-3"
         d="m 1010.93,525.73 a 34.82,34.82 0 0 1 -14.21,-14.39 45,45 0 0 1 -5,-21.67 q 0,-14.22 5.29,-24.79 a 38.4,38.4 0 0 1 14.91,-16.3 42.75,42.75 0 0 1 22.27,-5.72 q 12.48,0 21.67,5.11 a 35.5,35.5 0 0 1 14.22,14.39 q 5,9.28 5,21.76 0,14.22 -5.28,24.7 A 38.58,38.58 0 0 1 1054.88,525 q -9.63,5.72 -22.45,5.72 -12.32,0 -21.5,-5 M 1051,507.87 q 6.4,-9 6.42,-24.27 0,-13 -6,-19.85 -6,-6.85 -17.08,-6.85 -12.13,0 -18.54,9 -6.41,9 -6.42,24.26 0,13.19 6,19.94 6,6.75 17.25,6.76 12,0 18.38,-9"
         id="path184"
         style="fill:#ffffff" />
      <path
         class="cls-3"
         d="m 1135.84,446.5 a 3.24,3.24 0 0 1 0.78,2.25 3.21,3.21 0 0 1 -0.78,2.25 2.35,2.35 0 0 1 -1.82,0.87 h -23.58 l -3.81,48.89 a 31.74,31.74 0 0 0 -0.17,3.81 q 0,9.19 4.41,14.22 4.41,5.03 12.22,5 a 36.28,36.28 0 0 0 4.69,-0.26 21.7,21.7 0 0 1 2.77,-0.26 q 2.78,0 2.77,3.64 c 0,1.27 -0.75,2.2 -2.25,2.77 -1.5,0.57 -4.28,0.87 -8.32,0.87 q -10.76,0 -17.16,-6.76 -6.4,-6.76 -6.42,-18.55 a 25.34,25.34 0 0 1 0.18,-3.47 l 3.81,-49.93 h -14 A 2.73,2.73 0 0 1 1087,451 a 3.47,3.47 0 0 1 -0.78,-2.42 3,3 0 0 1 0.78,-2.08 2.55,2.55 0 0 1 2,-0.87 h 14.74 l 1.73,-23.23 a 4.11,4.11 0 0 1 1.22,-2.43 3.77,3.77 0 0 1 5.2,0 3.27,3.27 0 0 1 0.86,2.78 l -1.75,22.88 h 22.89 a 2.56,2.56 0 0 1 2,0.87"
         id="path186"
         style="fill:#ffffff" />
      <path
         class="cls-3"
         d="m 1153.6,488.28 v 2.77 q 0,15.26 7.63,23.93 7.63,8.67 22,8.67 a 45.25,45.25 0 0 0 14.74,-2.43 40.67,40.67 0 0 0 12.31,-6.59 4.38,4.38 0 0 1 2.94,-1.21 3.18,3.18 0 0 1 2.34,1 3,3 0 0 1 1,2.17 4.6,4.6 0 0 1 -1.56,3.29 q -4.67,4.68 -13.69,7.8 a 54.34,54.34 0 0 1 -17.86,3.12 q -17.51,0 -27.65,-10.92 -10.14,-10.92 -10.14,-29.47 0,-14 4.94,-24.62 a 37.68,37.68 0 0 1 14.13,-16.38 q 9.19,-5.81 21.67,-5.81 16.47,0 25,9.62 8.53,9.62 8.5,28.69 a 6.44,6.44 0 0 1 -1.65,4.77 5.52,5.52 0 0 1 -4.07,1.65 z m 11,-29.82 q -8.4,8.15 -10.31,23.06 h 58.25 q 0.69,-15.43 -6.24,-23.32 -6.93,-7.89 -19.42,-7.89 -13.87,0 -22.28,8.15"
         id="path188"
         style="fill:#ffffff" />
      <path
         class="cls-3"
         d="M 1253.63,525.73 A 33.81,33.81 0 0 1 1241,511.6 a 47.25,47.25 0 0 1 -4.51,-21.24 q 0,-14 4.94,-24.62 a 38,38 0 0 1 14,-16.38 q 9.1,-5.81 21.59,-5.81 a 46.81,46.81 0 0 1 16.21,2.77 32.48,32.48 0 0 1 11.87,7.11 5.25,5.25 0 0 1 1.56,3.47 4,4 0 0 1 -1,2.86 3.2,3.2 0 0 1 -2.42,1.13 3.33,3.33 0 0 1 -2.43,-1 q -11.28,-9.36 -24.44,-9.36 -15.27,0 -23.67,10.74 -8.4,10.74 -8.41,29.65 0,15.25 7.63,24 7.63,8.75 21.67,8.75 a 30.91,30.91 0 0 0 12.39,-2.42 41.83,41.83 0 0 0 10.84,-6.94 3.35,3.35 0 0 1 2.43,-1 3.88,3.88 0 0 1 3.64,3.64 3.78,3.78 0 0 1 -0.89,2.05 37.5,37.5 0 0 1 -13,8.67 42.66,42.66 0 0 1 -16.3,3.12 35.59,35.59 0 0 1 -19.07,-5"
         id="path190"
         style="fill:#ffffff" />
      <path
         class="cls-3"
         d="m 1384,450.57 q 7.45,7 7.46,20.72 a 42.53,42.53 0 0 1 -0.18,4.51 l -3.81,50.62 a 4.09,4.09 0 0 1 -1.39,3 4.18,4.18 0 0 1 -2.6,1 3.41,3.41 0 0 1 -2.51,-1 3.69,3.69 0 0 1 -0.79,-3 l 3.82,-49.93 a 45.13,45.13 0 0 0 0.18,-4.51 q 0,-21.5 -21.5,-21.49 -13.7,0 -21.93,8.06 -8.23,8.06 -9.28,22.1 l -3.81,45.77 a 4.27,4.27 0 0 1 -1.3,3 3.83,3.83 0 0 1 -2.51,1 3.75,3.75 0 0 1 -2.61,-1 3.5,3.5 0 0 1 -0.86,-3 l 9.36,-116.85 a 3.13,3.13 0 0 1 1.39,-2.51 4.68,4.68 0 0 1 2.59,-0.78 3.63,3.63 0 0 1 2.52,0.86 3,3 0 0 1 0.78,2.61 l -4,50.1 a 30.34,30.34 0 0 1 12,-12.05 35.08,35.08 0 0 1 17.34,-4.25 q 14.22,0 21.67,7"
         id="path192"
         style="fill:#ffffff" />
    </g>
  </g>
</svg>
