<?xml version="1.0" encoding="utf-8"?>
<!-- Generator: Adobe Illustrator 23.0.3, SVG Export Plug-In . SVG Version: 6.00 Build 0)  -->
<svg version="1.1" id="Layer_1" xmlns="http://www.w3.org/2000/svg" xmlns:xlink="http://www.w3.org/1999/xlink" x="0px" y="0px"
	 viewBox="0 0 1080 1080" style="enable-background:new 0 0 1080 1080;" xml:space="preserve">
<style type="text/css">
	.st0{fill:#D65F0D;}
</style>
<path class="st0" d="M640.99,394.11c-3.4-3.4-8.96-3.4-12.36,0L394.82,627.93c-3.4,3.4-3.4,8.96,0,12.36l45.47,45.47
	c3.4,3.4,8.96,3.4,12.35,0l233.82-233.82c3.4-3.4,3.4-8.96,0-12.36L640.99,394.11z"/>
<path class="st0" d="M1049.26,452.89h-87.92c-11.87-52.97-34.32-102.15-65.16-145.42l65.65-65.65c3.4-3.4,3.4-8.96,0-12.36
	L851.1,118.73c-3.4-3.4-8.96-3.4-12.36,0l-70.83,70.83c-42.39-25.33-89.69-43.8-140.24-53.76V31.3c0-4.81-3.93-8.74-8.74-8.74
	h-156.6c-4.8,0-8.74,3.93-8.74,8.74v104.5c-50.55,9.96-97.85,28.43-140.24,53.76l-70.84-70.83c-3.4-3.4-8.96-3.4-12.36,0
	L119.44,229.46c-3.4,3.4-3.4,8.96,0,12.36l65.65,65.65c-30.84,43.27-53.29,92.46-65.16,145.42H32.01c-4.8,0-8.74,3.93-8.74,8.74
	v156.6c0,4.81,3.93,8.74,8.74,8.74h87.92c11.87,52.96,34.32,102.15,65.16,145.42l-65.65,65.66c-3.4,3.4-3.4,8.96,0,12.35
	l110.73,110.73c3.4,3.4,8.96,3.4,12.36,0l70.84-70.83c42.39,25.33,89.69,43.8,140.24,53.76v104.5c0,4.81,3.93,8.74,8.74,8.74h156.6
	c4.8,0,8.74-3.93,8.74-8.74v-104.5c50.55-9.95,97.85-28.43,140.24-53.76l70.83,70.83c3.4,3.4,8.96,3.4,12.36,0L961.83,850.4
	c3.4-3.4,3.4-8.96,0-12.35l-65.65-65.66c30.84-43.27,53.29-92.46,65.16-145.42h87.92c4.81,0,8.74-3.93,8.74-8.74v-156.6
	C1058,456.83,1054.07,452.89,1049.26,452.89 M540.64,862.18c-185.63,0-336.12-144.28-336.12-322.25S355,217.68,540.64,217.68
	c185.63,0,336.11,144.27,336.11,322.25S726.27,862.18,540.64,862.18"/>
</svg>
