<?xml version="1.0" encoding="UTF-8" standalone="no"?>
<!-- Created with Inkscape (http://www.inkscape.org/) -->

<svg
   width="53.850624mm"
   height="18.377964mm"
   viewBox="0 0 53.850625 18.377964"
   version="1.1"
   id="svg5"
   inkscape:version="1.1.1 (3bf5ae0d25, 2021-09-20, custom)"
   sodipodi:docname="osut_logo.svg"
   xmlns:inkscape="http://www.inkscape.org/namespaces/inkscape"
   xmlns:sodipodi="http://sodipodi.sourceforge.net/DTD/sodipodi-0.dtd"
   xmlns="http://www.w3.org/2000/svg"
   xmlns:svg="http://www.w3.org/2000/svg">
  <sodipodi:namedview
     id="namedview7"
     pagecolor="#505050"
     bordercolor="#eeeeee"
     borderopacity="1"
     inkscape:pageshadow="0"
     inkscape:pageopacity="0"
     inkscape:pagecheckerboard="0"
     inkscape:document-units="mm"
     showgrid="false"
     showguides="true"
     inkscape:guide-bbox="true"
     inkscape:snap-bbox="true"
     inkscape:snap-intersection-paths="true"
     inkscape:object-paths="true"
     inkscape:snap-smooth-nodes="true"
     inkscape:snap-midpoints="true"
     inkscape:snap-center="true"
     inkscape:bbox-paths="true"
     inkscape:bbox-nodes="true"
     inkscape:snap-bbox-edge-midpoints="true"
     inkscape:snap-bbox-midpoints="true"
     inkscape:zoom="1.2810466"
     inkscape:cx="58.155574"
     inkscape:cy="68.303526"
     inkscape:window-width="2560"
     inkscape:window-height="1376"
     inkscape:window-x="0"
     inkscape:window-y="33"
     inkscape:window-maximized="1"
     inkscape:current-layer="layer1"
     inkscape:snap-global="false"
     fit-margin-top="0"
     fit-margin-left="0"
     fit-margin-right="0"
     fit-margin-bottom="0" />
  <defs
     id="defs2">
    <inkscape:path-effect
       effect="roughen"
       id="path-effect4586"
       is_visible="true"
       lpeversion="1.1"
       method="size"
       max_segment_size="4"
       segments="2"
       displace_x="10;1"
       displace_y="10;1"
       global_randomize="1;1"
       handles="along"
       shift_nodes="true"
       fixed_displacement="false"
       spray_tool_friendly="false" />
    <inkscape:path-effect
       effect="roughen"
       id="path-effect4584"
       is_visible="true"
       lpeversion="1.1"
       method="size"
       max_segment_size="4"
       segments="2"
       displace_x="10;1"
       displace_y="10;1"
       global_randomize="1;1"
       handles="along"
       shift_nodes="true"
       fixed_displacement="false"
       spray_tool_friendly="false" />
    <inkscape:path-effect
       effect="simplify"
       id="path-effect1237"
       is_visible="true"
       lpeversion="1"
       steps="1"
       threshold="0.00127072"
       smooth_angles="360"
       helper_size="0"
       simplify_individual_paths="false"
       simplify_just_coalesce="false" />
    <inkscape:path-effect
       effect="simplify"
       id="path-effect1233"
       is_visible="true"
       lpeversion="1"
       steps="1"
       threshold="0.00127072"
       smooth_angles="360"
       helper_size="0"
       simplify_individual_paths="false"
       simplify_just_coalesce="false" />
    <inkscape:path-effect
       effect="simplify"
       id="path-effect1229"
       is_visible="true"
       lpeversion="1"
       steps="1"
       threshold="0.00672131"
       smooth_angles="360"
       helper_size="0"
       simplify_individual_paths="false"
       simplify_just_coalesce="false" />
    <inkscape:path-effect
       effect="simplify"
       id="path-effect1215"
       is_visible="true"
       lpeversion="1"
       steps="1"
       threshold="0.00672131"
       smooth_angles="360"
       helper_size="0"
       simplify_individual_paths="false"
       simplify_just_coalesce="false" />
    <inkscape:path-effect
       effect="simplify"
       id="path-effect1209"
       is_visible="true"
       lpeversion="1"
       steps="1"
       threshold="0.00672131"
       smooth_angles="360"
       helper_size="0"
       simplify_individual_paths="false"
       simplify_just_coalesce="false" />
    <inkscape:path-effect
       effect="simplify"
       id="path-effect1203"
       is_visible="true"
       lpeversion="1"
       steps="1"
       threshold="0.00672131"
       smooth_angles="360"
       helper_size="0"
       simplify_individual_paths="false"
       simplify_just_coalesce="false" />
    <inkscape:path-effect
       effect="simplify"
       id="path-effect1199"
       is_visible="true"
       lpeversion="1"
       steps="1"
       threshold="0.0002"
       smooth_angles="360"
       helper_size="0"
       simplify_individual_paths="false"
       simplify_just_coalesce="false" />
    <inkscape:path-effect
       effect="simplify"
       id="path-effect1195"
       is_visible="true"
       lpeversion="1"
       steps="1"
       threshold="0.0002"
       smooth_angles="360"
       helper_size="0"
       simplify_individual_paths="false"
       simplify_just_coalesce="false" />
    <inkscape:path-effect
       effect="simplify"
       id="path-effect1191"
       is_visible="true"
       lpeversion="1"
       steps="1"
       threshold="0.0002"
       smooth_angles="360"
       helper_size="0"
       simplify_individual_paths="false"
       simplify_just_coalesce="false" />
    <inkscape:path-effect
       effect="simplify"
       id="path-effect1187"
       is_visible="true"
       lpeversion="1"
       steps="1"
       threshold="0.0119355"
       smooth_angles="360"
       helper_size="0"
       simplify_individual_paths="false"
       simplify_just_coalesce="false" />
    <inkscape:path-effect
       effect="simplify"
       id="path-effect1183"
       is_visible="true"
       lpeversion="1"
       steps="1"
       threshold="0.0119355"
       smooth_angles="360"
       helper_size="0"
       simplify_individual_paths="false"
       simplify_just_coalesce="false" />
    <inkscape:path-effect
       effect="simplify"
       id="path-effect1179"
       is_visible="true"
       lpeversion="1"
       steps="1"
       threshold="0.00267081"
       smooth_angles="360"
       helper_size="0"
       simplify_individual_paths="false"
       simplify_just_coalesce="false" />
    <inkscape:path-effect
       effect="simplify"
       id="path-effect1175"
       is_visible="true"
       lpeversion="1"
       steps="1"
       threshold="0.00267081"
       smooth_angles="360"
       helper_size="0"
       simplify_individual_paths="false"
       simplify_just_coalesce="false" />
  </defs>
  <g
     inkscape:label="Layer 1"
     inkscape:groupmode="layer"
     id="layer1"
     transform="translate(-60.906769,-101.15532)">
    <g
       id="OSUT"
       transform="matrix(0.26458333,0,0,0.26458333,-270.09229,65.148179)"
       style="fill:#ffffff;fill-opacity:1">
      <path
         class="cls-4"
         d="m 1306.88,187.19 a 28.93,28.93 0 1 1 -45.81,-32.49 l 8.66,-1.7 a 25.74,25.74 0 1 0 35.6,27.84 z"
         id="path52"
         style="fill:#ffffff;fill-opacity:1" />
      <path
         class="cls-4"
         d="m 1448.94,189.53 -0.1,0.06 -0.1,0.06 -0.1,0.07 -0.05,0.06 v 0.06 0.06 0.06 0.07 l -0.05,0.06 v 0.12 0.06 0.19 0.62 0.12 0.12 0.07 l 0.05,0.06 v 0.06 l 0.1,0.06 0.15,0.06 h 0.55 l 0.2,-0.06 0.09,-0.06 v -0.06 l 0.1,-0.06 v -0.07 -0.06 -0.06 l 0.05,-0.06 v -0.06 -0.06 -0.13 -0.12 l 0.05,-0.19 v -0.49 l -0.05,-0.19 v -0.06 -0.06 -0.06 -0.07 l -0.05,-0.06 -0.1,-0.06 -0.2,-0.06 h -0.39 l -0.2,0.06 z m -24.06,0.62 -0.05,0.25 v 0.24 0.25 0.31 0.25 l -0.05,0.25 v 0.31 0.24 0.25 0.25 l -0.05,0.31 v 0.24 0.25 0.31 0.25 l -0.05,0.25 v 0.24 0.25 0.12 0.13 l -0.05,0.06 v 0.06 l -0.1,0.06 v 0.07 l -0.15,0.06 -0.15,0.06 h -0.24 l -0.2,-0.06 -0.05,-0.06 h -0.1 v -0.13 -0.06 -0.49 -0.13 -0.12 -0.06 l 0.05,-0.07 0.1,-0.06 0.1,-0.06 0.1,-0.06 0.14,-0.06 h 0.3 l 0.15,0.06 0.1,0.06 v 0.06 0 -0.68 -1.36 -0.31 h -0.45 l -0.29,0.06 -0.2,0.07 -0.15,0.06 -0.15,0.06 -0.1,0.06 -0.1,0.06 -0.1,0.06 -0.1,0.07 -0.1,0.06 -0.05,0.06 -0.1,0.06 v 0.06 l -0.1,0.07 v 0.06 0.06 l -0.1,0.06 -0.05,0.06 v 0.06 0.07 0.06 0.06 l -0.05,0.06 v 0.06 0.07 0.06 0.12 l -0.05,0.06 v 0.13 0.06 0.12 0.13 l -0.05,0.12 v 0.12 0.19 0.25 0.31 0.62 0.3 0.19 0.12 0.13 l 0.05,0.12 v 0.06 0.13 0.06 0.06 l 0.05,0.06 v 0.06 0.07 0.06 l 0.1,0.06 v 0.06 0.06 l 0.1,0.07 0.1,0.06 0.1,0.06 0.15,0.06 0.19,0.06 0.25,0.06 h 0.84 l 0.3,-0.06 0.2,-0.06 0.15,-0.06 0.15,-0.06 0.1,-0.06 0.1,-0.07 0.1,-0.06 0.1,-0.06 0.09,-0.06 v -0.06 l 0.1,-0.07 v -0.06 l 0.1,-0.06 0.05,-0.06 v -0.06 l 0.1,-0.07 v -0.06 l 0.05,-0.06 v -0.06 -0.06 -0.06 -0.07 l 0.05,-0.06 v -0.06 -0.06 -0.13 -0.06 l 0.05,-0.12 v -0.06 -0.13 -0.12 -0.12 -0.13 l 0.05,-0.18 v -0.19 -0.31 -0.25 -0.24 l 0.05,-0.31 v -0.25 -0.25 -0.25 -0.3 l 0.05,-0.25 v -0.25 -0.31 -0.25 -0.24 l 0.05,-0.25 v -0.31 -0.25 -0.24 -0.34 h -1.89 v 0.12 z m 27.73,0.19 v 0.37 0.31 0.37 0.31 l -0.05,0.37 v 0.31 0.37 0.31 0.37 l -0.05,0.31 v 0.37 0.31 0.37 h 1.79 v -0.06 l 0.05,-0.19 v -0.25 -0.18 -0.25 -0.18 l 0.05,-0.19 v -0.25 -0.18 -0.25 -0.19 l 0.05,-0.24 v -0.19 -0.25 -0.18 -0.19 l 0.05,-0.25 v -0.18 -0.25 -0.18 -0.25 l 0.05,-0.19 V 190 h -2.23 l -0.05,0.31 z m -47,-0.25 -0.2,0.06 -0.15,0.06 -0.1,0.06 -0.1,0.07 -0.1,0.06 -0.1,0.06 -0.1,0.06 v 0.06 l -0.1,0.06 v 0.07 0.06 l -0.09,0.06 -0.05,0.06 v 0.06 0.07 0.06 0.06 l -0.05,0.06 v 0.06 0.06 0.07 0.06 l -0.05,0.06 v 0.12 0.07 0.06 0.06 l -0.05,0.12 v 0.07 0.12 0.06 0.12 l -0.05,0.13 v 0.06 0.12 0.13 0.12 l -0.05,0.12 v 0.13 0.12 0.13 0.06 l -0.05,0.12 v 0.13 0.06 0.12 0.12 l -0.05,0.07 v 0.12 0.06 0.06 0.13 l -0.05,0.06 v 0.06 0.06 0.13 0.06 l -0.05,0.06 -0.1,0.06 v 0.06 0.07 l -0.1,0.06 -0.1,0.06 -0.1,0.06 -0.75,0.06 v 0.13 0.25 0.3 0.25 0.25 l -0.05,0.31 v 0.25 0.24 0.19 h 1.83 l 0.15,-0.06 0.15,-0.06 0.1,-0.07 0.1,-0.06 v -0.06 l 0.1,-0.06 v -0.06 l 0.1,-0.07 0.05,-0.06 v -0.06 l 0.09,-0.06 v -0.06 l 0.05,-0.07 v -0.06 -0.06 -0.06 -0.06 l 0.05,-0.06 v -0.07 -0.12 -0.06 -0.06 l 0.05,-0.07 v -0.12 -0.06 -0.06 -0.13 l 0.05,-0.06 v -0.12 -0.13 -0.06 -0.12 l 0.05,-0.13 v -0.12 -0.12 -0.13 -0.12 l 0.05,-0.12 v -0.13 -0.12 -0.13 -0.06 l 0.05,-0.12 v -0.12 -0.07 -0.12 -0.06 l 0.05,-0.06 v -0.13 -0.06 -0.06 -0.06 l 0.05,-0.07 v -0.06 -0.06 -0.06 -0.06 l 0.1,-0.06 0.09,-0.07 v -0.06 l 0.15,-0.06 0.2,-0.06 0.8,-0.06 v -0.19 -0.25 -0.24 l 0.05,-0.31 v -0.25 -0.25 -0.31 -0.24 -0.34 h -1.54 l -0.24,0.06 z m 31.3,1.85 -0.2,0.07 -0.15,0.06 -0.15,0.06 -0.1,0.06 -0.1,0.06 -0.1,0.06 -0.1,0.07 -0.1,0.06 -0.05,0.06 -0.09,0.06 v 0.06 l -0.1,0.07 v 0.06 0.06 0.06 0.06 l -0.05,0.06 v 0.07 0.06 0.06 0.12 l -0.05,0.07 v 0.12 0.12 0.13 0.18 l -0.05,0.25 v 0.25 0.31 0.24 0.25 l -0.05,0.25 v 0.31 0.25 0.24 0.31 l -0.05,0.25 v 0.25 0.25 0.12 h 1.93 v -0.19 -0.24 -0.25 l 0.05,-0.31 v -0.25 -0.25 -0.24 -0.31 l 0.05,-0.25 v -0.25 -0.31 -0.18 -0.13 -0.12 h 0.1 v -0.06 l 0.1,-0.06 h 0.15 l 0.1,0.06 0.05,0.06 v 0.37 l -0.05,0.31 v 0.25 0.25 0.31 0.24 l -0.05,0.25 v 0.25 0.31 0.24 0.25 0.25 h 1.88 v -0.06 -0.25 l 0.05,-0.25 v -0.25 -0.3 -0.25 -0.25 l 0.05,-0.31 v -0.25 -0.24 -0.25 -0.31 -0.25 -0.31 -0.55 -0.25 -0.13 -0.12 -0.12 -0.06 -0.07 l -0.05,-0.06 v -0.06 -0.06 -0.06 l -0.1,-0.07 v -0.06 l -0.1,-0.06 -0.1,-0.06 -0.1,-0.06 -0.1,-0.06 -0.2,-0.07 -0.24,-0.06 h -0.85 l -0.24,0.06 z m 11,0.31 v 0.25 0.25 0.31 0.24 l -0.05,0.25 v 0.31 0.25 0.25 0.24 l -0.05,0.31 v 0.25 0.25 0.31 0.24 l -0.05,0.25 v 0.31 0.25 0.25 0.24 0.19 h 1.93 l 0.05,-0.25 v -0.25 -0.24 -0.31 -0.25 l 0.05,-0.25 v -0.24 -0.31 -0.25 -0.25 l 0.05,-0.31 v -0.25 -0.24 -0.31 -0.25 l 0.05,-0.25 v -0.25 -0.3 -0.25 -0.25 -0.12 h -1.93 z m -33.14,0.06 v 0.25 l -0.05,0.31 v 0.25 0.25 0.24 0.31 l -0.05,0.25 v 0.25 0.31 0.24 0.25 l -0.05,0.31 v 0.68 l 0.05,0.19 v 0.12 0.12 0.13 0.06 l 0.05,0.06 v 0.06 0.07 0.06 0.06 l 0.1,0.06 v 0.06 l 0.1,0.07 0.1,0.06 0.1,0.06 0.1,0.06 0.2,0.06 0.25,0.06 h 0.84 l 0.25,-0.06 0.2,-0.06 0.14,-0.06 0.15,-0.06 0.1,-0.06 0.1,-0.07 0.1,-0.06 0.1,-0.06 0.1,-0.06 v -0.06 l 0.1,-0.07 0.05,-0.06 0.1,-0.06 v -0.06 -0.06 l 0.05,-0.07 v -0.06 -0.06 -0.06 -0.06 l 0.05,-0.13 v -0.06 -0.06 -0.12 -0.13 l 0.05,-0.18 v -0.19 -0.25 -0.24 -0.25 l 0.05,-0.31 v -0.25 -0.25 -0.3 -0.25 l 0.05,-0.25 v -0.25 -0.31 -0.24 -0.25 -0.06 h -1.94 l -0.05,0.12 v 0.25 0.25 0.3 0.25 l -0.05,0.25 v 0.31 0.25 0.24 0.25 l -0.05,0.31 v 0.25 0.12 0.06 0.07 l -0.05,0.06 -0.15,0.06 h -0.1 l -0.1,-0.06 v -0.06 -0.13 -0.06 -0.25 -0.31 -0.24 -0.25 l 0.05,-0.25 v -0.31 -0.25 -0.24 -0.31 l 0.05,-0.25 v -0.25 -0.18 h -1.94 v 0.24 z m 37.65,2.85 -0.15,0.06 -0.1,0.06 v 0.07 l -0.1,0.06 v 0.06 l -0.05,0.06 v 0.06 0.07 0.06 0.06 l -0.05,0.12 v 0.13 0.12 0.25 0.43 0.19 0.12 0.06 l 0.05,0.06 v 0.07 0.06 0.06 l 0.1,0.06 0.14,0.06 h 0.7 l 0.15,-0.06 0.1,-0.06 0.1,-0.06 0.09,-0.06 v -0.07 -0.06 l 0.1,-0.06 v -0.06 -0.06 -0.13 -0.06 l 0.05,-0.12 v -0.07 -0.18 -0.74 -0.13 -0.06 l -0.05,-0.12 v -0.06 l -0.1,-0.07 v -0.06 l -0.1,-0.06 -0.19,-0.06 h -0.55 l -0.2,0.06 z m -42.86,-5.07 v 0.25 0.24 l -0.05,0.25 v 0.31 0.25 0.24 0.31 l -0.05,0.25 v 0.25 0.25 0.3 0.25 l -0.05,0.25 v 0.31 0.25 0.24 0.25 l -0.05,0.31 v 0.25 0.25 1.11 0.18 0.13 l 0.05,0.12 v 0.06 0.07 0.06 0.06 l 0.05,0.06 v 0.06 0.07 l 0.1,0.06 0.1,0.06 0.1,0.06 0.15,0.06 0.24,0.06 h 0.9 l 0.29,-0.06 0.25,-0.06 0.2,-0.06 0.2,-0.06 0.15,-0.06 0.15,-0.07 0.14,-0.06 0.1,-0.06 v -0.14 -0.19 -0.12 -0.19 -0.12 l -0.05,-0.19 v -0.12 -0.19 -0.12 -0.19 h -0.15 l -0.15,0.07 -0.25,0.06 h -0.59 v -0.44 -0.24 -0.25 l 0.05,-0.31 V 194.21 194 h 1.14 l 0.05,-0.12 v -0.25 -0.24 -0.31 -0.25 l 0.05,-0.25 v -0.31 -0.18 h -1.09 l 0.05,-0.25 v -0.25 -0.25 -0.24 -0.31 l 0.05,-0.25 V 190.29 190 h -1.89 v 0.06 z m 20.14,4.08 v -0.06 -0.06 -0.07 -0.06 l 0.1,-0.06 v -0.06 l 0.1,-0.06 0.15,-0.06 h 0.49 l 0.15,0.06 0.1,0.06 v 0.06 0.06 l 0.05,0.13 v 0.12 0.12 h -1.64 l 0.05,-0.12 z m 0.45,-2.23 -0.2,0.07 -0.15,0.06 -0.15,0.06 -0.09,0.06 -0.1,0.06 -0.1,0.06 -0.1,0.07 -0.1,0.06 v 0.06 l -0.1,0.06 v 0.06 l -0.1,0.07 v 0.06 0.06 l -0.1,0.06 v 0.06 0.06 0.07 0.06 l -0.05,0.06 v 0.06 0.06 0.07 0.12 l -0.05,0.06 v 0.06 0.13 0.06 0.12 l -0.05,0.13 v 0.12 0.12 0.19 0.25 l -0.05,0.31 v 0.68 l 0.05,0.24 v 0.19 0.12 0.13 0.12 l 0.05,0.06 v 0.13 0.06 0.06 0.06 l 0.05,0.06 v 0.07 0.06 l 0.1,0.06 0.05,0.06 v 0.06 l 0.1,0.07 0.1,0.06 0.1,0.06 0.15,0.06 0.2,0.06 0.25,0.06 h 0.84 l 0.3,-0.06 0.2,-0.06 0.14,-0.06 0.1,-0.06 0.15,-0.06 0.1,-0.07 0.1,-0.06 0.1,-0.06 0.1,-0.06 v -0.06 l 0.1,-0.07 v -0.06 l 0.1,-0.06 v -0.06 l 0.05,-0.06 v -0.07 -0.06 l 0.1,-0.06 v -0.06 l 0.05,-0.06 v -0.06 -0.07 -0.06 -0.12 l -0.15,-0.06 -0.1,-0.07 -0.14,-0.06 -0.15,-0.06 -0.1,-0.06 -0.15,-0.06 -0.15,-0.06 -0.1,-0.07 -0.15,-0.06 h -0.2 v 0.06 l -0.05,0.07 -0.1,0.06 -0.09,0.06 -0.15,0.06 h -0.7 l -0.1,-0.06 v -0.06 l -0.05,-0.06 v -0.07 -0.06 -0.18 -0.13 h 3.42 v -0.18 l 0.05,-0.25 v -0.31 -0.68 -0.25 l -0.05,-0.18 v -0.13 -0.12 -0.13 -0.06 l -0.05,-0.12 v -0.06 -0.06 -0.07 -0.06 l -0.05,-0.06 v -0.06 -0.06 l -0.1,-0.07 -0.05,-0.06 -0.1,-0.06 -0.09,-0.06 -0.1,-0.06 -0.15,-0.06 -0.15,-0.07 -0.3,-0.06 h -0.84 l -0.3,0.06 z m 12.25,-1.85 v 0.25 0.24 0.25 0.31 l -0.05,0.25 v 0.24 0.31 0.25 0.25 l -0.05,0.25 v 0.3 0.25 0.25 0.31 l -0.05,0.25 v 0.24 0.25 0.31 0.25 l -0.05,0.25 v 1.11 l 0.05,0.18 v 0.13 0.12 0.06 0.07 l 0.05,0.06 v 0.06 0.06 0.06 0.07 l 0.1,0.06 0.09,0.06 0.1,0.06 0.15,0.06 0.25,0.06 h 0.89 l 0.3,-0.06 0.25,-0.06 0.2,-0.06 0.2,-0.06 0.14,-0.06 0.15,-0.07 0.15,-0.06 0.1,-0.06 V 197 l -0.05,-0.19 v -0.12 -0.19 -0.12 -0.19 l -0.05,-0.12 v -0.19 -0.12 -0.19 h -0.14 l -0.15,0.07 -0.25,0.06 h -0.6 v -0.44 l 0.05,-0.24 v -0.25 -0.31 -0.25 -0.21 h 1.14 v -0.12 -0.25 -0.24 -0.31 l 0.05,-0.25 v -0.25 -0.31 -0.18 h -1.1 l 0.06,-0.25 v -0.25 -0.25 l 0.05,-0.24 v -0.31 -0.25 -0.25 -0.29 h -1.89 l -0.05,0.06 z m -84,1.85 -0.19,0.07 -0.15,0.06 -0.15,0.06 -0.1,0.06 -0.1,0.06 -0.1,0.06 -0.1,0.07 -0.1,0.06 v 0.06 l -0.1,0.06 v 0.06 l -0.1,0.07 v 0.06 0.06 l -0.1,0.06 -0.05,0.06 v 0.06 0.07 0.06 0.06 l -0.05,0.06 v 0.06 0.07 0.12 0.06 l -0.05,0.06 v 0.13 0.06 0.12 0.13 l -0.05,0.12 v 0.12 0.19 0.25 0.24 l -0.05,0.25 v 0.25 0.31 0.25 0.24 l -0.05,0.31 v 0.25 0.25 0.25 0.3 l -0.05,0.25 v 0.25 0.31 0.25 0.24 l -0.05,0.25 v 0.31 h 0.29 v -0.06 -0.31 -0.25 l 0.05,-0.25 v -0.3 -0.25 -0.25 -0.25 l 0.05,-0.31 v -0.24 -0.25 -0.31 -0.25 l 0.05,-0.25 v -0.24 -0.31 -0.25 -0.25 l 0.05,-0.24 v -0.13 -0.12 -0.06 -0.07 l 0.1,-0.06 v -0.06 l 0.15,-0.06 0.15,-0.06 h 0.3 l 0.15,0.06 v 0.06 h 0.1 v 0.12 0.07 0.49 0.12 l -0.05,0.13 v 0.06 0.06 l -0.1,0.06 -0.1,0.07 -0.1,0.06 -0.15,0.06 h -0.3 l -0.14,-0.06 -0.1,-0.06 v -0.07 0 0.62 1.36 0.37 h 0.44 l 0.3,-0.06 0.2,-0.06 0.15,-0.06 0.15,-0.06 0.1,-0.06 0.1,-0.07 0.09,-0.06 0.1,-0.06 0.1,-0.06 v -0.06 l 0.1,-0.07 v -0.06 l 0.1,-0.06 v -0.06 l 0.05,-0.06 0.1,-0.07 v -0.06 -0.06 l 0.05,-0.06 v -0.06 -0.06 -0.07 -0.06 l 0.05,-0.06 v -0.06 -0.13 -0.06 -0.06 l 0.05,-0.12 v -0.13 -0.12 -0.12 -0.13 l 0.05,-0.18 v -0.19 -0.37 -0.68 -0.25 -0.18 l -0.05,-0.13 v -0.12 -0.13 -0.06 -0.12 l -0.05,-0.06 v -0.06 -0.07 -0.06 -0.06 l -0.05,-0.06 -0.1,-0.06 v -0.07 -0.06 l -0.1,-0.06 -0.1,-0.06 -0.1,-0.06 1.16,-0.07 -0.15,-0.07 -0.29,-0.06 h -0.85 l -0.3,0.06 z m 6.5,2.23 0.05,-0.06 v -0.06 -0.07 -0.06 l 0.1,-0.06 v -0.06 l 0.1,-0.06 0.15,-0.06 h 0.49 l 0.15,0.06 0.1,0.06 v 0.06 0.06 0.13 l 0.05,0.12 v 0.12 h -1.64 v -0.12 z m 0.45,-2.23 -0.2,0.07 -0.15,0.06 -0.15,0.06 -0.1,0.06 -0.1,0.06 -0.1,0.06 -0.09,0.07 -0.1,0.06 v 0.06 l -0.1,0.06 -0.05,0.06 -0.1,0.07 v 0.06 0.06 l -0.1,0.06 v 0.06 0.06 0.07 l -0.05,0.06 v 0.06 0.06 0.06 0.07 l -0.05,0.12 v 0.06 0.06 0.13 0.06 0.12 l -0.05,0.13 v 0.12 0.12 0.19 0.25 l -0.05,0.31 v 0.68 l 0.05,0.24 v 0.19 0.12 0.13 0.12 l 0.05,0.06 v 0.13 0.06 0.06 0.06 0.06 l 0.05,0.07 v 0.06 l 0.1,0.06 v 0.06 l 0.05,0.06 0.1,0.07 0.1,0.06 0.1,0.06 0.15,0.06 0.2,0.06 0.24,0.06 h 0.85 l 0.3,-0.06 0.19,-0.06 0.15,-0.06 0.1,-0.06 0.15,-0.06 0.1,-0.07 0.1,-0.06 0.1,-0.06 0.1,-0.06 v -0.06 l 0.1,-0.07 0.05,-0.06 0.1,-0.06 v -0.06 -0.06 l 0.05,-0.07 v -0.06 l 0.1,-0.06 v -0.06 l 0.05,-0.06 v -0.06 -0.07 -0.06 -0.12 l -0.15,-0.06 -0.1,-0.07 -0.15,-0.06 -0.14,-0.06 -0.1,-0.06 -0.15,-0.06 -0.15,-0.06 -0.1,-0.07 -0.15,-0.06 h -0.2 l -0.05,0.06 v 0.07 l -0.1,0.06 -0.1,0.06 -0.14,0.06 h -0.7 l -0.1,-0.06 -0.05,-0.06 v -0.06 -0.07 -0.06 -0.18 l -0.05,-0.13 h 3.09 v -0.18 l 0.05,-0.25 v -0.31 -0.68 -0.25 l -0.05,-0.18 v -0.13 -0.12 -0.13 -0.06 l -0.05,-0.12 v -0.06 -0.06 -0.07 -0.06 l -0.05,-0.06 v -0.06 -0.06 l -0.1,-0.07 -0.05,-0.06 -0.1,-0.06 -0.1,-0.06 -0.1,-0.06 -0.14,-0.06 -0.15,-0.07 -0.3,-0.06 h -0.84 l -0.3,0.06 z m 6.79,0 -0.19,0.07 -0.15,0.06 -0.15,0.06 -0.1,0.06 -0.1,0.06 -0.1,0.06 -0.1,0.07 -0.1,0.06 v 0.06 l -0.1,0.06 v 0.06 l -0.1,0.07 v 0.06 0.06 0.06 l -0.05,0.06 v 0.06 0.07 0.06 0.06 l -0.05,0.12 v 0.07 0.12 0.12 0.13 l -0.05,0.18 v 0.25 0.25 0.31 0.24 l -0.05,0.25 v 0.25 0.31 0.25 0.24 l -0.05,0.31 v 0.25 0.25 0.25 0.12 h 1.93 v -0.19 -0.24 -0.25 -0.31 l 0.05,-0.25 v -0.25 -0.24 -0.31 -0.25 l 0.05,-0.25 v -0.31 -0.18 -0.13 -0.12 h 0.1 v -0.06 l 0.1,-0.06 h 0.15 l 0.1,0.06 v 0.06 0.37 0.31 0.25 0.25 0.31 l -0.05,0.24 v 0.25 0.25 0.31 0.24 l -0.05,0.25 v 0.25 h 0.92 v -0.06 -0.25 l 0.05,-0.25 v -0.25 -0.3 -0.25 -0.25 l 0.05,-0.31 v -0.25 -0.24 -0.25 -0.31 l 0.05,-0.25 v -0.31 -0.55 -0.25 l -0.05,-0.13 v -0.12 -0.12 -0.06 -0.07 l -0.05,-0.06 v -0.06 -0.06 -0.06 l -0.1,-0.07 v -0.06 l -0.1,-0.06 -0.1,-0.06 -0.1,-0.06 -0.1,-0.06 -0.2,-0.07 -0.24,-0.06 h -0.85 l -0.25,0.06 z m 5.46,-1.85 v 0.25 0.24 0.25 l -0.05,0.31 v 0.25 0.24 0.31 0.25 l -0.05,0.25 v 0.25 0.3 0.25 0.25 l -0.05,0.31 v 0.25 0.24 0.25 0.31 l -0.05,0.25 v 0.25 1.11 0.18 l 0.05,0.13 v 0.12 0.06 0.07 0.06 l 0.05,0.06 v 0.06 0.06 0.07 l 0.1,0.06 0.1,0.06 0.1,0.06 0.15,0.06 0.25,0.06 h 0.89 l 0.3,-0.06 0.25,-0.06 0.2,-0.06 0.19,-0.06 0.15,-0.06 0.15,-0.07 0.15,-0.06 0.1,-0.06 V 197 l -0.05,-0.19 v -0.12 -0.19 -0.12 -0.19 l -0.05,-0.12 v -0.19 -0.12 -0.19 h -0.15 l -0.14,0.07 -0.25,0.06 h -0.6 v -0.44 -0.24 l 0.05,-0.25 v -0.31 -0.25 -0.21 h 1.14 v -0.12 -0.25 -0.24 -0.31 l 0.05,-0.25 v -0.25 -0.31 -0.18 h -1.1 l 0.06,-0.25 v -0.25 -0.25 -0.24 l 0.05,-0.31 v -0.25 -0.25 -0.29 h -1.88 v 0.06 z m 6.9,1.85 -0.2,0.07 -0.15,0.06 -0.15,0.06 -0.1,0.06 -0.1,0.06 -0.1,0.06 -0.1,0.07 -0.1,0.06 v 0.06 l -0.1,0.06 v 0.06 l -0.09,0.07 -0.05,0.06 v 0.06 0.06 0.06 0.06 l -0.05,0.07 v 0.06 0.06 0.12 0.07 l -0.05,0.12 v 0.12 0.13 0.18 0.25 l -0.05,0.25 v 0.31 0.24 0.25 0.25 l -0.05,0.31 v 0.25 0.24 0.31 0.25 0.25 l -0.05,0.25 v 0.12 h 1.93 v -0.19 -0.24 l 0.05,-0.25 v -0.31 -0.25 -0.25 -0.24 l 0.05,-0.31 v -0.25 -0.25 -0.31 -0.18 l 0.05,-0.13 v -0.06 -0.06 -0.06 l 0.1,-0.06 h 0.15 l 0.1,0.06 v 0.06 0.19 h 0.1 l 0.1,-0.07 0.15,-0.06 0.1,-0.06 0.1,-0.06 0.1,-0.06 0.09,-0.07 0.1,-0.06 0.1,-0.06 0.15,-0.06 0.1,-0.06 0.1,-0.06 0.1,-0.07 0.1,-0.06 0.1,-0.06 0.15,-0.06 0.1,-0.06 0.1,-0.07 v -0.06 -0.06 -0.19 -0.12 l -0.05,-0.06 v -0.06 -0.13 -0.06 -0.06 l -0.1,-0.06 v -0.06 -0.07 l -0.1,-0.06 v -0.06 l -0.1,-0.06 -0.1,-0.06 -0.15,-0.06 -0.15,-0.07 -0.24,-0.06 h -0.85 l -0.24,0.06 z m 4.41,0.37 v 0.25 0.31 0.25 0.25 l -0.05,0.24 v 0.31 0.25 0.25 0.31 l -0.05,0.24 v 0.25 0.31 0.68 0.19 0.12 l 0.05,0.12 v 0.13 0.06 0.06 0.06 l 0.05,0.07 v 0.06 0.06 l 0.1,0.06 0.05,0.06 0.1,0.07 0.1,0.06 0.1,0.06 0.1,0.06 0.19,0.06 0.25,0.06 h 0.85 l 0.24,-0.06 0.2,-0.06 0.15,-0.06 0.15,-0.06 0.1,-0.06 0.1,-0.07 0.1,-0.06 0.1,-0.06 0.1,-0.06 0.05,-0.06 0.09,-0.07 v -0.06 l 0.1,-0.06 v -0.06 -0.06 -0.07 -0.06 l 0.05,-0.06 v -0.06 -0.06 -0.13 -0.06 l 0.05,-0.06 v -0.12 -0.13 -0.18 -0.19 l 0.05,-0.25 v -0.24 -0.25 -0.31 -0.25 l 0.05,-0.25 v -0.3 -0.25 -0.25 -0.25 l 0.05,-0.31 v -0.24 -0.25 -0.06 h -1.93 v 0.12 0.25 0.25 l -0.05,0.3 v 0.25 0.25 0.31 0.25 l -0.05,0.24 v 0.25 0.31 0.25 0.12 l -0.05,0.06 v 0.07 0.06 l -0.14,0.06 h -0.1 l -0.1,-0.06 -0.05,-0.06 v -0.13 -0.06 -0.25 l 0.05,-0.31 v -0.24 -0.25 -0.25 -0.31 l 0.05,-0.25 v -0.24 -0.31 -0.25 -0.25 -0.18 h -1.93 l -0.05,0.24 z m -79.07,-2.22 v 0.25 0.3 0.25 l -0.05,0.25 v 0.31 0.25 0.24 0.25 l -0.05,0.31 v 0.25 0.24 0.31 0.25 l -0.05,0.25 v 0.25 0.31 0.24 0.25 l -0.05,0.31 v 0.25 0.25 0.24 0.31 l -0.05,0.25 v 0.25 0.31 0.24 0.19 h 3.87 l 0.05,-0.19 v -0.31 -0.24 -0.25 -0.31 l 0.05,-0.25 v -0.24 -0.13 l -1.69,-0.06 v -0.25 -0.31 l 0.05,-0.24 v -0.25 -0.31 -0.25 -0.25 l 0.05,-0.24 v -0.31 -0.25 -0.25 -0.31 l 0.05,-0.24 v -0.25 -0.25 -0.31 -0.25 l 0.05,-0.24 V 190.4 190.15 190 h -2.14 v 0.06 z m 5.31,2.22 v 0.25 0.31 0.25 0.25 l -0.05,0.24 v 0.31 0.25 0.25 0.31 l -0.05,0.24 v 0.25 0.31 0.68 0.19 0.12 l 0.05,0.12 v 0.13 0.06 0.06 0.06 l 0.05,0.07 v 0.06 0.06 l 0.1,0.06 0.05,0.06 0.1,0.07 0.1,0.06 0.1,0.06 0.1,0.06 0.2,0.06 0.24,0.06 h 0.85 l 0.24,-0.06 0.2,-0.06 0.15,-0.06 0.15,-0.06 0.1,-0.06 0.1,-0.07 0.1,-0.06 0.1,-0.06 0.1,-0.06 0.05,-0.06 0.1,-0.07 v -0.06 l 0.09,-0.06 v -0.06 -0.06 -0.07 -0.06 l 0.05,-0.06 v -0.06 -0.06 -0.13 -0.06 l 0.05,-0.06 v -0.12 -0.13 -0.18 -0.19 l 0.05,-0.25 v -0.24 -0.25 -0.31 -0.25 l 0.05,-0.25 v -0.3 -0.25 -0.25 -0.25 -0.31 l 0.05,-0.24 v -0.25 -0.06 h -1.93 v 0.12 0.25 0.25 l -0.05,0.3 v 0.25 0.25 0.31 0.25 l -0.05,0.24 v 0.25 0.31 0.25 0.12 l -0.05,0.06 v 0.07 0.06 l -0.15,0.06 h -0.1 l -0.1,-0.06 -0.05,-0.06 v -0.13 -0.06 -0.25 l 0.05,-0.31 v -0.24 -0.25 -0.25 -0.31 l 0.05,-0.25 v -0.24 -0.31 -0.25 -0.25 -0.18 h -1.93 l -0.05,0.24 z m 8.43,-0.37 -0.2,0.07 -0.14,0.06 -0.15,0.06 -0.1,0.06 -0.1,0.06 -0.1,0.06 -0.1,0.07 -0.1,0.06 v 0.06 l -0.1,0.06 -0.05,0.06 -0.1,0.07 v 0.06 0.06 l -0.1,0.06 v 0.06 0.06 0.07 l -0.05,0.06 v 0.06 0.06 0.06 0.07 l -0.05,0.12 v 0.06 0.06 0.13 0.06 l -0.05,0.12 v 0.13 0.12 0.12 0.19 l -0.05,0.25 v 0.24 0.25 0.25 0.31 l -0.05,0.25 v 0.24 0.31 0.25 0.25 l -0.05,0.25 v 0.3 0.25 0.25 0.31 l -0.05,0.25 v 0.24 0.25 0.31 h 1.88 v -0.06 -0.31 -0.25 -0.25 l 0.05,-0.3 v -0.25 -0.25 -0.25 -0.31 l 0.05,-0.24 v -0.25 -0.31 -0.25 -0.25 l 0.05,-0.24 v -0.31 -0.25 -0.25 -0.24 l 0.05,-0.13 v -0.12 -0.06 -0.07 l 0.1,-0.06 v -0.06 l 0.15,-0.06 0.15,-0.06 h 0.3 l 0.15,0.06 v 0.06 h 0.1 v 0.12 l 0.05,0.07 v 0.49 l -0.05,0.12 v 0.13 0.06 0.06 l -0.1,0.06 -0.1,0.07 -0.1,0.06 -0.15,0.06 h -0.3 l -0.15,-0.06 -0.09,-0.06 v -0.07 h -0.05 v 0.62 l 0.05,1.36 v 0.37 h 0.44 l 0.3,-0.06 0.2,-0.06 0.15,-0.06 0.15,-0.06 0.1,-0.06 0.09,-0.07 0.1,-0.06 0.1,-0.06 0.1,-0.06 v -0.06 l 0.1,-0.07 0.05,-0.06 0.1,-0.06 v -0.06 -0.06 l 0.1,-0.07 v -0.06 -0.06 -0.06 l 0.05,-0.06 v -0.06 -0.07 -0.06 -0.06 -0.06 l 0.05,-0.13 v -0.06 -0.06 -0.12 -0.13 l 0.05,-0.12 v -0.12 -0.13 -0.18 -0.19 l 0.05,-0.37 v -0.68 l -0.05,-0.25 v -0.18 -0.13 -0.12 -0.13 l -0.05,-0.06 v -0.12 -0.06 -0.06 -0.07 l -0.05,-0.06 v -0.06 -0.06 l -0.09,-0.06 v -0.07 l -0.05,-0.06 -0.1,-0.06 -0.1,-0.06 -0.1,-0.06 -0.15,-0.06 -0.15,-0.07 -0.3,-0.06 h -0.84 l -0.3,0.06 z m 5.66,-1.85 v 0.25 l -0.05,0.24 v 0.25 0.31 0.25 0.24 l -0.05,0.31 v 0.25 0.25 0.25 0.3 l -0.05,0.25 v 0.25 0.31 0.25 0.24 l -0.05,0.25 v 0.31 0.25 0.25 1.11 0.18 0.13 0.12 l 0.05,0.06 v 0.07 0.06 0.06 0.06 l 0.05,0.06 v 0.07 l 0.1,0.06 0.1,0.06 0.1,0.06 0.15,0.06 0.25,0.06 h 0.89 l 0.3,-0.06 0.24,-0.06 0.2,-0.06 0.2,-0.06 0.15,-0.06 0.15,-0.07 0.15,-0.06 0.1,-0.06 v -0.14 -0.19 -0.12 -0.19 l -0.05,-0.12 v -0.19 -0.12 -0.19 -0.12 l -0.05,-0.19 h -0.15 l -0.15,0.07 -0.24,0.06 h -0.6 v -0.44 -0.24 -0.25 -0.31 l 0.05,-0.25 V 194 h 1.14 v -0.12 l 0.05,-0.25 v -0.24 -0.31 -0.25 -0.25 l 0.05,-0.31 v -0.18 h -1.1 v -0.25 l 0.05,-0.25 v -0.25 -0.24 -0.31 -0.25 l 0.05,-0.25 V 190 h -1.88 v 0.06 z m 7,1.85 -0.2,0.07 -0.15,0.06 -0.14,0.06 -0.1,0.06 -0.1,0.06 -0.1,0.06 -0.1,0.07 -0.1,0.06 v 0.06 l -0.1,0.06 v 0.06 l -0.1,0.07 v 0.06 l -0.05,0.06 -0.1,0.06 v 0.06 0.06 l -0.05,0.07 v 0.06 0.06 0.06 0.06 l -0.05,0.07 v 0.12 0.06 0.06 0.13 l -0.05,0.06 v 0.12 0.13 0.12 0.12 l -0.05,0.19 v 0.25 0.31 0.68 0.24 0.19 l 0.05,0.12 v 0.13 0.12 0.06 0.13 l 0.05,0.06 v 0.06 0.06 0.06 0.07 l 0.05,0.06 0.1,0.06 v 0.06 0.06 l 0.1,0.07 0.1,0.06 0.1,0.06 0.15,0.06 0.2,0.06 0.25,0.06 h 0.44 v -0.06 -0.12 -0.12 l 0.05,-0.13 v -0.12 -0.13 -0.12 -0.12 l 0.05,-0.13 v -0.12 -0.12 -0.13 -0.12 l 0.05,-0.13 v -0.12 -0.12 -0.13 -0.12 l 0.05,-0.06 v -0.13 h -0.1 v 0.07 l -0.1,0.06 -0.2,0.06 h -0.25 l -0.2,-0.06 v -0.06 h -0.1 v -0.13 -0.06 -0.49 -0.13 l 0.05,-0.06 v -0.12 l 0.1,-0.07 v -0.06 l 0.1,-0.06 0.1,-0.06 0.15,-0.06 h 0.3 l 0.15,0.06 0.1,0.06 v 0.06 0.13 0.55 0.25 0.25 0.31 0.24 l -0.05,0.25 v 0.31 0.25 0.25 0.24 0.19 h 1.93 v -0.25 l 0.05,-0.25 v -0.24 -0.31 -0.25 -0.25 l 0.05,-0.24 v -0.31 -0.25 -0.25 -0.37 -0.62 -0.31 -0.18 -0.13 -0.12 l -0.05,-0.13 v -0.06 -0.12 -0.06 -0.06 l -0.05,-0.07 v -0.06 -0.06 -0.06 -0.06 l -0.1,-0.07 v -0.06 l -0.09,-0.06 -0.1,-0.06 -0.1,-0.06 -0.15,-0.06 -0.15,-0.07 -0.3,-0.06 h -0.84 l -0.3,0.06 z m 6.55,0 -0.2,0.07 -0.15,0.06 -0.1,0.06 -0.1,0.06 -0.1,0.06 -0.1,0.06 -0.09,0.07 v 0.06 l -0.05,0.06 -0.1,0.06 v 0.06 0.07 l -0.05,0.06 v 0.06 0.06 0.06 0.13 l -0.05,0.06 v 0.12 0.13 0.18 0.25 l -0.05,0.25 v 0.24 0.25 0.31 0.25 l -0.05,0.25 v 0.31 0.24 0.25 0.25 l -0.05,0.31 v 0.24 0.25 0.25 h 1.88 v -0.06 -0.25 -0.25 -0.25 l 0.05,-0.3 v -0.25 -0.25 -0.31 -0.25 l 0.05,-0.24 v -0.25 -0.31 -0.19 -0.06 -0.12 h 0.1 l 0.09,-0.06 h 0.15 l 0.1,0.06 v 0.12 0.19 0.31 0.24 0.25 0.25 l -0.05,0.31 v 0.25 0.24 0.31 0.25 l -0.05,0.25 v 0.25 0.12 h 1.13 v -0.25 -0.25 -0.24 l 0.05,-0.31 v -0.25 -0.25 -0.31 -0.24 l 0.05,-0.25 v -0.25 -0.31 -0.18 -0.13 l 0.05,-0.06 v -0.06 l 0.14,-0.06 h 0.15 v 0.06 0.06 0.31 0.31 0.25 0.24 0.25 l -0.05,0.31 v 0.25 0.25 0.3 0.25 l -0.05,0.25 v 0.31 h 1.88 v -0.12 -0.25 l 0.05,-0.25 v -0.31 -0.25 -0.24 -0.25 l 0.05,-0.31 v -0.25 -0.25 -0.3 -0.25 l 0.05,-0.25 v -0.25 -0.31 -0.49 -0.25 -0.12 l -0.05,-0.13 v -0.06 -0.06 -0.06 -0.06 l -0.05,-0.07 v -0.06 l -0.1,-0.06 v -0.06 l -0.1,-0.06 -0.15,-0.06 -0.15,-0.07 -0.19,-0.06 h -0.75 l -0.25,0.06 -0.15,0.07 -0.15,0.06 -0.09,0.06 -0.1,0.06 -0.1,0.06 -0.1,0.06 v 0.07 0.06 l -0.1,0.06 -0.05,0.06 v 0.06 0.07 0.06 0.06 l -0.05,0.12 -0.1,0.06 v -0.24 -0.13 -0.06 l -0.05,-0.12 v -0.06 -0.07 -0.06 l -0.1,-0.06 -0.05,-0.06 -0.1,-0.06 -0.1,-0.06 -0.15,-0.07 -0.2,-0.06 H 1343 l -0.25,0.06 z"
         id="path54"
         style="fill:#ffffff;fill-opacity:1" />
      <path
         class="cls-4"
         d="m 1453.88,158.31 -1.6,4.44 H 1449 l 4.84,-4.44 z m -5.15,-2.83 h 3.52 l -6.21,7.27 h -5.35 l 8,-7.27 z m -17.44,7.27 h -12.62 l 2.64,-7.27 h 10.56 l -2.73,3.58 4.07,-3.58 h 4.63 z m -8.23,23.25 8.37,-23.24 v 0 l 8,-7.27 h 6.27 l -13.37,14.87 7.26,-6.56 -8,22.2 z m -4.28,-30.47 -9.84,27.64 a 3.91,3.91 0 0 1 -2,2.26 5.55,5.55 0 0 1 -2.49,0.57 H 1382 q -4.63,0 -4.63,-3.9 a 12.36,12.36 0 0 1 0.89,-4.13 l 8.09,-22.44 h 8.37 l -7.43,20.91 a 2.74,2.74 0 0 0 -0.12,0.81 c 0,1 0.46,1.57 1.36,1.57 h 11.29 a 3,3 0 0 0 3.07,-2.26 l 7.43,-21 z m -37.3,0 -2.57,7.19 h -18.37 a 3.68,3.68 0 0 0 -2.21,0.57 4,4 0 0 0 -0.94,1.15 1.34,1.34 0 0 0 -0.07,0.57 c 0,0.31 0,0.46 0,0.46 a 1,1 0 0 0 -0.08,0.42 c 0,0.77 0.58,1.15 1.75,1.15 h 14.12 a 6.41,6.41 0 0 1 3.88,1.09 3.63,3.63 0 0 1 1.49,3.11 6.58,6.58 0 0 1 -0.47,2.34 q -1.15,3.09 -3.42,9 a 5.71,5.71 0 0 1 -1.48,2.45 4.25,4.25 0 0 1 -3,1 h -26.23 l 2.61,-7.18 h 18.32 c 1.67,0 2.73,-0.57 3.2,-1.69 0.38,-1 0.63,-1.42 0.73,-1.37 a 1.15,1.15 0 0 0 0,-0.31 c 0,-0.79 -0.66,-1.19 -2,-1.19 h -14.12 a 6.2,6.2 0 0 1 -3.78,-1.06 3.77,3.77 0 0 1 -1.55,-3.22 7.1,7.1 0 0 1 0.42,-2.29 c 2,-5.63 3,-8.55 3,-8.76 a 4.13,4.13 0 0 1 4.43,-3.4 z m -45.53,0 h 4.73 l -6.15,7.19 h -6.39 z m 10.78,8.07 -7,19.57 a 4,4 0 0 1 -2,2.26 5.35,5.35 0 0 1 -2.45,0.57 h -22.53 q -4.67,0 -4.67,-3.93 a 11.64,11.64 0 0 1 0.9,-4.1 l 0.66,-1.6 6.38,-18 a 3.92,3.92 0 0 1 1.94,-2.26 5.28,5.28 0 0 1 2.5,-0.61 h 5.25 l -3.39,4 4.6,-4 h 6.79 l -6.47,7.19 h -2.08 a 3.05,3.05 0 0 0 -3.07,2.29 l -4,11.43 a 2.24,2.24 0 0 0 -0.15,0.81 c 0,1 0.46,1.57 1.4,1.57 h 11.28 a 3,3 0 0 0 2.14,-0.69 4.66,4.66 0 0 0 0.9,-1.57 l 4.08,-11.47 a 2.08,2.08 0 0 0 0.16,-0.77 c 0,-1 -0.39,-1.5 -1.15,-1.59 l 7.55,-7.11 a 3.51,3.51 0 0 1 3.36,3.85 13.21,13.21 0 0 1 -0.85,4.13 z"
         id="path56"
         style="fill:#ffffff;fill-opacity:1" />
      <path
         class="cls-4"
         d="m 1279.66,153.05 a 23.3,23.3 0 0 1 6.29,0.86 l -13.82,17.31 27.48,-24.78 -27.11,29.8 44.28,-40.15 -43.24,48 33.86,-31.29 -27.77,33.27 21.21,-19.47 a 23.32,23.32 0 1 1 -21.18,-13.55 z"
         id="path58"
         style="fill:#ffffff;fill-opacity:1" />
      <polygon
         class="cls-4"
         points="1337.35,190.53 1337.29,190.53 1337.24,190.5 1337.21,190.48 1337.18,190.42 1337.18,190.4 1337.21,190.29 1337.24,190.15 1337.27,190.04 1337.27,190.03 1336.18,190.03 1336.17,190.07 1336.14,190.21 1336.11,190.31 1336.08,190.42 1336.06,190.56 1336.06,190.86 1336.08,190.94 1336.11,190.99 1336.14,191.05 1336.17,191.1 1336.19,191.13 1336.22,191.16 1336.25,191.19 1336.28,191.21 1336.3,191.24 1336.33,191.27 1336.39,191.29 1336.41,191.32 1336.47,191.35 1336.52,191.38 1336.58,191.4 1336.63,191.43 1336.74,191.46 1336.88,191.49 1337.35,191.49 1337.49,191.46 1337.6,191.43 1337.68,191.4 1337.76,191.38 1337.82,191.35 1337.87,191.32 1337.93,191.29 1337.98,191.27 1338.04,191.24 1338.06,191.21 1338.12,191.19 1338.15,191.16 1338.2,191.13 1338.23,191.1 1338.26,191.08 1338.28,191.05 1338.31,191.02 1338.34,190.99 1338.37,190.97 1338.39,190.94 1338.42,190.89 1338.45,190.86 1338.48,190.83 1338.51,190.78 1338.53,190.72 1338.56,190.64 1338.59,190.56 1338.62,190.45 1338.64,190.34 1338.67,190.23 1338.7,190.1 1338.71,190.03 1337.62,190.03 1337.6,190.12 1337.57,190.26 1337.54,190.37 1337.51,190.42 1337.49,190.45 1337.46,190.48 1337.43,190.5 "
         id="polygon60"
         style="fill:#ffffff;fill-opacity:1" />
      <path
         class="cls-3"
         d="M 1442.49,200 H 1442 l 0.33,-0.8 a 0.33,0.33 0 0 1 -0.28,-0.41 0.61,0.61 0 0 1 0.62,-0.49 0.39,0.39 0 0 1 0.44,0.42 c 0,0.22 -0.11,0.32 -0.59,1.28 z"
         id="path62"
         style="fill:#ffffff;fill-opacity:1" />
      <path
         class="cls-3"
         d="m 1442.64,198.58 a 0.35,0.35 0 0 0 -0.36,0.27 c 0,0.09 0,0.1 0.07,0.12 l 0.31,0.06 -0.19,0.45 c 0,-0.1 0.1,-0.18 0.13,-0.25 0.19,-0.35 0.22,-0.41 0.22,-0.49 0,-0.08 0,-0.16 -0.18,-0.16 z m 0,1.7 h -1.07 l 0.38,-0.93 a 0.62,0.62 0 0 1 -0.2,-0.59 0.87,0.87 0 0 1 0.88,-0.7 0.65,0.65 0 0 1 0.7,0.68 1.52,1.52 0 0 1 -0.28,0.74 l -0.34,0.65 z"
         id="path64"
         style="fill:#ffffff;fill-opacity:1" />
    </g>
  </g>
</svg>
