<?xml version="1.0" encoding="UTF-8" standalone="no"?>
<!-- Created with Inkscape (http://www.inkscape.org/) -->

<svg
   width="57.610374mm"
   height="17.197916mm"
   viewBox="0 0 57.610376 17.197916"
   version="1.1"
   id="svg5"
   inkscape:version="1.1.1 (3bf5ae0d25, 2021-09-20, custom)"
   sodipodi:docname="ut_logo.svg"
   xmlns:inkscape="http://www.inkscape.org/namespaces/inkscape"
   xmlns:sodipodi="http://sodipodi.sourceforge.net/DTD/sodipodi-0.dtd"
   xmlns="http://www.w3.org/2000/svg"
   xmlns:svg="http://www.w3.org/2000/svg">
  <sodipodi:namedview
     id="namedview7"
     pagecolor="#505050"
     bordercolor="#eeeeee"
     borderopacity="1"
     inkscape:pageshadow="0"
     inkscape:pageopacity="0"
     inkscape:pagecheckerboard="0"
     inkscape:document-units="mm"
     showgrid="false"
     showguides="true"
     inkscape:guide-bbox="true"
     inkscape:snap-bbox="true"
     inkscape:snap-intersection-paths="true"
     inkscape:object-paths="true"
     inkscape:snap-smooth-nodes="true"
     inkscape:snap-midpoints="true"
     inkscape:snap-center="true"
     inkscape:bbox-paths="true"
     inkscape:bbox-nodes="true"
     inkscape:snap-bbox-edge-midpoints="true"
     inkscape:snap-bbox-midpoints="true"
     inkscape:zoom="1.2810466"
     inkscape:cx="23.418352"
     inkscape:cy="78.451479"
     inkscape:window-width="2560"
     inkscape:window-height="1376"
     inkscape:window-x="0"
     inkscape:window-y="33"
     inkscape:window-maximized="1"
     inkscape:current-layer="layer1"
     inkscape:snap-global="false"
     fit-margin-top="0"
     fit-margin-left="0"
     fit-margin-right="0"
     fit-margin-bottom="0" />
  <defs
     id="defs2">
    <inkscape:path-effect
       effect="roughen"
       id="path-effect4586"
       is_visible="true"
       lpeversion="1.1"
       method="size"
       max_segment_size="4"
       segments="2"
       displace_x="10;1"
       displace_y="10;1"
       global_randomize="1;1"
       handles="along"
       shift_nodes="true"
       fixed_displacement="false"
       spray_tool_friendly="false" />
    <inkscape:path-effect
       effect="roughen"
       id="path-effect4584"
       is_visible="true"
       lpeversion="1.1"
       method="size"
       max_segment_size="4"
       segments="2"
       displace_x="10;1"
       displace_y="10;1"
       global_randomize="1;1"
       handles="along"
       shift_nodes="true"
       fixed_displacement="false"
       spray_tool_friendly="false" />
    <inkscape:path-effect
       effect="simplify"
       id="path-effect1237"
       is_visible="true"
       lpeversion="1"
       steps="1"
       threshold="0.00127072"
       smooth_angles="360"
       helper_size="0"
       simplify_individual_paths="false"
       simplify_just_coalesce="false" />
    <inkscape:path-effect
       effect="simplify"
       id="path-effect1233"
       is_visible="true"
       lpeversion="1"
       steps="1"
       threshold="0.00127072"
       smooth_angles="360"
       helper_size="0"
       simplify_individual_paths="false"
       simplify_just_coalesce="false" />
    <inkscape:path-effect
       effect="simplify"
       id="path-effect1229"
       is_visible="true"
       lpeversion="1"
       steps="1"
       threshold="0.00672131"
       smooth_angles="360"
       helper_size="0"
       simplify_individual_paths="false"
       simplify_just_coalesce="false" />
    <inkscape:path-effect
       effect="simplify"
       id="path-effect1215"
       is_visible="true"
       lpeversion="1"
       steps="1"
       threshold="0.00672131"
       smooth_angles="360"
       helper_size="0"
       simplify_individual_paths="false"
       simplify_just_coalesce="false" />
    <inkscape:path-effect
       effect="simplify"
       id="path-effect1209"
       is_visible="true"
       lpeversion="1"
       steps="1"
       threshold="0.00672131"
       smooth_angles="360"
       helper_size="0"
       simplify_individual_paths="false"
       simplify_just_coalesce="false" />
    <inkscape:path-effect
       effect="simplify"
       id="path-effect1203"
       is_visible="true"
       lpeversion="1"
       steps="1"
       threshold="0.00672131"
       smooth_angles="360"
       helper_size="0"
       simplify_individual_paths="false"
       simplify_just_coalesce="false" />
    <inkscape:path-effect
       effect="simplify"
       id="path-effect1199"
       is_visible="true"
       lpeversion="1"
       steps="1"
       threshold="0.0002"
       smooth_angles="360"
       helper_size="0"
       simplify_individual_paths="false"
       simplify_just_coalesce="false" />
    <inkscape:path-effect
       effect="simplify"
       id="path-effect1195"
       is_visible="true"
       lpeversion="1"
       steps="1"
       threshold="0.0002"
       smooth_angles="360"
       helper_size="0"
       simplify_individual_paths="false"
       simplify_just_coalesce="false" />
    <inkscape:path-effect
       effect="simplify"
       id="path-effect1191"
       is_visible="true"
       lpeversion="1"
       steps="1"
       threshold="0.0002"
       smooth_angles="360"
       helper_size="0"
       simplify_individual_paths="false"
       simplify_just_coalesce="false" />
    <inkscape:path-effect
       effect="simplify"
       id="path-effect1187"
       is_visible="true"
       lpeversion="1"
       steps="1"
       threshold="0.0119355"
       smooth_angles="360"
       helper_size="0"
       simplify_individual_paths="false"
       simplify_just_coalesce="false" />
    <inkscape:path-effect
       effect="simplify"
       id="path-effect1183"
       is_visible="true"
       lpeversion="1"
       steps="1"
       threshold="0.0119355"
       smooth_angles="360"
       helper_size="0"
       simplify_individual_paths="false"
       simplify_just_coalesce="false" />
    <inkscape:path-effect
       effect="simplify"
       id="path-effect1179"
       is_visible="true"
       lpeversion="1"
       steps="1"
       threshold="0.00267081"
       smooth_angles="360"
       helper_size="0"
       simplify_individual_paths="false"
       simplify_just_coalesce="false" />
    <inkscape:path-effect
       effect="simplify"
       id="path-effect1175"
       is_visible="true"
       lpeversion="1"
       steps="1"
       threshold="0.00267081"
       smooth_angles="360"
       helper_size="0"
       simplify_individual_paths="false"
       simplify_just_coalesce="false" />
  </defs>
  <g
     inkscape:label="Layer 1"
     inkscape:groupmode="layer"
     id="layer1"
     transform="translate(-62.8021,-63.881479)">
    <g
       id="UTCN"
       transform="matrix(0.26458333,0,0,0.26458333,-60.258253,27.231396)"
       style="fill:#ffffff;fill-opacity:1">
      <path
         class="cls-3"
         d="m 465.11,180.45 h 0.09 a 0.71,0.71 0 0 1 0.12,0.51 c 0,1.75 0,3.51 0,5.26 a 1,1 0 0 1 -0.07,0.44 0.11,0.11 0 0 1 -0.14,0.05 z"
         id="path67"
         style="fill:#ffffff;fill-opacity:1" />
      <path
         class="cls-3"
         d="m 465.11,186.72 h 0.08 a 0.87,0.87 0 0 1 0.07,1 c -0.11,-0.12 0,-0.31 -0.15,-0.42 z"
         id="path69"
         style="fill:#ffffff;fill-opacity:1" />
      <path
         class="cls-3"
         d="m 579.49,176.4 v 0 0 c -0.08,0.06 -0.19,0 -0.27,0.07 v 0 0 c -0.09,0.06 -0.2,0 -0.29,0.07 v 0 0 c -0.11,0.09 -0.25,0 -0.36,0.08 v 0 0 c -0.13,0.09 -0.3,0 -0.43,0.07 v 0 0 c -0.13,0.09 -0.3,0 -0.44,0.07 h -0.13 c -0.17,0.08 -0.36,0 -0.53,0.07 a 0.12,0.12 0 0 0 -0.13,0 c -0.26,0.1 -0.53,0 -0.79,0.07 a 0.67,0.67 0 0 0 -0.37,0 c -0.15,0.06 -0.27,0.06 -0.28,-0.15 -0.01,-0.21 0,-0.22 0,-0.33 q 0,-17.92 0,-35.86 a 1,1 0 0 1 0,-0.45 0.035,0 90 0 0 0,-0.07 c 0.08,-0.1 0,-0.24 0.08,-0.34 v 0 c 0.08,-0.06 0,-0.19 0.1,-0.24 v 0 c 0,-0.06 0,-0.14 0.1,-0.17 v 0 c 0,-0.05 0,-0.07 0.07,-0.1 v 0 l 0.08,-0.09 v 0 l 0.08,-0.08 v 0 l 0.09,-0.08 v 0 a 0.14,0.14 0 0 1 0.1,-0.08 v 0 c 0,-0.08 0.11,-0.06 0.16,-0.1 v 0 c 0.05,-0.07 0.13,-0.06 0.2,-0.09 v 0 0 c 0.07,-0.07 0.18,0 0.26,-0.08 a 0.035,0 -180 0 0 0.07,0 c 0.17,-0.08 0.36,0 0.52,-0.07 h 0.66 18.96 c 0.12,0 0.07,0.16 0.07,0.25 0,0.55 0,1.1 0,1.65 0,0.3 -0.1,0.36 -0.38,0.36 h -11 a 1,1 0 0 0 -0.45,0 h -0.14 c -0.07,0.06 -0.18,0 -0.25,0.07 v 0 c -0.06,0.09 -0.18,0 -0.24,0.09 v 0 c -0.05,0 -0.12,0 -0.18,0.08 v 0 c 0,0.06 -0.12,0 -0.16,0.09 v 0 c 0,0 -0.06,0.07 -0.11,0.07 v 0 c 0,0.08 -0.11,0.06 -0.15,0.11 v 0 a 0.34,0.34 0 0 1 -0.09,0.08 v 0 a 0.16,0.16 0 0 1 -0.09,0.09 v 0 a 0.2,0.2 0 0 1 -0.09,0.09 v 0 a 0.11,0.11 0 0 1 -0.08,0.09 v 0 a 0.14,0.14 0 0 1 -0.08,0.1 v 0 a 0.87,0.87 0 0 1 -0.08,0.1 v 0 c 0,0 0,0.13 -0.11,0.15 v 0 c 0,0 0,0.07 -0.07,0.1 v 0 c -0.05,0 0,0.13 -0.1,0.16 v 0 c 0,0.06 0,0.14 -0.09,0.17 v 0 c 0,0.05 0,0.13 -0.08,0.17 v 0 c 0,0.06 0,0.13 -0.08,0.18 v 0 c -0.07,0.07 0,0.18 -0.08,0.25 v 0 c -0.07,0.07 0,0.17 -0.07,0.25 -0.07,0.08 0,0 0,0.07 0,0.07 0,0.29 -0.07,0.42 a 0.11,0.11 0 0 0 0,0.13 1.38,1.38 0 0 0 0,0.53 v 30.28 c 0,0.16 0,0.33 -0.05,0.48 v 0 c 0,0.06 -0.12,0 -0.17,0.08 v 0 c 0,0.06 -0.12,0 -0.19,0.08 v 0 0 c 0,0 -0.12,0 -0.17,0.07 v 0 c 0,0.05 -0.12,0 -0.17,0.07 v 0 c 0,0.1 -0.18,0 -0.24,0.1 v 0 c 0,0.06 -0.13,0.05 -0.19,0.08 v 0 0 c -0.06,0 -0.13,0 -0.18,0.06 v 0 c -0.07,0.09 -0.18,0 -0.26,0.09 v 0 c -0.06,0.08 -0.18,0 -0.25,0.08 v 0 c -0.06,0.08 -0.18,0 -0.25,0.08 v 0 c -0.08,0.09 -0.19,0 -0.27,0.08 v 0 0 c -0.07,0.06 -0.18,0 -0.25,0.07 v 0 c -0.08,0.08 -0.19,0 -0.27,0.08 v 0 0 c -0.17,0.2 -0.28,0.14 -0.35,0.2 z"
         id="path71"
         style="fill:#ffffff;fill-opacity:1" />
      <path
         class="cls-3"
         d="m 568.45,176.49 v 0 0 c -0.09,0 -0.2,0 -0.28,-0.07 v 0 0 c -0.09,-0.05 -0.2,0 -0.28,-0.07 v 0 0 c -0.09,0 -0.21,0 -0.29,-0.08 v 0 c -0.07,-0.07 -0.18,0 -0.25,-0.08 v 0 0 a 0.66,0.66 0 0 1 -0.2,-0.06 v 0 0 c -0.06,0 -0.13,0 -0.19,-0.06 v 0 0 A 1.46,1.46 0 0 1 566.77,176 v 0 0 c -0.06,0 -0.13,0 -0.18,-0.07 v 0 0 c -0.06,0 -0.14,0 -0.19,-0.07 v 0 c -0.07,-0.08 -0.19,0 -0.25,-0.09 v 0 c 0,0 -0.12,0 -0.17,-0.07 v 0 0 c -0.07,0 -0.15,0 -0.2,-0.08 v 0 c -0.06,0 -0.13,0 -0.18,-0.08 v 0 c -0.06,-0.08 -0.19,0 -0.24,-0.1 v 0 c -0.06,0 -0.14,0 -0.17,-0.09 v 0 c -0.12,-0.15 -0.06,-0.32 -0.06,-0.47 v -30.56 a 1.56,1.56 0 0 0 0,-0.53 0.11,0.11 0 0 0 0,-0.12 c -0.07,-0.11 0,-0.24 -0.07,-0.35 a 0.035,0 90 0 0 0,-0.07 1.18,1.18 0 0 1 -0.07,-0.2 v 0 0 c 0,-0.06 0,-0.13 -0.07,-0.2 -0.07,-0.07 0,0 0,-0.05 0,-0.05 0,-0.12 -0.07,-0.17 v 0 c -0.05,0 0,-0.12 -0.08,-0.16 v 0 c 0,0 0,-0.12 -0.09,-0.16 v 0 c 0,0 -0.06,-0.06 -0.07,-0.11 v 0 c -0.07,0 -0.05,-0.11 -0.1,-0.15 v 0 a 0.39,0.39 0 0 1 -0.08,-0.1 v 0 a 0.12,0.12 0 0 1 -0.08,-0.1 v 0 a 0.09,0.09 0 0 1 -0.09,-0.1 v 0 a 0.35,0.35 0 0 1 -0.17,-0.17 v 0 c -0.05,0 -0.08,0 -0.09,-0.09 v 0 a 0.14,0.14 0 0 1 -0.1,-0.08 v 0 c 0,0 -0.06,-0.05 -0.09,-0.07 v 0 c 0,-0.06 -0.12,0 -0.15,-0.1 v 0 c -0.06,0 -0.14,0 -0.17,-0.1 v 0 c -0.06,0 -0.14,0 -0.18,-0.08 v 0 c -0.05,0 -0.12,0 -0.17,-0.07 v 0 0 c -0.08,-0.05 -0.19,0 -0.27,-0.07 a 0.15,0.15 0 0 0 -0.13,0 1.34,1.34 0 0 0 -0.49,0 h -11.34 c -0.14,0 -0.3,0.06 -0.43,-0.05 v 0 a 6.89,6.89 0 0 1 0,-2.22 h 0.29 19.54 0.12 c 0.17,0.09 0.37,0 0.54,0.08 v 0 0 a 1.66,1.66 0 0 1 0.21,0.06 c 0,0 0,0 0.06,0 0.06,0 0.13,0 0.18,0.08 v 0 c 0,0 0.13,0 0.16,0.09 v 0 a 0.27,0.27 0 0 1 0.1,0.08 v 0 a 1,1 0 0 1 0.25,0.24 v 0 a 0.7,0.7 0 0 1 0.08,0.1 v 0 c 0.06,0 0,0.12 0.09,0.16 v 0 c 0.05,0.05 0,0.13 0.08,0.18 v 0 c 0.08,0.08 0,0.19 0.08,0.28 v 0 0 a 0.82,0.82 0 0 1 0,0.44 q 0,18 0,36.07 c 0,0.14 0.2,0.45 -0.2,0.44 a 0.81,0.81 0 0 0 -0.38,0 c -0.25,-0.09 -0.52,0 -0.77,-0.07 a 0.26,0.26 0 0 0 -0.21,0 c -0.17,-0.08 -0.36,0 -0.53,-0.07 a 0.12,0.12 0 0 0 -0.13,0 c -0.14,-0.07 -0.31,0 -0.45,-0.07 v 0 0 c -0.11,-0.07 -0.24,0 -0.35,-0.07 a 0.13,0.13 0 0 0 -0.12,0 c -0.1,0 -0.2,0 -0.29,-0.07 v 0 0 c -0.14,-0.11 -0.28,-0.02 -0.38,-0.11 z"
         id="path73"
         style="fill:#ffffff;fill-opacity:1" />
      <path
         class="cls-3"
         d="m 596.83,158 a 0.035,0 -90 0 0 0,0.07 c -0.1,0.15 0,0.35 -0.08,0.51 -0.08,0.16 0,0 0,0.05 0,0.05 0,0.31 -0.07,0.44 -0.07,0.13 0,0 0,0.06 0,0.06 0,0.24 -0.07,0.35 a 0.06,0.06 0 0 0 0,0.07 c -0.08,0.1 0,0.24 -0.07,0.34 -0.07,0.1 0,0 0,0.06 0,0.06 0,0.25 -0.08,0.36 v 0 c -0.09,0.1 0,0.24 -0.08,0.34 v 0 0 c -0.05,0.09 0,0.2 -0.08,0.29 v 0 c -0.07,0.07 0,0.18 -0.07,0.25 a 0.06,0.06 0 0 0 0,0.07 c -0.06,0.08 0,0.19 -0.08,0.26 v 0 0 a 0.68,0.68 0 0 1 -0.07,0.2 c 0,0 0,0 0,0.06 a 1.46,1.46 0 0 1 -0.07,0.19 c 0,0 0,0 0,0.06 a 1.46,1.46 0 0 1 -0.07,0.19 c 0,0 0,0 0,0.06 0,0.06 0,0.13 -0.07,0.18 -0.07,0.05 0,0 0,0.06 0,0.06 0,0.14 -0.07,0.19 v 0 0 a 0.42,0.42 0 0 1 -0.08,0.21 v 0 c 0,0.05 0,0.12 -0.07,0.17 -0.07,0.05 0,0 0,0.06 0,0.06 0,0.14 -0.07,0.19 v 0 c 0,0 0,0.12 -0.07,0.17 -0.07,0.05 0,0 0,0 0,0 0,0.15 -0.09,0.2 v 0 c 0,0.06 0,0.13 -0.08,0.18 v 0 c 0,0.05 0,0.13 -0.08,0.17 v 0 c -0.05,0.05 0,0.12 -0.08,0.17 v 0 0 a 0.19,0.19 0 0 1 -0.07,0.12 c 0,0 0,0 0,0.05 a 0.29,0.29 0 0 1 -0.07,0.12 c 0,0 0,0 0,0 a 0.17,0.17 0 0 1 -0.06,0.12 c 0,0.05 0,0.08 -0.07,0.12 v 0 c 0,0 0,0.12 -0.08,0.16 v 0 c -0.05,0 0,0.12 -0.09,0.16 v 0 c 0,0 0,0.12 -0.09,0.16 v 0 c 0,0.05 0,0.14 -0.1,0.17 v 0 c 0,0 -0.05,0.07 -0.07,0.1 v 0 c -0.06,0 0,0.12 -0.09,0.15 v 0 c 0,0 0,0.13 -0.1,0.16 v 0 c 0,0 0,0.07 -0.07,0.11 v 0 c 0,0 0,0.12 -0.09,0.15 v 0 c 0,0 0,0.14 -0.1,0.16 v 0 a 0.13,0.13 0 0 1 -0.07,0.1 v 0 c 0,0 0,0.14 -0.11,0.16 v 0 c 0,0 0,0.07 -0.07,0.1 v 0 a 1,1 0 0 1 -0.17,0.25 v 0 a 0.34,0.34 0 0 1 -0.08,0.09 v 0 c -0.05,0 0,0.12 -0.1,0.15 v 0 c 0,0 0,0.07 -0.08,0.1 v 0 c 0,0 -0.05,0.06 -0.07,0.1 v 0 c -0.06,0 0,0.13 -0.11,0.15 v 0 a 0.19,0.19 0 0 1 -0.08,0.1 v 0 a 0.71,0.71 0 0 1 -0.07,0.09 v 0 c -0.06,0 0,0.13 -0.11,0.14 v 0 a 0.12,0.12 0 0 1 -0.09,0.1 v 0 c 0,0.05 0,0.07 -0.08,0.1 v 0 l -0.07,0.09 v 0 c -0.08,0.07 -0.1,0.18 -0.19,0.23 v 0 a 0.13,0.13 0 0 1 -0.09,0.1 v 0 a 0.16,0.16 0 0 1 -0.09,0.09 v 0 l -0.08,0.09 v 0 a 0.34,0.34 0 0 1 -0.08,0.09 v 0 l -0.08,0.09 v 0 a 2.64,2.64 0 0 1 -0.36,0.39 v 0 a 0.09,0.09 0 0 1 -0.09,0.1 v 0 a 0.11,0.11 0 0 1 -0.09,0.09 v 0 a 0.11,0.11 0 0 1 -0.09,0.09 v 0 a 0.13,0.13 0 0 1 -0.09,0.1 v 0 a 0.12,0.12 0 0 1 -0.1,0.09 v 0 a 0.11,0.11 0 0 1 -0.09,0.09 v 0 a 0.11,0.11 0 0 1 -0.09,0.09 v 0 a 0.1,0.1 0 0 1 -0.1,0.09 v 0 a 0.08,0.08 0 0 1 -0.09,0.09 v 0 a 2.64,2.64 0 0 1 -0.39,0.36 v 0 l -0.08,0.08 v 0 a 0.34,0.34 0 0 1 -0.09,0.08 v 0 a 0.39,0.39 0 0 1 -0.1,0.08 v 0 a 0.13,0.13 0 0 1 -0.09,0.09 v 0 a 0.11,0.11 0 0 1 -0.09,0.09 v 0 c 0,0.1 -0.17,0.11 -0.23,0.19 v 0 l -0.08,0.08 v 0 a 0.26,0.26 0 0 1 -0.09,0.09 v 0 a 0.14,0.14 0 0 1 -0.1,0.08 v 0 c 0,0.1 -0.16,0.12 -0.23,0.19 v 0 l -0.09,0.08 v 0 a 0.14,0.14 0 0 1 -0.1,0.08 v 0 c 0,0.08 -0.11,0 -0.14,0.11 v 0 l -0.09,0.08 v 0 a 0.14,0.14 0 0 1 -0.1,0.08 v 0 c 0,0.07 -0.11,0 -0.15,0.11 v 0 c 0,0 -0.06,0.06 -0.1,0.07 v 0 a 1.14,1.14 0 0 1 -0.25,0.18 v 0 c 0,0 -0.06,0.08 -0.11,0.08 v 0 c 0,0.08 -0.11,0.06 -0.16,0.1 v 0 c 0,0.06 -0.12,0 -0.15,0.09 v 0 l -0.1,0.07 v 0 c 0,0.06 -0.12,0 -0.16,0.1 v 0 c 0,0 -0.06,0.06 -0.1,0.07 v 0 c 0,0.07 -0.12,0.05 -0.16,0.1 v 0 c 0,0.06 -0.12,0 -0.16,0.09 v 0 c 0,0 -0.06,0.06 -0.1,0.06 v 0 c 0,0.07 -0.12,0.05 -0.17,0.09 v 0 c 0,0.06 -0.12,0 -0.17,0.09 v 0 a 0.19,0.19 0 0 1 -0.12,0.07 v 0 0 c 0,0 -0.06,0.06 -0.1,0.06 v 0 c 0,0.08 -0.12,0.06 -0.17,0.1 v 0 c 0,0.07 -0.12,0.05 -0.17,0.09 v 0 c 0,0.06 -0.12,0 -0.16,0.09 v 0 c 0,0.05 -0.12,0 -0.17,0.08 v 0 c -0.07,0 -0.13,0.06 -0.16,0 a 1.37,1.37 0 0 0 0,-0.45 v -26.93 a 1.35,1.35 0 0 0 0,-0.45 c 0.08,-0.17 0,-0.36 0.07,-0.53 a 0.06,0.06 0 0 0 0,-0.07 c 0.06,-0.08 0,-0.19 0.08,-0.26 v 0 c 0,0 0,-0.12 0.08,-0.17 v 0 c 0.05,0 0,-0.12 0.09,-0.16 v 0 a 0.69,0.69 0 0 1 0.18,-0.24 v 0 a 0.14,0.14 0 0 1 0.08,-0.1 v 0 a 0.13,0.13 0 0 1 0.09,-0.09 v 0 a 0.13,0.13 0 0 1 0.09,-0.09 v 0 c 0,-0.07 0.12,0 0.15,-0.11 v 0 l 0.09,-0.07 v 0 c 0,-0.07 0.11,-0.05 0.16,-0.1 v 0 c 0,-0.05 0.12,0 0.17,-0.08 v 0 a 0.48,0.48 0 0 1 0.2,-0.07 0.025,0 -180 0 0 0.05,0 c 0.07,-0.06 0.18,0 0.26,-0.07 a 0.06,0.06 0 0 0 0.07,0 c 0.12,-0.07 0.25,0 0.37,-0.07 a 0.92,0.92 0 0 0 0.37,0 0.63,0.63 0 0 1 0.33,0 h 8 c 0.12,0 0.25,0 0.36,0 v 0 c 0.09,0.1 0.05,0.21 0.05,0.32 v 11 a 0.54,0.54 0 0 1 0,0.28 0.86,0.86 0 0 0 0,0.39 c -0.09,0.3 0,0.62 -0.07,0.93 a 0.41,0.41 0 0 0 0,0.22 c -0.09,0.22 0,0.47 -0.07,0.69 a 0.12,0.12 0 0 0 0,0.13 c -0.12,0.21 -0.02,0.4 -0.11,0.55 z"
         id="path75"
         style="fill:#ffffff;fill-opacity:1" />
      <path
         class="cls-3"
         d="m 553.12,165.48 c 0,0 0,0 0,0 a 0.33,0.33 0 0 1 -0.06,-0.1 v 0 c -0.07,0 -0.06,-0.12 -0.1,-0.17 v 0 c -0.06,0 -0.05,-0.12 -0.09,-0.17 v 0 c -0.06,-0.05 0,-0.12 -0.08,-0.17 v 0 c -0.06,0 0,-0.12 -0.09,-0.17 v 0 c -0.06,0 -0.05,-0.12 -0.09,-0.17 v 0 c 0,0 0,-0.12 -0.08,-0.17 v 0 c -0.06,-0.05 0,-0.12 -0.08,-0.18 v 0 c -0.07,0 -0.06,-0.13 -0.09,-0.19 -0.03,-0.06 0,0 0,0 0,0 0,-0.13 -0.07,-0.17 v 0 c 0,0 0,-0.12 -0.08,-0.17 v 0 c -0.06,-0.05 -0.05,-0.13 -0.08,-0.19 -0.03,-0.06 0,0 0,-0.05 0,-0.05 0,-0.12 -0.08,-0.17 v 0 c -0.06,-0.05 -0.06,-0.13 -0.08,-0.2 v 0 0 c 0,-0.05 0,-0.13 -0.07,-0.18 v 0 c -0.1,-0.06 0,-0.18 -0.09,-0.25 v 0 c -0.09,-0.06 0,-0.18 -0.09,-0.25 v 0 c -0.09,-0.06 0,-0.18 -0.09,-0.25 v 0 c -0.08,-0.07 0,-0.19 -0.08,-0.27 a 0.03,0 90 0 0 0,-0.06 1.18,1.18 0 0 1 -0.07,-0.2 c 0,0 0,0 0,-0.05 0,-0.05 0,-0.18 -0.08,-0.25 v 0 c -0.08,-0.08 0,-0.19 -0.08,-0.28 v 0 0 c -0.07,-0.09 0,-0.2 -0.08,-0.29 v 0 0 c -0.09,-0.1 0,-0.25 -0.08,-0.35 a 0.07,0.07 0 0 0 0,-0.07 c 0,-0.08 0,-0.19 -0.06,-0.27 a 0.03,0 90 0 0 0,-0.06 c -0.08,-0.1 0,-0.24 -0.07,-0.35 a 0.03,0 90 0 0 0,-0.06 c -0.08,-0.11 0,-0.25 -0.08,-0.37 v -0.13 c -0.07,-0.11 0,-0.25 -0.07,-0.36 v -0.13 c -0.08,-0.14 0,-0.31 -0.07,-0.45 v -0.13 c -0.09,-0.17 0,-0.36 -0.07,-0.53 a 0.31,0.31 0 0 0 0,-0.21 c -0.09,-0.22 0,-0.46 -0.07,-0.69 a 0.28,0.28 0 0 0 0,-0.22 c -0.1,-0.33 0,-0.69 -0.07,-1 a 1.63,1.63 0 0 0 0,-0.54 0.82,0.82 0 0 1 0,-0.41 c 0,-3.44 0,-6.89 0,-10.33 0,-0.13 -0.06,-0.28 0,-0.39 v 0 c 0.07,-0.09 0.17,-0.06 0.27,-0.06 H 559 a 0.38,0.38 0 0 1 0.24,0 0.61,0.61 0 0 0 0.3,0 c 0.14,0.08 0.31,0 0.45,0.08 v 0 0 c 0.09,0.05 0.21,0 0.28,0.08 v 0 c 0.05,0 0.12,0 0.17,0.07 v 0 c 0,0.05 0.12,0 0.17,0.08 v 0 c 0,0.06 0.12,0 0.16,0.09 v 0 c 0,0.05 0.13,0 0.16,0.1 v 0 a 0.19,0.19 0 0 1 0.1,0.08 v 0 a 0.26,0.26 0 0 1 0.09,0.09 v 0 l 0.08,0.09 v 0 l 0.08,0.08 v 0 c 0,0 0.07,0 0.08,0.1 v 0 c 0.07,0 0,0.11 0.1,0.15 v 0 c 0,0 0.06,0.06 0.06,0.1 v 0 c 0.07,0 0.06,0.13 0.09,0.19 a 0.03,0 -90 0 0 0,0.06 c 0,0.05 0,0.12 0.07,0.18 0.07,0.06 0,0 0,0.06 0,0.06 0,0.25 0.06,0.35 v 27.55 c 0,0.15 0,0.3 0,0.45 0,0.15 -0.1,0.07 -0.16,0 v 0 c -0.06,0 -0.13,0 -0.17,-0.09 v 0 c -0.05,0 -0.13,0 -0.17,-0.09 v 0 c 0,0 -0.14,0 -0.17,-0.1 v 0 c 0,0 -0.07,0 -0.1,-0.06 v 0 c 0,-0.06 -0.11,0 -0.16,-0.09 v 0 c 0,-0.05 -0.12,0 -0.16,-0.09 v 0 c -0.05,0 -0.14,0 -0.17,-0.09 v 0 c 0,0 -0.07,-0.05 -0.1,-0.07 v 0 c 0,-0.06 -0.11,0 -0.15,-0.09 v 0 c 0,-0.05 -0.13,0 -0.16,-0.1 v 0 c 0,0 -0.07,-0.05 -0.1,-0.07 v 0 c 0,-0.06 -0.12,0 -0.15,-0.09 v 0 c 0,0 -0.13,0 -0.16,-0.1 v 0 a 0.18,0.18 0 0 1 -0.1,-0.07 v 0 c 0,-0.05 -0.13,0 -0.16,-0.1 v 0 c 0,0 -0.07,-0.05 -0.1,-0.07 v 0 c 0,0 -0.13,0 -0.16,-0.1 v 0 a 0.23,0.23 0 0 1 -0.1,-0.07 v 0 c 0,0 -0.13,0 -0.15,-0.11 v 0 a 0.13,0.13 0 0 1 -0.1,-0.07 v 0 l -0.09,-0.07 v 0 c 0,-0.06 -0.12,0 -0.14,-0.11 v 0 a 0.14,0.14 0 0 1 -0.09,-0.08 v 0 c -0.08,-0.06 -0.19,-0.09 -0.24,-0.18 v 0 a 0.14,0.14 0 0 1 -0.1,-0.08 v 0 c 0,0 -0.07,-0.05 -0.1,-0.07 v 0 c -0.07,-0.07 -0.18,-0.09 -0.23,-0.19 v 0 a 0.13,0.13 0 0 1 -0.1,-0.09 v 0 a 0.19,0.19 0 0 1 -0.1,-0.08 v 0 a 0.34,0.34 0 0 1 -0.09,-0.08 v 0 l -0.09,-0.07 v 0 c -0.06,-0.08 -0.18,-0.1 -0.23,-0.2 v 0 a 0.12,0.12 0 0 1 -0.1,-0.08 v 0 A 0.2,0.2 0 0 1 557,170.44 v 0 a 0.28,0.28 0 0 1 -0.1,-0.09 v 0 a 0.76,0.76 0 0 1 -0.09,-0.09 v 0 l -0.08,-0.09 v 0 l -0.09,-0.07 v 0 a 0.27,0.27 0 0 0 -0.08,-0.07 v 0 a 7.06,7.06 0 0 1 -0.82,-0.82 v 0 l -0.08,-0.08 v 0 l -0.08,-0.08 v 0 l -0.08,-0.09 v 0 l -0.08,-0.09 v 0 a 0.24,0.24 0 0 1 -0.08,-0.09 v 0 a 0.15,0.15 0 0 1 -0.09,-0.1 v 0 c -0.05,0 -0.08,0 -0.09,-0.09 v 0 c -0.1,0 -0.11,-0.16 -0.19,-0.22 v 0 a 0.6,0.6 0 0 0 -0.08,-0.08 v 0 a 0.39,0.39 0 0 1 -0.08,-0.1 v 0 a 0.14,0.14 0 0 1 -0.08,-0.1 v 0 c -0.1,-0.05 -0.12,-0.16 -0.19,-0.23 v 0 a 0.7,0.7 0 0 1 -0.08,-0.1 v 0 a 0.14,0.14 0 0 1 -0.08,-0.1 v 0 c -0.08,0 0,-0.11 -0.11,-0.15 v 0 a 0.34,0.34 0 0 0 -0.08,-0.09 v 0 c 0,0 -0.07,-0.05 -0.08,-0.1 v 0 c -0.07,0 0,-0.11 -0.11,-0.15 v 0 c 0,0 0,-0.06 -0.07,-0.1 v 0 c 0,0 -0.07,0 -0.07,-0.1 v 0 c -0.08,0 -0.06,-0.12 -0.11,-0.16 v 0 a 0.15,0.15 0 0 1 -0.07,-0.1 v 0 c -0.08,0 -0.06,-0.11 -0.11,-0.15 v 0 c 0,0 -0.06,-0.06 -0.07,-0.1 v 0 c -0.07,0 0,-0.12 -0.1,-0.16 v 0 c 0,0 -0.07,-0.06 -0.07,-0.1 v 0 c -0.08,0 -0.06,-0.12 -0.1,-0.17 v 0 c -0.06,0 0,-0.12 -0.09,-0.16 v 0 a 0.23,0.23 0 0 1 -0.07,-0.1 v 0 c -0.07,0 -0.06,-0.12 -0.1,-0.17 v 0 c 0,0 0,-0.12 -0.09,-0.16 v 0 a 0.27,0.27 0 0 1 0.24,0.04 z"
         id="path77"
         style="fill:#ffffff;fill-opacity:1" />
      <path
         class="cls-3"
         d="m 647.81,180.38 c 1.22,0 2.44,0 3.65,0 0.14,0.06 0.08,0.19 0.08,0.29 0,3.46 0,6.93 0,10.39 0,0.1 0,0.2 0,0.27 v 0 0 a 37.84,37.84 0 0 1 -3.84,0 v 0 l -0.09,-0.09 v 0 c 0,0 0,-0.12 -0.09,-0.15 v 0 c 0,0 -0.06,-0.06 -0.06,-0.1 v 0 c -0.07,0 0,-0.12 -0.09,-0.16 v 0 c -0.06,0 0,-0.12 -0.09,-0.16 v 0 c 0,0 -0.07,-0.06 -0.07,-0.11 v 0 c -0.08,0 -0.06,-0.11 -0.1,-0.16 v 0 c -0.06,0 0,-0.12 -0.09,-0.16 v 0 c 0,0 -0.07,-0.06 -0.06,-0.11 v 0 c -0.08,0 -0.06,-0.11 -0.1,-0.16 v 0 c -0.07,0 -0.05,-0.11 -0.1,-0.16 v 0 a 0.19,0.19 0 0 1 -0.07,-0.12 v 0 0 c 0,0 -0.06,-0.06 -0.06,-0.1 v 0 c -0.06,0 -0.05,-0.12 -0.09,-0.16 v 0 c -0.05,0 0,-0.12 -0.09,-0.16 v 0 c 0,0 -0.06,-0.06 -0.07,-0.1 v 0 c -0.07,0 -0.05,-0.12 -0.1,-0.17 v 0 c -0.05,0 0,-0.12 -0.09,-0.16 v 0 c 0,0 -0.06,-0.06 -0.06,-0.11 v 0 c -0.07,0 -0.05,-0.11 -0.09,-0.16 v 0 c -0.06,0 0,-0.12 -0.09,-0.16 v 0 c 0,0 -0.07,-0.06 -0.07,-0.1 v 0 c -0.08,0 -0.06,-0.12 -0.1,-0.17 v 0 c -0.06,0 0,-0.12 -0.09,-0.16 v 0 c 0,0 -0.07,-0.06 -0.06,-0.11 v 0 c -0.08,0 -0.06,-0.11 -0.1,-0.16 v 0 c -0.07,0 0,-0.12 -0.1,-0.17 v 0 c -0.06,0 0,-0.12 -0.09,-0.16 v 0 a 0.24,0.24 0 0 1 -0.06,-0.1 v 0 c -0.07,0 -0.06,-0.11 -0.1,-0.16 v 0 c 0,0 0,-0.12 -0.09,-0.15 v 0 a 0.23,0.23 0 0 1 -0.07,-0.1 v 0 c -0.07,0 0,-0.12 -0.1,-0.17 v 0 c -0.06,0 0,-0.12 -0.1,-0.16 v 0 c 0,0 -0.06,-0.06 -0.06,-0.11 v 0 c -0.08,0 -0.06,-0.11 -0.1,-0.16 v 0 c -0.06,0 0,-0.12 -0.09,-0.16 v 0 c 0,0 -0.07,-0.06 -0.07,-0.11 v 0 0 a 0.18,0.18 0 0 1 -0.12,-0.12 c 0,0 0,0.07 0,0.11 a 1.58,1.58 0 0 0 0,0.65 c 0,0.56 0,1.12 0,1.68 0,0.95 0,1.9 0,2.86 -0.06,0.14 -0.19,0.08 -0.29,0.08 -1.05,0 -2.11,0 -3.17,0 -0.29,0 -0.37,-0.08 -0.37,-0.37 q 0,-5.18 0,-10.34 c 0,-0.1 -0.05,-0.23 0.07,-0.3 h 3.37 a 0.87,0.87 0 0 1 0.48,0 c 0,0 0.06,0.06 0.07,0.1 v 0 c 0.07,0 0.05,0.12 0.1,0.17 v 0 c 0.06,0 0,0.12 0.1,0.16 v 0 c 0,0 0.06,0.06 0.06,0.11 v 0 c 0.07,0 0.05,0.11 0.09,0.16 v 0 c 0.06,0 0,0.12 0.09,0.16 v 0 a 0.18,0.18 0 0 1 0.07,0.1 v 0 c 0.08,0 0.06,0.11 0.1,0.16 v 0 c 0.05,0 0,0.12 0.09,0.16 v 0 a 0.15,0.15 0 0 1 0.06,0.1 v 0 c 0.08,0 0.06,0.12 0.1,0.17 v 0 c 0.06,0 0,0.12 0.1,0.16 v 0 c 0,0 0.06,0.06 0.06,0.11 v 0 c 0.08,0 0.06,0.11 0.1,0.16 v 0 c 0.06,0 0,0.12 0.09,0.17 v 0 a 0.17,0.17 0 0 1 0.07,0.13 v 0 0 a 0.33,0.33 0 0 1 0.06,0.1 v 0 c 0.07,0 0,0.11 0.1,0.16 v 0 c 0,0 0,0.12 0.09,0.15 v 0 c 0,0 0.06,0.06 0.06,0.1 v 0 c 0.07,0 0,0.12 0.09,0.16 v 0 c 0.06,0 0,0.12 0.09,0.16 v 0 c 0,0 0.06,0.06 0.07,0.1 v 0 c 0.08,0 0.06,0.12 0.1,0.17 v 0 c 0,0 0,0.12 0.09,0.16 v 0 c 0,0 0.06,0.06 0.07,0.11 v 0 c 0.07,0 0,0.11 0.1,0.16 v 0 c 0.06,0 0,0.12 0.1,0.16 v 0 c 0,0 0.06,0.06 0.06,0.1 v 0 c 0.08,0 0.06,0.12 0.1,0.17 v 0 c 0.06,0 0,0.12 0.09,0.16 v 0 c 0,0 0.07,0.06 0.07,0.11 v 0 c 0.08,0 0.06,0.11 0.1,0.16 v 0 c 0.07,0 0,0.12 0.1,0.16 v 0 c 0,0 0.07,0.06 0.06,0.11 v 0 c 0.09,0 0.07,0.11 0.1,0.16 v 0 c 0.07,0 0,0.11 0.1,0.16 v 0 c 0.05,0.11 0.22,0.16 0.18,0.31 a 1.47,1.47 0 0 0 0,-0.59 1.48,1.48 0 0 0 0,-0.47 16.15,16.15 0 0 1 0,-1.84 c 0,-0.74 0,-1.48 0,-2.22 -0.13,-0.08 -0.18,-0.25 0.01,-0.32 z"
         id="path79"
         style="fill:#ffffff;fill-opacity:1" />
      <path
         class="cls-3"
         d="m 481.77,185.9 c 0,0.36 0.07,0.73 0.07,1.09 q 0,2 0,4 c 0,0.31 0,0.31 -0.31,0.31 h -3.13 c -0.39,0 -0.35,0 -0.35,-0.37 v -8.87 c 0,-0.48 0,-1 0,-1.44 0,-0.18 0.05,-0.24 0.23,-0.24 h 3.43 c 0.24,0 0.29,0.16 0.38,0.31 l 2.91,4.91 a 1.26,1.26 0 0 0 0.26,0.32 c 0,-0.1 0,-0.2 0,-0.3 -0.11,-1.63 0,-3.27 -0.06,-4.9 0,-0.23 0.07,-0.28 0.28,-0.28 h 3.26 c 0.21,0 0.27,0.07 0.25,0.26 a 2.09,2.09 0 0 0 0,0.25 v 9.89 a 2.08,2.08 0 0 0 0,0.25 c 0,0.23 -0.08,0.27 -0.28,0.27 -1.09,0 -2.18,0 -3.26,0 a 0.53,0.53 0 0 1 -0.52,-0.3 c -0.93,-1.6 -1.88,-3.19 -2.83,-4.78 -0.07,-0.13 -0.15,-0.26 -0.23,-0.39 z"
         id="path81"
         style="fill:#ffffff;fill-opacity:1" />
      <path
         class="cls-3"
         d="m 631.46,184 c 0.14,0.1 0.3,0.05 0.44,0.05 h 1.53 c 0.38,0 0.38,0 0.38,-0.37 v -3 c 0,-0.29 0,-0.29 0.31,-0.29 h 3.57 c 0.16,0.1 0.08,0.25 0.08,0.37 v 10.19 c 0,0.44 0,0.44 -0.45,0.44 h -3.13 c -0.15,0 -0.35,0.07 -0.41,-0.17 a 1.52,1.52 0 0 0 0,-0.52 V 188 a 0.81,0.81 0 0 0 0,-0.41 13.71,13.71 0 0 0 -2.31,0 v 0 c -0.09,0.71 0,1.42 0,2.13 0,0.48 0,1 0,1.45 0,0.19 0,0.26 -0.25,0.26 h -3.46 c -0.18,0 -0.26,-0.06 -0.25,-0.24 a 1.41,1.41 0 0 0 0,-0.2 c 0,-3.4 0,-6.79 0,-10.18 0,-0.13 -0.07,-0.28 0.07,-0.38 q 1.9,0 3.81,0 c 0.14,0.1 0.07,0.25 0.07,0.37 v 2.83 a 0.79,0.79 0 0 0 0,0.37 z"
         id="path83"
         style="fill:#ffffff;fill-opacity:1" />
      <path
         class="cls-3"
         d="m 465.26,187.72 a 4.76,4.76 0 0 0 -0.07,-1 v -6.26 c 0.63,-0.05 1.26,0 1.89,0 h 1.78 c 0.19,0 0.28,0.06 0.25,0.26 v 0.24 c 0,1.78 0,3.55 0,5.32 a 4.74,4.74 0 0 0 0.09,1.19 0.89,0.89 0 0 0 1,0.76 0.93,0.93 0 0 0 1,-0.75 4.51,4.51 0 0 0 0.1,-1.1 V 181 a 2.08,2.08 0 0 0 0,-0.25 c 0,-0.23 0.08,-0.27 0.28,-0.27 H 475 c 0.22,0 0.27,0.07 0.27,0.28 0,2 0,4 0,6 a 10.26,10.26 0 0 1 -0.12,1.36 3.86,3.86 0 0 1 -2,2.83 5.79,5.79 0 0 1 -3.46,0.7 5.32,5.32 0 0 1 -2.06,-0.53 3.92,3.92 0 0 1 -2.37,-3.4 z"
         id="path85"
         style="fill:#ffffff;fill-opacity:1" />
      <path
         class="cls-3"
         d="m 509.16,180.44 -1.41,3.69 c -0.87,2.29 -1.74,4.59 -2.62,6.88 -0.15,0.42 -0.12,0.34 -0.49,0.34 h -3 a 0.36,0.36 0 0 1 -0.39,-0.26 c -1.32,-3.49 -2.66,-7 -4,-10.46 a 0.88,0.88 0 0 1 -0.05,-0.15 c 0.1,-0.08 0.19,-0.05 0.29,-0.05 h 3.58 c 0.35,0 0.35,0 0.45,0.33 0.46,1.64 1,3.26 1.39,4.91 0.1,0.41 0.15,0.83 0.25,1.25 0.37,-2.09 1.13,-4.08 1.7,-6.11 0.11,-0.38 0.11,-0.38 0.53,-0.38 h 3.76 z"
         id="path87"
         style="fill:#ffffff;fill-opacity:1" />
      <path
         class="cls-3"
         d="m 539.83,188.7 c -0.1,0.23 -0.18,0.46 -0.29,0.68 a 4.16,4.16 0 0 1 -2.9,2.12 7.48,7.48 0 0 1 -4.59,-0.52 c -0.3,-0.12 -0.59,-0.29 -0.89,-0.42 a 0.23,0.23 0 0 1 -0.14,-0.35 c 0.39,-0.93 0.77,-1.85 1.16,-2.8 a 1.61,1.61 0 0 1 0.46,0.26 4.9,4.9 0 0 0 2.08,0.83 1.77,1.77 0 0 0 0.69,-0.07 0.51,0.51 0 0 0 0.38,-0.44 0.47,0.47 0 0 0 -0.29,-0.46 3.11,3.11 0 0 0 -1,-0.31 6.69,6.69 0 0 1 -1.3,-0.39 2.81,2.81 0 0 1 -1.68,-2.86 3.81,3.81 0 0 1 3,-3.6 6.85,6.85 0 0 1 4.5,0.47 c 0.23,0.1 0.54,0.14 0.64,0.35 0.1,0.21 -0.13,0.45 -0.22,0.68 -0.28,0.71 -0.59,1.41 -0.89,2.13 a 1.2,1.2 0 0 1 -0.4,-0.23 3.75,3.75 0 0 0 -1.86,-0.59 1.17,1.17 0 0 0 -0.56,0.11 0.4,0.4 0 0 0 -0.07,0.74 2.12,2.12 0 0 0 0.63,0.29 7.73,7.73 0 0 0 0.92,0.23 3.13,3.13 0 0 1 2.56,2 c 0.07,0.07 0,0.18 0.08,0.26 a 0.035,0 -90 0 0 0,0.07 5.47,5.47 0 0 1 0,1.4 0.06,0.06 0 0 0 0,0.07 c -0.02,0.11 0.07,0.25 -0.02,0.35 z"
         id="path89"
         style="fill:#ffffff;fill-opacity:1" />
      <path
         class="cls-3"
         d="m 617.7,191.3 q 0,-5 0,-10 c 0,-0.3 -0.13,-0.68 0.06,-0.87 0.19,-0.19 0.59,-0.07 0.9,-0.07 h 6.26 c 0.18,0.06 0.14,0.21 0.14,0.34 0,0.78 0,1.56 0,2.34 0,0.27 -0.09,0.33 -0.34,0.32 -0.93,0 -1.86,0 -2.79,0 -0.27,0 -0.36,0.07 -0.35,0.35 0,0.79 -0.09,0.64 0.65,0.65 h 2 c 0.13,0 0.28,-0.05 0.4,0.06 v 0 c 0.1,0.09 0.06,0.2 0.06,0.31 0,0.71 0,1.42 0,2.14 0,0.3 -0.07,0.4 -0.39,0.39 -0.79,0 -1.59,0 -2.38,0 -0.28,0 -0.39,0.06 -0.38,0.36 0,0.72 0,0.72 0.71,0.72 0.71,0 1.65,0 2.47,0 0.27,0 0.39,0.05 0.38,0.36 0,0.79 0,1.59 0,2.38 0,0.1 0,0.2 -0.06,0.27 v 0 c -0.09,0.1 -0.21,0.06 -0.31,0.06 H 618 c -0.1,-0.03 -0.23,0.03 -0.3,-0.11 z"
         id="path91"
         style="fill:#ffffff;fill-opacity:1" />
      <path
         class="cls-3"
         d="m 582.89,188.35 a 0.21,0.21 0 0 0 0.11,0 h 3.32 c 0.12,0.07 0.07,0.2 0.07,0.3 0,0.78 0,1.56 0,2.35 0,0.25 0,0.36 -0.33,0.35 h -6.76 c -0.28,0 -0.34,-0.09 -0.34,-0.35 q 0,-5.13 0,-10.26 c 0,-0.29 0.09,-0.37 0.37,-0.36 H 586 c 0.19,0 0.35,0 0.34,0.26 0,0.87 0,1.73 0,2.6 a 0.2,0.2 0 0 1 -0.06,0.15 H 583 582.85 a 2.22,2.22 0 0 0 0,1 0.31,0.31 0 0 0 0.23,0 h 2.57 a 0.71,0.71 0 0 0 0.2,0 c 0.11,0 0.09,0.13 0.09,0.2 0,0.78 0,1.57 0,2.35 0,0.23 -0.07,0.3 -0.3,0.3 h -2.39 a 0.69,0.69 0 0 0 -0.4,0 v 0 a 2.48,2.48 0 0 0 0.04,1.11 z"
         id="path93"
         style="fill:#ffffff;fill-opacity:1" />
      <path
         class="cls-3"
         d="m 510.43,185.9 v -5 a 2.8,2.8 0 0 0 0,-0.29 c 0,-0.14 0,-0.24 0.21,-0.22 h 6.88 c 0.16,0 0.22,0.05 0.22,0.21 q 0,1.26 0,2.52 c 0,0.22 -0.1,0.24 -0.28,0.24 h -3 c -0.15,0 -0.21,0.06 -0.22,0.22 0,0.83 -0.06,0.83 0.76,0.83 0.82,0 1.4,0 2.1,0 0.22,0 0.29,0.06 0.28,0.28 0,0.75 0,1.51 0,2.27 0,0.2 -0.07,0.25 -0.26,0.25 h -2.51 c -0.36,0 -0.37,0 -0.36,0.36 0.01,0.36 -0.1,0.55 0.05,0.72 0.15,0.17 0.46,0.06 0.7,0.06 h 2.48 c 0.3,0 0.31,0 0.31,0.32 v 2.35 c 0,0.28 0,0.28 -0.3,0.28 -2.27,0 -4.53,0 -6.8,0 -0.28,0 -0.29,0 -0.29,-0.3 z"
         id="path95"
         style="fill:#ffffff;fill-opacity:1" />
      <path
         class="cls-3"
         d="m 667.64,191.58 h -0.13 a 7.59,7.59 0 0 1 -1.65,0 h -0.14 c -0.11,-0.07 -0.25,0 -0.36,-0.07 v 0 0 c -0.08,-0.06 -0.19,0 -0.27,-0.07 v 0 0 c -0.08,-0.07 -0.19,0 -0.27,-0.08 v 0 c -0.07,-0.08 -0.19,0 -0.25,-0.09 v 0 c -0.05,0 -0.12,0 -0.17,-0.07 v 0 0 c -0.07,0 -0.16,0 -0.2,-0.09 v 0 c -0.06,0 -0.14,0 -0.17,-0.09 v 0 a 0.24,0.24 0 0 1 -0.1,-0.06 v 0 0 a 0.15,0.15 0 0 1 -0.12,-0.07 v 0 c 0,-0.05 -0.13,0 -0.16,-0.1 v 0 a 0.23,0.23 0 0 1 -0.1,-0.07 v 0 c 0,-0.05 -0.13,0 -0.15,-0.11 v 0 a 0.13,0.13 0 0 1 -0.1,-0.07 v 0 l -0.09,-0.07 v 0 c 0,-0.06 -0.13,0 -0.15,-0.12 v 0 a 0.11,0.11 0 0 1 -0.1,-0.08 v 0 a 0.2,0.2 0 0 1 -0.09,-0.09 v 0 l -0.09,-0.08 v 0 l -0.08,-0.08 v 0 l -0.08,-0.08 v 0 l -0.09,-0.09 v 0 l -0.08,-0.08 v 0 a 0.34,0.34 0 0 1 -0.08,-0.09 v 0 a 0.2,0.2 0 0 1 -0.09,-0.09 v 0 a 0.12,0.12 0 0 1 -0.08,-0.1 v 0 c -0.08,0 -0.06,-0.11 -0.11,-0.14 v 0 l -0.07,-0.09 v 0 a 0.12,0.12 0 0 1 -0.08,-0.1 v 0 c -0.08,0 -0.06,-0.11 -0.1,-0.16 v 0 c -0.06,0 0,-0.12 -0.09,-0.16 v 0 c 0,0 -0.06,-0.06 -0.06,-0.11 v 0 c -0.07,0 -0.06,-0.11 -0.1,-0.16 v 0 c -0.07,0 0,-0.12 -0.09,-0.17 v 0 c -0.07,0 -0.06,-0.12 -0.09,-0.18 v 0 c -0.1,-0.05 0,-0.18 -0.1,-0.24 v 0 a 0.53,0.53 0 0 1 -0.07,-0.2 v 0 0 c -0.07,-0.07 0,-0.18 -0.07,-0.25 v 0 c -0.1,-0.1 0,-0.24 -0.08,-0.34 a 0.06,0.06 0 0 0 0,-0.07 c -0.09,-0.13 0,-0.3 -0.07,-0.43 v -0.15 a 5.74,5.74 0 0 1 0,-1.31 v -0.15 c 0.09,-0.13 0,-0.3 0.08,-0.43 a 0.06,0.06 0 0 0 0,-0.07 c 0.08,-0.1 0,-0.24 0.08,-0.34 v 0 c 0.07,-0.07 0,-0.18 0.07,-0.25 v 0 0 a 0.53,0.53 0 0 1 0.07,-0.2 v 0 c 0.08,-0.06 0,-0.19 0.1,-0.24 v 0 c 0,-0.06 0,-0.13 0.08,-0.18 v 0 c 0,0 0,-0.13 0.08,-0.17 v 0 c 0,-0.05 0,-0.13 0.09,-0.17 v 0 c 0,-0.05 0,-0.14 0.1,-0.17 v 0 c 0,0 0.05,-0.07 0.07,-0.1 v 0 c 0.06,0 0,-0.13 0.1,-0.16 v 0 c 0,0 0,-0.06 0.07,-0.1 v 0 c 0.05,0 0,-0.13 0.1,-0.15 v 0 a 0.14,0.14 0 0 1 0.08,-0.1 v 0 a 0.86,0.86 0 0 1 0.07,-0.1 v 0 c 0.08,-0.06 0.09,-0.19 0.2,-0.22 v 0 q 0,-0.08 0.09,-0.09 v 0 a 0.08,0.08 0 0 1 0.09,-0.09 v 0 a 0.11,0.11 0 0 1 0.09,-0.09 v 0 a 0.11,0.11 0 0 1 0.1,-0.09 v 0 a 1.14,1.14 0 0 1 0.31,-0.27 v 0 a 0.23,0.23 0 0 1 0.1,-0.07 v 0 a 0.74,0.74 0 0 1 0.25,-0.17 v 0 a 0.14,0.14 0 0 1 0.11,-0.07 v 0 c 0,-0.09 0.11,-0.07 0.16,-0.11 v 0 c 0,-0.06 0.12,0 0.16,-0.1 v 0 c 0,0 0.12,0 0.16,-0.08 v 0 c 0,0 0.12,0 0.16,-0.08 v 0 c 0.05,0 0.12,0 0.17,-0.08 v 0 c 0,-0.05 0.12,0 0.17,-0.08 v 0 c 0.06,-0.1 0.18,0 0.25,-0.09 v 0 c 0.07,-0.08 0.18,0 0.25,-0.09 v 0 c 0.08,-0.08 0.19,0 0.28,-0.08 v 0 0 c 0.1,-0.09 0.24,0 0.35,-0.08 0.11,-0.08 0,0 0.06,0 0.19,-0.1 0.41,0 0.61,-0.07 a 1,1 0 0 0 0.38,0 0.23,0.23 0 0 1 0.25,0 1.2,1.2 0 0 0 0.38,0 c 0.17,0.08 0.36,0 0.52,0.07 h 0.13 c 0.09,0 0.2,0 0.28,0.07 a 0.08,0.08 0 0 0 0.08,0 c 0.07,0.07 0.18,0 0.26,0.07 0.08,0.07 0,0 0.06,0 0.06,0 0.19,0 0.26,0.08 v 0 c 0.06,0 0.13,0 0.18,0.07 v 0 0 c 0.06,0 0.14,0 0.19,0.08 v 0 c 0.17,0.07 0.13,0.23 0.13,0.36 v 3.41 c 0,0.11 0.09,0.33 -0.19,0.24 v 0 a 0.12,0.12 0 0 1 -0.1,-0.08 v 0 a 0.39,0.39 0 0 1 -0.1,-0.08 v 0 A 0.34,0.34 0 0 1 669,184.26 v 0 c 0,0 -0.12,0 -0.14,-0.1 v 0 c 0,0 -0.08,0 -0.11,-0.07 v 0 c 0,0 -0.13,0 -0.16,-0.1 v 0 c 0,0 -0.06,0 -0.1,-0.06 v 0 0 c 0,0 -0.08,0 -0.12,-0.06 v 0 0 c -0.07,0 -0.14,0 -0.2,-0.08 v 0 c -0.07,-0.07 -0.19,0 -0.26,-0.08 v 0 0 c -0.11,0 -0.25,0 -0.37,-0.07 a 1.47,1.47 0 0 0 -0.66,0 c -0.1,0.07 -0.23,0 -0.33,0.07 v 0 c -0.06,0.08 -0.18,0 -0.25,0.09 v 0 c 0,0 -0.12,0 -0.16,0.08 v 0 c 0,0 -0.06,0.07 -0.11,0.06 v 0 c 0,0.09 -0.11,0.06 -0.15,0.11 v 0 a 0.34,0.34 0 0 1 -0.09,0.08 v 0 a 0.2,0.2 0 0 1 -0.09,0.09 v 0 a 0.16,0.16 0 0 1 -0.09,0.09 v 0 a 0.34,0.34 0 0 1 -0.08,0.09 v 0 c -0.05,0 0,0.13 -0.11,0.15 v 0 a 0.15,0.15 0 0 1 -0.06,0.11 v 0 c -0.05,0 0,0.12 -0.09,0.17 v 0 c -0.07,0.06 0,0.18 -0.08,0.24 v 0 c -0.09,0.1 0,0.23 -0.07,0.33 a 0.26,0.26 0 0 0 0,0.21 0.58,0.58 0 0 0 0,0.41 0.26,0.26 0 0 0 0,0.21 c 0,0.09 0,0.19 0.06,0.28 v 0 0 c 0.05,0.05 0.05,0.13 0.07,0.19 a 0.03,0 -90 0 0 0,0.06 0.24,0.24 0 0 1 0.07,0.12 c 0,0 0,0 0,0 l 0.06,0.1 v 0 a 3.94,3.94 0 0 0 0.5,0.5 v 0 c 0,0 0.06,0 0.1,0.06 v 0 c 0,0 0.12,0 0.16,0.08 v 0 0 a 0.54,0.54 0 0 1 0.21,0.08 v 0 c 0.09,0.08 0.23,0 0.33,0.07 a 1.14,1.14 0 0 0 0.66,0 c 0.11,-0.07 0.26,0 0.37,-0.07 v 0 c 0.07,-0.08 0.18,0 0.26,-0.08 v 0 c 0.06,-0.09 0.18,0 0.24,-0.09 v 0 c 0,-0.05 0.12,0 0.16,-0.08 v 0 c 0,0 0.12,0 0.17,-0.08 v 0 c 0,-0.05 0.12,0 0.15,-0.09 v 0 a 0.23,0.23 0 0 1 0.1,-0.07 v 0 c 0,-0.07 0.12,-0.05 0.16,-0.1 v 0 c 0,0 0.05,-0.07 0.1,-0.07 v 0 c 0,-0.08 0.12,-0.06 0.16,-0.11 v 0 c 0,0 0.05,-0.06 0.09,-0.07 v 0 c 0.37,-0.06 0.16,0.18 0.17,0.31 a 2.06,2.06 0 0 0 0,0.7 12.52,12.52 0 0 0 0,1.5 1.31,1.31 0 0 1 0,0.44 2.35,2.35 0 0 0 0,0.7 c -0.08,0.14 0.05,0.36 -0.16,0.45 v 0 c 0,0.05 -0.13,0.05 -0.2,0.07 v 0 0 a 1.59,1.59 0 0 1 -0.2,0.07 v 0 0 c -0.07,0.07 -0.18,0 -0.25,0.08 v 0 c -0.1,0.1 -0.24,0 -0.34,0.09 v 0 0 c -0.43,0.31 -0.57,0.24 -0.68,0.31 z"
         id="path97"
         style="fill:#ffffff;fill-opacity:1" />
      <path
         class="cls-3"
         d="m 615.61,184 c -0.68,0 -1.36,0 -2,0 a 0.86,0.86 0 0 0 0,0.45 c 0,2.15 0,4.3 0,6.45 0,0.14 0.07,0.3 -0.06,0.43 v 0 c -0.06,0.08 -0.15,0.06 -0.23,0.06 h -3.5 c -0.08,0 -0.17,0 -0.22,-0.07 q 0,-3.52 0,-7 c 0,-0.29 0,-0.3 -0.29,-0.3 h -1.91 c 0,0 -0.06,-0.05 -0.06,-0.1 v -3.42 c 0,-0.05 0,-0.06 0.07,-0.09 h 0.29 c 2.54,0 5.07,0 7.61,0 h 0.29 c 0.1,0 0.07,0.14 0.07,0.21 v 3.18 c 0,0.04 0.02,0.13 -0.06,0.2 z"
         id="path99"
         style="fill:#ffffff;fill-opacity:1" />
      <path
         class="cls-3"
         d="M 556.57,180.47 V 184 c -0.13,0.13 -0.29,0.06 -0.43,0.07 a 10.83,10.83 0 0 0 -1.71,0.05 11,11 0 0 0 0,1.72 c 0,1.71 0,3.43 0,5.14 0,0.34 -0.09,0.44 -0.44,0.44 -1,0 -2.08,0 -3.12,0 -0.32,0 -0.42,-0.08 -0.42,-0.41 0,-2.16 0,-4.31 0,-6.46 a 1.13,1.13 0 0 0 0,-0.45 v 0 a 16.28,16.28 0 0 0 -1.85,0 c -0.26,0 -0.36,0 -0.35,-0.34 0,-1 0,-2 0,-3 0,-0.24 0.06,-0.33 0.32,-0.33 h 7.82 c 0.03,-0.02 0.12,-0.04 0.18,0.04 z"
         id="path101"
         style="fill:#ffffff;fill-opacity:1" />
      <path
         class="cls-3"
         d="M 576.94,180.47 V 184 a 2.42,2.42 0 0 1 -0.93,0.05 c -0.32,0 -0.65,0 -1,0 -0.35,0 -0.29,0.05 -0.27,0.25 a 2.09,2.09 0 0 1 0,0.25 v 6.38 c 0,0.46 0,0.46 -0.47,0.46 h -3 c -0.53,0 -0.48,0.05 -0.48,-0.5 q 0,-3.21 0,-6.42 c 0,-0.35 -0.1,-0.43 -0.43,-0.43 a 8,8 0 0 1 -1.76,-0.05 v 0 a 0.25,0.25 0 0 1 0,-0.19 c 0,-1 0,-2.05 0,-3.08 0,-0.22 0,-0.31 0.3,-0.31 h 7.89 a 0.21,0.21 0 0 1 0.15,0.06 z"
         id="path103"
         style="fill:#ffffff;fill-opacity:1" />
      <path
         class="cls-3"
         d="m 654.43,180.38 c 1.29,0 2.59,0 3.89,0 0.14,0.1 0.07,0.25 0.07,0.38 v 10.18 c 0,0.44 0,0.44 -0.45,0.44 h -3.22 c -0.28,0 -0.37,-0.06 -0.37,-0.36 0,-3.45 0,-6.9 0,-10.35 0.01,-0.09 -0.05,-0.22 0.08,-0.29 z"
         id="path105"
         style="fill:#ffffff;fill-opacity:1" />
      <path
         class="cls-3"
         d="m 495.82,185.94 v 5 c 0,0.43 0,0.38 -0.4,0.39 h -3.22 c -0.36,0 -0.37,0 -0.37,-0.35 v -10.19 c 0,-0.35 0,-0.35 0.37,-0.35 h 3.25 c 0.4,0 0.37,0 0.37,0.39 z"
         id="path107"
         style="fill:#ffffff;fill-opacity:1" />
      <path
         class="cls-3"
         d="m 584.42,203.37 h -1.25 c -0.11,-0.05 -0.14,-0.16 -0.2,-0.25 v 0 c 0,0 -0.08,0 -0.08,-0.11 v 0 c -0.08,0 -0.06,-0.11 -0.1,-0.15 v 0 a 0.11,0.11 0 0 1 -0.07,-0.1 v 0 c -0.08,0 -0.06,-0.11 -0.11,-0.16 v 0 c 0,0 -0.07,-0.06 -0.07,-0.11 v 0 c -0.08,0 -0.06,-0.11 -0.11,-0.15 v 0 a 0.23,0.23 0 0 1 -0.07,-0.1 v 0 c -0.07,0 0,-0.12 -0.1,-0.16 v 0 a 0.18,0.18 0 0 1 -0.07,-0.1 v 0 c -0.07,0 0,-0.11 -0.1,-0.15 v 0 c 0,0 -0.06,-0.06 -0.07,-0.1 v 0 c -0.07,0 -0.05,-0.12 -0.11,-0.15 v 0 a 0.86,0.86 0 0 1 -0.07,-0.1 v 0 c -0.06,0 0,-0.12 -0.1,-0.15 v 0 c 0,0 0,-0.06 -0.06,-0.09 v 0 c 0,0 -0.08,-0.05 -0.07,-0.1 v 0 c -0.09,0 -0.06,-0.11 -0.11,-0.16 v 0 c 0,0 -0.07,0 -0.07,-0.11 v 0 c -0.08,0 -0.06,-0.11 -0.11,-0.15 v 0 c 0,0 -0.07,0 -0.08,-0.1 v 0 c -0.08,0 -0.05,-0.11 -0.1,-0.16 v 0 c 0,0 -0.07,-0.06 -0.07,-0.11 v 0 c -0.07,0 0,-0.11 -0.1,-0.15 v 0 a 0.23,0.23 0 0 1 -0.07,-0.1 v 0 c -0.07,0 0,-0.12 -0.11,-0.16 v 0 c 0,0 -0.06,-0.05 -0.07,-0.1 v 0 c -0.07,0 0,-0.11 -0.1,-0.15 v 0 c 0,0 -0.06,-0.06 -0.07,-0.1 v 0 c -0.06,0 0,-0.12 -0.1,-0.15 v 0 c 0,0 -0.05,-0.06 -0.07,-0.1 v 0 a 2.2,2.2 0 0 1 -0.17,-0.25 v 0 a 0.08,0.08 0 0 0 -0.1,0 4.39,4.39 0 0 0 0,0.81 v 2.78 a 1.12,1.12 0 0 0 0,0.41 0.18,0.18 0 0 1 -0.09,0.12 h -1.27 c -0.14,-0.09 -0.07,-0.22 -0.07,-0.33 0,-2 0,-3.94 0,-5.91 0,-0.3 0.07,-0.44 0.38,-0.39 0.31,0.05 0.73,-0.12 1.07,0.12 v 0 c 0,0 0.06,0.06 0.07,0.1 v 0 a 2.2,2.2 0 0 1 0.17,0.25 v 0 a 0.13,0.13 0 0 1 0.07,0.1 v 0 c 0.08,0 0.06,0.11 0.11,0.15 v 0 a 0.23,0.23 0 0 1 0.07,0.1 v 0 c 0.07,0 0,0.12 0.11,0.16 v 0 c 0,0 0.06,0.06 0.07,0.1 v 0 c 0.07,0 0,0.12 0.1,0.15 v 0 c 0,0 0,0.06 0.07,0.1 v 0 c 0,0 0.08,0 0.08,0.11 v 0 c 0.08,0 0.06,0.11 0.1,0.15 v 0 c 0,0 0.07,0 0.08,0.1 v 0 c 0.07,0 0.05,0.11 0.1,0.15 v 0 a 0.23,0.23 0 0 1 0.07,0.1 v 0 c 0.06,0 0,0.12 0.1,0.15 v 0 c 0,0 0.06,0.06 0.07,0.1 v 0 a 0.11,0.11 0 0 1 0.07,0.1 v 0 c 0.09,0 0.06,0.11 0.11,0.16 v 0 c 0,0 0.07,0.06 0.07,0.11 v 0 c 0.08,0 0.06,0.11 0.11,0.15 v 0 a 0.23,0.23 0 0 1 0.07,0.1 v 0 c 0.07,0 0.05,0.12 0.11,0.15 v 0 c 0,0 0.06,0.06 0.07,0.1 v 0 a 1.44,1.44 0 0 1 0.18,0.25 v 0 c 0,0 0.08,0.05 0.08,0.1 v 0 c 0.08,0 0,0.12 0.1,0.16 v 0 a 0.23,0.23 0 0 1 0.08,0.11 v 0 c 0.07,0 0,0.11 0.1,0.15 v 0 a 0.23,0.23 0 0 1 0.07,0.1 v 0 c 0.06,0 0,0.12 0.1,0.15 v 0 c 0,0 0.06,0.05 0.07,0.09 v 0 a 0.09,0.09 0 0 0 0.1,0 6.38,6.38 0 0 0 0,-1 v -2.45 a 1.14,1.14 0 0 0 0,-0.41 c 0,-0.19 0.19,-0.16 0.33,-0.16 0.14,0 0.52,0 0.78,0 0.26,0 0.33,0.07 0.33,0.32 0,1 0,2 0,3 0,1 0,2 0,2.92 -0.01,0.15 0.06,0.3 -0.08,0.4 z"
         id="path109"
         style="fill:#ffffff;fill-opacity:1" />
      <path
         class="cls-3"
         d="m 540.83,200.88 c -0.34,-0.61 -0.78,-1.15 -1.16,-1.75 -0.13,0.1 -0.08,0.22 -0.08,0.32 V 203 c 0,0.33 0,0.33 -0.34,0.33 h -0.79 c -0.15,0 -0.23,0 -0.22,-0.2 V 197 c 0,-0.13 0,-0.21 0.18,-0.21 0.33,0 0.66,0 1,0 0.34,0 0.22,0.19 0.34,0.26 a 0.18,0.18 0 0 1 0.07,0.1 v 0 c 0.06,0 0,0.12 0.1,0.15 v 0 c 0,0 0.06,0.06 0.07,0.1 v 0 c 0,0 0.07,0 0.07,0.11 v 0 c 0.09,0 0.06,0.11 0.11,0.15 v 0 c 0,0 0.07,0 0.07,0.1 v 0 c 0.08,0 0.06,0.11 0.11,0.15 v 0 a 0.23,0.23 0 0 1 0.07,0.1 v 0 c 0.07,0 0.05,0.12 0.11,0.16 v 0 a 0.86,0.86 0 0 1 0.07,0.1 v 0 a 1.14,1.14 0 0 1 0.18,0.25 v 0 a 0.18,0.18 0 0 1 0.08,0.11 v 0 c 0.08,0 0.05,0.11 0.1,0.15 v 0 c 0,0 0.07,0.06 0.08,0.1 v 0 c 0.07,0 0,0.12 0.1,0.15 v 0 c 0,0 0.06,0 0.07,0.09 v 0 c 0.06,0 0,0.11 0.1,0.14 v 0 c 0,0 0,0.06 0.07,0.1 v 0 c 0,0 0.07,0.05 0.07,0.1 v 0 c 0.09,0 0.06,0.12 0.11,0.16 v 0 a 0.13,0.13 0 0 1 0.07,0.1 v 0 c 0.08,0 0.05,0.11 0.11,0.15 v 0 a 0.23,0.23 0 0 1 0.07,0.1 v 0 c 0.07,0 0,0.12 0.11,0.15 v 0 a 0.71,0.71 0 0 1 0.07,0.09 v 0 a 1.37,1.37 0 0 1 0.18,0.24 v 0 c 0,0 0.07,0 0.08,0.1 v 0 c 0.08,0 0,0.12 0.1,0.16 v 0 c 0,0 0.07,0 0.08,0.1 v 0 c 0.25,0 0.14,-0.23 0.14,-0.35 0,-1.06 0,-2.12 0,-3.17 0,-0.33 0.09,-0.45 0.42,-0.41 0.33,0.04 0.71,-0.13 0.92,0.07 0.21,0.2 0.07,0.59 0.07,0.9 0,1.75 0,3.49 0,5.23 0,0.15 0.06,0.3 -0.06,0.44 h -1.2 a 0.19,0.19 0 0 1 -0.1,-0.08 v 0 a 0.18,0.18 0 0 1 -0.08,-0.11 v 0 c -0.07,0 0,-0.11 -0.1,-0.15 v 0 c 0,0 -0.07,-0.06 -0.07,-0.1 v 0 c -0.07,0 0,-0.12 -0.1,-0.16 v 0 a 0.18,0.18 0 0 1 -0.07,-0.1 v 0 c -0.07,0 -0.05,-0.11 -0.1,-0.15 v 0 c 0,0 -0.06,-0.06 -0.07,-0.1 v 0 c -0.07,0 0,-0.12 -0.1,-0.16 v 0 c 0,0 -0.06,-0.06 -0.07,-0.1 v 0 c -0.06,0 0,-0.12 -0.1,-0.15 v 0 l -0.07,-0.09 v 0 a 0.13,0.13 0 0 1 -0.07,-0.1 v 0 c -0.08,0 -0.06,-0.11 -0.11,-0.16 v 0 c 0,0 -0.08,0 -0.08,-0.11 v 0 c -0.08,0 -0.05,-0.11 -0.1,-0.15 v 0 c 0,0 -0.07,0 -0.07,-0.1 v 0 c -0.08,0 -0.06,-0.11 -0.11,-0.16 v 0 a 0.15,0.15 0 0 1 -0.07,-0.1 v 0 c -0.08,0 0,-0.11 -0.11,-0.15 v 0 a 0.21,0.21 0 0 1 -0.15,-0.16 z"
         id="path111"
         style="fill:#ffffff;fill-opacity:1" />
      <path
         class="cls-3"
         d="m 554.07,203.29 v 0 0 a 0.74,0.74 0 0 1 -0.21,0.07 v 0 0 c -0.1,0.09 -0.24,0 -0.35,0.08 v 0 0 a 4.17,4.17 0 0 1 -1.32,0 H 552 c -0.11,-0.08 -0.25,0 -0.35,-0.08 v 0 c -0.07,-0.07 -0.18,0 -0.25,-0.08 v 0 c -0.06,-0.08 -0.19,0 -0.24,-0.1 v 0 c 0,0 -0.13,0 -0.17,-0.09 v 0 c -0.05,0 -0.14,0 -0.17,-0.1 v 0 c 0,0 -0.07,0 -0.1,-0.06 v 0 c 0,-0.06 -0.12,0 -0.15,-0.09 v 0 l -0.09,-0.07 v 0 c 0,-0.06 -0.13,0 -0.15,-0.11 v 0 a 0.11,0.11 0 0 1 -0.1,-0.08 v 0 a 0.2,0.2 0 0 1 -0.09,-0.09 v 0 a 0.26,0.26 0 0 1 -0.09,-0.09 v 0 a 0.2,0.2 0 0 1 -0.09,-0.09 v 0 a 0.26,0.26 0 0 1 -0.09,-0.09 v 0 a 0.16,0.16 0 0 1 -0.09,-0.09 v 0 a 0.11,0.11 0 0 1 -0.08,-0.1 v 0 c -0.09,0 -0.06,-0.11 -0.11,-0.15 v 0 a 0.23,0.23 0 0 1 -0.07,-0.1 v 0 c -0.07,0 -0.05,-0.12 -0.09,-0.16 v 0 c -0.06,0 0,-0.12 -0.09,-0.16 v 0 c 0,0 0,-0.13 -0.08,-0.17 v 0 c -0.05,-0.05 -0.05,-0.13 -0.07,-0.19 a 0.03,0 90 0 0 0,-0.06 0.68,0.68 0 0 1 -0.07,-0.2 v 0 0 c -0.08,-0.11 0,-0.26 -0.07,-0.37 a 0.15,0.15 0 0 0 0,-0.13 1.54,1.54 0 0 1 0,-0.74 0.15,0.15 0 0 0 0,-0.13 c 0.06,-0.11 0,-0.26 0.08,-0.36 v 0 c 0.07,-0.07 0,-0.18 0.08,-0.25 v 0 c 0,-0.05 0,-0.12 0.07,-0.17 0.07,-0.05 0,0 0,0 0,0 0,-0.15 0.09,-0.19 v 0 a 0.15,0.15 0 0 1 0.06,-0.11 v 0 c 0.06,0 0,-0.12 0.09,-0.16 v 0 c 0.06,-0.09 0.09,-0.19 0.18,-0.25 v 0 a 0.14,0.14 0 0 1 0.08,-0.1 v 0 l 0.08,-0.09 v 0 a 0.3,0.3 0 0 0 0.08,-0.08 v 0 l 0.07,-0.08 v 0 l 0.08,-0.07 v 0 a 0.3,0.3 0 0 0 0.08,-0.08 v 0 l 0.1,-0.07 v 0 c 0,0 0.05,-0.07 0.1,-0.08 v 0 c 0,-0.07 0.11,0 0.15,-0.11 v 0 l 0.1,-0.07 v 0 c 0,-0.07 0.12,-0.05 0.16,-0.1 v 0 a 0.15,0.15 0 0 1 0.11,-0.06 v 0 c 0,-0.08 0.12,-0.06 0.18,-0.09 0.06,-0.03 0,0 0,0 0,0 0.12,0 0.17,-0.07 v 0 a 0.7,0.7 0 0 1 0.2,-0.08 v 0 0 c 0.08,-0.07 0.19,0 0.27,-0.07 0.08,-0.07 0.05,0 0.06,0 0.01,0 0.31,0 0.45,-0.07 h 0.75 c 0.15,0.07 0.31,0 0.45,0.06 a 0.06,0.06 0 0 0 0.08,0 c 0.09,0.09 0.24,0 0.33,0.09 v 0 c 0.07,0.07 0.19,0 0.25,0.09 v 0 c 0.06,0 0.13,0 0.18,0.07 v 0 c 0,0 0.13,0 0.17,0.09 v 0 c 0,0.05 0.13,0 0.16,0.1 v 0 c 0,0 0.07,0 0.1,0.07 v 0 c 0,0.06 0.13,0 0.16,0.11 v 0 a 0.14,0.14 0 0 1 0.09,0.08 v 0 a 0.34,0.34 0 0 1 0.09,0.08 v 0 l 0.08,0.08 v 0 l 0.08,0.08 v 0 a 0.34,0.34 0 0 0 0.08,0.09 v 0 l 0.08,0.08 v 0 a 0.39,0.39 0 0 1 0.08,0.1 v 0 a 0.12,0.12 0 0 1 0.08,0.1 v 0 c 0.08,0 0.05,0.11 0.11,0.15 v 0 a 0.23,0.23 0 0 1 0.07,0.1 v 0 c 0.06,0 0,0.12 0.09,0.16 v 0 c 0,0 0.06,0.06 0.06,0.1 v 0 c 0.08,0 0.06,0.12 0.1,0.17 v 0 c 0.07,0.12 0,0.12 -0.1,0.15 a 9.27,9.27 0 0 0 -1.49,0 c 0,0 -0.09,0 -0.13,-0.07 v 0 a 0.3,0.3 0 0 0 -0.08,-0.08 v 0 a 0.3,0.3 0 0 0 -0.08,-0.08 v 0 l -0.08,-0.07 v 0 c 0,-0.06 -0.12,0 -0.15,-0.11 v 0 c 0,0 -0.07,-0.05 -0.1,-0.07 v 0 c 0,-0.05 -0.12,0 -0.16,-0.09 v 0 c -0.07,-0.07 -0.19,0 -0.25,-0.09 v 0 c -0.08,-0.06 -0.18,0 -0.26,-0.06 a 0.14,0.14 0 0 0 -0.14,0 1.3,1.3 0 0 0 -0.62,0 v 0 0 c -0.09,0.06 -0.2,0 -0.29,0.07 v 0 0 c -0.05,0.05 -0.13,0 -0.18,0.07 v 0 c 0,0.07 -0.12,0.05 -0.18,0.08 v 0 c 0,0.07 -0.12,0.05 -0.16,0.1 v 0 c 0,0 -0.05,0.07 -0.1,0.08 v 0 l -0.42,0.42 v 0 a 0.13,0.13 0 0 1 -0.07,0.1 v 0 c 0,0.05 0,0.13 -0.1,0.16 v 0 c 0,0.06 0,0.14 -0.09,0.18 v 0 c 0,0.06 0,0.13 -0.07,0.18 v 0 c -0.09,0.09 0,0.24 -0.08,0.33 -0.08,0.09 0,0 0,0.06 a 0.69,0.69 0 0 0 0,0.47 0.12,0.12 0 0 0 0,0.13 c 0.06,0.09 0,0.19 0.07,0.28 v 0 0 c 0.05,0 0,0.12 0.07,0.18 v 0 c 0.06,0 0,0.12 0.08,0.17 v 0 c 0.06,0 0,0.11 0.1,0.15 v 0 c 0,0 0.06,0.06 0.07,0.1 v 0 c 0,0 0.07,0.05 0.08,0.1 v 0 a 0.12,0.12 0 0 1 0.09,0.1 v 0 a 0.11,0.11 0 0 1 0.09,0.09 v 0 a 0.13,0.13 0 0 1 0.1,0.09 v 0 a 0.19,0.19 0 0 1 0.1,0.08 v 0 c 0,0.05 0.14,0 0.16,0.11 v 0 c 0.05,0 0.08,0 0.11,0.07 v 0 c 0,0 0.12,0 0.16,0.08 v 0 c 0.07,0.08 0.18,0 0.25,0.08 v 0 0 c 0.12,0.06 0.26,0 0.37,0.07 a 0.94,0.94 0 0 0 0.41,0 c 0.14,-0.09 0.3,0 0.43,-0.07 0.13,-0.07 0.05,0 0.07,0 0.02,0 0.12,0 0.18,-0.06 v 0 c 0,-0.06 0.12,-0.05 0.18,-0.08 v 0 c 0,-0.07 0.11,0 0.16,-0.09 v 0 a 0.11,0.11 0 0 1 0.1,-0.07 v 0 a 1.54,1.54 0 0 1 0.26,-0.25 v 0 a 6.16,6.16 0 0 1 1.66,-0.06 c 0.08,0 0.12,0.1 0,0.18 v 0 c 0,0.05 0,0.13 -0.1,0.16 v 0 c 0,0.05 0,0.07 -0.07,0.11 v 0 c 0,0 0,0.12 -0.1,0.15 v 0 c 0,0.05 0,0.07 -0.08,0.1 v 0 c -0.06,0.07 -0.08,0.19 -0.18,0.24 v 0 a 0.11,0.11 0 0 1 -0.09,0.09 v 0 a 0.15,0.15 0 0 1 -0.09,0.1 v 0 a 0.15,0.15 0 0 1 -0.1,0.09 v 0 a 0.09,0.09 0 0 1 -0.09,0.08 v 0 c 0,0.08 -0.12,0.06 -0.15,0.12 v 0 a 0.71,0.71 0 0 0 -0.09,0.07 v 0 c 0,0 -0.05,0.07 -0.1,0.07 v 0 c 0,0.08 -0.11,0.06 -0.16,0.1 v 0 c 0,0.06 -0.12,0 -0.16,0.09 v 0 c 0,0.05 -0.12,0 -0.17,0.08 v 0 c 0.03,-0.15 -0.05,-0.16 -0.11,-0.13 z"
         id="path113"
         style="fill:#ffffff;fill-opacity:1" />
      <path
         class="cls-3"
         d="m 610,196.88 v 0 0 a 1.46,1.46 0 0 1 0.19,-0.07 0.03,0 -180 0 0 0.06,0 c 0.07,-0.07 0.18,0 0.26,-0.08 a 0.035,0 -180 0 0 0.07,0 c 0.14,-0.07 0.3,0 0.44,-0.06 h 0.75 c 0.15,0.07 0.31,0 0.46,0.07 0.15,0.07 0,0 0.06,0 0.06,0 0.19,0 0.27,0.07 0.08,0.07 0,0 0,0 0,0 0.14,0 0.19,0.07 v 0 0 c 0.07,0 0.15,0 0.2,0.08 v 0 c 0.05,0 0.13,0 0.17,0.09 v 0 c 0.06,0 0.14,0 0.17,0.1 v 0 c 0,0 0.07,0 0.1,0.07 v 0 c 0.08,0.06 0.18,0.09 0.24,0.18 v 0 a 0.13,0.13 0 0 1 0.1,0.09 v 0 a 0.24,0.24 0 0 1 0.09,0.08 v 0 a 0.38,0.38 0 0 1 0.09,0.09 v 0 a 0.2,0.2 0 0 1 0.09,0.09 v 0 c 0,0 0.07,0.05 0.08,0.1 v 0 a 0.12,0.12 0 0 1 0.08,0.1 v 0 c 0.08,0 0,0.11 0.11,0.14 v 0 l 0.08,0.09 v 0 c 0.06,0 0,0.11 0.1,0.15 v 0 c 0,0 0.06,0.06 0.07,0.1 v 0 c 0.07,0 0.05,0.12 0.1,0.17 v 0 c 0,0.08 0.11,0.17 0,0.23 a 9.27,9.27 0 0 0 -1.49,0 1.34,1.34 0 0 1 -0.44,-0.34 v 0 c 0,0 -0.07,0 -0.1,-0.08 v 0 c -0.05,0 -0.14,0 -0.16,-0.1 v 0 a 0.15,0.15 0 0 1 -0.11,-0.06 v 0 0 a 0.53,0.53 0 0 1 -0.2,-0.07 v 0 c -0.1,-0.09 -0.24,0 -0.34,-0.08 v 0 0 a 1.3,1.3 0 0 0 -0.62,0 0.14,0.14 0 0 0 -0.14,0 c -0.08,0.06 -0.18,0 -0.26,0.07 v 0 a 0.53,0.53 0 0 1 -0.2,0.07 v 0 0 c 0,0 -0.12,0 -0.15,0.08 v 0 c 0,0 -0.06,0.06 -0.1,0.07 v 0 c 0,0.07 -0.12,0 -0.15,0.11 v 0 l -0.08,0.07 v 0 l -0.09,0.09 v 0 l -0.08,0.09 v 0 a 0.27,0.27 0 0 0 -0.07,0.08 v 0 c -0.05,0 0,0.12 -0.1,0.15 v 0 c 0,0 0,0.07 -0.06,0.1 v 0 c -0.06,0 0,0.12 -0.09,0.16 v 0 c 0,0.05 0,0.12 -0.08,0.17 v 0 0 a 1.66,1.66 0 0 1 -0.06,0.21 c 0,0 0,0 0,0.07 a 1.86,1.86 0 0 0 0,0.78 v 0 0 c 0.07,0.08 0,0.19 0.07,0.28 0.07,0.09 0,0 0,0 0,0 0,0.13 0.07,0.17 v 0 c 0,0 0,0.12 0.09,0.15 v 0 c 0,0 0.06,0.06 0.07,0.1 v 0 a 0.11,0.11 0 0 1 0.07,0.1 v 0 c 0.15,0.13 0.28,0.28 0.43,0.41 v 0 c 0,0 0.06,0 0.1,0.07 v 0 c 0,0.05 0.12,0 0.16,0.1 v 0 c 0,0 0.13,0 0.17,0.08 v 0 c 0.07,0.07 0.18,0 0.25,0.09 v 0 c 0.12,0.09 0.29,0 0.41,0.08 a 0.85,0.85 0 0 0 0.42,0 c 0.13,-0.09 0.29,0 0.41,-0.08 v 0 c 0.07,-0.07 0.18,0 0.25,-0.08 v 0 c 0,0 0.12,0 0.17,-0.08 v 0 c 0,-0.05 0.11,0 0.15,-0.09 v 0 c 0,0 0,-0.06 0.09,-0.07 v 0 a 0.12,0.12 0 0 1 0.09,-0.08 v 0 a 0.13,0.13 0 0 1 0.09,-0.09 v 0 a 0.14,0.14 0 0 1 0.08,-0.1 v 0 a 6.83,6.83 0 0 1 1.69,0 c 0.06,0 0,0.06 0,0.1 v 0 c 0,0 0,0.12 -0.08,0.16 v 0 c 0,0 0,0.13 -0.1,0.16 v 0 a 0.86,0.86 0 0 1 -0.07,0.1 v 0 c -0.06,0 0,0.12 -0.11,0.15 v 0 a 0.18,0.18 0 0 1 -0.08,0.09 v 0 a 2.25,2.25 0 0 1 -0.57,0.58 v 0 a 0.39,0.39 0 0 1 -0.1,0.08 v 0 c 0,0.07 -0.12,0 -0.15,0.1 v 0 a 0.23,0.23 0 0 1 -0.1,0.07 v 0 c 0,0.07 -0.11,0.06 -0.17,0.09 v 0 c 0,0.06 -0.12,0 -0.18,0.08 v 0 c -0.05,0.1 -0.18,0 -0.24,0.1 v 0 c -0.07,0.07 -0.18,0 -0.25,0.08 v 0 c -0.1,0.1 -0.25,0 -0.36,0.08 h -0.13 a 4.68,4.68 0 0 1 -1.24,0 v 0 0 c -0.1,-0.08 -0.24,0 -0.34,-0.08 v 0 0 a 0.8,0.8 0 0 1 -0.2,-0.07 v 0 0 c -0.06,0 -0.14,0 -0.19,-0.08 v 0 c -0.05,0 -0.12,0 -0.17,-0.08 v 0 c 0,0 -0.12,0 -0.16,-0.09 v 0 c 0,-0.05 -0.13,0 -0.16,-0.1 v 0 c 0,0 -0.07,-0.05 -0.1,-0.07 v 0 c 0,-0.06 -0.13,0 -0.15,-0.11 v 0 a 0.12,0.12 0 0 1 -0.1,-0.08 v 0 c 0,0 -0.06,0 -0.09,-0.08 v 0 l -0.08,-0.08 v 0 a 0.3,0.3 0 0 0 -0.08,-0.08 v 0 l -0.08,-0.08 v 0 l -0.08,-0.08 v 0 l -0.08,-0.09 v 0 a 0.24,0.24 0 0 1 -0.08,-0.09 v 0 a 0.11,0.11 0 0 1 -0.08,-0.1 v 0 c -0.08,0 -0.06,-0.12 -0.11,-0.16 v 0 a 0.13,0.13 0 0 1 -0.07,-0.1 v 0 c -0.08,0 -0.06,-0.11 -0.1,-0.17 v 0 c -0.07,0 -0.06,-0.12 -0.09,-0.17 v 0 c -0.1,-0.06 0,-0.18 -0.1,-0.24 v 0 a 0.58,0.58 0 0 1 -0.07,-0.21 v 0 0 c -0.09,-0.1 0,-0.24 -0.08,-0.34 a 0.06,0.06 0 0 0 0,-0.07 3.26,3.26 0 0 1 0,-1.08 0.03,0 90 0 0 0,-0.06 c 0.08,-0.1 0,-0.25 0.08,-0.35 v 0 c 0.07,-0.07 0,-0.19 0.09,-0.25 v 0 c 0,-0.06 0,-0.13 0.08,-0.18 v 0 c 0.05,0 0,-0.12 0.09,-0.16 v 0 c 0,-0.05 0,-0.13 0.09,-0.16 v 0 c 0,0 0,-0.06 0.07,-0.1 v 0 c 0.06,0 0,-0.12 0.11,-0.15 v 0 c 0,0 0,-0.07 0.08,-0.1 v 0 a 0.34,0.34 0 0 0 0.08,-0.09 v 0 a 2.9,2.9 0 0 1 0.5,-0.49 v 0 l 0.09,-0.08 v 0 a 0.14,0.14 0 0 1 0.1,-0.08 v 0 c 0,-0.08 0.11,-0.05 0.15,-0.11 v 0 c 0,0 0.06,-0.06 0.1,-0.06 v 0 c 0,-0.08 0.12,-0.06 0.17,-0.1 v 0 c 0,-0.06 0.12,0 0.18,-0.08 v 0 c -0.24,0.02 -0.16,0.03 -0.07,0.01 z"
         id="path115"
         style="fill:#ffffff;fill-opacity:1" />
      <path
         class="cls-3"
         d="m 565.71,203.46 v 0 0 a 3.76,3.76 0 0 1 -1.16,0 v 0 0 c -0.09,0 -0.2,0 -0.28,-0.07 v 0 0 c -0.07,0 -0.15,0 -0.2,-0.09 v 0 c 0,0 -0.14,0 -0.17,-0.1 v 0 c 0,0 -0.07,0 -0.1,-0.07 v 0 c 0,0 -0.13,0 -0.15,-0.11 v 0 c -0.06,0 -0.08,0 -0.1,-0.08 v 0 a 0.13,0.13 0 0 1 -0.09,-0.09 v 0 a 0.13,0.13 0 0 1 -0.09,-0.1 v 0 c -0.1,0 -0.12,-0.16 -0.19,-0.24 v 0 a 0.16,0.16 0 0 1 -0.07,-0.12 v 0 0 a 0.2,0.2 0 0 1 -0.06,-0.12 v 0 0 a 1.72,1.72 0 0 1 -0.07,-0.21 v 0 0 c -0.11,-0.26 0,-0.53 -0.08,-0.79 a 2,2 0 0 0 0,-0.24 v -3.88 a 2,2 0 0 0 0,-0.24 3,3 0 0 1 1.34,-0.06 c 0.14,0 0.09,0.2 0.09,0.32 v 3.57 a 1.32,1.32 0 0 0 0,0.44 0.14,0.14 0 0 0 0,0.14 c 0.08,0.1 0,0.23 0.07,0.34 v 0 c 0.09,0.05 0,0.18 0.09,0.23 v 0 a 0.71,0.71 0 0 0 0.07,0.09 v 0 l 0.08,0.08 v 0 c 0,0.05 0.13,0 0.17,0.09 v 0 a 1.42,1.42 0 0 0 0.68,0 v 0 c 0,-0.07 0.11,-0.06 0.17,-0.09 v 0 a 0.14,0.14 0 0 1 0.1,-0.08 v 0 a 0.14,0.14 0 0 1 0.08,-0.09 v 0 c 0,0 0,-0.13 0.09,-0.17 v 0 c 0.09,-0.09 0,-0.24 0.09,-0.33 a 0.03,0 90 0 0 0,-0.06 c 0.08,-0.75 0,-1.5 0,-2.25 0,-0.75 0,-1.26 0,-1.89 0,-0.32 0.1,-0.42 0.4,-0.38 a 4,4 0 0 1 1,0.06 v 4.73 c -0.07,0.14 0,0.31 -0.07,0.45 a 0.03,0 -90 0 0 0,0.06 c -0.06,0.08 0,0.2 -0.09,0.26 v 0 c 0,0 0,0.13 -0.09,0.17 v 0 a 0.53,0.53 0 0 1 -0.17,0.25 v 0 a 0.15,0.15 0 0 1 -0.09,0.1 v 0 a 0.2,0.2 0 0 1 -0.09,0.09 v 0 a 0.24,0.24 0 0 1 -0.09,0.08 v 0 a 0.19,0.19 0 0 1 -0.1,0.08 v 0 a 0.72,0.72 0 0 1 -0.25,0.18 v 0 c 0,0.07 -0.12,0.05 -0.17,0.09 v 0 c -0.05,0.06 -0.13,0.05 -0.19,0.08 v 0 0 c -0.12,-0.04 -0.23,-0.09 -0.31,-0.03 z"
         id="path117"
         style="fill:#ffffff;fill-opacity:1" />
      <path
         class="cls-3"
         d="m 571.25,201.73 c 0,0 0,0 0,-0.06 a 1.58,1.58 0 0 0 0,-0.61 c 0,-1.32 0,-2.64 0,-3.95 0,-0.29 0.08,-0.4 0.37,-0.37 0.29,0.03 0.81,-0.14 1,0.06 0.19,0.2 0.07,0.67 0.08,1 0,1.08 0,2.16 0,3.25 a 0.91,0.91 0 0 1 0,0.4 0.61,0.61 0 0 0 0,0.3 c -0.08,0.14 0,0.31 -0.07,0.44 v 0 c -0.08,0.07 0,0.19 -0.09,0.25 v 0 c 0,0 0,0.13 -0.09,0.17 v 0 c -0.06,0.08 -0.09,0.19 -0.18,0.24 v 0 a 0.15,0.15 0 0 1 -0.09,0.1 v 0 a 0.13,0.13 0 0 1 -0.1,0.09 v 0 c -0.06,0.09 -0.16,0.12 -0.24,0.18 v 0 c 0,0 -0.12,0 -0.16,0.09 v 0 c 0,0 -0.12,0 -0.17,0.07 v 0 c -0.07,0.09 -0.19,0 -0.27,0.08 v 0 0 a 2.8,2.8 0 0 1 -1.08,0 v 0 0 c -0.09,0 -0.21,0 -0.28,-0.08 v 0 c -0.05,0 -0.12,0 -0.17,-0.08 v 0 c 0,-0.05 -0.12,0 -0.16,-0.1 v 0 l -0.1,-0.07 v 0 a 0.92,0.92 0 0 1 -0.32,-0.33 v 0 c -0.06,0 0,-0.12 -0.09,-0.15 v 0 c 0,0 0,-0.12 -0.07,-0.16 v 0 a 0.48,0.48 0 0 1 -0.07,-0.2 v 0 0 c -0.09,-0.17 0,-0.36 -0.07,-0.53 v 0 c 0,-0.07 0.05,-0.14 0.12,-0.14 a 4.5,4.5 0 0 1 1.27,0 v 0 c 0.09,0.07 0,0.19 0.09,0.27 0.09,0.08 0,0 0,0.06 0,0.06 0.05,0 0.06,0.09 v 0 a 0.14,0.14 0 0 1 0.1,0.08 v 0 c 0.05,0 0.13,0 0.18,0.08 a 0.3,0.3 0 0 0 0.33,0 0.85,0.85 0 0 0 0.26,-0.24 v 0 c -0.02,-0.11 -0.03,-0.18 0.01,-0.23 z"
         id="path119"
         style="fill:#ffffff;fill-opacity:1" />
      <path
         class="cls-3"
         d="m 559.13,196.9 a 0.58,0.58 0 0 0 0,0.29 c 0,1.54 0,3.09 0,4.63 0,0.11 0,0.23 0,0.32 a 10.83,10.83 0 0 0 1.8,0 c 0.32,0 0.42,0.09 0.38,0.39 -0.04,0.3 0.07,0.55 -0.06,0.81 h -3.5 c -0.13,-0.09 -0.07,-0.23 -0.07,-0.34 0,-2 0,-3.93 0,-5.89 0,-0.33 0.09,-0.44 0.42,-0.4 0.33,0.04 0.46,0 0.7,0 0.24,0 0.28,0 0.33,0.19 z"
         id="path121"
         style="fill:#ffffff;fill-opacity:1" />
      <path
         class="cls-3"
         d="m 534.8,200 v -3 c 0,-0.29 0,-0.29 0.29,-0.29 h 0.9 c 0.14,0 0.21,0.06 0.2,0.2 a 2.08,2.08 0 0 0 0,0.25 v 5.68 a 1.92,1.92 0 0 0 0,0.24 c 0,0.16 -0.05,0.23 -0.21,0.22 h -1 c -0.18,0 -0.24,-0.07 -0.24,-0.25 0,-0.64 0,-1.29 0,-1.93 z"
         id="path123"
         style="fill:#ffffff;fill-opacity:1" />
      <path
         class="cls-3"
         d="m 644.41,185.9 -0.09,0.08 c -0.05,-0.07 -0.12,-0.15 0,-0.21 0.12,-0.06 0.09,0.05 0.09,0.13 z"
         id="path125"
         style="fill:#ffffff;fill-opacity:1" />
      <path
         class="cls-3"
         d="m 527.46,186.93 a 2.43,2.43 0 0 0 2,-2.1 4.22,4.22 0 0 0 0,-1.28 3.12,3.12 0 0 0 -1.81,-2.62 5.18,5.18 0 0 0 -2.15,-0.48 h -5.08 c -0.28,0 -0.29,0 -0.29,0.3 v 10.31 c 0,0.3 0,0.3 0.33,0.3 q 1.61,0 3.21,0 c 0.32,0 0.32,0 0.32,-0.31 v -2.81 c 0,-0.1 0,-0.2 0,-0.3 a 1.27,1.27 0 0 1 0.25,0.35 c 0.5,0.94 1,1.87 1.48,2.81 a 0.43,0.43 0 0 0 0.44,0.27 H 530 c 0.07,0 0.16,0 0.21,-0.08 z m -2.36,-1.6 a 3.53,3.53 0 0 1 -0.86,0.06 c -0.15,0 -0.18,-0.08 -0.18,-0.21 v -0.9 c 0,-0.26 0,-0.52 0,-0.78 0,-0.26 0.07,-0.26 0.26,-0.25 a 2.76,2.76 0 0 1 0.86,0.08 1,1 0 0 1 0.64,1.07 0.92,0.92 0 0 1 -0.72,0.93 z"
         id="path127"
         style="fill:#ffffff;fill-opacity:1" />
      <polygon
         class="cls-3"
         points="587.35,191.18 587.34,191.18 "
         id="polygon129"
         style="fill:#ffffff;fill-opacity:1" />
      <polygon
         class="cls-3"
         points="591.54,191.34 591.54,191.33 "
         id="polygon131"
         style="fill:#ffffff;fill-opacity:1" />
      <path
         class="cls-3"
         d="m 599.37,191.2 c 0,-0.06 0,-0.13 -0.07,-0.19 v 0 0 a 0.56,0.56 0 0 0 -0.08,-0.2 v 0 c -0.08,-0.06 0,-0.18 -0.09,-0.24 v 0 c -0.07,-0.07 0,-0.19 -0.09,-0.25 v 0 c -0.07,-0.07 0,-0.18 -0.09,-0.25 v 0 c 0,-0.05 0,-0.12 -0.07,-0.17 a 0.035,0 90 0 0 0,-0.07 c 0,0 0,-0.13 -0.07,-0.18 -0.07,-0.05 0,0 0,-0.06 a 0.49,0.49 0 0 0 -0.07,-0.19 v 0 0 a 0.8,0.8 0 0 0 -0.07,-0.2 v 0 c -0.08,-0.06 0,-0.18 -0.09,-0.24 v 0 c -0.07,-0.07 0,-0.19 -0.08,-0.25 v 0 c -0.07,-0.07 0,-0.18 -0.09,-0.25 v 0 c 0,0 0,-0.12 -0.06,-0.17 -0.06,-0.05 0,0 0,-0.07 0,-0.07 0,-0.13 -0.07,-0.18 -0.07,-0.05 0,0 0,-0.06 a 1.46,1.46 0 0 0 -0.07,-0.19 v 0 0 a 0.53,0.53 0 0 0 -0.07,-0.2 v 0 c -0.08,-0.06 0,-0.18 -0.08,-0.24 v 0 c -0.08,-0.07 0,-0.19 -0.09,-0.25 v 0 c -0.07,-0.07 0,-0.18 -0.09,-0.25 v 0 c 0,0 0,-0.12 -0.07,-0.17 a 0.06,0.06 0 0 1 0,-0.07 c 0,-0.05 0,-0.13 -0.06,-0.18 -0.06,-0.05 0,0 0,-0.06 a 1.46,1.46 0 0 0 -0.07,-0.19 v 0 0 c 0,-0.06 0,-0.14 -0.08,-0.2 v 0 c -0.07,-0.06 0,-0.18 -0.08,-0.24 v 0 c -0.07,-0.07 0,-0.19 -0.09,-0.25 v 0 c -0.07,-0.06 0,-0.18 -0.08,-0.25 v 0 c 0,-0.05 0,-0.12 -0.07,-0.17 a 0.035,0 90 0 0 0,-0.07 c 0,-0.05 0,-0.13 -0.07,-0.18 -0.07,-0.05 0,0 0,-0.06 0,-0.06 0,-0.13 -0.07,-0.19 v 0 0 a 1.59,1.59 0 0 0 -0.07,-0.2 v 0 0 a 0.37,0.37 0 0 0 -0.07,-0.2 v 0 c -0.07,-0.07 0,-0.19 -0.08,-0.25 v 0 c -0.07,-0.06 0,-0.18 -0.09,-0.25 v 0 c -0.06,-0.07 0,-0.19 -0.09,-0.25 a 0.58,0.58 0 0 0 -0.06,-0.17 0.03,0 90 0 0 0,-0.06 0.7,0.7 0 0 0 -0.06,-0.19 v 0 0 a 0.53,0.53 0 0 0 -0.07,-0.2 v 0 0 a 0.5,0.5 0 0 0 -0.08,-0.2 v 0 c -0.08,-0.07 0,-0.18 -0.09,-0.25 v 0 c -0.07,-0.07 0,-0.19 -0.09,-0.26 v 0 c -0.07,-0.07 0,-0.19 -0.09,-0.25 -0.09,-0.06 0,-0.12 -0.07,-0.17 -0.07,-0.05 0,0 0,-0.06 a 1.46,1.46 0 0 0 -0.07,-0.19 c 0,0 0,0 0,-0.05 a 0.53,0.53 0 0 0 -0.07,-0.2 v 0 0 a 0.48,0.48 0 0 0 -0.07,-0.2 c 0,-0.22 -0.21,-0.21 -0.38,-0.21 h -4.04 c -0.14,0 -0.29,0 -0.36,0.13 v 0 c -0.08,0.06 0,0.18 -0.09,0.24 v 0 a 0.53,0.53 0 0 0 -0.07,0.2 v 0 0 a 0.49,0.49 0 0 0 -0.07,0.19 c 0,0 0,0 0,0.06 0,0.06 0,0.11 -0.07,0.17 -0.07,0.06 0,0.18 -0.08,0.25 v 0 c -0.09,0.06 0,0.18 -0.09,0.25 v 0 a 0.48,0.48 0 0 0 -0.07,0.2 v 0 0 a 1.18,1.18 0 0 0 -0.07,0.2 c 0,0 0,0 0,0.05 0,0.05 0,0.12 -0.07,0.17 -0.07,0.05 0,0.18 -0.09,0.25 v 0 c -0.09,0.06 0,0.18 -0.09,0.24 v 0 a 0.52,0.52 0 0 0 -0.07,0.21 v 0 0 c 0,0 0,0.13 -0.07,0.19 -0.07,0.06 0,0 0,0.06 0,0.06 0,0.11 -0.06,0.17 -0.06,0.06 0,0.18 -0.09,0.25 v 0 c -0.08,0.06 0,0.18 -0.08,0.25 v 0 a 0.5,0.5 0 0 0 -0.08,0.2 v 0 0 c -0.05,0.06 0,0.13 -0.07,0.2 -0.07,0.07 0,0 0,0.05 0,0.05 0,0.12 -0.06,0.17 -0.06,0.05 0,0.18 -0.09,0.25 v 0 c -0.08,0.06 0,0.18 -0.09,0.24 v 0 a 0.52,0.52 0 0 0 -0.07,0.21 v 0 0 c -0.05,0 -0.05,0.13 -0.07,0.19 -0.02,0.06 0,0 0,0.06 0,0.06 0,0.12 -0.07,0.18 -0.07,0.06 0,0 0,0.06 0,0.06 0,0.13 -0.06,0.18 v 0 c -0.09,0.06 0,0.18 -0.09,0.25 v 0 c -0.08,0.06 0,0.18 -0.08,0.24 v 0 a 0.7,0.7 0 0 0 -0.08,0.2 c 0,0 0,0 0,0.05 a 1.46,1.46 0 0 0 -0.07,0.19 c 0,0 0,0 0,0.06 0,0.06 0,0.12 -0.06,0.17 v 0 c -0.09,0.06 0,0.18 -0.09,0.25 v 0 c -0.08,0.07 0,0.18 -0.09,0.25 v 0 a 1.18,1.18 0 0 0 -0.07,0.2 v 0 0 c 0,0 0,0.12 -0.07,0.18 -0.07,0.06 0,0.05 0,0.06 0,0.01 0,0.12 -0.07,0.18 v 0 c -0.09,0.06 0,0.18 -0.09,0.25 v 0 c -0.08,0.06 0,0.18 -0.09,0.24 v 0 a 0.53,0.53 0 0 0 -0.07,0.2 v 0 0 c 0,0 0,0.13 -0.07,0.19 -0.07,0.06 0,0 0,0.06 0,0.06 0,0.11 -0.06,0.17 -0.06,0.06 0,0.18 -0.09,0.25 v 0 c -0.08,0.06 0,0.18 -0.09,0.25 v 0 a 0.48,0.48 0 0 0 -0.07,0.2 v 0 0 a 1.18,1.18 0 0 0 -0.07,0.2 c 0,0 0,0 0,0 0,0 0,0.12 -0.07,0.17 -0.07,0.05 0,0.18 -0.08,0.25 -0.06,0.3 0.18,0.19 0.3,0.19 h 3.45 a 0.74,0.74 0 0 0 0.44,0 c 0.08,-0.07 0,-0.18 0.08,-0.26 a 0.03,0 90 0 0 0,-0.06 c 0.06,-0.08 0,-0.19 0.07,-0.27 0.07,-0.08 0,0 0,-0.06 0,-0.06 0,-0.19 0.07,-0.27 0.07,-0.08 0,0 0,-0.06 0,-0.06 0,-0.19 0.07,-0.27 0.07,-0.08 0,-0.08 0.08,-0.08 0.94,0 1.88,0 2.81,0 0.06,0 0,0.12 0.09,0.16 v 0 0 c 0,0.09 0,0.2 0.07,0.28 v 0 0 c 0,0.09 0,0.21 0.07,0.29 v 0 c 0.09,0.09 0,0.24 0.09,0.33 0.09,0.09 0.16,0.21 0.33,0.21 h 3.71 c 0.09,0 0.23,0.06 0.25,-0.12 -0.25,0.04 -0.25,0.03 -0.24,0 z m -6.84,-3.84 a 26.42,26.42 0 0 0 0.76,-3.28 c 0,0 0.05,0 0.08,0 v 0 c 0.07,0.14 0,0.29 0.06,0.42 0.18,1 0.46,1.89 0.7,2.87 z"
         id="path133"
         style="fill:#ffffff;fill-opacity:1" />
      <path
         class="cls-3"
         d="m 593.43,184.49 a 0.48,0.48 0 0 1 -0.06,-0.42 0.56,0.56 0 0 1 0.06,0.42 z"
         id="path135"
         style="fill:#ffffff;fill-opacity:1" />
      <path
         class="cls-3"
         d="m 593.37,184.08 h -0.08 v -0.34 a 0.39,0.39 0 0 1 0.08,0.34 z"
         id="path137"
         style="fill:#ffffff;fill-opacity:1" />
      <polygon
         class="cls-3"
         points=""
         id="polygon139"
         style="fill:#ffffff;fill-opacity:1" />
      <polygon
         class="cls-3"
         points="560.77,191.34 560.78,191.33 "
         id="polygon141"
         style="fill:#ffffff;fill-opacity:1" />
      <path
         class="cls-3"
         d="m 568.6,191.24 v 0 a 1.18,1.18 0 0 0 -0.07,-0.2 v 0 0 a 0.52,0.52 0 0 0 -0.07,-0.21 v 0 c -0.07,-0.06 0,-0.18 -0.09,-0.24 v 0 c -0.08,-0.07 0,-0.19 -0.09,-0.25 v 0 c -0.07,-0.07 0,-0.19 -0.09,-0.26 -0.09,-0.07 0,-0.12 -0.06,-0.16 -0.06,-0.04 0,0 0,-0.06 0,-0.06 0,-0.14 -0.07,-0.19 -0.07,-0.05 0,0 0,-0.05 0,-0.05 0,-0.14 -0.07,-0.2 v 0 0 a 0.54,0.54 0 0 0 -0.08,-0.21 v 0 c -0.07,-0.06 0,-0.18 -0.08,-0.24 v 0 c -0.07,-0.07 0,-0.19 -0.09,-0.25 v 0 c -0.06,-0.07 0,-0.19 -0.08,-0.26 -0.08,-0.07 0,-0.11 -0.07,-0.16 -0.07,-0.05 0,0 0,-0.06 0,-0.06 0,-0.14 -0.07,-0.19 -0.07,-0.05 0,0 0,-0.05 a 0.48,0.48 0 0 0 -0.07,-0.2 v 0 0 a 0.74,0.74 0 0 0 -0.07,-0.21 v 0 c -0.08,-0.06 0,-0.18 -0.09,-0.24 v 0 c -0.07,-0.07 0,-0.19 -0.09,-0.25 v 0 c -0.07,-0.07 0,-0.19 -0.09,-0.26 -0.09,-0.07 0,-0.11 -0.06,-0.16 -0.06,-0.05 0,0 0,-0.06 0,-0.06 0,-0.14 -0.07,-0.19 a 0.025,0 90 0 0 0,-0.05 0.48,0.48 0 0 0 -0.07,-0.2 v 0 0 a 0.52,0.52 0 0 0 -0.07,-0.21 v 0 c -0.08,-0.06 0,-0.18 -0.09,-0.24 v 0 c -0.07,-0.07 0,-0.19 -0.08,-0.25 v 0 c -0.07,-0.07 0,-0.19 -0.09,-0.26 -0.09,-0.07 0,-0.11 -0.06,-0.16 -0.06,-0.05 0,0 0,-0.06 0,-0.06 0,-0.14 -0.07,-0.19 -0.07,-0.05 0,0 0,0 a 1.18,1.18 0 0 0 -0.07,-0.2 v 0 0 a 0.52,0.52 0 0 0 -0.07,-0.21 v 0 c -0.07,-0.06 0,-0.18 -0.08,-0.24 v 0 c -0.08,-0.07 0,-0.19 -0.09,-0.25 v 0 c -0.07,-0.07 0,-0.19 -0.09,-0.26 v 0 c 0,-0.05 0,-0.12 -0.07,-0.17 -0.07,-0.05 0,0 0,-0.06 0,-0.06 0,-0.14 -0.06,-0.19 -0.06,-0.05 0,0 0,0 0,0 0,-0.14 -0.07,-0.2 v 0 0 a 0.76,0.76 0 0 0 -0.08,-0.21 v 0 c -0.07,-0.06 0,-0.18 -0.08,-0.24 v 0 c -0.07,-0.07 0,-0.18 -0.09,-0.25 v 0 c -0.07,-0.07 0,-0.19 -0.09,-0.25 v 0 c 0,-0.05 0,-0.12 -0.07,-0.17 -0.07,-0.05 0,0 0,-0.06 0,-0.06 0,-0.14 -0.07,-0.19 -0.07,-0.05 0,0 0,-0.05 a 0.48,0.48 0 0 0 -0.07,-0.2 v 0 0 a 0.74,0.74 0 0 0 -0.07,-0.21 v 0 c -0.08,-0.06 0,-0.18 -0.09,-0.24 0,-0.22 -0.2,-0.21 -0.37,-0.21 h -3.8 c -0.13,0 -0.28,0 -0.36,0.13 v 0 c -0.08,0.06 0,0.18 -0.08,0.24 v 0 a 0.48,0.48 0 0 0 -0.07,0.2 0.025,0 -90 0 0 0,0.05 c 0,0.05 0,0.13 -0.07,0.19 -0.07,0.06 0,0 0,0.06 0,0.06 0,0.12 -0.06,0.17 v 0 c -0.09,0.07 0,0.19 -0.09,0.25 v 0 c -0.08,0.06 0,0.18 -0.09,0.25 v 0 c 0,0.05 0,0.13 -0.08,0.2 v 0 0 c 0,0.06 0,0.13 -0.07,0.19 -0.07,0.06 0,0 0,0.06 0,0.06 0,0.12 -0.07,0.18 v 0 c -0.09,0.06 0,0.18 -0.09,0.25 v 0 c -0.08,0.06 0,0.18 -0.09,0.24 v 0 a 0.68,0.68 0 0 0 -0.07,0.2 v 0 0 c 0,0 0,0.13 -0.07,0.19 -0.07,0.06 0,0 0,0.06 0,0.06 0,0.11 -0.06,0.16 -0.06,0.05 0,0.19 -0.09,0.26 v 0 c -0.08,0.06 0,0.18 -0.09,0.25 v 0 c 0,0.05 0,0.13 -0.07,0.2 v 0 0 a 1.18,1.18 0 0 0 -0.07,0.2 c 0,0 0,0 0,0.05 0,0.05 0,0.12 -0.07,0.17 -0.07,0.05 0,0.18 -0.09,0.25 v 0 c -0.09,0.06 0,0.18 -0.09,0.24 v 0 a 0.53,0.53 0 0 0 -0.07,0.2 v 0 0 c 0,0 0,0.13 -0.07,0.19 -0.07,0.06 0,0 0,0.06 0,0.06 0,0.11 -0.07,0.17 -0.07,0.06 0,0.18 -0.09,0.25 v 0 c -0.08,0.06 0,0.18 -0.08,0.25 v 0 a 0.5,0.5 0 0 0 -0.08,0.2 v 0 0 c 0,0.06 0,0.13 -0.07,0.2 -0.07,0.07 0,0 0,0.05 0,0.05 0,0.12 -0.06,0.17 -0.06,0.05 0,0.18 -0.09,0.25 v 0 c -0.08,0.06 0,0.18 -0.08,0.24 v 0 a 0.54,0.54 0 0 0 -0.08,0.21 v 0 0 c -0.05,0 -0.05,0.13 -0.07,0.19 -0.02,0.06 0,0 0,0.06 0,0.06 0,0.12 -0.07,0.18 -0.07,0.06 0,0.05 0,0.06 0,0.01 0,0.12 -0.07,0.18 v 0 c -0.09,0.06 0,0.18 -0.09,0.25 v 0 c -0.08,0.06 0,0.18 -0.08,0.24 v 0 a 0.48,0.48 0 0 0 -0.07,0.2 0.025,0 -90 0 0 0,0.05 c 0,0 0,0.13 -0.07,0.19 -0.07,0.06 0,0 0,0.06 0,0.06 0,0.12 -0.06,0.17 v 0 c -0.09,0.07 0,0.19 -0.09,0.25 v 0 c -0.08,0.06 0,0.18 -0.08,0.25 v 0 c 0,0 0,0.13 -0.08,0.19 -0.08,0.06 0,0 0,0 0,0 0,0.13 -0.07,0.19 -0.07,0.06 0,0.05 0,0.06 0,0.01 0,0.12 -0.06,0.18 v 0 c -0.09,0.06 0,0.18 -0.09,0.25 -0.06,0.3 0.18,0.19 0.3,0.19 h 3.62 c 0.1,0 0.2,0 0.28,0 0.08,0 0,-0.18 0.08,-0.26 0.08,-0.08 0,0 0,-0.06 0,-0.06 0,-0.19 0.07,-0.27 0.07,-0.08 0,-0.05 0,-0.06 0,-0.01 0,-0.19 0.07,-0.28 0.07,-0.09 0,0 0,-0.05 0,-0.05 0,-0.19 0.07,-0.28 0.07,-0.09 0.31,-0.07 0.46,-0.07 0.81,0 1.63,0 2.44,0 0,0 0,0.11 0.08,0.15 v 0 0 c 0,0.09 0,0.2 0.07,0.28 v 0 0 c 0.05,0.09 0,0.2 0.08,0.28 v 0 0 c 0,0.09 0,0.21 0.07,0.29 v 0 c 0,0.18 0.16,0.21 0.34,0.21 h 3.7 c 0.09,0 0.24,0.06 0.25,-0.12 z m -6.83,-3.88 a 28.79,28.79 0 0 0 0.75,-3.28 c 0,0 0.05,0 0.08,0 v 0 c 0.08,0.13 0,0.28 0.07,0.41 0.17,1 0.45,1.89 0.7,2.87 z"
         id="path143"
         style="fill:#ffffff;fill-opacity:1" />
      <path
         class="cls-3"
         d="m 562.67,184.49 a 0.46,0.46 0 0 1 -0.07,-0.41 0.58,0.58 0 0 1 0.07,0.41 z"
         id="path145"
         style="fill:#ffffff;fill-opacity:1" />
      <path
         class="cls-3"
         d="m 562.6,184.08 h -0.08 a 0.46,0.46 0 0 1 0,-0.3 0.33,0.33 0 0 1 0.08,0.3 z"
         id="path147"
         style="fill:#ffffff;fill-opacity:1" />
      <polygon
         class="cls-3"
         points=""
         id="polygon149"
         style="fill:#ffffff;fill-opacity:1" />
      <path
         class="cls-3"
         d="m 606.32,199.59 v -0.14 c 0,-0.08 0,-0.19 -0.07,-0.28 -0.07,-0.09 0,0 0,0 0,0 0,-0.14 -0.07,-0.19 a 0.03,0 90 0 0 0,-0.06 c 0,-0.06 0,-0.14 -0.08,-0.19 -0.08,-0.05 0,-0.12 -0.08,-0.16 -0.08,-0.04 0,-0.12 -0.09,-0.16 -0.09,-0.04 0,-0.06 -0.06,-0.09 v 0 c -0.06,0 0,-0.12 -0.1,-0.14 -0.1,-0.02 0,-0.07 -0.08,-0.1 L 605.62,198 v 0 a 1.9,1.9 0 0 0 -0.5,-0.48 c 0,0 -0.05,-0.07 -0.09,-0.08 a 1,1 0 0 0 -0.24,-0.17 c 0,0 -0.12,0 -0.16,-0.09 v 0 c 0,0 -0.07,-0.07 -0.12,-0.07 v 0 0 a 0.2,0.2 0 0 0 -0.12,-0.06 v 0 0 c 0,0 -0.13,0 -0.17,-0.07 v 0 c -0.06,-0.08 -0.18,0 -0.25,-0.09 v 0 c -0.08,-0.07 -0.19,0 -0.27,-0.07 -0.08,-0.07 0,0 -0.06,0 -0.06,0 -0.3,0 -0.45,-0.07 h -0.68 c -0.16,0.09 -0.35,0 -0.51,0.08 v 0 0 c -0.08,0 -0.19,0 -0.27,0.07 v 0 c -0.07,0.08 -0.19,0 -0.25,0.09 v 0 c 0,0 -0.12,0 -0.17,0.07 v 0 0 c -0.07,0 -0.15,0 -0.19,0.09 -0.04,0.09 -0.07,0 -0.1,0.06 v 0 c 0,0.06 -0.12,0 -0.16,0.09 v 0 c 0,0 -0.12,0 -0.15,0.09 -0.03,0.09 -0.07,0 -0.1,0.08 l -0.08,0.07 v 0 c -0.07,0.07 -0.18,0.09 -0.22,0.19 -0.04,0.1 -0.09,0 -0.09,0.08 a 1.58,1.58 0 0 0 -0.27,0.31 v 0 c 0,0 -0.06,0 -0.07,0.09 -0.01,0.09 0,0.12 -0.1,0.15 v 0 c 0,0 0,0.06 -0.07,0.1 -0.07,0.04 0,0.11 -0.08,0.16 v 0 c -0.06,0 0,0.12 -0.09,0.17 v 0 c -0.06,0 -0.06,0.13 -0.08,0.19 a 0.03,0 -90 0 0 0,0.06 1.46,1.46 0 0 0 -0.07,0.19 c 0,0 0,0 0,0 0,0 0,0.25 -0.07,0.35 a 0.06,0.06 0 0 1 0,0.07 2.27,2.27 0 0 0 0,0.9 v 0.13 c 0,0.09 0,0.2 0.07,0.28 a 0.06,0.06 0 0 1 0,0.07 c 0.06,0.08 0,0.19 0.09,0.26 v 0 c 0,0.05 0,0.12 0.08,0.17 v 0 c 0.05,0 0,0.12 0.07,0.16 v 0 0 a 0.19,0.19 0 0 0 0.07,0.12 v 0 c 0,0 0,0.12 0.1,0.16 a 0.47,0.47 0 0 0 0.06,0.09 v 0 c 0,0 0,0.12 0.1,0.15 a 0.11,0.11 0 0 0 0.07,0.09 l 0.08,0.08 a 0.34,0.34 0 0 0 0.08,0.09 v 0 l 0.08,0.08 0.09,0.08 v 0 a 0.3,0.3 0 0 0 0.08,0.08 0.18,0.18 0 0 0 0.09,0.08 c 0,0 0,0.07 0.09,0.07 0.09,0 0.11,0.06 0.15,0.1 v 0 a 0.13,0.13 0 0 0 0.1,0.07 c 0,0.07 0.1,0.06 0.15,0.09 0.05,0.03 0.12,0.05 0.16,0.09 v 0 c 0,0.05 0.11,0 0.17,0.08 0.06,0.08 0.13,0.06 0.2,0.08 v 0 0 c 0.07,0.07 0.18,0 0.25,0.08 v 0 c 0.1,0.09 0.24,0 0.35,0.07 v 0 0 a 4.29,4.29 0 0 0 1.24,0 h 0.13 c 0.09,0 0.19,0 0.28,-0.06 v 0 0 c 0.08,-0.06 0.2,0 0.27,-0.08 v 0 c 0,0 0.12,0 0.17,-0.07 v 0 0 c 0.06,0 0.15,0 0.19,-0.08 0.04,-0.08 0.13,0 0.16,-0.09 0.03,-0.09 0.07,0 0.1,-0.06 v 0 c 0,-0.05 0.12,0 0.15,-0.1 a 0.33,0.33 0 0 0 0.1,-0.06 v 0 c 0,-0.05 0.12,0 0.14,-0.1 a 0.09,0.09 0 0 0 0.09,-0.08 0.16,0.16 0 0 0 0.09,-0.07 l 0.08,-0.08 a 0.26,0.26 0 0 0 0.09,-0.09 0.2,0.2 0 0 0 0.08,-0.08 0.18,0.18 0 0 0 0.07,-0.08 0.11,0.11 0 0 0 0.08,-0.1 c 0.07,0 0,-0.1 0.1,-0.14 v 0 a 0.47,0.47 0 0 0 0.06,-0.09 c 0.06,0 0.05,-0.12 0.1,-0.16 v 0 a 0.24,0.24 0 0 0 0.07,-0.12 v 0 0 c 0,0 0,-0.12 0.07,-0.16 v 0 c 0.05,-0.05 0,-0.12 0.08,-0.17 v 0 c 0.08,-0.07 0,-0.18 0.08,-0.26 a 0.05,0.05 0 0 1 0,-0.07 c 0,-0.08 0,-0.19 0.06,-0.27 v -0.14 a 2.72,2.72 0 0 0 0.04,-1 z m -1.47,0.76 a 2.1,2.1 0 0 1 -1.88,1.79 h -0.25 a 2.16,2.16 0 0 1 -2.2,-2.42 1.89,1.89 0 0 1 0.54,-1.08 2.34,2.34 0 0 1 2.56,-0.5 2,2 0 0 1 1.23,2.21 z"
         id="path151"
         style="fill:#ffffff;fill-opacity:1" />
      <path
         class="cls-3"
         d="m 532.82,198.69 a 2.79,2.79 0 0 0 -2,-1.79 3.73,3.73 0 0 0 -0.94,-0.12 h -2.48 c -0.29,0 -0.3,0 -0.3,0.29 v 6 c 0,0.17 0,0.29 0.24,0.29 1,0 2,0 3,-0.05 a 3,3 0 0 0 2.62,-2.17 3.84,3.84 0 0 0 -0.14,-2.45 z m -1.27,2.25 a 1.62,1.62 0 0 1 -1.28,1.2 7.17,7.17 0 0 1 -1.6,0.09 c -0.19,0 -0.18,-0.13 -0.18,-0.26 v -3.78 c 0,-0.29 0,-0.3 0.3,-0.3 0.3,0 0.66,0 1,0 a 1.92,1.92 0 0 1 1.87,1.8 3.14,3.14 0 0 1 -0.11,1.25 z"
         id="path153"
         style="fill:#ffffff;fill-opacity:1" />
      <path
         class="cls-3"
         d="m 592.13,203.13 v 0 0 c 0,-0.07 0,-0.15 -0.08,-0.2 -0.08,-0.05 0,-0.12 -0.07,-0.17 v 0 c -0.08,-0.06 0,-0.19 -0.1,-0.24 -0.1,-0.05 0,-0.12 -0.07,-0.17 v 0 c 0,0 0,-0.12 -0.07,-0.17 -0.07,-0.05 0,0 0,0 0,0 0,-0.14 -0.08,-0.19 v 0 c 0,-0.05 0,-0.12 -0.07,-0.17 v 0 0 c 0,-0.06 0,-0.14 -0.08,-0.19 v 0 c 0,-0.05 0,-0.12 -0.08,-0.17 v 0 c -0.08,-0.06 0,-0.19 -0.09,-0.24 -0.09,-0.05 0,-0.13 -0.08,-0.17 v 0 c 0,0 0,-0.12 -0.07,-0.17 a 0.025,0 90 0 0 0,-0.05 c 0,-0.07 0,-0.14 -0.07,-0.19 v 0 c 0,-0.05 0,-0.12 -0.08,-0.17 -0.08,-0.05 0,0 0,-0.05 0,-0.05 0,-0.14 -0.08,-0.2 v 0 c 0,-0.05 0,-0.12 -0.07,-0.17 v 0 0 c 0,-0.07 0,-0.15 -0.08,-0.2 -0.08,-0.05 0,-0.13 -0.07,-0.18 v 0 c -0.08,-0.07 0,-0.19 -0.1,-0.24 a 0.4,0.4 0 0 0 -0.07,-0.18 v 0 c 0,0 0,-0.12 -0.07,-0.17 -0.07,-0.05 0,0 0,-0.05 0,-0.05 0,-0.15 -0.08,-0.2 v 0 c 0,-0.05 0,-0.13 -0.07,-0.18 v 0 0 c 0,-0.07 0,-0.15 -0.08,-0.2 -0.08,-0.05 0,-0.12 -0.07,-0.17 v 0 c -0.08,-0.06 0,-0.18 -0.1,-0.24 -0.1,-0.06 0,-0.12 -0.07,-0.17 v 0 c 0,0 0,-0.12 -0.07,-0.16 -0.07,-0.04 0,0 0,-0.06 0,-0.06 0,-0.14 -0.08,-0.19 v 0 c 0,-0.06 0,-0.13 -0.08,-0.18 v 0 0 c 0,-0.07 0,-0.15 -0.09,-0.2 v 0 A 1.85,1.85 0 0 0 588.4,197 v 0 c -0.08,0 -0.07,0.13 -0.09,0.19 a 0.025,0 -90 0 0 0,0.05 c 0,0.05 0,0.12 -0.08,0.17 v 0 c -0.05,0 -0.05,0.11 -0.08,0.17 -0.03,0.06 0,0.18 -0.09,0.24 v 0 c 0,0 0,0.12 -0.08,0.17 v 0 c -0.06,0.06 -0.05,0.13 -0.08,0.2 -0.03,0.07 0,0 0,0.05 0,0.05 0,0.12 -0.07,0.17 v 0 c 0,0 0,0.11 -0.07,0.17 -0.07,0.06 0,0.18 -0.1,0.23 v 0 c 0,0.05 0,0.12 -0.07,0.17 v 0 c -0.06,0.06 0,0.13 -0.08,0.2 -0.08,0.07 0,0 0,0 0,0 0,0.12 -0.07,0.17 v 0 c 0,0 0,0.11 -0.07,0.17 -0.07,0.06 0,0.18 -0.1,0.23 v 0 c 0,0 0,0.12 -0.08,0.17 v 0 c -0.06,0.05 0,0.13 -0.08,0.2 a 0.025,0 -90 0 0 0,0.05 c 0,0.05 0,0.12 -0.07,0.17 v 0 c -0.05,0.05 -0.05,0.12 -0.08,0.18 -0.03,0.06 -0.06,0.13 -0.08,0.2 v 0 0 c 0,0 0,0.12 -0.08,0.17 v 0 c -0.05,0 -0.05,0.13 -0.08,0.19 -0.03,0.06 0,0 0,0.06 0,0.06 0,0.12 -0.08,0.17 v 0 c 0,0 0,0.12 -0.07,0.17 a 0.42,0.42 0 0 0 -0.08,0.2 v 0 0 c 0,0 0,0.12 -0.07,0.17 v 0 c -0.06,0.05 -0.05,0.13 -0.08,0.19 -0.03,0.06 0,0.05 0,0.06 0,0.01 0,0.12 -0.07,0.16 v 0 c 0,0.05 0,0.12 -0.07,0.17 -0.07,0.05 -0.06,0.13 -0.08,0.2 v 0 0 c 0,0 0,0.12 -0.07,0.17 v 0 c -0.06,0.05 0,0.13 -0.08,0.19 a 0.03,0 -90 0 0 0,0.06 c 0,0.05 0,0.12 -0.07,0.16 v 0 c -0.05,0.09 -0.07,0.17 0,0.25 h 1.1 c 0.13,0 0,-0.18 0.12,-0.24 v 0 c 0,0 0,-0.11 0.07,-0.17 0.07,-0.06 0,-0.18 0.1,-0.24 v 0 c 0,-0.05 0,-0.12 0.07,-0.17 0.07,-0.05 0,-0.18 0.09,-0.24 v 0 c 0.05,-0.05 0,-0.12 0.07,-0.17 a 0.27,0.27 0 0 1 0.21,-0.12 c 0.81,0 1.63,-0.05 2.45,0 0,0.06 0,0.13 0.08,0.18 v 0 c 0.08,0.07 0,0.19 0.09,0.25 0.09,0.06 0,0.12 0.07,0.17 v 0 c 0.08,0.06 0,0.18 0.1,0.24 0.1,0.06 0,0.12 0.07,0.17 v 0 c 0,0 0,0.11 0.07,0.16 0.07,0.05 0,0 0,0.06 a 0.13,0.13 0 0 0 0.09,0.1 h 1.37 c 0.07,-0.14 0.05,-0.22 0.01,-0.31 z m -4.13,-2.39 0.84,-2.11 0.82,2.11 z"
         id="path155"
         style="fill:#ffffff;fill-opacity:1" />
      <path
         class="cls-3"
         d="m 597.73,198.35 c 0,0 0,0 0,-0.06 0,-0.06 0,-0.19 -0.08,-0.27 -0.08,-0.08 0,-0.12 -0.08,-0.16 v 0 c 0,-0.05 0,-0.13 -0.09,-0.16 a 0.56,0.56 0 0 0 -0.16,-0.24 0.14,0.14 0 0 0 -0.08,-0.09 0.14,0.14 0 0 0 -0.09,-0.08 0.11,0.11 0 0 0 -0.08,-0.08 c 0,0 0,-0.08 -0.09,-0.08 -0.09,0 -0.11,0 -0.15,-0.1 v 0 c 0,-0.06 -0.12,0 -0.16,-0.09 v 0 a 0.48,0.48 0 0 0 -0.2,-0.07 v 0 0 c -0.11,-0.08 -0.25,0 -0.36,-0.07 h -0.13 c -0.74,-0.08 -1.48,0 -2.21,0 -0.31,0 -0.4,0.07 -0.4,0.38 0,2 0,3.94 0,5.92 0,0.11 -0.07,0.24 0.07,0.33 h 1.34 c 0.13,-0.07 0.07,-0.19 0.07,-0.29 0,-0.49 0,-1 0,-1.47 0,-0.73 0,-0.73 0.71,-0.75 a 0.39,0.39 0 0 0 0.24,0 v 0 0 c 0.1,-0.08 0.24,0 0.34,-0.07 v 0 0 c 0.06,0 0.13,0 0.19,-0.06 v 0 0 c 0.06,0 0.14,0 0.19,-0.08 0.05,-0.08 0.12,0 0.15,-0.09 a 0.33,0.33 0 0 0 0.1,-0.06 v 0 c 0,0 0.12,0 0.15,-0.1 a 0.11,0.11 0 0 0 0.08,-0.07 1,1 0 0 0 0.17,-0.17 c 0,0 0.07,0 0.07,-0.09 0,-0.09 0,-0.11 0.1,-0.15 v 0 a 0.15,0.15 0 0 0 0.07,-0.12 v 0 0 c 0,0 0,-0.12 0.08,-0.17 v 0 c 0.07,-0.07 0,-0.18 0.07,-0.26 a 0.06,0.06 0 0 1 0,-0.07 1.75,1.75 0 0 0 0.17,-1.01 z m -1.87,1.22 a 2.09,2.09 0 0 1 -1,0.15 c -0.13,0 -0.15,-0.1 -0.14,-0.2 v -0.7 c 0,-0.23 0,-0.47 0,-0.7 0,-0.23 0.06,-0.19 0.2,-0.19 a 2.46,2.46 0 0 1 0.81,0.09 0.76,0.76 0 0 1 0.55,0.74 0.79,0.79 0 0 1 -0.42,0.81 z"
         id="path157"
         style="fill:#ffffff;fill-opacity:1" />
      <path
         class="cls-3"
         d="m 542.14,185.87 v -5.06 c 0,-0.38 0,-0.37 0.34,-0.37 h 3.38 c 0.2,0 0.27,0.05 0.26,0.25 0,0.39 0,0.77 0,1.16 V 191 c 0,0.45 0,0.4 -0.39,0.4 h -3.26 c -0.33,0 -0.33,0 -0.33,-0.33 -0.01,-1.76 0,-3.48 0,-5.2 z"
         id="path159"
         style="fill:#ffffff;fill-opacity:1" />
      <path
         class="cls-3"
         d="m 676.23,178.76 h -1.9 c -0.3,0 -0.3,0 -0.31,-0.33 v -0.7 c 0,-0.28 0,-0.28 0.31,-0.29 h 3.86 c 0.28,0 0.29,0 0.29,0.31 0,0.31 0,0.49 0,0.74 0,0.25 -0.09,0.27 -0.29,0.27 z"
         id="path161"
         style="fill:#ffffff;fill-opacity:1" />
      <path
         class="cls-3"
         d="m 575.71,201.4 c -0.34,0 -0.69,0 -1,0 -0.18,0 -0.24,-0.06 -0.23,-0.24 0.01,-0.18 -0.1,-0.58 0,-0.76 0.1,-0.18 0.48,-0.06 0.74,-0.06 0.48,0 1,0 1.44,0 0.18,0 0.29,0 0.27,0.24 -0.02,0.24 0.1,0.58 0,0.76 -0.1,0.18 -0.49,0 -0.75,0.07 z"
         id="path163"
         style="fill:#ffffff;fill-opacity:1" />
      <polygon
         class="cls-3"
         points="618.2,196.79 618.19,196.79 "
         id="polygon165"
         style="fill:#ffffff;fill-opacity:1" />
      <path
         class="cls-3"
         d="m 622.05,203.14 v 0 c 0,0 0,-0.12 -0.08,-0.17 v 0 0 c 0,-0.07 0,-0.15 -0.08,-0.2 -0.08,-0.05 0,-0.13 -0.08,-0.17 v 0 c -0.08,-0.06 0,-0.19 -0.09,-0.24 -0.09,-0.05 0,-0.13 -0.07,-0.18 v 0 c 0,-0.05 0,-0.12 -0.08,-0.17 -0.08,-0.05 0,0 0,0 0,0 0,-0.14 -0.08,-0.2 v 0 c 0,-0.05 0,-0.13 -0.07,-0.17 v 0 0 a 0.42,0.42 0 0 0 -0.08,-0.2 c 0,0 0,-0.12 -0.07,-0.17 v 0 c -0.08,-0.06 0,-0.18 -0.1,-0.24 -0.1,-0.06 0,-0.12 -0.07,-0.17 v 0 c -0.05,-0.05 0,-0.12 -0.07,-0.17 -0.07,-0.05 0,0 0,-0.06 0,-0.06 0,-0.14 -0.08,-0.19 v 0 c 0,-0.05 0,-0.13 -0.07,-0.18 v 0 0 c 0,-0.07 0,-0.15 -0.08,-0.2 -0.08,-0.05 0,-0.12 -0.07,-0.17 -0.07,-0.05 0,-0.18 -0.1,-0.24 -0.1,-0.06 0,-0.12 -0.07,-0.17 v 0 c 0,0 0,-0.12 -0.07,-0.16 -0.07,-0.04 0,0 0,-0.06 0,-0.06 0,-0.14 -0.08,-0.19 v 0 c 0,-0.05 0,-0.12 -0.07,-0.17 v 0 0 c 0,-0.07 0,-0.15 -0.09,-0.2 -0.09,-0.05 0,-0.12 -0.07,-0.17 v 0 c -0.08,-0.06 0,-0.19 -0.09,-0.24 -0.09,-0.05 0,-0.13 -0.08,-0.17 v 0 c 0,-0.05 0,-0.12 -0.08,-0.17 a 0.025,0 90 0 0 0,-0.05 c 0,-0.06 0,-0.14 -0.07,-0.19 v 0 c 0,-0.05 0,-0.12 -0.08,-0.17 v 0 0 c 0,-0.06 0,-0.14 -0.08,-0.19 -0.08,-0.05 0,-0.13 -0.07,-0.17 v 0 c -0.06,-0.09 -0.07,-0.22 -0.21,-0.21 a 5.14,5.14 0 0 0 -1.11,0 c -0.05,0 0,0.12 -0.08,0.16 v 0 c -0.06,0.05 -0.05,0.13 -0.08,0.19 -0.03,0.06 0,0 0,0.06 0,0.06 0,0.12 -0.07,0.16 v 0 c -0.05,0 0,0.12 -0.07,0.17 -0.07,0.05 -0.06,0.13 -0.09,0.2 v 0 0 c 0,0 0,0.12 -0.08,0.17 v 0 c -0.06,0.05 -0.05,0.13 -0.08,0.19 -0.03,0.06 0,0 0,0.06 0,0.06 0,0.12 -0.07,0.16 v 0 c 0,0.05 0,0.12 -0.08,0.17 -0.08,0.05 -0.05,0.13 -0.08,0.2 v 0 0 c -0.05,0.05 0,0.12 -0.08,0.17 v 0 c 0,0 0,0.11 -0.07,0.17 -0.07,0.06 0,0.18 -0.1,0.24 v 0 c 0,0 0,0.12 -0.07,0.17 -0.07,0.05 -0.06,0.13 -0.08,0.2 v 0 0 c 0,0.05 0,0.12 -0.07,0.17 v 0 c 0,0 0,0.11 -0.07,0.17 -0.07,0.06 0,0.18 -0.1,0.24 v 0 c 0,0 0,0.11 -0.07,0.17 -0.07,0.06 -0.06,0.13 -0.08,0.19 v 0 0 c 0,0 0,0.12 -0.07,0.17 v 0 c -0.05,0 -0.05,0.11 -0.08,0.17 -0.03,0.06 0,0.18 -0.09,0.24 v 0 c 0,0.05 0,0.11 -0.07,0.17 -0.07,0.06 -0.06,0.13 -0.09,0.19 -0.03,0.06 0,0 0,0 0,0 0,0.12 -0.08,0.17 v 0 c -0.06,0 0,0.11 -0.08,0.17 -0.08,0.06 0,0.18 -0.09,0.24 v 0 c 0,0.05 0,0.12 -0.07,0.17 v 0 c -0.06,0.05 0,0.13 -0.08,0.19 -0.08,0.06 0,0 0,0.05 0,0.05 0,0.12 -0.07,0.17 v 0 c 0,0 0,0.11 -0.07,0.17 -0.07,0.06 0,0.18 -0.09,0.25 v 0 c 0,0 0,0 0,0 h 1.35 a 0.43,0.43 0 0 0 0.1,-0.09 v 0 c 0,-0.05 0,-0.12 0.07,-0.17 0.07,-0.05 0,-0.18 0.09,-0.24 v 0 c 0,0 0,-0.12 0.07,-0.18 0.07,-0.06 0,-0.18 0.1,-0.24 v 0 c 0,-0.05 0,-0.11 0.07,-0.17 0.07,-0.06 0,-0.18 0.09,-0.24 v 0 a 16.49,16.49 0 0 1 2.63,0 v 0 c 0.08,0.05 0,0.18 0.1,0.23 0.1,0.05 0,0.12 0.07,0.17 v 0 c 0.08,0.06 0,0.19 0.09,0.24 0.09,0.05 0,0.13 0.07,0.17 v 0 c 0.08,0.07 0,0.19 0.1,0.24 0.1,0.05 0,0.13 0.07,0.18 v 0 c 0,0 0.06,0.06 0.1,0.09 H 622 a 0.15,0.15 0 0 0 0.05,-0.12 z m -4.1,-2.37 c 0.27,-0.69 0.54,-1.36 0.84,-2.1 l 0.82,2.1 z"
         id="path167"
         style="fill:#ffffff;fill-opacity:1" />
      <polygon
         class="cls-3"
         points="674.59,191.33 674.6,191.33 "
         id="polygon169"
         style="fill:#ffffff;fill-opacity:1" />
      <path
         class="cls-3"
         d="m 682.43,191.11 c 0,-0.06 0,-0.13 -0.07,-0.18 -0.07,-0.05 0,0 0,-0.06 0,-0.06 0,-0.13 -0.07,-0.19 -0.07,-0.06 0,0 0,-0.05 0,-0.05 0,-0.14 -0.07,-0.2 v 0 0 a 0.54,0.54 0 0 0 -0.08,-0.21 v 0 c -0.07,-0.07 0,-0.19 -0.08,-0.25 v 0 c -0.07,-0.07 0,-0.18 -0.09,-0.25 v 0 c -0.06,-0.07 0,-0.19 -0.08,-0.25 -0.08,-0.06 0,-0.12 -0.07,-0.17 -0.07,-0.05 0,0 0,-0.06 0,-0.06 0,-0.13 -0.07,-0.19 -0.07,-0.06 0,0 0,-0.05 a 0.48,0.48 0 0 0 -0.07,-0.2 v 0 0 a 0.74,0.74 0 0 0 -0.07,-0.21 v 0 c -0.08,-0.07 0,-0.19 -0.09,-0.25 v 0 c -0.07,-0.07 0,-0.18 -0.09,-0.25 v 0 c -0.07,-0.07 0,-0.19 -0.09,-0.25 -0.09,-0.06 0,-0.12 -0.06,-0.17 -0.06,-0.05 0,0 0,-0.06 a 1.46,1.46 0 0 0 -0.07,-0.19 0.48,0.48 0 0 0 -0.07,-0.2 v 0 0 c 0,-0.07 0,-0.15 -0.07,-0.2 v 0 c -0.08,-0.07 0,-0.19 -0.09,-0.25 v 0 c -0.07,-0.07 0,-0.18 -0.08,-0.25 v 0 c -0.07,-0.07 0,-0.19 -0.09,-0.25 v 0 c 0,-0.05 0,-0.12 -0.06,-0.17 -0.06,-0.05 0,0 0,-0.06 0,-0.06 0,-0.13 -0.07,-0.19 -0.07,-0.06 0,0 0,0 a 1.18,1.18 0 0 0 -0.07,-0.2 v 0 0 c 0,-0.07 0,-0.15 -0.07,-0.2 v 0 c -0.07,-0.07 0,-0.19 -0.08,-0.25 v 0 c -0.08,-0.07 0,-0.18 -0.09,-0.25 v 0 c -0.07,-0.07 0,-0.19 -0.09,-0.25 v 0 c 0,-0.05 0,-0.12 -0.07,-0.17 -0.07,-0.05 0,0 0,-0.06 0,-0.06 0,-0.13 -0.06,-0.19 -0.06,-0.06 0,0 0,-0.05 0,-0.05 0,-0.14 -0.07,-0.2 v 0 0 c 0,-0.07 0,-0.15 -0.07,-0.2 v 0 c -0.08,-0.07 0,-0.19 -0.09,-0.25 v 0 c -0.07,-0.06 0,-0.18 -0.09,-0.25 v 0 c -0.07,-0.07 0,-0.19 -0.09,-0.25 v 0 c 0,0 0,-0.12 -0.07,-0.17 a 0.03,0 90 0 0 0,-0.06 c 0,-0.06 0,-0.13 -0.07,-0.19 a 0.025,0 90 0 0 0,-0.05 c 0,-0.07 0,-0.14 -0.07,-0.2 v 0 0 a 0.59,0.59 0 0 0 -0.07,-0.2 v 0 c -0.08,-0.07 0,-0.18 -0.09,-0.25 v 0 c -0.07,-0.06 0,-0.18 -0.08,-0.25 v 0 c -0.07,-0.07 0,-0.19 -0.09,-0.25 v 0 c 0,0 0,-0.12 -0.06,-0.17 -0.06,-0.05 0,0 0,-0.06 a 1.46,1.46 0 0 0 -0.07,-0.19 c 0,0 0,0 0,-0.05 a 1.18,1.18 0 0 0 -0.07,-0.2 v 0 0 a 0.12,0.12 0 0 0 -0.1,-0.11 c -1.43,0 -2.87,0 -4.3,0 -0.1,0 -0.08,0.12 -0.11,0.18 -0.03,0.06 0,0 0,0.06 0,0.06 0,0.12 -0.07,0.17 v 0 c -0.09,0.06 0,0.18 -0.09,0.25 v 0 c -0.08,0.06 0,0.18 -0.09,0.25 v 0 a 0.48,0.48 0 0 0 -0.07,0.2 v 0 0 a 1.18,1.18 0 0 0 -0.07,0.2 c 0,0 0,0 0,0.05 0,0.05 0,0.12 -0.07,0.17 -0.07,0.05 0,0.18 -0.09,0.25 v 0 c -0.09,0.06 0,0.18 -0.09,0.24 v 0 a 0.53,0.53 0 0 0 -0.07,0.2 v 0 0 c 0,0 0,0.13 -0.07,0.19 -0.07,0.06 0,0 0,0.06 0,0.06 0,0.11 -0.07,0.17 -0.07,0.06 0,0.18 -0.09,0.25 v 0 c -0.08,0.06 0,0.18 -0.08,0.25 v 0 a 0.5,0.5 0 0 0 -0.08,0.2 v 0 0 c 0,0.06 0,0.13 -0.07,0.2 -0.07,0.07 0,0 0,0.05 0,0.05 0,0.12 -0.06,0.17 -0.06,0.05 0,0.18 -0.09,0.25 v 0 c -0.08,0.06 0,0.18 -0.09,0.24 v 0 a 0.54,0.54 0 0 0 -0.08,0.21 v 0 0 c 0,0 0,0.13 -0.07,0.19 -0.07,0.06 0,0 0,0.06 0,0.06 0,0.11 -0.06,0.17 -0.06,0.06 0,0.18 -0.09,0.25 v 0 c -0.09,0.06 0,0.18 -0.09,0.25 v 0 a 0.48,0.48 0 0 0 -0.07,0.2 v 0 0 a 0.48,0.48 0 0 0 -0.07,0.2 1.46,1.46 0 0 0 -0.07,0.19 c 0,0 0,0 0,0.06 0,0.06 0,0.12 -0.06,0.17 v 0 c -0.09,0.06 0,0.18 -0.09,0.25 v 0 c -0.08,0.07 0,0.18 -0.08,0.25 v 0 a 0.7,0.7 0 0 0 -0.08,0.2 c 0,0 0,0 0,0.05 0,0.05 0,0.12 -0.07,0.18 -0.07,0.06 0,0.05 0,0.06 0,0.01 0,0.12 -0.07,0.18 v 0 c -0.09,0.06 0,0.18 -0.09,0.25 v 0 c -0.08,0.06 0,0.18 -0.09,0.24 v 0 a 0.68,0.68 0 0 0 -0.07,0.2 v 0 0 c 0,0.05 0,0.13 -0.07,0.19 -0.07,0.06 0,0 0,0.06 0,0.06 0,0.12 -0.07,0.17 v 0 c -0.09,0.06 0,0.18 -0.09,0.25 v 0 c -0.08,0.06 0,0.18 -0.09,0.25 v 0 a 0.48,0.48 0 0 0 -0.07,0.2 v 0 0 c 0,0.06 0,0.13 -0.07,0.19 -0.07,0.06 0,0.05 0,0.06 0,0.01 0,0.12 -0.07,0.17 -0.07,0.05 0,0.18 -0.08,0.25 v 0 c -0.09,0.06 0,0.18 -0.09,0.24 v 0 a 0.53,0.53 0 0 0 -0.07,0.2 v 0 0 a 1.46,1.46 0 0 0 -0.07,0.19 c 0,0 0,0 0,0.06 0,0.06 0,0 0,0 a 0.19,0.19 0 0 0 0.13,0 h 3.91 a 0.19,0.19 0 0 0 0.14,0 c 0.06,0 0,-0.12 0.08,-0.18 a 0.03,0 90 0 0 0,-0.06 c 0.07,-0.08 0,-0.19 0.07,-0.28 0.07,-0.09 0,0 0,-0.05 0,-0.05 0,-0.19 0.07,-0.28 v 0 0 c 0.06,-0.08 0,-0.19 0.07,-0.28 v 0 0 c 0,-0.06 0.08,-0.12 0.15,-0.12 0.94,0 1.87,0 2.8,0 a 0.03,0 -90 0 0 0,0.06 c 0.05,0.08 0,0.19 0.07,0.27 0.07,0.08 0,0 0,0.06 0,0.06 0,0.19 0.07,0.27 0.07,0.08 0,0 0,0 0,0 0,0.2 0.07,0.28 v 0 0 c 0.05,0.08 0,0.21 0.09,0.27 h 3.94 c 0.09,0 0.19,0 0.25,-0.07 z m -6.82,-4 c 0.39,-1 0.35,-2.27 0.77,-3.31 0.41,1.05 0.46,2.35 0.83,3.31 z"
         id="path171"
         style="fill:#ffffff;fill-opacity:1" />
    </g>
  </g>
</svg>
