<svg id="Layer_1" data-name="Layer 1" xmlns="http://www.w3.org/2000/svg" viewBox="0 0 1920 1080"><defs><style>.cls-1,.cls-2{fill:#ec1c24;}.cls-1{fill-rule:evenodd;}</style></defs><title>Mateco</title><path class="cls-1" d="M105,452.29,56,695.14h97l24.41-124.73c3.45-17.58,7.86-31.71,14.57-39.13s12.08-14.34,27.79-13.89c16,.47,23.8,8.6,25.2,22.54.84,8.36-1.07,18.51-3.39,29.58L215.06,695.18l98.49.07,24.62-124.84c3-15.26,5.74-32.53,17.75-43.78a36.54,36.54,0,0,1,23.44-9.58c17.77-.73,30.53,15.63,26.27,35.78L375.56,695.14h97.61L504,549.33c2.7-12.8,4.37-24.49,4.4-34.61.11-39-35.09-73-82.5-72.36-31.64.42-57.89,12.95-84.38,43.74-14.15-37.81-43.38-43.36-67.77-43.74-32.87-.52-65.67,16.26-80.84,42.7l.35-32.72Z"/><path class="cls-1" d="M657.11,625.14a56.77,56.77,0,0,1-26.75,15.25c-18.5,4.3-39.16-1.4-38.12-18.67,1.59-26.44,41.64-30.42,55.91-33s19.43-3.13,26.52-4.89c-2.21,21.06-8.3,32.11-17.56,41.28m-31.28-92.63c6.4-18.21,20.5-30.57,43.12-30.57,11.31,0,23.34,3.31,22.49,18.27-.45,7.67-6.54,14.9-16.84,17-20.16,4.08-52.11,4.63-73.38,7.62-26.87,3.78-58.24,10.64-77,28.57-13.51,12.93-22.29,29.82-23.24,54-1.65,42,35.58,72.93,82.54,72.71,34.94-.16,64.25-14.36,72.9-25l-.07,20.06H757l-1.64-4.42c-2.31-7.58-5.64-15.27-1.37-34.78l25.12-114.61c5.15-23.53,5.41-48.8-10.58-68.31-14.39-17.56-48.06-29.38-85.57-30.66-52.19-1.79-90.6,7.74-113.84,22.84-25.89,16.88-36.4,45-38.07,67.36Z"/><path class="cls-1" d="M804.14,452.52l-10.93,54.79h30.13L797.92,621c-11.37,50.89,11,74.08,68.17,74.08l49.72,0,10.94-68.41c-25.69-3.05-35.3,1.47-30.17-25.12l18.21-94.47H954l10.93-54.42H924.72l16.81-73.77H920.85c-30.54,23.27-51,39.53-79.24,42.93l-7,30.65Z"/><path class="cls-1" d="M1495.28,546.16h-97.84c1.59-18-4.08-32.48-27.38-31.9-27.2-2.13-41.76,25-47.16,54.4-4.92,20.82-6.32,63.05,29,59.62,21.73-.4,32.11-17.67,37.35-38.82h98c-13.28,56.6-43.17,111-131.81,111.6h-1.42c-2.52,0-5.08,0-7.7-.12-76,0-132.17-47.07-122.29-125.81,10.09-80.4,65-132.64,152-132.64,47.75,0,106.19,12.58,117.06,67.52a138.56,138.56,0,0,1,2.18,36.15"/><path class="cls-1" d="M1122.08,542h-74c5.62-19.24,21.45-33.18,40.74-33.13,27.32.07,34.53,15.24,33.24,33.13m-86.71,54.5c-4.78,20.37,9.23,37.73,32.65,38.21,17.49.37,30-6.91,37.19-18.16h94.1c-20.09,66.73-92.77,87.82-138.14,83.85-88.74.66-126.71-48.69-119.78-124.7,7.59-80.41,78.94-136.26,153.49-132.63,77.06-.72,122,32.74,116.45,128.14-1,8.22-2.23,17.7-3.87,25.29Z"/><path class="cls-1" d="M1675.63,573.47c-6.12,27-15.67,58.67-48.08,59.74-37,1.22-34.06-42.44-30.44-61.91,5.27-28.22,21.55-63.62,50.5-63.62,32.23,0,34.24,38.28,28,65.79m-23.89-131.11c-89.1.7-144.14,54-151.45,134.09-7.08,77.31,29.89,123.39,118.63,124.5,88.29,1.11,141.5-51.54,154.68-131.43A169,169,0,0,0,1776,542v-.83C1775.59,470.43,1721.82,441.8,1651.74,442.36Z"/><path class="cls-2" d="M1817.39,444.37h7.77q5.58,0,7.6-1.65a5.38,5.38,0,0,0,2-4.37,5.32,5.32,0,0,0-1-3.14,5.74,5.74,0,0,0-2.7-2.06,20.34,20.34,0,0,0-6.43-.69h-7.29Zm-6.4,22.3V427.06h13.64c4.67,0,8,.37,10.11,1.11a9.72,9.72,0,0,1,5,3.83,10.09,10.09,0,0,1,1.86,5.8,10.48,10.48,0,0,1-3.12,7.55,12.34,12.34,0,0,1-8.25,3.62,10.4,10.4,0,0,1,3.36,2.1,44.35,44.35,0,0,1,5.87,7.85l4.83,7.75h-7.76l-3.53-6.24c-2.77-4.91-5-8-6.72-9.23a8.14,8.14,0,0,0-5.12-1.33h-3.77v16.8Zm16.19-51.11a31.48,31.48,0,0,0-15.14,4,28.5,28.5,0,0,0-11.5,11.38,30.63,30.63,0,0,0-.07,30.67,29,29,0,0,0,11.4,11.39,30.71,30.71,0,0,0,30.59,0,28.76,28.76,0,0,0,11.39-11.39,30.76,30.76,0,0,0-.09-30.67,28.25,28.25,0,0,0-11.5-11.38A31.48,31.48,0,0,0,1827.18,415.56Zm0-6.1a37.68,37.68,0,0,1,18.12,4.77,33.82,33.82,0,0,1,13.77,13.62,37,37,0,0,1,.06,36.8,34,34,0,0,1-13.62,13.66,37.05,37.05,0,0,1-36.69,0,34.31,34.31,0,0,1-13.65-13.66,36.83,36.83,0,0,1,.07-36.8,34.07,34.07,0,0,1,13.8-13.62A37.64,37.64,0,0,1,1827.18,409.46Z"/></svg>