<svg id="Layer_1" data-name="Layer 1" xmlns="http://www.w3.org/2000/svg" xmlns:xlink="http://www.w3.org/1999/xlink" viewBox="0 0 1920 1080"><defs><style>.cls-1{fill:none;}.cls-2{fill:#231f20;}.cls-3{clip-path:url(#clip-path);}.cls-4{fill:#323031;}.cls-5{fill:#133151;}</style><clipPath id="clip-path"><rect class="cls-1" x="61" y="219.74" width="1798" height="640.51"/></clipPath></defs><title>ArtSoft</title><path class="cls-2" d="M1135.8,571.73l-2.47,1.43a16.36,16.36,0,0,0,2.47-1.43Z"/><g class="cls-3"><path class="cls-4" d="M1394.88,564q-21.32,24-52.78,24t-52.92-24q-21.47-24-21.46-69.23t21.46-69.23q21.45-24,52.92-24t52.78,24q21.3,24,21.31,68.66,0,45.78-21.31,69.8Zm-53.07-228q-44.62,0-80.81,19.74t-55.93,57.21q-19.74,37.48-19.74,77.53,0,52.35,19.74,88.83t57.64,55.35a176.4,176.4,0,0,0,79.68,18.88q67.5,0,112-45.34t44.48-114.29q0-68.37-44.06-113.14t-113-44.77Z"/><path class="cls-4" d="M211.19,481.13l58.57-160.89L329.5,481.13Zm273.3,156.46-.21-.52L322,232.23h0L321,229.9l0,0-3.93-9.8H236.25a17.25,17.25,0,0,0-15.51,9.71l-1.07,2.73L62.28,636.07l-1.15,3a11.07,11.07,0,0,0-.33,2.66,11.48,11.48,0,0,0,11.47,11.47h76.22l8.33-23.56L184.28,552H357.6l35.17,94,.07.2a11.48,11.48,0,0,0,10.56,7h87.3l-6.12-15.27c0-.1-.05-.2-.09-.3Z"/></g><path class="cls-4" d="M1157.41,457.68q-16.73-27-46.34-42.62t-91.4-30.18q-61.8-14.6-77.82-28-12.58-10.57-12.58-25.46,0-16.31,13.44-26,20.88-15.17,57.79-15.17,35.74,0,53.64,14.17,14,11.11,20.39,33.45c.11.39.23.76.33,1.15l.07.15c2,6.57,3.21,11.23,4,14.66l63.44-36.89,2.47-1.44a16.7,16.7,0,0,0,5.72-20.28l0,0a117,117,0,0,0-30.4-40.41q-39.92-34.61-118.86-34.62-48.36,0-82.54,14.6t-52.35,42.48q-18.16,27.88-18.17,59.93,0,49.77,38.63,84.39Q914.38,446.1,982.48,463q52.9,13.15,67.8,18.31,21.73,7.72,30.46,18.16t8.73,25.32q0,23.18-20.74,40.48t-61.65,17.31q-38.62,0-61.36-19.46Q924.5,545,916.61,507.66c-.49-2.63-.93-5.18-1.34-7.68L851,537.36l0,.06a16.65,16.65,0,0,0-7.44,18.89q13.2,37.4,40.48,61,42.61,36.76,122.15,36.76,54.63,0,91.26-15.31T1154.12,592q20-31.47,20-67.52,0-39.75-16.74-66.8Z"/><path class="cls-4" d="M834,628.86l0-.52-5.42-49.21q-21.18,7.73-32.33,7.72a22.69,22.69,0,0,1-13.59-4,17.7,17.7,0,0,1-7.15-10.16q-1.58-6.15-1.57-43.34V406.9h38.22a16.73,16.73,0,0,0,16.71-16.48v-47.6H773.91V245.31l-71.72,40.94-1,.56a16.7,16.7,0,0,0-8,14.24v41.77H643.69c-14.37,0-29,0-41.35,7.86-10.19,6.5-15.11,14.93-27.89,35.34v-43.2H515.9a16.71,16.71,0,0,0-16.12,16.69V653.16h64.58a16.71,16.71,0,0,0,15.81-16.68V552.8q0-77.52,6.73-101.84t18.45-33.61c7.82-6.2,17.35-10.45,28.61-10.45h59.27V539.36q0,42.63,2.58,56.64,3.13,19.74,11.3,31.33t25.6,18.88q17.44,7.29,39.2,7.29a168.66,168.66,0,0,0,49.83-7c.66-.2,1.29-.44,1.93-.64a16.72,16.72,0,0,0,10.43-15.49,14.72,14.72,0,0,0-.08-1.49Z"/><path class="cls-4" d="M1718.16,342.47h-108.3V321q0-23.17,7.58-31.33t25-8.15a148.37,148.37,0,0,1,20.86,1.53l1.3.18c.51.05,1,.08,1.53.08a16.71,16.71,0,0,0,16.19-12.61l.37-1.87,7.52-38.8A223.65,223.65,0,0,0,1623,219.74q-33.48,0-55.37,11.88t-30,30.75q-8.14,18.88-8.15,57.22v22.88h-39V389a16.71,16.71,0,0,0,16.72,16.72h22.23V653.11h62.78c.3,0,.6,0,.9,0s.61,0,.91,0a16.7,16.7,0,0,0,15.81-16.63V406.56h108.3V539q0,42.63,2.57,56.64,3.15,19.74,11.3,31.33t25.61,18.88q17.44,7.3,39.19,7.3a169,169,0,0,0,49.12-6.8,16.3,16.3,0,0,0,3.12-1,16.71,16.71,0,0,0,9.93-15.27l-.07-1.5,0-.16v-.1l-5.43-49.52c-14.1,5.15-24.9,7.72-32.32,7.72a22.77,22.77,0,0,1-13.6-4,17.68,17.68,0,0,1-7.14-10.16q-1.59-6.15-1.59-43.34V406.56H1837a16.73,16.73,0,0,0,16.73-16.72V342.47h-55V245.29l-71.71,40.94-1,.56a16.7,16.7,0,0,0-8,14.24v41.44Z"/><path class="cls-5" d="M983.39,796.31q0,18.21,8.7,27.88a28.54,28.54,0,0,0,42.84,0q8.64-9.68,8.65-28.11,0-18-8.65-27.65a28.54,28.54,0,0,0-42.84,0q-8.7,9.68-8.7,27.88ZM950,794.58a65.89,65.89,0,0,1,8-31.22,54.79,54.79,0,0,1,22.67-23.05,67.74,67.74,0,0,1,32.76-7.95q28,0,45.81,18T1077.09,796q0,27.78-18,46t-45.41,18.27a71.88,71.88,0,0,1-32.29-7.61A52.39,52.39,0,0,1,958,830.35q-8-14.67-8-35.77Z"/><path class="cls-5" d="M1203.82,854.17a6.13,6.13,0,0,1-6.12,6.09h-26.46V795q0-19.81-2.09-25.63a18,18,0,0,0-6.78-9,19.48,19.48,0,0,0-11.31-3.22,26.25,26.25,0,0,0-15.19,4.6,23.24,23.24,0,0,0-9.22,12.22q-2.51,7.6-2.5,28.11v52.1a6.12,6.12,0,0,1-6.12,6.09h-26.46V738.45a6.12,6.12,0,0,1,6.12-6.09h24.15V753.1q16.11-20.73,40.58-20.74a49.19,49.19,0,0,1,19.71,3.86q8.94,3.87,13.52,9.86a35.45,35.45,0,0,1,6.37,13.59q1.8,7.61,1.8,21.78v72.72Z"/><path class="cls-5" d="M1458.68,854.17a6.12,6.12,0,0,1-6.12,6.09h-24.14V839.17a47.41,47.41,0,0,1-17.68,15.44,49.91,49.91,0,0,1-23.14,5.65,45.43,45.43,0,0,1-22.26-5.42,32,32,0,0,1-14.27-15.21q-4.41-9.79-4.41-27.07V738.4a6.12,6.12,0,0,1,6.12-6.08h26.47v59q0,25.8,1.8,31.62a17.18,17.18,0,0,0,6.55,9.22q4.76,3.4,12.06,3.4a25.81,25.81,0,0,0,15-4.55,23.17,23.17,0,0,0,9-11.29q2.44-6.75,2.44-33V738.4a6.12,6.12,0,0,1,6.12-6.08h26.46V854.17Z"/><path class="cls-5" d="M1481.63,694.66a6.12,6.12,0,0,1,6.12-6.08h26.47V854.17a6.13,6.13,0,0,1-6.12,6.09h-26.47V694.66Z"/><path class="cls-5" d="M1599.61,849.37c.37,3.32-2,7.19-5.18,8.15l-.52.16a69.22,69.22,0,0,1-19.37,2.58,41.2,41.2,0,0,1-15.89-2.94q-7.08-2.94-10.38-7.61t-4.58-12.61q-1.05-5.65-1-22.82V758.13h-15V738.4a6.13,6.13,0,0,1,6.13-6.08h8.83V716.9a11.71,11.71,0,0,1,5.29-9.14l27.42-15.83v40.39h22.26V752a6.12,6.12,0,0,1-6.12,6.09h-16.14v52.12q0,15,.63,17.46a7.14,7.14,0,0,0,2.9,4.08,9.23,9.23,0,0,0,5.51,1.62q4.53,0,13.1-3.11l2.12,19.07Z"/><path class="cls-5" d="M1217.35,830.52a46.49,46.49,0,0,0,16.43,19.6q14.67,10.14,39.84,10.14,27.7,0,41.86-12.1t14.15-28.92q0-15.43-10.2-24.08t-36.36-14.41q-26-5.87-30.44-9.1a7.13,7.13,0,0,1-3.25-5.87,7.67,7.67,0,0,1,3.71-6.57q5.57-3.57,18.44-3.57,10.2,0,15.72,3.8a18.91,18.91,0,0,1,7.47,10.94l23.49-4.34a6.1,6.1,0,0,0,4.57-8.53l-.25-.56a39.63,39.63,0,0,0-14-16.4q-12.3-8.19-37.58-8.19-26.55,0-39.19,10.83t-12.64,26.74q0,17.63,14.61,27.53,10.55,7.14,50,15.79,8.46,1.95,10.9,4.26a8.49,8.49,0,0,1,2.32,6.1,10.27,10.27,0,0,1-4.29,8.65q-6.37,4.61-19,4.61-11.49,0-17.86-4.9t-8.46-14.34l-25.62,3.87a6.1,6.1,0,0,0-5.07,6,6,6,0,0,0,.48,2.37l.26.66Z"/><g class="cls-3"><path class="cls-5" d="M911.5,777.07q-1.62-9.57-7.36-14.4t-14.9-4.84q-12.18,0-19.42,8.35t-7.25,27.94q0,21.78,7.36,30.76t19.77,9q9.28,0,15.19-5.24,4.47-4,7-12.22l.2-.58a6.16,6.16,0,0,1,7.1-4.24L945.25,816q-5,21.9-19.13,33.07t-37.93,11.18q-27,0-43.07-16.94t-16.07-46.9q0-30.28,16.12-47.17t43.6-16.89q22.5,0,35.78,9.63,10.55,7.63,16.37,21.63l.21.52a5.91,5.91,0,0,1,.52,2.45,6.09,6.09,0,0,1-5.1,6l-25,4.48Z"/><path class="cls-5" d="M775.3,816.11H60.8V782.59a6.12,6.12,0,0,1,6.12-6.08h714.5V810a6.12,6.12,0,0,1-6.12,6.08Z"/></g><path class="cls-5" d="M1653.73,776.51H1859V810a6.12,6.12,0,0,1-6.12,6.08H1647.6V782.59a6.13,6.13,0,0,1,6.13-6.08Z"/></svg>