<svg id="Layer_1" data-name="Layer 1" xmlns="http://www.w3.org/2000/svg" viewBox="0 0 1920 1080"><defs><style>.cls-1{fill:#fff;}.cls-2{fill:#005193;}.cls-3{fill:#fefefe;}.cls-4{fill:#6a737b;}.cls-5{fill:#005294;}</style></defs><title>ASA</title><rect class="cls-1" x="82.21" y="221.05" width="1755.59" height="189.96"/><path class="cls-2" d="M1837.57,411.18q0,222.09.08,444.18c0,3.55-.56,4.64-4.46,4.64Q960,859.84,86.69,860c-3.9,0-4.46-1.09-4.45-4.64q.14-222.09.08-444.18c1.36-1.71,3.25-2.09,5.3-2.15,2.81-.09,5.61-.08,8.42-.08H1823.85c2.8,0,5.61,0,8.41.08C1834.32,409.09,1836.2,409.47,1837.57,411.18Z"/><path class="cls-3" d="M849.23,784.33c-5.78,0-11.58-.33-17.33.11-4.19.31-5.64-1.38-6.75-5.12-3-10.07-6.57-20-9.65-30-.83-2.71-2-3.58-4.81-3.56-16.84.13-33.68.16-50.52,0-3.15,0-4.22,1.26-5.06,3.94-3.23,10.33-6.8,20.56-9.93,30.92-.89,2.92-2.16,3.85-5.16,3.81q-18.57-.25-37.14,0c-3.72.05-4-1.08-3-4.3q30.18-92.19,60.16-184.46c.83-2.56,2-3.58,4.84-3.55,14.2.17,28.4.12,42.59,0,2.61,0,4,.49,4.94,3.38q29,92.57,58.4,185c1,3.05.61,4-2.79,3.87C861.78,784.15,855.5,784.33,849.23,784.33Z"/><path class="cls-3" d="M1135.83,592.17c7.09,0,14.19.16,21.28-.08,2.91-.1,4,1.08,4.79,3.6q28.9,92,58,184c1.23,3.88.5,4.77-3.45,4.7q-18.06-.3-36.13,0c-3.26.05-4.55-1.1-5.46-4.12-3.11-10.2-6.63-20.27-9.78-30.46-.89-2.89-2-4.15-5.34-4.11-16.67.21-33.33.18-50,0-3,0-4.32.91-5.18,3.69-3.2,10.34-6.7,20.58-9.89,30.92-.91,3-2.27,4.11-5.51,4.06q-18.56-.3-37.12,0c-3.74.06-3.91-1.06-2.88-4.19q30.24-92.13,60.25-184.32c.94-2.91,2.18-3.88,5.15-3.8C1121.63,592.3,1128.73,592.17,1135.83,592.17Z"/><path class="cls-3" d="M956.58,786.28c-18.48-.36-36.85-1.38-54.73-6.75-3.79-1.13-5.16-2.8-5-6.85.37-8.24.2-16.5.06-24.75-.05-2.95.58-4,3.88-3.7,22,1.9,44.11,2.89,66.23,2.69a32.69,32.69,0,0,0,8.28-1.21c5.61-1.52,8.78-5.18,8.8-11.61,0-7.6,2.69-16.27-5.71-21.6-3.1-2-6.91-2-10.55-2.06-9.9-.06-19.8,0-29.7-.12-27.37-.35-44.61-16.72-46.61-44.07-1-13.18-1.63-26.4.91-39.44,4-20.49,17.12-33.09,37.85-35.15,28.86-2.87,57.57-1.47,85.86,5.67,3.28.83,4.41,2.13,4.29,5.62-.31,8.41-.24,16.83,0,25.25.08,3.19-.71,4.17-4.06,3.94-20.41-1.4-40.85-2.27-61.32-2.22-18.41,0-20.92,2.43-20.85,20.68a35,35,0,0,0,.6,6.86c1.27,6.1,4.18,8.66,10.41,9.31,10.7,1.13,21.44.36,32.16.56,6.1.12,12.18.24,18.12,1.95,16,4.59,25.48,15.67,29.29,31.18a107,107,0,0,1-.35,53.79c-5,18.68-19.43,29.65-38.7,31.43C976,786.57,966.3,786.28,956.58,786.28Z"/><path class="cls-4" d="M555.1,326.32c-35,.17-70,.1-104.93.09-13.44,0-18.93-5.24-19.31-18.76-.25-8.74-.14-17.49-.13-26.23,0-16.82,2.89-19.62,20-19.63q42.81,0,85.63,0c6.1,0,12.21,0,18.31,0,1.6,0,3.21.36,3.13-2.4-.54-19.16-11.26-32-30.31-36.33-5.38-1.23-11-.89-16.22-3.05H430c-2.46,2-5.56,1.52-8.37,1.93-23.55,3.4-37.49,15.87-40.21,39.39a268.87,268.87,0,0,0,.39,67.61c2.22,16.14,10.75,28.54,26.77,34.57a90.68,90.68,0,0,0,30.95,5.92q35.39.43,70.77,0c10.92-.15,21.68-2,31.67-6.85,9.38-4.54,15.38-11.69,16.93-22.21a67.27,67.27,0,0,1,1.27-8.3C561.5,327.23,559.62,326.3,555.1,326.32Z"/><path class="cls-4" d="M1837.57,327h0V309.16a3.22,3.22,0,0,1-.49-1.87c-1.18-17.49-10.17-27.54-27.45-31.29-10.58-2.3-21.34-2-32-2.45-12-.52-24-1.37-36.06-1.47-6.22-.05-12.49-.74-18.75-.86a12.81,12.81,0,0,1-4.8-1.08c-2.2-.92-3.51-2.55-3.39-4.95s1.85-3.73,4.16-4.2a59,59,0,0,1,11.79-1.19q45.56.07,91.1,0a66.67,66.67,0,0,0,6.93-.14c4.21-.43,6.08-2.49,5.5-6.54-2-13.76-8.71-24.07-22-29.29-9.35-3.68-19.27-2.9-29-3.34h-68.85l-.54,0c0-.17,0-.35,0-.52h-6c0,.28,0,.55,0,.82-3.94.41-7.89.7-11.8,1.23-17.21,2.34-28.93,12.15-32.39,27.58a78.69,78.69,0,0,0-.53,31.95c3.26,17.22,12.8,26.05,30.2,28.53,14.08,2,28.29,2.13,42.44,2.92,15.65.86,31.32,1.44,47,2.22,6.17.31,7.76,1.89,8.14,7.58.36,5.35-1.47,8-7.18,8.67a126.3,126.3,0,0,1-15.81.67q-50,.09-100,0c-1.15,0-2.31,0-3.47,0-1.86-.08-2.57.54-2.37,2.62,1.29,13.31,6.87,23.59,19.71,29.05a54.26,54.26,0,0,0,18.16,4.53,834.62,834.62,0,0,0,103.35,0c16.09-1.05,30.24-9.78,33.24-29,.14-.92-.06-2.05,1.15-2.49v-4h0Z"/><path class="cls-4" d="M991,221c-13.21.16-26.42.23-39.62,0-4.12-.08-5.26,1.06-5.23,5.2.18,27.9.11,55.8.07,83.7,0,1.75.45,3.57-.73,5.94-7.32-9.45-14.28-18.46-21.26-27.45q-21.85-28.15-43.75-56.3A26,26,0,0,0,861,221.82c-20.45-1.52-40.92-.31-61.38-.8-3.75-.09-3.3,2.18-3.3,4.49,0,46.55.05,93.11-.09,139.66,0,3.91,1.3,4.59,4.81,4.54,13-.19,26.09-.28,39.12,0,4.62.11,6.09-.87,6.05-5.83-.27-29.55-.15-59.1-.11-88.65,0-1.68-.45-3.49.58-5.25a12.24,12.24,0,0,1,1.32,1.23c22.38,29,45.93,57.1,67.34,86.85,5.63,7.82,12.73,11.55,22.2,11.52,18-.07,36-.08,54,.09,3.37,0,4.07-1.15,4.07-4.26q-.14-70.08,0-140.16C995.61,221.64,994.3,221,991,221Z"/><path class="cls-4" d="M730.47,221.73c-13.17-1.31-26.38-.69-39.57-.59-22.6.17-45.22-1.09-67.78.74-24.89,2-40.06,17.05-42.61,41.87-1.84,17.94-.58,35.94-.8,53.91a64.82,64.82,0,0,0,2.1,16.15C587.2,356,602.53,368.09,621.59,369c18.49.92,37,.21,55.93.71,18.62-.64,37.77.88,56.87-1,22.85-2.24,35.69-14.35,38.31-37.28,2.54-22.18,2-44.55.61-66.73C771.77,239.55,755.55,224.23,730.47,221.73Zm-6.14,94.65c-.75,7.88-4.19,11.32-12.11,11.57-11.52.35-23.07.08-34.61.08v.1c-10.22,0-20.44.2-30.66-.05-10.42-.25-14.87-4-15.71-14.43a250.48,250.48,0,0,1,0-37.56c.51-7.61,5-11.65,12.86-12.6,9.2-1.1,18.44-.53,27.67-.49,13,0,26-.64,39.06.44,9.54.79,13.19,3.93,13.75,13.42A255.6,255.6,0,0,1,724.33,316.38Z"/><path class="cls-4" d="M1358.3,221.75c-9.55-1-19.12-.74-28.68-.63-26.72.32-53.46-1.18-80.15.83-22.59,1.7-37.22,15.08-40.93,37.34-3.13,18.84-1.3,37.87-1.52,56.82a73.25,73.25,0,0,0,1.56,15.23c4.24,21.33,18.33,36.65,40.74,37.73,18.31.88,36.62.2,55.56.66,18.65-.62,38,.87,57.23-1,21.89-2.12,34.77-13.82,37.57-35.73,3-23.31,2.52-46.85.61-70.16C1398.31,238.75,1382.22,224.21,1358.3,221.75Zm-6.77,94.89c-.73,7.93-4.35,11.1-12.33,11.33-11.2.33-22.42.09-33.63.09v.11c-10.23,0-20.45.2-30.67-.06-11.32-.27-16.11-4.5-16.66-15.71-.57-11.68-.43-23.42,0-35.11.33-8.5,4.92-13.31,13.33-13.72a644.15,644.15,0,0,1,68.22.08c7.52.43,11.25,3.94,11.84,11.5A245.66,245.66,0,0,1,1351.53,316.64Z"/><path class="cls-4" d="M1155.27,277.44c-26-2.45-52.07-2.52-78.09-3.89-3.15-.16-6.3-.22-9.29-1.26-4-1.41-4.57-4.78-4.34-8.47.21-3.48,2.4-4.95,5.51-5.22,4.26-.36,8.55-.69,12.83-.69q48.27-.09,96.54,0c1.15,0,2.31,0,3.46,0,1.89.08,2.44-.47,2.2-2.6-1.75-15.93-10.79-26.79-26.3-31.15a101.92,101.92,0,0,0-22.47-3.27h-5.84a1.75,1.75,0,0,0-.15-.84c0,.29,0,.56.05.84l-63.5,0c0-.27,0-.54,0-.82a1.63,1.63,0,0,0-.13.82c-2.29,0-4.56,0-6.85,0-3.94.41-7.9.68-11.81,1.25-17.62,2.55-29.07,12.62-32.37,28.79a79.41,79.41,0,0,0-.54,29c3.08,18.53,12.69,27.7,31.32,30.28,14.09,2,28.29,2.06,42.45,2.84,15.81.88,31.64,1.55,47.46,2.25,4.46.2,6.5,2.47,6.75,6.81s-.41,7.87-5.45,9.09c-4.08,1-8.2.93-12.31.93q-52.21.11-104.45.08c-1.32,0-2.65.07-4,0-2.23-.13-2.82.89-2.59,3,1.48,13.26,7.25,23.48,20.1,28.81a66.42,66.42,0,0,0,19.16,4.56c20.59,2,41.23.81,61.84,1,13.36.12,26.74.6,40.06-1,17.23-2.09,31.4-10.84,33.61-31.53a151.92,151.92,0,0,0,.51-24.22C1187.64,292.17,1175.78,279.37,1155.27,277.44Z"/><path class="cls-4" d="M1563.72,331c-28,.23-56.09,0-84.14.22-4.46,0-5.74-1.07-5.71-5.66.2-33.16,0-66.32.21-99.48,0-4.22-1.22-5.19-5.26-5.12-13.69.25-27.39.21-41.08,0-3.55-.05-4.38,1.11-4.35,4.48.15,18.65.07,37.29.07,55.93h.11c0,18.48-.29,37,.08,55.44.34,17.33,9.84,28.63,25.74,31.48a67.23,67.23,0,0,0,11.31,1.14c34.81.12,69.63.1,104.44.23,3,0,4-.83,3.93-3.89-.17-9.73-.27-19.48,0-29.2C1569.24,332.36,1568.25,331,1563.72,331Z"/><path class="cls-4" d="M1638.41,295.55c0-23.26-.08-46.53.08-69.79,0-3.57-.73-4.85-4.59-4.78-13.69.24-27.38.2-41.08,0-3.4,0-4.52.89-4.52,4.4q.15,70,0,140.08c0,3.73,1.46,4.25,4.66,4.22,13.52-.15,27.06-.2,40.58,0,3.82.06,5-.88,5-4.87C1638.31,341.75,1638.41,318.65,1638.41,295.55Z"/><path class="cls-5" d="M787.34,649.29q8.17,27.8,16.37,55.59c.51,1.72,1.81,3.5-1.61,3.48-11.48-.06-23,0-35,0,6.54-20.08,12.91-39.62,19.29-59.16Z"/><path class="cls-5" d="M1116.52,708c6.41-19.68,12.76-39.14,19.1-58.6l1-.21c5.79,19.47,11.58,38.95,17.47,58.81Z"/></svg>