<svg id="Layer_1" data-name="Layer 1" xmlns="http://www.w3.org/2000/svg" viewBox="0 0 1920 1080"><defs><style>.cls-1{fill:#fff;}.cls-2{fill:#6a737b;}.cls-3{fill:#005294;}</style></defs><title>Consolis</title><rect class="cls-1" x="82" y="251.94" width="1756" height="190.01"/><path class="cls-2" d="M555,357.23c-35,.16-70,.1-105,.09-13.44,0-18.94-5.24-19.32-18.77-.24-8.74-.14-17.49-.12-26.23,0-16.82,2.89-19.62,20-19.63q42.82,0,85.65,0c6.11,0,12.21,0,18.32,0,1.59,0,3.21.36,3.13-2.39-.54-19.17-11.27-32-30.33-36.35-5.37-1.23-11-.89-16.22-3H429.88c-2.47,2-5.56,1.51-8.37,1.92-23.56,3.41-37.5,15.88-40.23,39.4a269,269,0,0,0,.4,67.63c2.22,16.14,10.75,28.54,26.77,34.57a90.7,90.7,0,0,0,31,5.93q35.38.44,70.79,0c10.91-.15,21.68-2,31.67-6.85,9.38-4.54,15.39-11.7,16.94-22.22a69.21,69.21,0,0,1,1.26-8.3C561.41,358.14,559.53,357.21,555,357.23Z"/><path class="cls-2" d="M1837.77,357.89h0V340.06a3.27,3.27,0,0,1-.5-1.87c-1.17-17.49-10.16-27.54-27.45-31.29-10.58-2.3-21.34-2-32-2.45-12-.52-24-1.38-36.07-1.47-6.22-.05-12.49-.75-18.76-.87a12.75,12.75,0,0,1-4.79-1.07c-2.2-.93-3.51-2.55-3.39-5s1.84-3.73,4.16-4.19a58.23,58.23,0,0,1,11.79-1.2q45.57.07,91.13,0a66.48,66.48,0,0,0,6.92-.14c4.22-.43,6.08-2.48,5.51-6.54-2-13.76-8.71-24.07-22-29.3-9.35-3.67-19.27-2.9-29-3.34h-68.86a4.93,4.93,0,0,1-.55,0c0-.18,0-.35,0-.53H1708c0,.28,0,.55-.06.83-3.93.4-7.88.69-11.8,1.22-17.21,2.35-28.93,12.16-32.39,27.59a78.56,78.56,0,0,0-.53,32c3.25,17.22,12.79,26,30.2,28.54,14.09,2,28.3,2.13,42.45,2.91,15.66.87,31.33,1.44,47,2.23,6.17.31,7.76,1.88,8.14,7.58.37,5.35-1.46,8-7.18,8.67a126.3,126.3,0,0,1-15.81.67q-50,.09-100,0c-1.16,0-2.31,0-3.47,0-1.87-.08-2.57.54-2.37,2.62,1.29,13.31,6.87,23.6,19.71,29.06a54.56,54.56,0,0,0,18.16,4.53,835.1,835.1,0,0,0,103.38,0c16.1-1.05,30.24-9.78,33.24-29,.15-.92,0-2.05,1.16-2.49v-4h0Z"/><path class="cls-2" d="M991,251.89c-13.2.16-26.42.23-39.62,0-4.12-.08-5.26,1.07-5.23,5.21.18,27.9.1,55.81.07,83.71,0,1.75.44,3.57-.73,6-7.33-9.46-14.29-18.47-21.27-27.46Q902.4,291.1,880.5,263A26.09,26.09,0,0,0,861,252.7c-20.46-1.51-40.94-.31-61.4-.8-3.75-.08-3.3,2.18-3.3,4.5,0,46.56.05,93.13-.09,139.69,0,3.9,1.3,4.59,4.81,4.54,13-.19,26.1-.28,39.13,0,4.62.11,6.09-.87,6-5.83-.27-29.56-.14-59.12-.11-88.67,0-1.68-.45-3.49.59-5.25a12.06,12.06,0,0,1,1.31,1.22c22.39,29,45.94,57.12,67.36,86.87,5.63,7.82,12.73,11.56,22.2,11.53,18-.07,36-.08,54,.09,3.37,0,4.07-1.15,4.06-4.26q-.12-70.1,0-140.19C995.62,252.52,994.31,251.85,991,251.89Z"/><path class="cls-2" d="M730.41,252.62c-13.16-1.32-26.38-.7-39.57-.6-22.61.17-45.23-1.09-67.8.74-24.9,2-40.07,17.06-42.61,41.88-1.85,17.95-.59,35.95-.81,53.92a64.84,64.84,0,0,0,2.1,16.16c5.39,22.17,20.73,34.29,39.79,35.23,18.49.92,37,.21,55.94.71,18.63-.64,37.79.88,56.89-1,22.85-2.24,35.69-14.35,38.32-37.29,2.54-22.18,2-44.56.61-66.74C771.72,270.44,755.5,255.11,730.41,252.62Zm-6.13,94.66c-.75,7.89-4.2,11.33-12.12,11.58-11.52.35-23.07.08-34.62.08v.1c-10.22,0-20.45.2-30.66-.05-10.43-.25-14.88-4-15.72-14.43a252,252,0,0,1,0-37.57c.52-7.61,5.05-11.65,12.87-12.6,9.2-1.11,18.44-.54,27.68-.5,13,.05,26-.63,39.06.44,9.55.79,13.2,3.94,13.76,13.43A256.85,256.85,0,0,1,724.28,347.28Z"/><path class="cls-2" d="M1358.39,252.63c-9.55-1-19.12-.74-28.68-.63-26.73.32-53.48-1.17-80.17.83-22.59,1.7-37.23,15.08-40.94,37.35-3.13,18.85-1.3,37.88-1.52,56.83a74,74,0,0,0,1.55,15.24c4.25,21.33,18.34,36.66,40.75,37.74,18.32.87,36.64.2,55.58.66,18.65-.62,38,.87,57.25-1,21.89-2.13,34.77-13.82,37.57-35.74,3-23.31,2.52-46.86.61-70.17C1398.41,269.64,1382.32,255.1,1358.39,252.63Zm-6.77,94.91c-.73,7.94-4.35,11.11-12.33,11.34-11.2.33-22.42.09-33.64.09v.11c-10.23,0-20.46.2-30.68-.06-11.32-.27-16.11-4.5-16.66-15.71-.57-11.69-.43-23.43,0-35.12.33-8.51,4.92-13.32,13.34-13.73a644.34,644.34,0,0,1,68.23.09c7.52.42,11.25,3.93,11.84,11.49A244.73,244.73,0,0,1,1351.62,347.54Z"/><path class="cls-2" d="M1155.31,308.34c-26-2.45-52.07-2.52-78.11-3.89-3.14-.17-6.3-.22-9.28-1.27-4-1.41-4.57-4.77-4.34-8.47.2-3.47,2.4-4.95,5.5-5.21,4.27-.37,8.56-.69,12.83-.7q48.3-.09,96.57,0c1.15,0,2.31,0,3.47,0,1.88.07,2.43-.48,2.2-2.61-1.76-15.93-10.8-26.8-26.31-31.15a102.11,102.11,0,0,0-22.48-3.28h-5.84a1.75,1.75,0,0,0-.15-.84c0,.29,0,.57.05.84h-63.51c0-.27,0-.55,0-.83a1.77,1.77,0,0,0-.12.83l-6.86,0c-3.94.4-7.9.67-11.81,1.24-17.62,2.56-29.08,12.63-32.38,28.8a79.25,79.25,0,0,0-.53,29.05c3.08,18.54,12.69,27.7,31.32,30.28,14.09,1.95,28.29,2.06,42.46,2.85,15.81.88,31.65,1.55,47.47,2.24,4.46.2,6.5,2.48,6.75,6.82s-.4,7.87-5.45,9.09c-4.08,1-8.2.93-12.31.93q-52.23.1-104.48.08c-1.32,0-2.65.07-4,0-2.23-.13-2.82.89-2.58,3,1.48,13.27,7.24,23.49,20.1,28.82a66.07,66.07,0,0,0,19.16,4.55c20.6,2.05,41.24.82,61.86,1,13.36.12,26.74.6,40.07-1,17.23-2.09,31.41-10.85,33.61-31.54a150.78,150.78,0,0,0,.52-24.22C1187.69,323.07,1175.83,310.27,1155.31,308.34Z"/><path class="cls-2" d="M1563.87,361.93c-28.06.23-56.11,0-84.17.22-4.46,0-5.74-1.07-5.71-5.66.21-33.17,0-66.34.21-99.51,0-4.22-1.22-5.19-5.26-5.12-13.69.25-27.39.22-41.09,0-3.55-.06-4.38,1.1-4.35,4.48.15,18.64.07,37.29.07,55.94h.1c0,18.48-.28,37,.09,55.45.34,17.34,9.84,28.63,25.75,31.48a66.22,66.22,0,0,0,11.31,1.15c34.82.12,69.64.1,104.46.23,3,0,4-.83,3.94-3.9-.18-9.73-.28-19.47,0-29.2C1569.38,363.27,1568.39,361.9,1563.87,361.93Z"/><path class="cls-2" d="M1638.57,326.45c0-23.27-.08-46.54.08-69.81,0-3.56-.73-4.85-4.59-4.78-13.69.25-27.39.2-41.09,0-3.4,0-4.53.89-4.52,4.39q.15,70.07,0,140.12c0,3.73,1.46,4.25,4.65,4.22,13.54-.15,27.07-.2,40.6,0,3.81.06,5-.88,5-4.87C1638.47,372.66,1638.57,349.56,1638.57,326.45Z"/><path class="cls-3" d="M1837.77,443.74c-1.36-1.39-3.25-1.7-5.3-1.75-2.81-.06-5.61-.06-8.42-.06H95.84c-2.81,0-5.62,0-8.42.06-2.06.05-3.94.36-5.31,1.75q0,179.76-.08,359.51c0,2.88.55,3.77,4.46,3.76q873.45-.12,1746.91,0c3.9,0,4.46-.88,4.46-3.75Q1837.71,623.5,1837.77,443.74Z"/><path class="cls-1" d="M329.93,716.36c0,2.06-.06,3.82-.18,5.26a26,26,0,0,1-.56,3.71,10.56,10.56,0,0,1-1,2.66,12.64,12.64,0,0,1-2,2.54,25,25,0,0,1-5.26,3.65,61.53,61.53,0,0,1-9.53,4.27,83.55,83.55,0,0,1-12.87,3.41,85.51,85.51,0,0,1-15.66,1.36,82.34,82.34,0,0,1-29.71-5.08A58.55,58.55,0,0,1,230.67,723q-9.28-10.08-14.24-25.19t-5-35.15q0-20.42,5.45-36.26a75.5,75.5,0,0,1,15.22-26.61,63.69,63.69,0,0,1,23.46-16.34,79.21,79.21,0,0,1,30.14-5.57A72.86,72.86,0,0,1,298.62,579a80.7,80.7,0,0,1,11.45,2.91,57.91,57.91,0,0,1,9.47,4.15,29,29,0,0,1,5.88,4,14.27,14.27,0,0,1,2.29,2.79,10.52,10.52,0,0,1,1,2.84,32.57,32.57,0,0,1,.55,4.09q.19,2.36.19,5.81c0,2.48-.09,4.58-.25,6.32a16.27,16.27,0,0,1-.87,4.21,5.77,5.77,0,0,1-1.48,2.35,3,3,0,0,1-2,.74q-1.86,0-4.7-2.17a77.38,77.38,0,0,0-7.37-4.82A59.11,59.11,0,0,0,302,607.38a45.81,45.81,0,0,0-14.91-2.17,35.25,35.25,0,0,0-29.77,15,52.16,52.16,0,0,0-8,17.52,101.81,101.81,0,0,0,.18,47.59,47.1,47.1,0,0,0,8.3,17,33.58,33.58,0,0,0,13,10A43,43,0,0,0,288,715.62a48.93,48.93,0,0,0,15-2,63.58,63.58,0,0,0,10.83-4.52q4.52-2.47,7.43-4.46c1.93-1.32,3.44-2,4.51-2a3.55,3.55,0,0,1,2,.5,3.75,3.75,0,0,1,1.23,2,19.61,19.61,0,0,1,.75,4.14Q329.93,711.91,329.93,716.36Z"/><path class="cls-1" d="M458.26,727.87a49.72,49.72,0,0,1-.31,6,15.73,15.73,0,0,1-.93,3.9,4.94,4.94,0,0,1-1.55,2.17,3.4,3.4,0,0,1-2,.68H373a10.17,10.17,0,0,1-6.87-2.41c-1.86-1.61-2.78-4.23-2.78-7.86V590.73c0-3.63.92-6.25,2.78-7.86a10.13,10.13,0,0,1,6.87-2.41h80a3.35,3.35,0,0,1,2,.62,4.76,4.76,0,0,1,1.48,2.16,17,17,0,0,1,.93,4,48.83,48.83,0,0,1,.31,6.12,46.56,46.56,0,0,1-.31,5.88,15.73,15.73,0,0,1-.93,3.9,5.37,5.37,0,0,1-1.48,2.17,3.15,3.15,0,0,1-2,.68H395.75v39.11h48.4a3.4,3.4,0,0,1,2,.68,5.08,5.08,0,0,1,1.55,2.1,14.76,14.76,0,0,1,.93,3.84,56.49,56.49,0,0,1,0,11.82,14.65,14.65,0,0,1-.93,3.78,4.62,4.62,0,0,1-1.55,2,3.63,3.63,0,0,1-2,.62h-48.4v45.17h57.68a3.4,3.4,0,0,1,2,.68A5,5,0,0,1,457,718a15.73,15.73,0,0,1,.93,3.9A49.72,49.72,0,0,1,458.26,727.87Z"/><path class="cls-1" d="M590.41,692.6a49.53,49.53,0,0,1-4.7,22.15A46,46,0,0,1,573,730.66a55.7,55.7,0,0,1-18.82,9.59,80.15,80.15,0,0,1-23,3.22,81.88,81.88,0,0,1-15.41-1.37,86.51,86.51,0,0,1-12.56-3.28,54,54,0,0,1-9.1-4,26.65,26.65,0,0,1-5.26-3.71,9.34,9.34,0,0,1-2.29-4.64,42.7,42.7,0,0,1-.68-8.73c0-2.55.08-4.7.25-6.43a18.26,18.26,0,0,1,.81-4.21,4.59,4.59,0,0,1,1.48-2.29,3.53,3.53,0,0,1,2.17-.68q1.73,0,4.89,2a85.78,85.78,0,0,0,8.1,4.52,73.19,73.19,0,0,0,11.82,4.51,55.65,55.65,0,0,0,15.91,2.05,36.68,36.68,0,0,0,10.64-1.43,23.57,23.57,0,0,0,8-4,17.05,17.05,0,0,0,5-6.44,20.56,20.56,0,0,0,1.73-8.54,15,15,0,0,0-3-9.34,29.38,29.38,0,0,0-7.74-6.93,80.22,80.22,0,0,0-10.83-5.7q-6.06-2.66-12.5-5.63a113.29,113.29,0,0,1-12.5-6.74,50.84,50.84,0,0,1-10.83-9A42.35,42.35,0,0,1,491.52,641a44.89,44.89,0,0,1-3-17.2,45.5,45.5,0,0,1,4.27-20.24,41.49,41.49,0,0,1,11.51-14.48,48.9,48.9,0,0,1,17.08-8.6,76.72,76.72,0,0,1,32.24-2,78.25,78.25,0,0,1,10.64,2.35,59.31,59.31,0,0,1,8.79,3.34,20.56,20.56,0,0,1,5.08,3.1,8.9,8.9,0,0,1,1.67,2.1,10.1,10.1,0,0,1,.74,2.29,24.36,24.36,0,0,1,.43,3.59c.08,1.44.13,3.24.13,5.38,0,2.4-.07,4.42-.19,6.07a22.07,22.07,0,0,1-.62,4.08,4.77,4.77,0,0,1-1.24,2.35,3,3,0,0,1-2.16.75q-1.36,0-4.33-1.74t-7.31-3.77a69.48,69.48,0,0,0-10-3.71,44.1,44.1,0,0,0-12.5-1.67,29.77,29.77,0,0,0-9.29,1.3,19.08,19.08,0,0,0-6.62,3.59,14.22,14.22,0,0,0-4,5.5,18.17,18.17,0,0,0-1.3,6.81,15,15,0,0,0,2.91,9.22,27.89,27.89,0,0,0,7.8,6.93,83.42,83.42,0,0,0,11.08,5.7q6.18,2.65,12.62,5.63a125.93,125.93,0,0,1,12.63,6.74,50.87,50.87,0,0,1,11,9,42,42,0,0,1,7.8,12.38A43.32,43.32,0,0,1,590.41,692.6Z"/><path class="cls-1" d="M791.41,736.41a4.82,4.82,0,0,1-.49,2.29,4,4,0,0,1-2.35,1.55,23.36,23.36,0,0,1-5.45.86q-3.58.25-9.78.25c-3.46,0-6.23-.08-8.29-.25a18.41,18.41,0,0,1-4.89-.92,5.31,5.31,0,0,1-2.54-1.74,9.46,9.46,0,0,1-1.23-2.53L742,700.15q-2.6-6.07-5.08-10.77a34.19,34.19,0,0,0-5.5-7.86,20.24,20.24,0,0,0-7-4.77,24.24,24.24,0,0,0-9.16-1.61H705.15v61a3.42,3.42,0,0,1-.81,2.23,5.63,5.63,0,0,1-2.66,1.61,26.44,26.44,0,0,1-4.95,1A84.31,84.31,0,0,1,681,741a26.21,26.21,0,0,1-5-1,5.17,5.17,0,0,1-2.6-1.61,3.59,3.59,0,0,1-.75-2.23V590.73q0-5.44,2.79-7.86a10.09,10.09,0,0,1,6.87-2.41h41.46c4.21,0,7.67.08,10.4.25s5.2.37,7.42.62a67,67,0,0,1,17.39,4.7A41.84,41.84,0,0,1,772,594.75a36.2,36.2,0,0,1,8.23,12.75,46.59,46.59,0,0,1,2.85,16.9,49.73,49.73,0,0,1-2,14.67,37.51,37.51,0,0,1-6,11.81,39.78,39.78,0,0,1-9.78,9,53,53,0,0,1-13.25,6.19,36.83,36.83,0,0,1,6.75,4.21,35.93,35.93,0,0,1,5.94,6,56.87,56.87,0,0,1,5.26,8,103.55,103.55,0,0,1,4.83,10.21l13.49,31.56q1.86,4.7,2.47,6.87A13,13,0,0,1,791.41,736.41ZM749.46,627.74a23.8,23.8,0,0,0-3.59-13.37q-3.6-5.45-11.76-7.67a46.16,46.16,0,0,0-5.63-1,78.72,78.72,0,0,0-8.73-.37h-14.6v45.42h16.58a39.87,39.87,0,0,0,12.13-1.67,24.12,24.12,0,0,0,8.66-4.7,19.22,19.22,0,0,0,5.2-7.24A24.42,24.42,0,0,0,749.46,627.74Z"/><path class="cls-1" d="M956.9,658.68q0,19.94-5,35.65A71.91,71.91,0,0,1,937.22,721,63.48,63.48,0,0,1,913,737.71q-14.41,5.76-33.36,5.76-18.69,0-32.61-4.89a56.53,56.53,0,0,1-23.21-14.92q-9.29-10-13.92-25.49t-4.64-36.64a115,115,0,0,1,5-35A71.4,71.4,0,0,1,825,600.14a64.26,64.26,0,0,1,24.19-16.71q14.42-5.82,33.48-5.82,18.2,0,32.12,4.83A56.57,56.57,0,0,1,938,597.29q9.35,10,14.11,25.31T956.9,658.68Zm-34.17,1.74a122.39,122.39,0,0,0-2-23,49.48,49.48,0,0,0-6.74-17.7,32.22,32.22,0,0,0-12.69-11.39q-7.92-4-19.8-4t-20,4.52a36.82,36.82,0,0,0-13,12.06,49.94,49.94,0,0,0-7,17.64,107.58,107.58,0,0,0-2,21.35,127.38,127.38,0,0,0,2,23.58,50.68,50.68,0,0,0,6.68,17.88,30.73,30.73,0,0,0,12.63,11.33q7.9,3.9,19.92,3.9t20.05-4.46a35.87,35.87,0,0,0,13-12.13,51.12,51.12,0,0,0,7-17.88A110.79,110.79,0,0,0,922.73,660.42Z"/><path class="cls-1" d="M1159,736.16a3.86,3.86,0,0,1-.68,2.23,4.77,4.77,0,0,1-2.47,1.61,24.84,24.84,0,0,1-4.77,1,62.42,62.42,0,0,1-7.55.37,61.17,61.17,0,0,1-7.43-.37,23.34,23.34,0,0,1-4.7-1,5.17,5.17,0,0,1-2.48-1.61,3.65,3.65,0,0,1-.74-2.23V605.83h-.24L1081.5,736a6,6,0,0,1-1.61,2.66,7.81,7.81,0,0,1-3,1.67,20.84,20.84,0,0,1-4.89.81q-3,.18-7.18.18a69.76,69.76,0,0,1-7.18-.31,21,21,0,0,1-4.89-1,9,9,0,0,1-3-1.67,4.72,4.72,0,0,1-1.48-2.35L1003.4,605.83h-.25V736.16a3.86,3.86,0,0,1-.68,2.23,4.8,4.8,0,0,1-2.53,1.61,26.26,26.26,0,0,1-4.77,1,75.29,75.29,0,0,1-14.91,0,24.84,24.84,0,0,1-4.77-1,4.73,4.73,0,0,1-2.47-1.61,3.8,3.8,0,0,1-.69-2.23V593.46q0-6.32,3.35-9.66a12,12,0,0,1,8.91-3.34h21.29a44.55,44.55,0,0,1,9.77.93,19,19,0,0,1,7.06,3.09,17.54,17.54,0,0,1,5,5.7,40.87,40.87,0,0,1,3.47,8.72l34.65,95.43h.5l35.89-95.18a50.23,50.23,0,0,1,3.53-8.79,20.63,20.63,0,0,1,4.45-5.82,14.82,14.82,0,0,1,6-3.15,31.17,31.17,0,0,1,8-.93h21.91a17,17,0,0,1,5.75.87,9.83,9.83,0,0,1,4,2.53,11.2,11.2,0,0,1,2.35,4.09,17.56,17.56,0,0,1,.8,5.51Z"/><path class="cls-1" d="M1325.08,728.49a43.56,43.56,0,0,1,1.86,7,4.24,4.24,0,0,1-1,3.9q-1.37,1.3-4.83,1.61t-9.53.31q-6.31,0-9.84-.18a24.69,24.69,0,0,1-5.38-.75,4.87,4.87,0,0,1-2.6-1.54,8.4,8.4,0,0,1-1.24-2.6l-10.77-32.18h-60.15l-10.15,31.31a9.79,9.79,0,0,1-1.3,2.91,5.37,5.37,0,0,1-2.6,1.86,18.9,18.9,0,0,1-5.07.92q-3.29.25-8.6.25A82,82,0,0,1,1185,741c-2.14-.25-3.63-.84-4.45-1.79a4.82,4.82,0,0,1-.87-4,40.75,40.75,0,0,1,1.86-6.93l49.38-142.09a12.38,12.38,0,0,1,1.74-3.4,6.09,6.09,0,0,1,3.15-2,25.41,25.41,0,0,1,6-.87c2.55-.12,5.94-.18,10.14-.18q7.3,0,11.64.18a31.4,31.4,0,0,1,6.74.87,6.39,6.39,0,0,1,3.47,2,12,12,0,0,1,1.79,3.71ZM1251.56,611h-.12l-22.65,68.07h45.42Z"/><path class="cls-1" d="M1479.55,729.23a12.41,12.41,0,0,1-1,5.08,10.78,10.78,0,0,1-2.66,3.71,10.47,10.47,0,0,1-4,2.17,16.41,16.41,0,0,1-4.65.68h-13.86a28.44,28.44,0,0,1-7.49-.87,14.88,14.88,0,0,1-5.81-3.16,27.48,27.48,0,0,1-5.14-6.18q-2.48-3.9-5.57-10.09l-39.85-74.88q-3.46-6.69-7.06-14.42t-6.43-15h-.25q.5,8.91.74,17.76t.25,18.26V736a3.86,3.86,0,0,1-.68,2.23,5.11,5.11,0,0,1-2.35,1.67,19.14,19.14,0,0,1-4.52,1,58,58,0,0,1-7.3.37,56.67,56.67,0,0,1-7.18-.37,18,18,0,0,1-4.46-1,4.69,4.69,0,0,1-2.23-1.67,4.13,4.13,0,0,1-.61-2.23V592.09q0-5.8,3.4-8.72a12.4,12.4,0,0,1,8.35-2.91h17.46a33.62,33.62,0,0,1,7.92.8,16.56,16.56,0,0,1,5.75,2.66,20.93,20.93,0,0,1,4.77,5.14,67.23,67.23,0,0,1,4.58,8.11l31.19,58.54q2.71,5.32,5.38,10.46t5.14,10.27q2.47,5.14,4.82,10.09t4.58,9.9h.13q-.37-8.65-.56-18.07t-.19-17.94V585.29a3.59,3.59,0,0,1,.75-2.23,5.88,5.88,0,0,1,2.47-1.73,16.3,16.3,0,0,1,4.58-1.06,71.76,71.76,0,0,1,7.3-.31,68.85,68.85,0,0,1,7.06.31,13.85,13.85,0,0,1,4.39,1.06,5,5,0,0,1,2.17,1.73,4.13,4.13,0,0,1,.62,2.23Z"/><path class="cls-1" d="M1547.13,736.16a3.42,3.42,0,0,1-.81,2.23,5.58,5.58,0,0,1-2.66,1.61,26.44,26.44,0,0,1-5,1,84.31,84.31,0,0,1-15.78,0,26.54,26.54,0,0,1-5-1,5.58,5.58,0,0,1-2.66-1.61,3.42,3.42,0,0,1-.81-2.23V584.92a3.42,3.42,0,0,1,.81-2.23,5.61,5.61,0,0,1,2.72-1.61,27.94,27.94,0,0,1,5-1,66.9,66.9,0,0,1,7.8-.37,68.21,68.21,0,0,1,7.92.37,26.44,26.44,0,0,1,5,1,5.58,5.58,0,0,1,2.66,1.61,3.42,3.42,0,0,1,.81,2.23Z"/><path class="cls-1" d="M1713.23,728.49a42.32,42.32,0,0,1,1.85,7,4.24,4.24,0,0,1-1,3.9q-1.35,1.3-4.82,1.61t-9.53.31q-6.32,0-9.84-.18a24.8,24.8,0,0,1-5.39-.75,5,5,0,0,1-2.6-1.54,8.39,8.39,0,0,1-1.23-2.6l-10.77-32.18h-60.15l-10.15,31.31a10.05,10.05,0,0,1-1.3,2.91,5.42,5.42,0,0,1-2.6,1.86,19,19,0,0,1-5.08.92q-3.27.25-8.6.25a81.65,81.65,0,0,1-8.91-.37c-2.15-.25-3.63-.84-4.46-1.79a4.86,4.86,0,0,1-.86-4,39.63,39.63,0,0,1,1.85-6.93L1619,586.15a12.38,12.38,0,0,1,1.73-3.4,6.08,6.08,0,0,1,3.16-2,25.31,25.31,0,0,1,6-.87q3.84-.18,10.15-.18c4.87,0,8.74.06,11.63.18a31.6,31.6,0,0,1,6.75.87,6.36,6.36,0,0,1,3.46,2,12,12,0,0,1,1.8,3.71ZM1639.71,611h-.13l-22.65,68.07h45.43Z"/></svg>