<svg id="Layer_1" data-name="Layer 1" xmlns="http://www.w3.org/2000/svg" viewBox="0 0 1920 1080"><defs><style>.cls-1{fill:#fedc00;}.cls-1,.cls-2{isolation:isolate;}.cls-3{fill:#c3272d;}</style></defs><title>FANUC</title><polygon class="cls-1" points="83 62.14 83 1017.86 1653.12 1017.86 1837 833.99 1837 62.14 83 62.14"/><g class="cls-2"><polygon class="cls-3" points="357.17 446.41 357.17 642.4 416.62 642.4 416.62 559.82 531.13 559.82 531.13 516.88 415.52 516.88 415.52 486.05 553.16 486.05 553.16 446.41 357.17 446.41"/><path class="cls-3" d="M675.92,445.86l-57.8.55L529.48,641.85h57.26l17.62-37.44h82.58l17.61,37.44H764Zm-55,122.22,26.43-61.66,26.42,61.66Z"/><polygon class="cls-3" points="782.18 445.31 782.18 641.85 841.09 641.85 841.09 517.43 944.59 641.85 1009.55 641.85 1009.55 444.76 952.29 444.76 952.29 581.29 841.09 444.76 782.18 445.31"/><path class="cls-3" d="M1047.53,446.41V576.34s0,73.77,112.31,73.77c114,0,114.51-62.76,114.51-62.76V446.41h-57.8v125s1.1,41.84-55,41.84c-54.36,0-57.26-37.44-57.26-37.44V445.86Z"/><path class="cls-3" d="M1493.47,521.28h67.16s-7.71-83.68-132.13-83.68S1305.18,532.29,1305.18,540s-7.7,110.11,127.73,110.11,128.27-90.84,128.27-90.84H1494s2.2,55.05-60.56,55.05-61.66-60.56-61.66-74.87,7.71-68.27,58.36-68.27S1493.47,506.42,1493.47,521.28Z"/></g></svg>