<svg id="Layer_1" data-name="Layer 1" xmlns="http://www.w3.org/2000/svg" xmlns:xlink="http://www.w3.org/1999/xlink" viewBox="0 0 1920 1080"><defs><style>.cls-1{fill:url(#linear-gradient);}.cls-2{fill:#fff;}.cls-3{fill:none;}</style><linearGradient id="linear-gradient" x1="62" y1="540" x2="1858" y2="540" gradientUnits="userSpaceOnUse"><stop offset="0" stop-color="#2a2e7c"/><stop offset="1" stop-color="#0c1236"/></linearGradient></defs><title>Fastenal</title><rect class="cls-1" x="62" y="284.21" width="1796" height="511.59" rx="120.56"/><path class="cls-2" d="M1693.74,631.44l42.09-146.57h-58L1630,651.44l-1.08-166.57h-69.86L1464.1,648l46.84-163.14h-55l-23.71,102.28h-1l-15.86-102.28h-59.85l-42.1,146.57h-82.79L1241.92,592h72.48l10.47-36.49H1252.4l9.76-34.11H1337l10.47-36.49h-275.7l-4.69,16.35c-8.47-12.8-26.71-20.54-54.94-20.54-45,0-78.07,17.55-87.93,51.9-4.61,16.07-1.56,27.25,6.34,36.51,8.22,9.27,21.35,16.32,37.05,23.88,13.35,6.81,29,12.65,24.6,28-2.65,9.24-11.25,18.25-24.9,18.25C949,639.22,947,630,950,619.45l3.71-13-53.75.1-3.75,13-.87-134.72H825.51l-40.06,68.8L796.25,516H700l12.4-43.19H817l14-48.93H649.3l-70,244h77.15L686,565h92.88L718.93,667.93h58.33l17-35.33h45.47l-1.9,35.33h58.68l-.14-17.75c7.29,12.88,26.12,21.94,60.26,21.94,48.15,0,80.14-19.49,90.2-54.57,6.36-22.15,1.94-34.33-8.93-43.58s-27.83-15.57-46.67-25.81c-10.14-5.85-16.17-11.44-11.4-22.4,3.63-8,12-12.9,23.8-12.17,19,1,14.18,15.58,11.73,26.29h53.41a57.51,57.51,0,0,0,3.74-18.52h34.2l-42.08,146.57h58l42.06-146.57h39.42L1162.1,667.93h196l24-102,.8-.49L1399,667.93h111.8l17.07-35.33h45.45l-1.91,35.33h182.71l10.46-36.49ZM843.43,600.37H809.81l40.44-82.3h.66Zm733.59,0h-33.59l40.41-82.3h.64Z"/><path class="cls-3" d="M1693.74,631.44l42.09-146.57h-58L1630,651.44l-1.08-166.57h-69.86L1464.1,648l46.84-163.14h-55l-23.71,102.28h-1l-15.86-102.28h-59.85l-42.1,146.57h-82.79L1241.92,592h72.48l10.47-36.49H1252.4l9.76-34.11H1337l10.47-36.49h-275.7l-4.69,16.35c-8.47-12.8-26.71-20.54-54.94-20.54-45,0-78.07,17.55-87.93,51.9-4.61,16.07-1.56,27.25,6.34,36.51,8.22,9.27,21.35,16.32,37.05,23.88,13.35,6.81,29,12.65,24.6,28-2.65,9.24-11.25,18.25-24.9,18.25C949,639.22,947,630,950,619.45l3.71-13-53.75.1-3.75,13-.87-134.72H825.51l-40.06,68.8L796.25,516H700l12.4-43.19H817l14-48.93H649.3l-70,244h77.15L686,565h92.88L718.93,667.93h58.33l17-35.33h45.47l-1.9,35.33h58.68l-.14-17.75c7.29,12.88,26.12,21.94,60.26,21.94,48.15,0,80.14-19.49,90.2-54.57,6.36-22.15,1.94-34.33-8.93-43.58s-27.83-15.57-46.67-25.81c-10.14-5.85-16.17-11.44-11.4-22.4,3.63-8,12-12.9,23.8-12.17,19,1,14.18,15.58,11.73,26.29h53.41a57.51,57.51,0,0,0,3.74-18.52h34.2l-42.08,146.57h58l42.06-146.57h39.42L1162.1,667.93h196l24-102,.8-.49L1399,667.93h111.8l17.07-35.33h45.45l-1.91,35.33h182.71l10.46-36.49ZM843.43,600.37H809.81l40.44-82.3h.66Zm733.59,0h-33.59l40.41-82.3h.64Z"/><path class="cls-2" d="M1768.85,501.24a12.62,12.62,0,1,1,25.23,0c0,7.45-5.54,12.93-12.55,12.93A12.56,12.56,0,0,1,1768.85,501.24Zm12.68,15.49a15.46,15.46,0,1,0-15.75-15.49A15.42,15.42,0,0,0,1781.53,516.73Zm-3.27-14.27h3.13l4.7,7.74h3l-5.08-7.86c2.61-.34,4.64-1.72,4.64-4.92,0-3.55-2.1-5.1-6.34-5.1h-6.8V510.2h2.71Zm0-2.3v-5.55H1782c1.9,0,3.91.41,3.91,2.64,0,2.75-2.07,2.91-4.35,2.91Z"/><path class="cls-3" d="M1768.85,501.24a12.62,12.62,0,1,1,25.23,0c0,7.45-5.54,12.93-12.55,12.93A12.56,12.56,0,0,1,1768.85,501.24Zm12.68,15.49a15.46,15.46,0,1,0-15.75-15.49A15.42,15.42,0,0,0,1781.53,516.73Zm-3.27-14.27h3.13l4.7,7.74h3l-5.08-7.86c2.61-.34,4.64-1.72,4.64-4.92,0-3.55-2.1-5.1-6.34-5.1h-6.8V510.2h2.71Zm0-2.3v-5.55H1782c1.9,0,3.91.41,3.91,2.64,0,2.75-2.07,2.91-4.35,2.91Z"/><path class="cls-2" d="M523.1,535.38H456.48a68.19,68.19,0,0,1,.8,10.56,67.2,67.2,0,0,1-.8,10.49h66.64l6.07-10.49Z"/><path class="cls-3" d="M523.1,535.38H456.48a68.19,68.19,0,0,1,.8,10.56,67.2,67.2,0,0,1-.8,10.49h66.64l6.07-10.49Z"/><polygon class="cls-2" points="845.71 407.88 889.88 407.88 887.84 419.36 857.29 419.36 854.7 434.07 882.75 434.07 880.71 445.55 852.75 445.55 849.69 462.86 881.73 462.86 879.69 474.34 833.68 474.34 845.71 407.88"/><polygon class="cls-3" points="845.71 407.88 889.88 407.88 887.84 419.36 857.29 419.36 854.7 434.07 882.75 434.07 880.71 445.55 852.75 445.55 849.69 462.86 881.73 462.86 879.69 474.34 833.68 474.34 845.71 407.88"/><path class="cls-2" d="M933.75,474.35h-12l2-8.89c-4.18,6.3-9.82,10.18-17.5,10.18-7,0-14.16-4-14.16-13.33A42.49,42.49,0,0,1,893,453l5.16-27.87h13.06l-5.18,27.5a33.74,33.74,0,0,0-.75,5.83c0,5,3.71,6.29,6,6.29,7.85,0,12.21-5.83,13.69-14.52l4.53-25.1h13Z"/><path class="cls-3" d="M933.75,474.35h-12l2-8.89c-4.18,6.3-9.82,10.18-17.5,10.18-7,0-14.16-4-14.16-13.33A42.49,42.49,0,0,1,893,453l5.16-27.87h13.06l-5.18,27.5a33.74,33.74,0,0,0-.75,5.83c0,5,3.71,6.29,6,6.29,7.85,0,12.21-5.83,13.69-14.52l4.53-25.1h13Z"/><path class="cls-2" d="M982.36,423.8l-2,13.52a15.23,15.23,0,0,0-4.17-.75c-5.36,0-10.08,2.13-12.87,15.46l-3.88,22.32H946.35l8.89-49.26h11.92l-2.4,10c5.65-9,8.88-11.39,16-11.39Z"/><path class="cls-3" d="M982.36,423.8l-2,13.52a15.23,15.23,0,0,0-4.17-.75c-5.36,0-10.08,2.13-12.87,15.46l-3.88,22.32H946.35l8.89-49.26h11.92l-2.4,10c5.65-9,8.88-11.39,16-11.39Z"/><path class="cls-2" d="M1012,423.61c12.86,0,22.7,7.41,22.7,23.05,0,10.37-6.77,29.16-28.54,29.16-12.4,0-22.69-7.95-22.69-23C983.45,442.4,990.22,423.61,1012,423.61Zm-4.92,41.85c7.69,0,14.28-7.32,14.28-19,0-8.24-4.36-12.5-10.27-12.5-7.68,0-14.29,7.31-14.29,19C996.78,461.2,1001.15,465.46,1007.06,465.46Z"/><path class="cls-3" d="M1012,423.61c12.86,0,22.7,7.41,22.7,23.05,0,10.37-6.77,29.16-28.54,29.16-12.4,0-22.69-7.95-22.69-23C983.45,442.4,990.22,423.61,1012,423.61Zm-4.92,41.85c7.69,0,14.28-7.32,14.28-19,0-8.24-4.36-12.5-10.27-12.5-7.68,0-14.29,7.31-14.29,19C996.78,461.2,1001.15,465.46,1007.06,465.46Z"/><path class="cls-2" d="M1048.28,425.1h11.66l-2.14,9.35.17.19c3.63-7.23,8.64-11,16.6-11,5.92,0,16.65,4.06,16.65,20.74,0,10.92-5.28,31.48-23.8,31.48a13.1,13.1,0,0,1-13.32-10.56h-.19L1048.72,494h-12.84Zm16.86,39.8c9.72,0,13.31-11.85,13.31-20.54,0-6.3-4-10.37-9.08-10.37-12.12,0-13.32,16.57-13.32,19.71C1056.05,461.75,1060.14,464.9,1065.14,464.9Z"/><path class="cls-3" d="M1048.28,425.1h11.66l-2.14,9.35.17.19c3.63-7.23,8.64-11,16.6-11,5.92,0,16.65,4.06,16.65,20.74,0,10.92-5.28,31.48-23.8,31.48a13.1,13.1,0,0,1-13.32-10.56h-.19L1048.72,494h-12.84Zm16.86,39.8c9.72,0,13.31-11.85,13.31-20.54,0-6.3-4-10.37-9.08-10.37-12.12,0-13.32,16.57-13.32,19.71C1056.05,461.75,1060.14,464.9,1065.14,464.9Z"/><path class="cls-2" d="M1109.08,454.24a16.86,16.86,0,0,0-.16,2.69c0,4.18,2.75,8.53,9.24,8.53a9.94,9.94,0,0,0,8.8-5.1h14.34c-2.49,7.79-10.37,15.46-23.77,15.46s-21.38-9.06-21.38-23.88c0-12.49,8-28.33,25.9-28.33,11.2,0,21.28,6.76,21.28,23.05a34.49,34.49,0,0,1-.72,7.58Zm21.48-9.06v-1.85c0-4.54-2.59-9.35-9.44-9.35s-10.16,5.74-11.11,11.2Z"/><path class="cls-3" d="M1109.08,454.24a16.86,16.86,0,0,0-.16,2.69c0,4.18,2.75,8.53,9.24,8.53a9.94,9.94,0,0,0,8.8-5.1h14.34c-2.49,7.79-10.37,15.46-23.77,15.46s-21.38-9.06-21.38-23.88c0-12.49,8-28.33,25.9-28.33,11.2,0,21.28,6.76,21.28,23.05a34.49,34.49,0,0,1-.72,7.58Zm21.48-9.06v-1.85c0-4.54-2.59-9.35-9.44-9.35s-10.16,5.74-11.11,11.2Z"/><path class="cls-2" d="M452,572.53a69.17,69.17,0,0,1-13.8,21.07h63.52l12.15-21.07Z"/><path class="cls-3" d="M452,572.53a69.17,69.17,0,0,1-13.8,21.07h63.52l12.15-21.07Z"/><path class="cls-2" d="M501.63,498.2H438.1a69.22,69.22,0,0,1,13.84,21.07h61.85Z"/><path class="cls-3" d="M501.63,498.2H438.1a69.22,69.22,0,0,1,13.84,21.07h61.85Z"/><path class="cls-2" d="M320.12,535.37H253.51L250,541.48H196.07l-1.22,2.11H124.12l-1.3,2.25v.06l1.27,2.23h70.76l1.29,2.21H250l3.51,6.09H320.1a70,70,0,0,1-.8-10.51A68.16,68.16,0,0,1,320.12,535.37Z"/><path class="cls-3" d="M320.12,535.37H253.51L250,541.48H196.07l-1.22,2.11H124.12l-1.3,2.25v.06l1.27,2.23h70.76l1.29,2.21H250l3.51,6.09H320.1a70,70,0,0,1-.8-10.51A68.16,68.16,0,0,1,320.12,535.37Z"/><path class="cls-2" d="M275,498.2l-7,12.19H214l-2.52,4.36H140.76l-2.6,4.52h186.5A68.85,68.85,0,0,1,338.5,498.2Z"/><path class="cls-3" d="M275,498.2l-7,12.19H214l-2.52,4.36H140.76l-2.6,4.52h186.5A68.85,68.85,0,0,1,338.5,498.2Z"/><path class="cls-2" d="M480.18,461H296.41l-7,12.18h-53.9L233,477.59H162.22l-2.6,4.51H362.09a68.95,68.95,0,0,1,52.39,0h77.85Z"/><path class="cls-3" d="M480.18,461H296.41l-7,12.18h-53.9L233,477.59H162.22l-2.6,4.51H362.09a68.95,68.95,0,0,1,52.39,0h77.85Z"/><polygon class="cls-2" points="458.75 423.92 317.85 423.92 311.06 435.68 257.15 435.68 254.4 440.45 183.66 440.45 181.04 444.96 470.87 444.96 458.75 423.92"/><polygon class="cls-3" points="458.75 423.92 317.85 423.92 311.06 435.68 257.15 435.68 254.4 440.45 183.66 440.45 181.04 444.96 470.87 444.96 458.75 423.92"/><path class="cls-2" d="M338.46,593.6a69.11,69.11,0,0,1-13.82-21.06H138.2l2.6,4.49h70.74l2.52,4.37h53.82l7.06,12.2Z"/><path class="cls-3" d="M338.46,593.6a69.11,69.11,0,0,1-13.82-21.06H138.2l2.6,4.49h70.74l2.52,4.37h53.82l7.06,12.2Z"/><path class="cls-2" d="M414.61,609.71a69.16,69.16,0,0,1-52.62,0H159.65l2.61,4.5H233l2.52,4.36h53.83l7,12.19H480.2l12.16-21Z"/><path class="cls-3" d="M414.61,609.71a69.16,69.16,0,0,1-52.62,0H159.65l2.61,4.5H233l2.52,4.36h53.83l7,12.19H480.2l12.16-21Z"/><polygon class="cls-2" points="181.1 646.87 183.71 651.38 254.5 651.38 257.26 656.14 311.03 656.14 317.84 667.95 458.75 667.95 470.9 646.87 181.1 646.87"/><polygon class="cls-3" points="181.1 646.87 183.71 651.38 254.5 651.38 257.26 656.14 311.03 656.14 317.84 667.95 458.75 667.95 470.9 646.87 181.1 646.87"/></svg>