<svg id="Layer_1" data-name="Layer 1" xmlns="http://www.w3.org/2000/svg" viewBox="0 0 1920 1080"><defs><style>.cls-1{fill:#8c8e8e;}.cls-2{fill:#ed2724;}.cls-3{fill:#010101;}</style></defs><title>Holcim</title><path class="cls-1" d="M1575.41,726.81c37.9-57.58,120.47-55.88,138.66-.26,4.77-5.72,9-11.48,13.9-16.5,24.19-24.55,53.5-31.08,86.16-22.58,24.81,6.46,39.75,26.79,43,54.94,1.77,15.39,1.67,30.77,1.67,46.18,0,39.44-.28,78.88.2,118.3.12,9.73-3,12.88-12.56,12.32a317.55,317.55,0,0,0-36,0c-9.47.53-12.61-2.56-12.5-12.32.47-45.43.22-90.87.2-136.31,0-13.5.18-27.79-14.87-34-15.87-6.54-29.38.38-40.83,11.24-18.4,17.46-23.54,40.3-23.89,64.42-.47,31.71-.39,63.44,0,95.15.12,8.69-2,12.39-11.36,11.83a317.72,317.72,0,0,0-36,0c-9.11.49-11.79-2.91-11.71-11.82.37-42.44.19-84.87.14-127.31,0-6.42-.06-12.87-.6-19.26-1.95-22.85-19.44-33.35-40.16-23.14-26,12.79-35.53,36.7-36.81,63.4-1.59,33.36-.58,66.85-.66,100.28,0,17.69,0,17.69-18.32,17.69-10.72,0-21.44-.27-32.15.09-6.78.23-8.83-2.5-8.81-9.06q.24-104.16,0-208.32c0-6.9,2.58-8.89,9.07-8.71,12.42.35,24.88.51,37.28,0,8.13-.37,10.94,2.69,9.78,10.45C1577.33,710.09,1576.64,716.78,1575.41,726.81Z"/><path class="cls-1" d="M761.29,762.75c0,47.13-.51,94.26.33,141.38.24,12.89-3.77,16.28-15.84,15.14-11-1-22.28-.69-33.39-.08-8.61.48-10.86-2.8-10.77-11.1.39-37.27-.15-74.55.39-111.81.14-9.84-2.16-13.24-12.66-13q-53.31,1-106.67,0c-10.4-.19-12.85,3.18-12.71,13,.53,36.84-.08,73.7.41,110.54.13,9.63-2.87,12.94-12.47,12.39-12.39-.71-24.86-.52-37.26-.06-8.12.3-11.28-2.2-11.26-10.88q.39-145.89,0-291.77c0-7.75,2.14-10.66,10.15-10.31,13.26.56,26.58.6,39.83,0,8.7-.4,11,3.11,10.92,11.23-.31,33.85.24,67.7-.35,101.54-.18,10.13,2.77,13.15,12.95,13,35.55-.59,71.12-.53,106.67,0,9.38.14,12.62-2.11,12.44-12-.61-33.84.13-67.7-.45-101.54-.17-9.68,2.62-12.86,12.27-12.19a250.86,250.86,0,0,0,34.68,0c9.91-.68,13.15,2.18,13,12.64C761,666.77,761.29,714.76,761.29,762.75Z"/><path class="cls-1" d="M1008.35,715.65c-30.3-32.71-69.49-37.55-110.16-28.21-82.93,19.11-120.32,136.48-65.34,202.15q1.65,2,3.44,3.82c28.94,30.09,65.92,33.86,103.6,27.46,59-10,94.45-57.92,94.41-122.7C1034.22,768,1029.71,738.65,1008.35,715.65ZM959.07,853.44c-20.66,28.45-65.39,25-79.49-7.06-11.44-26-12.05-53.37-1.84-80,8.77-22.91,27.83-33.82,51.57-31.81,21.56,1.84,34.85,15,40.75,39.68,2.21,9.31,2.38,18.62,2.46,28C972.89,820.6,970.1,838.19,959.07,853.44Z"/><path class="cls-1" d="M1292,922.52c-36.26-.29-68.67-8.47-89.14-42.39-24.62-40.8-24.19-140.23,32.43-176.07,35-22.14,72.55-22.19,111.3-14.68,6.29,1.22,6.72,5.36,6,10.51-1.61,11.86-3.49,23.7-4.47,35.62-.61,7.32-3.56,6.85-9.13,5.09a169.56,169.56,0,0,0-22.49-5c-31.6-5.35-56.82,11.87-64,43.08a128.55,128.55,0,0,0-2.33,39.57c3.26,38.93,29.21,58.6,68.17,51.83a177.08,177.08,0,0,0,23.59-5.85c5.66-1.81,7.8-.56,8.16,5.37.71,11.52,1.64,23,2.87,34.51.68,6.32-1.76,9.2-7.81,10.9C1327.8,919.92,1310.2,922.94,1292,922.52Z"/><path class="cls-1" d="M1141.19,751.36c0,51.43-.29,102.85.23,154.27.11,10.86-3.32,14.36-13.89,13.6a231.27,231.27,0,0,0-33.4,0c-10.61.77-13.86-2.8-13.81-13.63.41-88.27.23-176.55.23-264.83,0-16.28.41-32.58-.16-48.85-.3-8.63,3-11.29,11.19-11a337.35,337.35,0,0,0,36-.07c10.61-.72,14,2.81,13.86,13.63C1140.91,646.8,1141.19,699.08,1141.19,751.36Z"/><path class="cls-1" d="M1458.67,806.52c0,33.37-.29,66.75.19,100.12.13,9.12-1.71,13.3-11.89,12.61-12.78-.86-25.66-.38-38.49-.13-6,.11-9.46-.92-9.43-8.3q.33-104.61,0-209.24c0-7,2.77-8.7,9.11-8.54,13.26.33,26.55.55,39.79-.07,8.42-.39,11,2.41,10.89,10.85C1458.42,738.05,1458.67,772.28,1458.67,806.52Z"/><path class="cls-2" d="M147.06,423.09a206.28,206.28,0,0,0-7.71,49.32C133.41,612.74,238,726.62,378.19,733.12c6.91.32,9.19-1.28,9-8.15-.35-13.69-.6-27.43.08-41.1.44-8.7-1.95-11.12-11.11-11.71-103-6.64-180.32-93.06-175.18-195.11Q175.34,448.76,147.06,423.09Z"/><path class="cls-3" d="M185.1,339.36c-20.29-20.16-40.8-40.12-60.74-60.63-5.53-5.68-8.61-6.63-14.5-.29C96.49,292.85,82.93,307.24,68.05,320c-10.29,8.84-8.46,14.22,0,22.67,26.52,26.62,54.29,52,79,80.4q28.22,25.73,53.93,54c8.78,8.62,17.94,16.88,26.2,26,5.22,5.73,8.4,6.2,14,.24q21.93-23.25,45.22-45.19c6.33-5.95,7-9.3.35-15.79-19.23-18.69-37.6-38.26-56.31-57.48A629.3,629.3,0,0,1,185.1,339.36Z"/><path class="cls-2" d="M538.05,288.32c-63.52-49.11-135.46-62.45-213.45-44.24,17.88,19.2,36.23,37.93,55.71,55.51h0c12.87-2.17,25.68-.77,38.25,1.69,87.79,17.16,148.09,85.18,154.23,174.49.57,8.28,2.89,9.8,10.31,9.53,14.55-.54,29.13-.31,43.7-.09,5.66.08,8.19-.84,7.84-7.78C630.65,399.91,599.53,335.85,538.05,288.32Z"/><path class="cls-3" d="M324.6,244.08c-27.89-27.7-56-55.25-83.54-83.26-5.52-5.6-8.47-5.94-14-.08-15.29,16.13-31.1,31.77-47.14,47.15-4.9,4.71-4.5,7.27.11,11.87,20.88,20.8,41.37,42,62,63.07a604.63,604.63,0,0,1,45,44.9h0c19.34,19.42,38.87,38.66,57.89,58.38,4.93,5.11,7.61,5.62,12.7.17q23.24-24.88,47.57-48.73c5.64-5.49,4.32-8.52-.62-13.17-8.4-7.91-16.16-16.49-24.19-24.79h0C360.83,282,342.48,263.28,324.6,244.08Z"/><path class="cls-2" d="M242,282.83c-21.87,15.92-40.16,35.45-56.9,56.53a629.3,629.3,0,0,0,45.37,45.43C244.51,361,264,342.63,287,327.73h0A604.63,604.63,0,0,0,242,282.83Z"/><path class="cls-1" d="M1466,623.7c0,20.22-16.34,36-37.16,36-20.16,0-37.19-16.88-37-36.63.19-19.05,17-35,37-35.06C1450.32,587.93,1466.06,603.06,1466,623.7Z"/></svg>