<svg id="Layer_1" data-name="Layer 1" xmlns="http://www.w3.org/2000/svg" viewBox="0 0 1920 1080"><defs><style>.cls-1{fill:#a7aaab;}.cls-2{fill:#33706d;}</style></defs><title>Power Design</title><path class="cls-1" d="M327.39,349.13l6.72,6.72,9.09,9.06h0l4.95,5c2.07,2.72,4.23,5.34,7.3,7a11.1,11.1,0,0,0,5.28,5.28c2.2,3.72,5.47,6.41,8.78,9.07h0l6.74,6.69,7.31,7.35h0l6.71,6.7,7.34,7.33h0l6.69,6.7h0l7.35,7.34h0l6.68,6.7h0l7.36,7.36h0q2.46,2.48,4.94,4.93,4.53,4.58,9.08,9.12h0l4.94,4.92,5.61,5.54h0l11.86,12,17.66,17.63h0l16,16c1.19,1.54,2,3.56,5.06,3.46,0-24.67.48-49.34-.26-74-.26-8.81-.48-18.09-4.56-26.45h0a89,89,0,0,0-21-40.46,71,71,0,0,0-15.66-15.82h0A98.16,98.16,0,0,0,406,339.78c-27.22-3.65-54.63-1.21-81.95-1.38-2.1-.17-4.28-.83-6.85,1.14l10.16,9.58Z"/><path class="cls-2" d="M1195.93,494c3.86-5.78,6.29-17.68,18.92-11.54,3.14,1.53,5.62-2.75,7.19-5.22,1.83-2.86,0-5.54-2.76-7.31-3.54-2.31-5-5.17-3.18-9.41,1.41-3.2,2.42-6.57,3.61-9.85h0c5.31-8,6-17.83,10.26-26.22,4-4.63,2.21-9.73.77-14.53s-4.09-4-6.68-.65h0l-3,.48c-.19-1.94.07-4-1.79-5.43-2.13-2.55-4.64-1.35-7.1-.73h0c-4.36,1.51-8.61,3.67-13.09,4.42-14.42,2.41-26,9.71-36.12,19.78h0a11.13,11.13,0,0,0-5.31,5.14h0l-5.45,3.9c-.47-2.28,2.59-4.93-.75-6.93-2.17-1.3-3,.47-4.19,1.64l-7.47,6h0l-10.56,7.57c-3.66.55-6.32,2.77-8.81,5.28h0l-4.61-1.36h0c.69-8.6,5.43-16,7-24.38a3.65,3.65,0,0,0,.21-.7c1.88-5.66,6.57-11.35-.42-16.91h0l-3.27-2.2h0c-9.82-5.54-12.89,3.61-18,8.27h0c-16.86,5.57-26.59,21.9-43.86,29.88,4.19-13.57,3.75-25.39-1.18-36.94a14.11,14.11,0,0,0-3.62-8.92h0c-7.76-6.93-11.41-6.38-14,3.18-1.68,6.13-6.07,10.18-8.95,15.34h0c-8.18,5.15-16.26,10.42-23.26,17.16h0l-8.32,5.74h0c-12.1,8.25-24.32,16.27-39.18,18.74h-2.63c-5.84-4-5.86-7.69.21-11.72,5.88-3.92,11.44-8.33,17.14-12.52q6.29-4.29,12.56-8.59c.46-.58.93-1.16,1.39-1.75h0c5.75-2.08,10.89-4.92,13.58-10.84,1.36-2.72,2.63-5.42-1.38-7.11h0a.65.65,0,0,0-1.1-.11h0c-5.26-5.66-11.5-5.75-18.21-3.23h0c-8.34-.17-14.8,3.93-20.92,9-10.56,8.74-14.44,21.72-21,33-.9,1.53-1.24,4.79-.3,5.77,4.42,4.6,5.35,11.58,10.76,15.39h0c.16,2.36,2,1.67,3.32,1.78,3,2.71,6.11,2,9.21.13h0c7.35,4.35,12.67-2.15,19-3.53h0c9.24-4.36,18.39-9.13,26-15.89,10.27-9.16,22-16.83,30.35-28h0c2-1.09,3.55-2.5,3.43-5,2.79-.6,4.66.33,5.38,3.2-.93,2,.7,3.43,1.21,5.11-3.08,3.09-2,6.9-1.85,10.55h0c-2.89.7-2.43,3.38-3.46,5.31-6.11,11.55-8.5,18.46-18.39,15.44-7.88-2.41-14.85-.4-16.91,6.91-1.46,5.16,3.78,10.12,9.44,12.48,3.42,1.09,6.85,1.56,10.31.14h0c10.53-4.12,20.18-9.95,29.93-15.57l3.46-2h0l21.47-17.14h0l3.3-3.33h0c3-2.2,6.85-3.36,8.87-6.86h0l14.08-7.42h0l.64.09.64-.1h0c1.33,2.61-1.3,4.58-1.13,7h0l-2.55,6.33h0c-3,7.6-7.36,15-3.22,23.6h0l.24,5h0a1.53,1.53,0,0,0,1.22,2c1.68,2.81,3.88,4.43,7.32,3.23,2.1.52,3.93.22,5.24-1.7h0c2.68-.62,5.45-1,7.37-3.35a12,12,0,0,0,7.52-5.13h0a7.9,7.9,0,0,0,4.89-3.61h0l3.32-3.24h0c.5-.07,1-.13,1.52-.17h0c.11,4,.93,6.94,5.67,3.49,1.77,1,1.58,3,2.11,4.58,3.09,9.3,7.66,11.07,16.48,6.71a32.62,32.62,0,0,0,9.09-6.51h0c2.86.92,3.5-2,5.27-3h0l10.82-6.61,5-4.28c6.92-3.14,10.63-11.46,19.24-11.88-.65,1.63-3,2.67-1.75,5-.54,1.2-1.09,2.4-1.63,3.59a7.62,7.62,0,0,0-.48,1.28h0l-5.36,14.24h0a16.34,16.34,0,0,1-12.22,10.56h0c-1.88,1.65-4.16,2-6.53,2.07h0c-12.81,3.3-23.59,9.78-31.83,20.27a79.65,79.65,0,0,0-18.84,32.3,2.91,2.91,0,0,1,.58,1.28h0c-.19-.43-.38-.85-.58-1.28-.6,4.64-1.85,9.28-.07,13.93h0c2.29,5.79,4.51,11.72,12.29,5.73h0C1167.52,530.1,1182.93,513.47,1195.93,494Zm-231-74.32,5.77-4a29.75,29.75,0,0,1,13.92-5.32c4.22-.61,2.15,1.72,1.1,3.32a7,7,0,0,0-1.73.87,18,18,0,0,0-3.29,3.34c-.25.29-.49.57-.75.84l-13.84,10.59h0a1.64,1.64,0,0,0-1.43.53l-4-.35-1.12-.1Q962.21,424.51,964.9,419.67Zm180.87,34.54Zm48.57-16.46a6.37,6.37,0,0,0-1.63.32,4.84,4.84,0,0,0-.66.28l-4.75,4.47h0l.15.43c-.24,0-.48,0-.71,0l-11.56,8.46,0,0,0,.1c-5.29.06-9.56,3-14.58,5.45-1.76-8.86,9-10.14,9.57-17.07a14.27,14.27,0,0,0,3.36-.85c4.23-1.64,7.34-5,10.65-8.11,2.39.13,4.31-.55,5.42-2.69a5.24,5.24,0,0,0,.25-.53h0l15.41-7.16,1.76,0,1.78,0h1.45a14.65,14.65,0,0,1-1,1.78C1205.23,428.61,1197.93,431.44,1194.34,437.75Zm-36.17,82.87a11.35,11.35,0,0,0-3.83,2.33c-3.12,2.69-6.73,4.76-11.07,4.49-.39,0-.78-.06-1.18-.12-1-11.65,5-20.24,12.61-28,1.58-1.59,3.55-2.8,4.74-4.69a6.41,6.41,0,0,0,.78-1.74c9-5.86,18.47-10.54,29.1-12.59a2.62,2.62,0,0,1,0,2.27c-.55,1.29-1.88,2.34-2,3.76a2.28,2.28,0,0,0,0,.58c-7.62,12-17.13,22.49-26.33,33.22A8.65,8.65,0,0,0,1158.17,520.62Z"/><path class="cls-2" d="M1448,536.48c-20.15.32-40.32.42-60.47,0-6.77-.15-8.83,1.45-8.77,8.55.3,36.81,0,73.62-.09,110.43h0c-1.9,4.05-3.08,8.53-6.84,11.48-3.93,1.67-8.09.64-12.12,1-4.8-6.74-5.6-14.4-5.58-22.4.1-33.82-.06-67.64.14-101.47,0-5.3-.72-7.75-7-7.64-21,.39-42,.12-63,.19-1.81,0-4.19-1.1-5.24,1.64h0l-.45,115.3c-1.92,5.31-3.26,11-8.69,14.11l-8.19.19h0c-9-5.3-7.83-14.35-7.89-22.59q-.3-50.4,0-100.78c0-5.73-.9-8.23-7.53-8.08-20.43.47-40.89.13-61.34.25-2,0-4.76-1.49-6.11,1.59h0q-1.11,59.65,0,119.32h0c-.38,5.53-.73,11.07,1.37,16.39h0l.57,4.62h0c1.69,12.34,5.66,23.73,13.77,33.42h0a10.26,10.26,0,0,0,4.69,5.46,19.08,19.08,0,0,0,7.33,7.1s0,0,0,0a14.47,14.47,0,0,0,9.13,6.56c2.15,1.48,3.59,4.35,6.92,3.57l1.51.88c14.75,7.29,30.12,8.21,45.95,4.56h0l.06,0c7.71-1.33,15.11-3.4,21.12-8.81,10.63-2.71,16.87-11.86,25.57-17.39a30.24,30.24,0,0,0,9.12,8.65h0c18.94,16.61,40.62,23,65.48,17.57l.73.12.66-.35h0c19.88-3.48,34.45-14.87,46-30.83a10,10,0,0,0,3.83-5.69h0a62.68,62.68,0,0,0,11.42-36c.47-41.31.09-82.63,0-124C1455.4,538.25,1453.65,536.39,1448,536.48ZM1185.8,548.77Zm165.08,100.92,0,.13-.13,0Zm34.59,89.44-.21-.06.31,0ZM1442.05,540Zm-82.39,127.93h0Z"/><path class="cls-2" d="M500.71,556.24c0-2,.85-4.12-1-5.79-.88-2.49-3.74-2.33-5.27-3.93h0l-2-3.08h0c-1.71-4-5.15-6.44-8.43-9-3.05-3.58-5.41-8-10.62-9l-9-10.1c-1.75-4-5.13-6.48-8.45-9-3.11-3.89-6.12-7.88-10.75-10.18h0l-7.11-7.08c-2.31-4.64-6.26-7.73-10.21-10.81-3.14-3.88-6.09-7.95-10.77-10.2h0l-3.66-3.57h0c-3.28-6-8.59-10-13.62-14.29a32.74,32.74,0,0,0-8.89-8.9h0c-1-1-2.25-3.07-2.83-2.89-2.12.68-1.3,2.9-1.3,4.51q-.07,63.56,0,127.1c0,1.9-.65,4.25,2.09,5.11,6.71,4.36,11.06,10.56,13.87,18q.06,4.86.14,9.74h0c-3,8.35-7.14,15.81-15.83,19.56l-13.45,1.65h0l-12.52-5.4-5.73-6.6-2.94-5.86-.57-3.05h0c-1.12-12.41,3.72-21.79,14.32-28.26h0c3.83-9.36,1.22-19,1.16-28.55,0-.27-1.93-.52-3-.79l-144-.31c-1.43,0-2.94-.14-3.41,1.76-.58,20.47-.94,40.94.25,61.4,1.29,28.59,11,53.81,29.92,75.42a5.63,5.63,0,0,0,3.11,3.69h0l3.29,3.61,1.73,1.75c3,3.69,5.76,7.7,10.87,8.8.66,4.36,5.23,4.31,7.62,6.73h0c5.38,5.07,11.29,9.22,18.68,10.83,10.39,8,22.77,10.09,35.25,11.91l3.06.38h0c2.92,1.59,6,1.69,9.24,1.29h0c2.31.21,4.62.61,6.94.61q74.66.14,149.31.17a16.72,16.72,0,0,0,3.36-.69h0c2.45-1.74,1.22-4.31,1.22-6.44Q500.83,641.34,500.71,556.24Zm-167.36,174h0l.08,0Zm-25.14-12.93v.05l-.05-.05ZM473.78,526.14a2.39,2.39,0,0,1-.4-.69Zm-99.16,99-2.28-.15a2.82,2.82,0,0,0,.41-.23C373.37,624.82,374,625,374.62,625.1Zm-22.81-22a2.68,2.68,0,0,1-.74-.61Z"/><path class="cls-2" d="M925.17,465.3a9.62,9.62,0,0,0-.71-5c-.1-1.53-.2-3.05-.29-4.58h0a40.08,40.08,0,0,0-3.24-16.05h0c.16-2.52-.13-4.92-1.83-6.95.26-2.53-.93-4.63-2.05-6.75h0c-1.58-6.57-5.1-12.22-8.42-18l-1.87-3.21h0a37.57,37.57,0,0,0-8.58-12.73h0l-1.36-1.6h0c-1.07-1.89-1.84-4.05-4.16-4.89a26,26,0,0,0-8.48-9.07,13.05,13.05,0,0,0-5.36-5.08c-3.48-6-10.22-8-15.42-11.63-11.28-7.84-23.21-15.27-37.8-15.62-3-4.83-8-1.11-11.79-2.71h0c-4.2-3.14-9.28-3-14-3-49.19-.16-98.37-.07-147.56-.05h-8.8c-4,2.39-1.91,6.25-1.91,9.31q-.19,187.44-.1,374.88c0,2.91.22,5.82.33,8.73,1.69,4.46,5.53,2.2,8.19,2.2,34.68,0,69.36-.27,104-.47h0c1.82-.67,1.49-2.25,1.49-3.64q0-113.46,0-226.94c0-2.51.7-5.53-3.16-6.12-18.94-16.38-16.33-40,5.27-47.68,5.21-.33,10.43-.84,15.55.73h0c12.08,5.83,18.23,15.56,17,26.61-.78,6.92-4.7,12.34-8.14,18-6.63.52-8.23,4.3-8.16,10.56.32,29.65.2,59.29.3,88.94,0,1.93-.83,4.1,1,5.73,10.47,1.71,21,1.29,31.46.32,17.16.23,33.47-3.82,49.48-9.61,2.41-.88,3.71-2.51,5-4.41,2.77,1.12,5,.26,7-1.77h0c8.29-4.33,16.84-8.35,21.39-17.31l3.31-3.38.16-.17,5.24-4.65.12-.43a1.35,1.35,0,0,1-.12.43l3.3-4.09h0a70.31,70.31,0,0,0,11.88-19.51c1.8-3.22,3.6-6.43,4-10.19a21.12,21.12,0,0,0,3.21-10.81.92.92,0,0,0,.36-1.29,5.18,5.18,0,0,0,.4-1.41A117.33,117.33,0,0,0,925.17,465.3ZM753.83,732.86a.75.75,0,0,1,.15.16Zm28.31-226.21h.05l-.07.07v-.05Zm133.41-56.17h0v-.05Zm0,0h0Z"/><path class="cls-2" d="M83.79,520.62c.48,2.85,2.76,4.07,4.88,5.43a85.26,85.26,0,0,0,13.92,14.05l3.7,3.72,13.78,13.9h0l10.68,10.61h0v0a88.49,88.49,0,0,0,14.1,14h0A49.65,49.65,0,0,0,155.42,593l3.36,3.3h0q17.57,17.91,35.15,35.81c1.33,1.35,3.74,4.69,3.29-.94h0l.36-130c0-1.47-.06-2.92-1.43-3.87l-5-3.06a82.27,82.27,0,0,1-5.93-7.44c-9.78-15.46.14-36.11,18.24-38.28,11.39-1.36,19.56,3.73,25.93,12.6A38.46,38.46,0,0,1,232.45,478h0l-8.56,16.14h0a6.85,6.85,0,0,0-5.21,2.37c-5,7.74-1.53,16.13-1.88,24.22h0c-1.38,4.31.32,5.65,4.66,5.64q72.32-.32,144.65-.41h0c3.38-1.61,1.69-4.66,1.62-6.92-.62-20.1,1.85-40.28-1.38-60.31h0l-.39-4.65h0a33,33,0,0,0-3-14.53h0c.72-4.57-3.35-7.63-3.73-11.85h0c-1-7.4-4.89-13.52-8.61-19.72h0c-5-8.26-8.54-17.7-17.61-22.84h0a40.79,40.79,0,0,0-10.52-10.44h0c-15.77-18.6-36.61-27.95-59.91-32.79l-3-.45h0c-5.72-2.44-11.89-3-17.9-3-52.11-.17-104.21-.08-156.32-.07-3.77,1.74-1.81,5.09-1.83,7.6-.17,22.12-.14,44.25-.08,66.38q.14,54.13.38,108.27Zm110.35,84.31Zm-16,6.81h.2l0,.21Z"/><path class="cls-2" d="M1836.86,600.62v0c.25-16.55.1-33.1,0-49.66,0-3.44,0-6.88,0-10.32a16.62,16.62,0,0,0,0-3.31,9.74,9.74,0,0,0-1.73-5.8c-12.24-1.65-24.49-3.32-36.76-.11h0c-13.87,1.48-26.37,6.22-36.87,15.65a17.32,17.32,0,0,0-7.47,6.61h0c-2.79,2-5.33,4.26-6.5,7.66a43.19,43.19,0,0,0-11.1,18.9,12.4,12.4,0,0,0-2.84,7.18,78.8,78.8,0,0,0-5.22,29.92q-.23,56.73-.48,113.46c0,2.55.1,4.85,3.7,3.93l70.21-.08c3.31-2.43,1.33-5.88,1.44-8.78,1.36-35.54-2.55-71.2,2.49-106.66h0l1.41-1.85a31.47,31.47,0,0,1,10.7-8.81h0l13.56.56h0l3.73,1.41a5.18,5.18,0,0,0,1.45-2.45,4.54,4.54,0,0,0,.12-.53l0-1.43a16,16,0,0,0,.1-3.32Z"/><path class="cls-2" d="M1137.18,373.4c5.89.76,6.82-4.17,7.61-10.59-.42-3-1.76-7.92-7.19-8.24-3.57-.21-8.34,1.12-8.12,7C1129.68,367.14,1130.64,372.57,1137.18,373.4Z"/><path class="cls-1" d="M264.86,731h0l-7.25-7.23c-1.77-1.93-3.48-3.93-5.33-5.78Q194.4,660,136.4,602.15c-2.8-2.79-4.56-6.91-9-7.92h0l-1.58-1.55a170,170,0,0,0-26.5-26.53h0l-1.58-1.55c-3.55-5.58-8.46-9.87-14-15.69v77h0c0,3.74-.94,7.62,1.37,11.08.19,11.19,4.2,21.27,9,31.12h0c2.64,6.39,5.45,12.68,10.42,17.71,3.71,7.16,9.44,12.53,15.53,17.59h0c18.06,18.11,40.13,27.31,65.38,29.48,25.81.15,51.62.32,77.43.36.67,0,5.27,1.91,2-2.22Z"/><path class="cls-2" d="M1696.27,620.82c.27-2.63.44-5.25-1.25-7.56l-.38-3h0c-.54-7.65-3.41-14.6-6.48-21.48-6.71-15-17.56-26.72-29.87-37.25l-3.73-2.81h0a30.65,30.65,0,0,0-12.17-7.53c-2.91-3.14-6.74-3.27-10.61-3.26-1.5-4.52-5.8-3.49-9-4.56l-3.06-.54h0c-24.22-6.82-47.58-3.33-70.48,5.87h0c-6.42,2.56-12.49,5.73-17.64,10.44h0c-5.43,2.52-8.93,7.08-12.37,11.7-4.52,2.55-8.27,5.86-10.48,10.68h0c-5.08,4.44-7.81,10.65-10.55,16.39-21.56,45.2-11.74,102.74,36.66,134.74a40.67,40.67,0,0,0,13.77,7.18h0l5.92,2.68h0c7.93,2.82,15.74,6.2,24.46,5.6a84.76,84.76,0,0,0,28.07,0c3.75,1,6.93-1.29,10.41-1.8h0c13.43-2.22,25.17-8.35,36.27-15.86,3.27-2.21,6.18-5.26,2.59-9.14-5.84-6.31-9.85-14.33-17.53-18.92,0-3.68-2.33-5.56-5.32-6.92h0l-1.76-1.75c-.89-5.68-5.83-8.27-9.21-12-2.69-1.83-2.17-11.4-8.84-3.68h0l-1.91,1.65h0c-18.84,10.72-35.43,5.06-43.45-15-5.76-14.38-4.67-29.05-1.34-43.75l7-12.25h0c3.61-3.86,8.09-6.52,12.65-9.07l2.85-.59,14,.09c10.53,3.73,16.7,10.86,17.37,22.28-10.51,0-21-.11-31.53,0-2.82,0-6.94-1.55-7.1,3.8h0a4,4,0,0,0-1.26,3.91l-.51,4.54a17.47,17.47,0,0,0,0,13.63h0c.35,4.43-1,9.64,6.51,9.61q52.43-.21,104.83,0c3.88,0,5.43-1.25,4.49-5.1A74.87,74.87,0,0,0,1696.27,620.82Z"/><path class="cls-2" d="M1145.58,625.06v0h0c-.78-27.69-13.5-49.47-33.43-67.7h0q-1.83-1.64-3.67-3.26h0c-5.18-6.13-12.06-10.07-19.07-13.42-24.32-11.64-49.42-15.51-75.53-6.2h0c-10.74-.51-19.36,4.53-27.65,10.42a4,4,0,0,0-.51.36l-1.79,1.53h0c-4.55.94-7.78,3.87-10.77,7.15h0l-5.71,5.14h0l-2.77,3.55h0c-3,.4-4.07,2.92-5.45,5.09h0c-14,14.62-20.83,32.35-22.83,52.2h0a57,57,0,0,0,0,27.94h0c.89,16.78,6.85,31.66,16.81,45h0l6.58,8.45h0c14.74,17.81,33,30,55.84,34.81h0l4.61.71h0a86.27,86.27,0,0,0,41.61,0l2.81-.48h0a22.81,22.81,0,0,0,11.13-3.06h0a26.35,26.35,0,0,0,12.39-5.32h0c27.27-13.78,45.86-34.82,54.07-64.57h0c1.85-2.07,1.63-4.62,1.66-7.12h0c2.13-3.79,2-7.91,1.73-12.05h0A34.6,34.6,0,0,0,1145.58,625.06Zm-160.7-75.48h0a13.45,13.45,0,0,1-1-2.78A3.52,3.52,0,0,1,984.88,549.58Zm78.31,104.07c-2.2,2.68-4.91,5-7.38,7.41a41.1,41.1,0,0,1-24.15,3.11h0s0,0,0,.06c-15.5-8.12-22.26-20.74-19.67-38.19,4.42-8.8,8.83-17.51,19.45-20.5,13.41-3.78,26.43.8,33.8,12.11A30.84,30.84,0,0,1,1063.19,653.65Z"/><path class="cls-2" d="M1240.41,439.11c1.93,1.81,3.53.16,4.95-1.23h0l16.37-11.73,2.89.06c-1.28,3.24-3.47,6.16-3.51,9.84-3.28,1.35-5,4.37-7.21,6.83h0c-1.54,1.61-2.92,3.3-3.23,5.62-1.65.55-2.06,1.8-1.88,3.37-2.62,5.88-2.36,11.48,3.17,15.32,5.27,3.66,6.31-2.8,9.25-4.74,4.39-1.2,7.66-3.62,9-8.18,3.55,1.23,5.65-.4,7-3.52h0c3.25-4.23,8.83-6,11.53-10.8h0l.84-1.67a2.71,2.71,0,0,0,1.49-.44h0c3.92-1,5.92-4.54,8.85-6.86a.37.37,0,0,0,.25-.12l13.37-6.54c3.45,2.83,1.26,7,2.44,10.34h0c-.56,5.46-1.65,11,1.27,16.16-2.25,3.57-.5,6.36,1.75,9.06,6.6,11,14.62,11.4,26.83,1.28h0l1.51-1.8h0c3.27-2.4,7-4.38,9.73-7.29,6-6.34,15.32-11.14,12-23.62-6.19,5.77-13.1,9.11-18.76,14.67-4,4-7.58,9.23-13.56,11.09-3.52-.11-3.32-3.85-5.31-5.47h0c-.16-.59-.33-1.18-.5-1.76,3.39-5.47,2.69-11.78,3.46-17.73.94-7.19-.11-14.19-6.7-18.66s-12.09-.43-17.6,2.8h0a1.23,1.23,0,0,0-1.43.58h0c-5.94,1.45-10.13,5.49-14.26,9.62-2.49,1.62-5.79,2.24-6.87,5.59-2.37-.32-4.55,5.34-7.08.23a1.93,1.93,0,0,0,.27-1.41c3.39-2.57,1.69-5.94,1.42-9.08h0c-4.59-10.92-8.36-13.13-15.77-9.26h0c-3.78,5.7-10.21,7.79-15.52,11.41-5.43,2.27-9.79,5.47-10.41,11.94h0C1239.18,435,1238.46,437.28,1240.41,439.11Z"/></svg>