<svg id="Layer_1" data-name="Layer 1" xmlns="http://www.w3.org/2000/svg" viewBox="0 0 1920 1080"><defs><style>.cls-1{fill:#5c2e83;}</style></defs><title>Synopsys</title><path class="cls-1" d="M932.13,402.56c0-22.05-10.52-36.36-30.68-44.09a105.75,105.75,0,0,0-14.63-4.53c-27.68-6.23-55.67-6.16-83.73-3.52-14.38,1.35-28.49,4.12-41.51,10.78-16,8.17-24.39,20.84-24.22,39.28.31,34,.09,67.92.09,101.87v98.94c0,25,8.62,37.5,32.2,46.39,16.43,6.2,33.65,8.13,51,8.52,25.66.56,51.34.75,76.12-7.52,24.6-8.21,35.05-21.43,35.18-46.78C932.3,535.46,932,469,932.13,402.56ZM876.23,600.8c0,20.51-6,27.71-26.25,30.78-13.37,2-26.81,2-39.9-2-11.13-3.4-16.26-9.78-16.81-21.24-.52-10.72-.49-21.48-.5-32.23q-.06-84.3,0-168.61c0-3.17.14-6.34.4-9.5,1.06-13.05,6.07-19.68,18.76-22.83a91.51,91.51,0,0,1,45.67.17c13.6,3.56,18.52,10.94,18.6,26.74.13,24.68,0,49.36,0,74v26.4Q876.24,551.67,876.23,600.8Z"/><path class="cls-1" d="M504.73,502.86c0-48.15.1-96.31-.14-144.46,0-5.8,1.5-7.38,7.3-7.27,43.72.79,87.48-1.19,131.19,1.38,12.21.72,24.25,2.47,35.86,6.67,16.14,5.84,24.29,17.49,24.71,34.38.41,16.13.29,32.26.3,48.39,0,68.2-.08,136.4.16,204.6,0,6.23-1.66,7.75-7.69,7.54-13.68-.47-27.38-.43-41.06,0-5.7.18-7.29-1.36-7.27-7.2q.3-123.93.14-247.86c0-13.55-4.17-18.94-17.59-21.65-17.16-3.47-34.59-1.84-51.91-2-6-.06-14-2.78-17.41,1.29-3,3.47-1.07,11.17-1.07,17q-.06,126.51.15,253c0,6.67-1.8,8.13-8.09,7.88-13.19-.5-26.41-.49-39.59,0-6.31.24-8.22-1.22-8.17-7.94C504.89,598.69,504.73,550.77,504.73,502.86Z"/><path class="cls-1" d="M1142.22,392.23c-.3-15.92-8.57-27-23.73-32.76-11.55-4.39-23.58-6.14-35.78-7-37.82-2.53-75.71-.61-113.56-1.39-5.86-.12-7.21,1.58-7.18,7.26.23,47.9.12,95.8.12,143.7,0,48.38.11,96.77-.14,145.16,0,5.59,1.48,7,6.91,6.83q20.88-.59,41.78,0c5.58.15,7.38-1.17,7.34-7.13-.29-40.32,0-80.65-.34-121-.07-7,2.15-8.38,8.5-8.13,12,.48,23.95.44,35.92.07,18-.55,36.16-1.16,53.52-7s26.3-16.51,26.65-34.39Q1143.05,434.4,1142.22,392.23Zm-55.46,79.93c0,11.3-4,16.76-14.86,19.36-16.83,4-34,2-51.06,2.4-4.18.1-3-3.1-3-5.23-.07-18.07,0-36.14,0-54.21,0-17.83.14-35.66-.1-53.49-.06-4.36.92-6,5.6-5.81,15.34.63,30.78-1.1,46,2.12,13.67,2.9,17.44,7.63,17.44,21.6Q1086.78,435.53,1086.76,472.16Z"/><path class="cls-1" d="M1656.12,348.66c20,.66,38.6,1,56.5,6.73,15.16,4.83,28.48,12.43,30.33,29.92,1.46,13.77.47,27.8.66,41.72.05,3.39-2.15,3.19-4.4,3.19-15.63,0-31.27-.13-46.91.08-3.88.05-4.29-1.63-4.25-4.8q.21-15.76,0-31.52c-.14-11.31-4.69-17-15.8-19.58a70.4,70.4,0,0,0-32.66.16c-10.39,2.48-14.68,8.1-14.79,18.82-.1,10,.15,20-.07,30.05-.26,12.11,4.52,21.67,13.61,29.44,28.41,24.26,56.6,48.78,85.18,72.84,14.74,12.41,23.29,27,21.91,47-.82,11.91-.48,23.94-.07,35.9.56,16-6.8,27-20.3,34.51-17.56,9.73-36.86,12.42-56.5,13-23.45.72-46.9.68-69.71-6.12-7.77-2.32-15.09-5.61-21.34-10.93-8.39-7.15-11.83-16.52-11.92-27.26-.11-12,.16-24-.13-35.91-.11-4.55,1.4-5.85,5.86-5.78,14.9.24,29.8.21,44.7,0,4.14-.06,5.56,1.22,5.46,5.41-.24,10.75-.1,21.5-.07,32.25,0,12.76,4.49,19.25,16.51,22.56,12.21,3.36,24.62,3.7,36.78-.44,10.43-3.54,14.79-9.89,14.84-20.89,0-12.7-.32-25.42.11-38.11.36-10.8-3.29-19.74-11.15-26.76-19.65-17.58-39.51-34.91-59.32-52.32-10.81-9.5-21.69-18.94-32.51-28.44-12-10.54-19-23.11-17.77-39.78.73-9.47.29-19.05.1-28.58-.31-15.54,6.8-26.49,20.17-33.84,13.79-7.59,28.94-10,44.28-11.43C1641.48,349,1649.55,349,1656.12,348.66Z"/><path class="cls-1" d="M1307.57,430.22c-7.33,0-14.68-.32-22,.11-4.76.28-5.67-1.52-5.55-5.82.29-10.26.14-20.53.08-30.79-.08-10.83-4.73-16.8-15.28-19.26a71,71,0,0,0-33.37.16c-10,2.44-14.3,8.14-14.38,18.34-.09,10,.28,20-.1,30.05-.46,12.47,4.44,22.13,13.77,30.08,28.62,24.4,57,49.08,85.74,73.33,14.38,12.12,22.23,26.65,21.19,45.88-.64,11.94-.39,23.94,0,35.91.47,16.17-6.86,27.44-20.66,35.11-14.19,7.88-29.76,11.08-45.61,12.19-24.87,1.75-49.79,1.88-74.33-3.85a73,73,0,0,1-21.68-8.52c-11-6.76-17.19-16.47-17.45-29.46-.25-12.7.09-25.42-.14-38.12-.07-4.19,1.33-5.47,5.46-5.41,14.9.2,29.81.23,44.71,0,4.46-.07,6,1.24,5.85,5.78-.29,11-.14,22-.08,33,.06,11.66,4.22,17.54,15.39,21.08a62.28,62.28,0,0,0,36.79.33c11-3.21,15.86-10.1,15.94-21.65.07-11-.67-22,.17-33,1.21-15.67-5.21-27.14-16.73-37-21.72-18.55-43.15-37.45-64.63-56.27-8.82-7.73-17.66-15.44-26.15-23.51-9.09-8.64-13.83-19.16-13.26-32.07.48-10.73.31-21.5,0-32.25-.37-15.35,6.85-26,19.81-33.29,12.15-6.79,25.52-9.58,39.17-10.94,26.85-2.69,53.61-2.54,80,3.69a62.89,62.89,0,0,1,20.12,8.47c10,6.5,15.12,15.77,15.38,27.55s-.08,23.46.14,35.18c.07,3.81-1,5.15-4.92,5C1323.21,430,1315.38,430.22,1307.57,430.22Z"/><path class="cls-1" d="M109.91,571c7.33,0,14.67.25,22-.09,4.43-.21,5.95,1,5.8,5.66-.36,10.74-.2,21.5-.09,32.25.13,12.73,5.18,19.27,17.68,22.46A64.94,64.94,0,0,0,190,631c10.5-3.07,15.53-9.32,15.81-20.25.38-14.17.17-28.35.07-42.53-.08-12.07-7.08-20.42-15.55-27.84-21.88-19.14-43.83-38.18-65.69-57.34-8.81-7.72-17.65-15.43-26.14-23.5-9.31-8.84-13.92-19.71-13.35-32.81.42-9.76.39-19.56,0-29.32-.71-18.19,8.15-30,24-37.47,13.24-6.2,27.45-8.6,41.86-9.59,25.42-1.73,50.77-1.6,75.64,5.06,9.05,2.43,17.46,6.18,24.17,13.05,5.33,5.47,8.56,12,8.73,19.58.29,12.71.05,25.42.3,38.12.08,3.78-1.54,4.39-4.78,4.36-15.4-.12-30.8-.16-46.2,0-3.93,0-5-1.35-4.9-5.1.21-10.75.16-21.51,0-32.26-.1-9.28-3.89-14.6-12.78-17.31a63.27,63.27,0,0,0-36.82-.14c-9.65,2.84-13.32,8.15-13.41,18.39-.08,9.53.24,19.07-.08,28.59-.44,12.94,4.51,23.07,14.29,31.38,28.48,24.2,56.69,48.73,85.23,72.86,14.09,11.91,22.29,25.95,21,45.12a312.86,312.86,0,0,0,0,37.38c.85,16.55-7.2,27.29-20.83,34.84-12.38,6.85-26,9.84-39.86,11.39-25.61,2.86-51.21,2.42-76.54-2.7-12-2.43-23.59-6.35-32.59-15.47a31.32,31.32,0,0,1-9.44-22.33c-.14-13,.1-25.91-.13-38.86-.07-4,.87-5.59,5.18-5.4C94.74,571.27,102.33,571,109.91,571Z"/><path class="cls-1" d="M1563.28,351.25c-10.62,33.46-20.83,65.72-31.12,98Q1488.5,586,1445,722.87c-2.07,6.53-4.65,8.76-11.52,8.44-13.65-.62-27.35-.43-41-.06-5.66.16-5.72-1.66-4.26-6.22q30.69-95.68,61.12-191.44c18.58-58.25,37.27-116.47,55.6-174.81,1.88-6,4.49-7.86,10.65-7.68C1531.12,351.56,1546.74,351.25,1563.28,351.25Z"/><path class="cls-1" d="M488,351.25c-4.44,14.12-8.61,27.57-12.89,41Q422.21,557.92,369.46,723.67c-1.93,6.11-4.64,7.76-10.68,7.6-15.59-.42-31.2-.14-47.66-.14,5.63-17.83,11-35,16.43-52.07q51-159.76,101.89-319.58c2.08-6.59,4.77-8.66,11.57-8.41C456.34,351.65,471.71,351.25,488,351.25Z"/><path class="cls-1" d="M1420.27,586.1c-7.61-23.77-15-46.87-22.41-70q-25-78.35-49.89-156.71c-2.59-8.13-2.59-8.14,6-8.14,13.93,0,27.86.16,41.78-.1,4.12-.08,5.9,1.18,7.16,5.16q22,69.72,44.35,139.31a12.31,12.31,0,0,1,.16,7.82q-12.73,39.69-25.38,79.38A22.79,22.79,0,0,1,1420.27,586.1Z"/><path class="cls-1" d="M345.12,587.83c-5.71-17.71-11.06-34.12-16.29-50.56q-28.36-89.19-56.78-178.35c-1.73-5.4-1.44-7,4.79-6.82,14.41.45,28.84.33,43.25,0,4.53-.1,6.21,1.46,7.55,5.7q21.58,68.7,43.64,137.26c.91,2.82,1.76,5.52.79,8.55C363.21,531.21,354.4,558.8,345.12,587.83Z"/><path class="cls-1" d="M1793.15,387h7.47c3.58,0,6-.53,7.32-1.59a5.43,5.43,0,0,0,1-7.22,5.53,5.53,0,0,0-2.6-2,19.39,19.39,0,0,0-6.19-.66h-7ZM1787,408.47V370.35h13.13c4.49,0,7.73.35,9.74,1.06a9.49,9.49,0,0,1,4.81,3.69,9.82,9.82,0,0,1,1.78,5.58,10.05,10.05,0,0,1-3,7.27,11.82,11.82,0,0,1-7.94,3.48,10.22,10.22,0,0,1,3.24,2,43.09,43.09,0,0,1,5.65,7.56l4.65,7.46h-7.48l-3.4-6c-2.66-4.72-4.83-7.69-6.46-8.88a7.82,7.82,0,0,0-4.93-1.28h-3.62v16.17Zm15.58-49.19a30.26,30.26,0,0,0-14.56,3.84,27.45,27.45,0,0,0-11.07,10.95,29.46,29.46,0,0,0-.07,29.52,28,28,0,0,0,11,11,29.51,29.51,0,0,0,29.43,0,27.78,27.78,0,0,0,11-11,29.62,29.62,0,0,0-.08-29.52,27.33,27.33,0,0,0-11.07-10.95A30.28,30.28,0,0,0,1802.56,359.28Zm0-5.87A36.24,36.24,0,0,1,1820,358a32.58,32.58,0,0,1,13.25,13.1,36.23,36.23,0,0,1,4.75,17.8,35.85,35.85,0,0,1-4.69,17.63,32.78,32.78,0,0,1-13.1,13.13,35.58,35.58,0,0,1-35.31,0,33,33,0,0,1-13.14-13.13,35.51,35.51,0,0,1,.07-35.43,32.83,32.83,0,0,1,13.28-13.1A36.22,36.22,0,0,1,1802.56,353.41Z"/></svg>