<svg id="Layer_1" data-name="Layer 1" xmlns="http://www.w3.org/2000/svg" viewBox="0 0 1920 1080"><defs><style>.cls-1{fill-rule:evenodd;}</style></defs><title>Autonet</title><g id="Layer_1-2" data-name="Layer_1"><path class="cls-1" d="M1803.91,621.67c15.08,0,26.84,12.48,27,28.5s-11.13,28.71-26.22,28.71l.11,7.6c19.14-.11,36-14.67,35.68-36.31s-17.58-36.1-36.62-36.1l.1,7.6Zm.42,35.16-.11-10.09c5,0,8.53-.52,8.43-5.1s-3.54-5-8.64-5l-.1-7.08h1.56c9.57,0,15.08,3.43,15.19,12,.1,7.49-4.37,11-10.4,11.54l10.81,17.06h-8l-8.73-13.52Zm-27.16-6.45c-.2-16.13,11.13-28.71,26.74-28.71l-.1-7.6c-19,0-36,14.67-35.69,36.31s17.58,36.1,36.62,36.1l-.1-7.6C1789,678.88,1777.38,666.4,1777.17,650.38ZM1489.94,398.52l94.15-.21v-.11l278.91-.83-14.15,49.94-76.46.21-65.13,231-69.18.21,65.13-231.06-78.34.31h0l-79.38.21L1524,523.56l91-.31-12.17,43.28-91.14.1L1494,629.16l91.23-.32L1571,679.2l-160.42.2L1490,398.62Zm-244.58.41L1338.26,577l69.81-239.59,70.43-33.19L1372.59,679.72l-53.78-.21-92.9-171L1161.61,727l-74.48,48.79,106.42-376.39,51.91-.42Zm-222.21-2.08c32.66-.1,61.48,4.37,81.77,19.87,44.21,33.5,44.94,80.21,33,125.46-11.14,41.72-33.19,75.43-66.59,101.23a194.86,194.86,0,0,1-78.12,36.41L991,632.59A75.15,75.15,0,0,0,1022.63,611c14.35-15.08,29.13-32.77,41.4-69.49,15.09-43.8,12-99-49.83-99.35a80.51,80.51,0,0,0-31.83,6.13l-2.19-46.19A244,244,0,0,1,1023.15,396.85Zm-30,283a219.52,219.52,0,0,1-45.05,4.68c-47.23.1-82-12.8-103.82-38.91-10.72-13.52-17-30.06-18.42-49.62l-.21-4.47A171.28,171.28,0,0,1,832,544.79c12-45.26,34.85-80.94,68.87-106.22a195.72,195.72,0,0,1,79.17-36.41l2.18,46.19c-38.49,14.67-64.71,54.93-75,93.21-11.55,43.28-12.59,97,49.2,96.85,12.07,0,23.51-1.56,34.44-5.61L993.08,680Zm-568-278.18,69.29-.21-54.1,192.35c-8.95,34.23,11.44,42.35,40.57,44,31.94,1.77,52.23-11.86,61.8-39.53l55-197.25,63.67-.21h0l222.31-.72L869.91,450l-74.7.21L730,681.48l-69.28.21,64.5-231.26-77.92.21-43.8,155.11c-23.41,73.65-84.78,80.94-137,80.1-55.14-.93-101.22-24-97.37-74.8,0-11.54,2.18-17.16,8.11-40.26Zm-152,217.84L266.42,683l69.28-.2,36.52-280.79-104.76-.2L57,683.36l74.7-1.46,49-62.21ZM217,570.59l77.61-119L279.73,570.69l-62.62-.1Zm1586.91,59.09.1,7.07h-6.55l.1,10.09h6.56l.1,10.09-2.08-3h-4.58l.21,16.54h-7.49l-.52-40.68h14Z"/></g></svg>