<svg id="Layer_1" data-name="Layer 1" xmlns="http://www.w3.org/2000/svg" xmlns:xlink="http://www.w3.org/1999/xlink" viewBox="0 0 1920 1080"><defs><style>.cls-1{fill:none;}.cls-2{clip-path:url(#clip-path);}.cls-3{fill:#b0b3b5;}.cls-4{fill:#888a8c;}.cls-5{fill:#d6d7d9;}.cls-6{fill:#b8892d;}.cls-7{fill:#ffdc00;}.cls-8{fill:#dbb027;}.cls-9{fill:#3e454b;}</style><clipPath id="clip-path"><rect class="cls-1" x="57" y="195.03" width="1806" height="689.94"/></clipPath></defs><title>Kesz</title><g class="cls-2"><polygon class="cls-3" points="57 367.51 156.58 425.01 156.58 578.33 57 520.84 57 367.51 57 367.51"/></g><polygon class="cls-4" points="422.14 348.35 521.73 290.86 654.51 367.51 554.92 425.01 422.14 348.35 422.14 348.35"/><g class="cls-2"><polygon class="cls-5" points="355.75 884.97 355.75 769.98 488.53 693.32 488.53 808.31 355.75 884.97 355.75 884.97"/><polygon class="cls-4" points="355.75 195.03 57 367.51 156.58 425.01 455.34 252.52 355.75 195.03 355.75 195.03"/><polygon class="cls-5" points="554.92 425.01 554.92 769.98 654.51 712.49 654.51 367.51 554.92 425.01 554.92 425.01"/><polygon class="cls-3" points="57 712.49 355.75 884.97 355.75 769.98 57 597.49 57 712.49 57 712.49"/></g><polygon class="cls-6" points="488.53 463.34 355.75 386.68 222.97 463.34 222.97 463.34 355.75 540 488.53 463.34 488.53 463.34"/><polygon class="cls-7" points="355.75 540 355.75 693.32 488.53 616.66 488.53 463.34 488.53 463.34 355.75 540 355.75 540"/><polygon class="cls-8" points="222.97 463.34 222.97 616.66 355.75 693.32 355.75 540 222.97 463.34 222.97 463.34"/><polygon class="cls-9" points="1005.5 377.79 918.35 377.79 832.14 455.56 799.02 455.56 799.02 377.79 735.62 377.79 735.62 586.13 799.02 586.13 799.02 506.17 830.89 506.17 924.91 586.13 1017.05 586.13 885.86 480.87 1005.5 377.79 1005.5 377.79"/><polygon class="cls-9" points="1268.21 377.78 1135.77 377.78 1135.77 424.95 1268.21 424.95 1268.21 377.78 1268.21 377.78"/><polygon class="cls-9" points="1099.85 504.61 1258.53 504.61 1258.53 457.75 1099.85 457.75 1099.85 377.78 1037.37 377.78 1037.37 586.13 1270.4 586.13 1270.4 538.97 1099.85 538.97 1099.85 504.61 1099.85 504.61"/><path class="cls-9" d="M1517.81,459.32c-10.62-.63-38.73-1.57-44.35-1.57h-59c-20.61-.31-21.86-.62-25.61-1.56-8.75-2.18-13.43-7.81-13.43-16.24,0-11.88,5.57-15,22.48-15h165.42V376.22H1440c-44,0-70,1.88-86.52,5.94-30,7.19-40.6,23.11-40.6,60.59,0,28.43,6.86,45,21.86,52.8,13.43,6.87,29.36,9.06,67.78,9.06H1460c32.8.31,32.8.31,39.68,2.5,6.55,2.18,10.61,6.28,10.61,14.72,0,16.52-8.7,17.11-74.16,17.13H1312.91v48.73h126.5c45.29,0,76.22-1.87,91.83-5.31,30.62-6.56,41.86-23.42,41.86-61.84,0-41.86-15.61-59.35-55.29-61.22Z"/><polygon class="cls-9" points="1863 377.79 1616.86 377.79 1616.86 424.95 1770.23 424.95 1612.8 538.34 1612.8 586.13 1862.85 586.13 1862.85 538.97 1703.69 538.97 1863 425.58 1863 377.79 1863 377.79"/><path class="cls-4" d="M759.71,658v13.36h7.73a9,9,0,0,0,5.86-1.75,6,6,0,0,0,2.17-5q0-6.65-8.36-6.64ZM745.08,647.2h26.23q8.54,0,13.86,4.93a15.67,15.67,0,0,1,5.34,12q0,9.69-10.08,14.36,4.41,2,8.4,10.83t7.69,16.63h-16q-1.44-2.89-5-11c-2.39-5.43-4.42-8.92-6.12-10.46a8,8,0,0,0-5.43-2.31h-4.21V705.9H745.08V647.2Z"/><path class="cls-4" d="M836.87,694.47q8.32,0,13.4-4.94t5.09-13q0-8.07-5.09-13t-13.4-4.92q-8.36,0-13.47,4.92t-5.1,13q0,8,5.1,13t13.47,4.94Zm0-48q15,0,24.29,9t9.28,21.07q0,12.18-9.41,21.14t-24.16,8.95q-14.91,0-24.29-8.91t-9.37-21.18q0-12.06,9.31-21.09t24.35-9Z"/><polygon class="cls-4" points="920 668.97 938.86 647.2 951.57 647.2 951.57 705.9 936.95 705.9 936.95 669.26 921.1 687.66 918.9 687.66 903.04 669.26 903.04 705.9 888.42 705.9 888.42 647.2 901.12 647.2 920 668.97 920 668.97"/><path class="cls-4" d="M1009,684.05l-9.51-22.81-8.62,22.81Zm-1.23-36.85,26.06,58.7h-15.72l-4.83-11.6H987l-4.38,11.6h-15.5l23.72-58.7Z"/><polygon class="cls-4" points="1109.02 647.2 1109.02 705.9 1096.66 705.9 1064.25 668.29 1064.25 705.9 1049.64 705.9 1049.64 647.2 1063.04 647.2 1094.38 683.09 1094.38 647.2 1109.02 647.2 1109.02 647.2"/><polygon class="cls-4" points="1145.62 647.2 1145.62 705.9 1131.01 705.9 1131.01 647.2 1145.62 647.2 1145.62 647.2"/><path class="cls-4" d="M1203.27,684.05l-9.51-22.81-8.62,22.81ZM1202,647.2l26.07,58.7h-15.72l-4.84-11.6h-26.29l-4.39,11.6h-15.49l23.71-58.7Z"/></svg>