<svg id="Layer_1" data-name="Layer 1" xmlns="http://www.w3.org/2000/svg" viewBox="0 0 1920 1080"><defs><style>.cls-1{fill:#5bc0a3;}.cls-2{fill:#0f2a4c;}</style></defs><title>Nagarro</title><path class="cls-1" d="M490.06,755.73c-55.33,0-125.89-35.7-187.31-95.56-2.77,7.68-6.09,15.09-9.4,22.23-21.32,42.84-51.75,66.19-85.78,66.19s-65-23.06-86.33-64.81c-19.91-37.89-30.71-89.24-30.71-143.9,0-89.26,29.61-164.5,77.48-196.63,33.2-22.24,75-25,120.62-8,38.74,14.27,80.52,42.84,121.75,83.2a187.65,187.65,0,0,1,13.28-28.28c21.57-37.89,51.74-58.77,84.66-58.77,65.85,0,115.38,89.52,115.38,208.44,0,51.63-9.42,98.86-27.39,137a173.11,173.11,0,0,1-31.55,47A101,101,0,0,1,523,751.07a119.46,119.46,0,0,1-32.92,4.66Zm-178.73-123c77.19,80.18,160.19,108.19,203.92,93.91,22.4-7.41,42.88-28.83,57.81-60.69,16.33-34.6,24.91-78.26,24.91-126,0-50.53-9.69-97.49-27.67-132.36-16.88-32.69-38.73-50.81-62-50.81-33.47,0-62.53,33.23-78,82.39,62.25,68.11,103.2,151.3,99.6,204.59-1.38,19.22-8.29,34.32-20.2,44.2l-1.1.84c-13.28,8.78-28.78,9.34-44,1.09C425,669,393,592.33,393,519.56A300.64,300.64,0,0,1,401.8,446c-84.11-86.79-166-117.27-219.4-81.58C142,391.31,116,460.24,116,539.88c0,103,40.12,183.44,91.31,183.44,31.81,0,59.48-33,75.25-83.75-41-45.59-71.94-96.39-87.43-143.63-14.94-46.13-13.28-83.48,4.7-102.15,11.62-12.1,28.78-15.11,47-7.69C284.49,401.19,323,458,323,537.4a396.27,396.27,0,0,1-11.62,95.31ZM423.11,469.29a277.9,277.9,0,0,0-4.43,50.27c0,68.93,30.71,133.19,58.1,147.75,8.3,4.39,13.56,2.74,17.15.27,6.09-5.22,9.69-14,10.52-25.54,2.77-43.11-30.72-113.14-81.34-172.75ZM227.77,407.52a13.25,13.25,0,0,0-9.41,3.84c-8.3,8.52-12.73,33.78,1.1,76.62,12.73,39.55,37.64,81.84,70.84,121.1a350.76,350.76,0,0,0,6.64-72c.27-75.52-36.52-118.08-59.76-127.43a27.62,27.62,0,0,0-9.41-2.18Z"/><path class="cls-2" d="M783.9,608.27V472.05h34v22.24a48.18,48.18,0,0,1,21.58-18.4,73.78,73.78,0,0,1,33.2-7.13c27.94,0,44.82,9.61,50.63,29.1,2.21,7.14,3.32,17,3.32,29.93v80.74H892.09V535.76c0-11-1.39-18.67-3.88-23.07-4.15-8.23-13.56-12.36-27.66-12.36a52.74,52.74,0,0,0-24.08,5.77,42.22,42.22,0,0,0-17.71,14.83v87.34Z"/><path class="cls-2" d="M1079.13,612.65c-17.15,0-27.67-5.76-31.54-17.57-10.52,12.64-27.12,18.95-50.08,18.95-17.43,0-31-3.85-40.67-11.8a37.64,37.64,0,0,1-14.39-30.5c0-20,10.24-33,31-39,13-3.57,29.33-5.49,49-5.49a123.94,123.94,0,0,1,20.19,1.65v-4.41a22.41,22.41,0,0,0-5.54-15.91c-5-5.23-14.38-7.7-28.22-7.7-21.85,0-39.56,5.5-53.68,16.21h-1.1V486.33c16.88-10.71,37.63-16.21,62.26-16.21,19.92,0,34.85,3.85,44.82,11.26a36.44,36.44,0,0,1,12.17,15.94c2.49,6.31,3.87,14.82,3.87,25.53,0,3.29,0,9.34-.27,17.58,0,8.51-.28,14.28-.28,17.84,0,10.18.55,16.22,1.38,18.14,1.38,3.83,5.26,5.76,11.07,5.76a37,37,0,0,0,11.07-1.65v28c-5.25,3-12.18,4.12-21,4.12Zm-36.52-58.77a121.3,121.3,0,0,0-19.92-1.37,126.67,126.67,0,0,0-28.78,2.75c-10.78,2.47-16.31,7.69-16.31,15.93,0,11,9.12,16.48,27.1,16.48,16.89,0,29.61-4.95,38.19-15.11-.28-3.57-.28-9.88-.28-18.68Z"/><path class="cls-2" d="M1121.18,619.52h1.1c16.06,11.81,36.53,17.57,61.43,17.57,19.37,0,33.2-4.38,41.22-12.9,5.54-5.77,8.31-15.11,8.31-28.56V585.47c-3.88,6.32-10.52,11.8-20.2,16.2a75,75,0,0,1-32.65,6.6c-21.85,0-39.84-5.5-54-16.76s-21-27.47-21.31-48.89a77.62,77.62,0,0,1,6.92-33.5,58.11,58.11,0,0,1,18.82-22.79,93.41,93.41,0,0,1,24.61-12.09,88.44,88.44,0,0,1,26.85-3.83,84.72,84.72,0,0,1,32.09,5.76c9.68,3.84,16,8.79,19.1,14.55V474.24h33.19V594c0,19.5-3.59,34.33-10.78,45-13,18.94-37.08,28.29-72.5,28.29a169.18,169.18,0,0,1-37.08-4.12c-11.06-2.74-19.64-6.05-25.43-10.16l.26-33.51Zm111-98.87a33.4,33.4,0,0,0-16.6-15.37,59.17,59.17,0,0,0-26.56-5.5,56,56,0,0,0-34,10.45c-9.41,6.86-14.12,17.56-14.12,31.57,0,12.08,4.71,21.15,13.83,27.47a58.83,58.83,0,0,0,33.76,9.34,67.61,67.61,0,0,0,26.56-5.5,38,38,0,0,0,17.44-14.84l-.28-37.62Z"/><path class="cls-2" d="M1419.15,612.65c-17.16,0-27.66-5.76-31.53-17.57q-15.78,19-49.81,18.95c-17.43,0-31-3.85-40.68-11.8a37.66,37.66,0,0,1-14.39-30.5c0-20,10.24-33,31-39,13-3.57,29.33-5.49,49-5.49a123.79,123.79,0,0,1,20.2,1.65v-4.13a22.46,22.46,0,0,0-5.52-15.93c-5-5.21-14.4-7.68-28.22-7.68-21.87,0-39.57,5.49-53.68,16.2h-1.39v-31c16.88-10.71,37.63-16.21,62.25-16.21,19.93,0,34.87,3.85,44.83,11.26a36.44,36.44,0,0,1,12.17,15.94c2.49,6.31,3.87,14.82,3.87,25.53,0,3.29,0,9.34-.28,17.58-.26,8.51-.26,14.28-.26,17.84,0,10.18.54,16.22,1.38,18.14,1.37,3.83,5.24,5.76,11.06,5.76a36.87,36.87,0,0,0,11.07-1.65v28c-5.27,3-12.17,4.12-21,4.12Zm-36.52-58.77a121.35,121.35,0,0,0-19.93-1.37,126.5,126.5,0,0,0-28.76,2.75c-10.79,2.47-16.34,7.69-16.34,15.93,0,11,8.86,16.48,27.12,16.48,16.89,0,29.61-4.95,38.18-15.11-.27-3.57-.27-9.88-.27-18.68Z"/><path class="cls-2" d="M1455.39,610.46V474h34V497c2.5-6.87,7.75-12.9,15.78-18.4a49.54,49.54,0,0,1,29-8.23c8,0,14.4,1.37,18.82,3.83v34.34H1552a46.23,46.23,0,0,0-21-4.12,60.76,60.76,0,0,0-26.3,5.21,27.83,27.83,0,0,0-14.09,14.56v85.95l-35.16.28Z"/><path class="cls-2" d="M1807.06,593.7C1792.13,607.16,1772.75,614,1749,614s-43.16-6.59-57.82-20S1669,563.23,1669,542.08s7.46-38.45,22.68-51.63c15-13.46,34.32-20,58.1-20q36.54,0,58.11,19.76c14.39,13.18,21.58,30.48,21.58,52.19-.27,20.59-7.74,37.88-22.41,51.34Zm-24.89-81.56c-8.31-8-18.81-11.81-32.93-11.81-13.84,0-24.63,3.85-33.2,11.81a39,39,0,0,0-13,29.94A37.54,37.54,0,0,0,1716.32,572c8.85,7.69,19.63,11.26,32.92,11.26,13.56,0,24.34-3.85,32.65-11.81a41.91,41.91,0,0,0,.28-59.32Z"/><path class="cls-2" d="M1568.84,610.46V474h34V497c2.49-6.87,7.75-12.9,15.77-18.4a49.56,49.56,0,0,1,29-8.23c8,0,14.38,1.37,18.82,3.83v34.34h-1.11a46.27,46.27,0,0,0-21-4.12,60.67,60.67,0,0,0-26.28,5.21,29.6,29.6,0,0,0-14.4,14.56v85.95l-34.85.28Z"/></svg>