<svg id="Layer_1" data-name="Layer 1" xmlns="http://www.w3.org/2000/svg" viewBox="0 0 1920 1080"><defs><style>.cls-1{fill:#109ed9;}.cls-2{fill:#fff;}</style></defs><title>Târgul de Cariere</title><path class="cls-1" d="M1818,142.09H307.18C177.85,142.09,73,246.94,73,376.28V908.91a29,29,0,0,0,29,29H1612.82c129.33,0,234.18-104.85,234.18-234.19V171.09A29,29,0,0,0,1818,142.09Z"/><path class="cls-2" d="M520.77,273.38v44H468.21V460.18H418.84V317.41H366v-44Z"/><path class="cls-2" d="M502.36,460.18l73.38-186.8h53.38l73.39,186.8H651.8l-10.67-29.35H563.74l-10.68,29.35ZM622.45,217.34l32,42.7H613.11l-10.68-14.15L591.75,260H550.39l32-42.7Zm-44,173.46h48l-19.21-53.91A93.28,93.28,0,0,1,602.43,318a93.44,93.44,0,0,1-4.8,18.94Z"/><path class="cls-2" d="M720.37,460.18V273.38H799.1c37.88,0,76.58,13.62,76.58,63,0,31-15.21,47.77-35.76,56l51.51,67.78H835.65l-44.56-60.84H769.74v60.84Zm49.37-100.87h31.48c14.15,0,23.76-7.2,23.76-21.61s-9.61-21.62-23.76-21.62H769.74Z"/><path class="cls-2" d="M1000.83,269.38a150.6,150.6,0,0,1,57.9,11.74v46.7c-13.87-9.61-32.82-14.95-51.5-14.95-30.15,0-58.71,15.49-58.71,53.91,0,46.16,33.89,55,55.25,55a53.77,53.77,0,0,0,12.8-1.33v-63h46.71v94.2a163.4,163.4,0,0,1-61.92,12.54c-53.1,0-103.54-29.62-103.54-97.4C897.82,297.13,948.79,269.38,1000.83,269.38Z"/><path class="cls-2" d="M1259.67,273.38V388.94c0,56.3-42.7,75.24-84.06,75.24s-84.06-18.94-84.06-75.24V273.38h49.36V386.26c0,25.08,13.62,33.89,34.7,33.89s34.69-8.81,34.69-33.89V273.38Z"/><path class="cls-2" d="M1342.38,273.38V416.15h85.4v44H1293V273.38Z"/><path class="cls-2" d="M466.2,545.71c18.95,0,37.9,4,54.18,11.74v46.7c-11.48-9.6-28.56-15.2-45.64-15.2-29.61,0-59,16.27-59,56.83,0,36.3,29.36,51.24,58.44,51.24,19.21,0,36.83-5.87,47.5-16.28v48c-16.27,7.74-34.69,11.75-54.44,11.75-51.24,0-102.2-28-102.2-94.74C365.07,575.34,415.77,545.71,466.2,545.71Z"/><path class="cls-2" d="M537.58,736.51,611,549.71h53.37l73.4,186.8H687l-10.66-29.35H599l-10.68,29.35Zm76-69.38h48l-19.2-53.9a92.93,92.93,0,0,1-4.81-19,94.46,94.46,0,0,1-4.8,19Z"/><path class="cls-2" d="M755.6,736.51V549.71h78.72c37.89,0,76.59,13.62,76.59,63,0,31-15.21,47.77-35.76,56l51.5,67.78H870.88l-44.56-60.83H805v60.83ZM805,635.64h31.49c14.15,0,23.76-7.2,23.76-21.61s-9.61-21.61-23.76-21.61H805Z"/><path class="cls-2" d="M994.68,549.71v186.8H945.32V549.71Z"/><path class="cls-2" d="M1164.4,549.71v42.71h-85.12V621h77.12V663.4h-77.12v30.42H1166v42.69h-136.1V549.71Z"/><path class="cls-2" d="M1194.55,736.51V549.71h78.72c37.89,0,76.59,13.62,76.59,63,0,31-15.21,47.77-35.76,56l51.5,67.78h-55.77l-44.56-60.83h-21.36v60.83Zm49.36-100.87h31.49c14.15,0,23.76-7.2,23.76-21.61s-9.61-21.61-23.76-21.61h-31.49Z"/><path class="cls-2" d="M1518.77,549.71v42.71h-85.13V621h77.13V663.4h-77.13v30.42h86.73v42.69H1384.28V549.71Z"/><path class="cls-2" d="M1431.5,273.47c33,0,48.29,19.27,48.29,46.18s-15.31,46.18-48.29,46.18h-36.81V273.47Zm0,21.11h-12.41v50.14h12.41c14.64,0,23.22-7.79,23.22-25.07S1446.14,294.58,1431.5,294.58Z"/><path class="cls-2" d="M1559.36,273.47v21.11h-42.1v14.11h38.14v21h-38.14v15h42.89v21.11h-67.29V273.47Z"/><path class="cls-2" d="M405.42,811.28v51.38h-4.33V839H367.77v23.71h-4.33V811.28h4.33v23.49h33.32V811.28Z"/><path class="cls-2" d="M425.35,862.66l22.91-51.38h4.91L476,862.66h-4.7l-6.08-13.79h-29l-6.17,13.79Zm12.56-17.91h25.54l-12.11-27.38c-.22-.58-.44-1.1-.66-1.62-.22.52-.44,1-.66,1.62Z"/><path class="cls-2" d="M500.34,811.28v51.38H496V811.28Z"/><path class="cls-2" d="M580.68,810.47a30.35,30.35,0,0,1,14.39,3.46v4.4a25.83,25.83,0,0,0-13.73-3.75c-11.23,0-23,7.27-23,22.91-.08,14.83,12,21.87,23.19,21.87a25.79,25.79,0,0,0,14-3.74V860a31.36,31.36,0,0,1-14.91,3.52c-12.84,0-26.79-8.73-26.72-26C554,819.57,567.54,810.47,580.68,810.47Z"/><path class="cls-2" d="M611.25,862.66l22.91-51.38h4.91l22.83,51.38h-4.7l-6.09-13.79h-29L616,862.66Zm12.55-17.91h25.54l-12.11-27.38c-.21-.58-.44-1.1-.65-1.62-.23.52-.44,1-.67,1.62Zm12.7-38.9a15.53,15.53,0,0,1-9.76-3v-4.19a15.38,15.38,0,0,0,9.76,3.23,15.59,15.59,0,0,0,9.84-3.23v4.19A15.76,15.76,0,0,1,636.5,805.85Z"/><path class="cls-2" d="M723.54,862.66l-21.8-51.38h4.7l19.3,46.46,19.38-46.46h4.7L728,862.66Z"/><path class="cls-2" d="M760.27,862.66l22.9-51.38h4.92l22.82,51.38h-4.69l-6.09-13.79h-29L765,862.66Zm12.55-17.91h25.54l-12.11-27.38c-.22-.58-.44-1.1-.66-1.62-.22.52-.43,1-.66,1.62Z"/><path class="cls-2" d="M830.93,862.66V811.28h19.75c8.94,0,18.79,3.81,18.79,15.27,0,9.83-7.34,14-14.83,15l18.27,21.14h-5.42l-17.92-20.77H835.26v20.77Zm4.4-25H851c6.76,0,14.1-2.56,14.1-11.15s-7.34-11.09-14.1-11.09H835.33Z"/><path class="cls-2" d="M897.9,811.28v51.38h-4.33V811.28Z"/><path class="cls-2" d="M917.81,862.66l22.91-51.38h4.91l22.83,51.38h-4.7l-6.09-13.79h-29l-6.17,13.79Zm12.55-17.91h25.55l-12.12-27.38c-.21-.58-.43-1.1-.65-1.62-.22.52-.44,1-.66,1.62Z"/><path class="cls-2" d="M988.47,862.66V811.28h4l33.7,44v-44h4.33v51.38h-4l-33.69-44v44Z"/><path class="cls-2" d="M1092.53,811.28v4.18h-18.8v47.2h-4.33v-47.2h-18.79v-4.18Z"/><path class="cls-2" d="M1146.8,811.28v4.18H1117V834.7h27.61v4.18H1117v19.6h30.33v4.18h-34.66V811.28Z"/><path class="cls-2" d="M1235.22,811.28v4.18h-29.8V834.7H1233v4.18h-27.61v19.6h30.32v4.18h-34.65V811.28Z"/><path class="cls-2" d="M1252,862.66l20-26.43-18.94-25h5.21l16.37,21.51L1291,811.28h5.14l-18.93,25,20,26.43h-5.13l-17.48-23-17.47,23Z"/><path class="cls-2" d="M1321.17,811.28v51.38h-4.33V811.28Z"/><path class="cls-2" d="M1361.2,810.47a31.73,31.73,0,0,1,15.13,3.6v4.4a29.48,29.48,0,0,0-14.83-3.89c-7,0-12.85,2.5-12.85,8.81,0,14.38,31.27,8.3,31.27,26.79,0,9.69-8.73,13.36-18.2,13.29a36.47,36.47,0,0,1-17.54-4.33v-4.33a34.28,34.28,0,0,0,17.25,4.55c7.55,0,14.09-2.27,14.09-8.88,0-15.2-31.27-9-31.27-26.94C1344.25,814.58,1352.47,810.47,1361.2,810.47Z"/><path class="cls-2" d="M1437.14,811.28v4.18h-18.79v47.2H1414v-47.2h-18.79v-4.18Z"/><path class="cls-2" d="M1444.94,862.66l22.91-51.38h4.91l22.83,51.38h-4.7l-6.09-13.79h-29l-6.17,13.79Zm12.55-17.91H1483l-12.12-27.38c-.21-.58-.44-1.1-.65-1.62-.23.52-.44,1-.66,1.62Zm12.71-38.9a15.58,15.58,0,0,1-9.77-3v-4.19a15.4,15.4,0,0,0,9.77,3.23,15.58,15.58,0,0,0,9.83-3.23v4.19A15.75,15.75,0,0,1,1470.2,805.85Z"/><path class="cls-2" d="M1516.41,863.26a2.8,2.8,0,1,1,2.87-2.8A2.67,2.67,0,0,1,1516.41,863.26Zm-1.83-14.47-.37-37.51h4.33l-.3,37.51Z"/></svg>